<svg xmlns="http://www.w3.org/2000/svg" xmlns:xlink="http://www.w3.org/1999/xlink" width="0" zoomAndPan="magnify" viewBox="0 0 375 374.999991" height="90" preserveAspectRatio="xMidYMid meet" version="1.0"><defs><g/></defs><g fill="#fefefe" fill-opacity="1"><g transform="translate(266.813048, 192.551667)"><g><path d="M 2.53125 -3.546875 C 2.582031 -3.640625 2.660156 -3.703125 2.765625 -3.734375 C 2.867188 -3.773438 2.976562 -3.785156 3.09375 -3.765625 L 3.796875 -3.546875 C 3.910156 -3.515625 4.003906 -3.484375 4.078125 -3.453125 C 4.160156 -3.429688 4.238281 -3.398438 4.3125 -3.359375 L 4.328125 -3.359375 C 4.441406 -3.273438 4.515625 -3.15625 4.546875 -3 C 4.578125 -2.851562 4.554688 -2.71875 4.484375 -2.59375 L 2.28125 0.859375 C 2.207031 0.984375 2.09375 1.0625 1.9375 1.09375 C 1.78125 1.132812 1.644531 1.113281 1.53125 1.03125 C 1.394531 0.945312 1.3125 0.828125 1.28125 0.671875 C 1.25 0.523438 1.269531 0.390625 1.34375 0.265625 L 3.234375 -2.703125 L 2.84375 -2.8125 C 2.820312 -2.8125 2.789062 -2.816406 2.75 -2.828125 C 2.71875 -2.847656 2.691406 -2.867188 2.671875 -2.890625 C 2.554688 -2.960938 2.484375 -3.0625 2.453125 -3.1875 C 2.429688 -3.3125 2.457031 -3.429688 2.53125 -3.546875 Z M 2.53125 -3.546875 "/></g></g></g><g fill="#fefefe" fill-opacity="1"><g transform="translate(270.521396, 194.88544)"><g><path d="M 1.859375 -2.8125 L 1.859375 -2.828125 C 1.972656 -3.066406 2.117188 -3.257812 2.296875 -3.40625 C 2.484375 -3.550781 2.691406 -3.660156 2.921875 -3.734375 C 3.148438 -3.804688 3.382812 -3.828125 3.625 -3.796875 C 3.875 -3.773438 4.128906 -3.695312 4.390625 -3.5625 C 4.722656 -3.394531 4.976562 -3.195312 5.15625 -2.96875 C 5.34375 -2.738281 5.457031 -2.488281 5.5 -2.21875 C 5.550781 -1.945312 5.539062 -1.660156 5.46875 -1.359375 C 5.40625 -1.054688 5.296875 -0.75 5.140625 -0.4375 L 5.125 -0.421875 C 4.945312 -0.0546875 4.738281 0.25 4.5 0.5 C 4.257812 0.757812 4 0.957031 3.71875 1.09375 C 3.445312 1.226562 3.160156 1.296875 2.859375 1.296875 C 2.554688 1.296875 2.238281 1.210938 1.90625 1.046875 C 1.644531 0.921875 1.4375 0.785156 1.28125 0.640625 C 1.125 0.492188 0.988281 0.320312 0.875 0.125 C 0.832031 0.0507812 0.804688 -0.0234375 0.796875 -0.109375 C 0.785156 -0.203125 0.804688 -0.296875 0.859375 -0.390625 C 0.921875 -0.523438 1.015625 -0.613281 1.140625 -0.65625 C 1.273438 -0.695312 1.410156 -0.679688 1.546875 -0.609375 C 1.585938 -0.585938 1.628906 -0.554688 1.671875 -0.515625 C 1.710938 -0.484375 1.75 -0.445312 1.78125 -0.40625 C 1.84375 -0.28125 1.921875 -0.171875 2.015625 -0.078125 C 2.117188 0.00390625 2.242188 0.0820312 2.390625 0.15625 C 2.671875 0.300781 2.9375 0.3125 3.1875 0.1875 C 3.4375 0.0703125 3.644531 -0.128906 3.8125 -0.421875 C 3.664062 -0.378906 3.5 -0.363281 3.3125 -0.375 C 3.132812 -0.394531 2.945312 -0.457031 2.75 -0.5625 C 2.5 -0.6875 2.289062 -0.828125 2.125 -0.984375 C 1.96875 -1.148438 1.847656 -1.332031 1.765625 -1.53125 C 1.691406 -1.726562 1.660156 -1.9375 1.671875 -2.15625 C 1.679688 -2.375 1.742188 -2.59375 1.859375 -2.8125 Z M 2.890625 -2.390625 C 2.773438 -2.171875 2.757812 -1.960938 2.84375 -1.765625 C 2.925781 -1.578125 3.085938 -1.425781 3.328125 -1.3125 C 3.578125 -1.1875 3.800781 -1.148438 4 -1.203125 C 4.195312 -1.265625 4.34375 -1.394531 4.4375 -1.59375 L 4.453125 -1.609375 C 4.546875 -1.816406 4.554688 -2.019531 4.484375 -2.21875 C 4.410156 -2.414062 4.25 -2.578125 4 -2.703125 C 3.75 -2.828125 3.523438 -2.859375 3.328125 -2.796875 C 3.140625 -2.742188 2.992188 -2.609375 2.890625 -2.390625 Z M 2.890625 -2.390625 "/></g></g></g><g fill="#fefefe" fill-opacity="1"><g transform="translate(276.066933, 197.546603)"><g><path d="M 0.921875 -0.8125 L 2.6875 -1.453125 C 2.882812 -1.515625 3.046875 -1.578125 3.171875 -1.640625 C 3.304688 -1.703125 3.425781 -1.765625 3.53125 -1.828125 C 3.632812 -1.890625 3.710938 -1.957031 3.765625 -2.03125 C 3.828125 -2.113281 3.878906 -2.203125 3.921875 -2.296875 C 3.992188 -2.503906 3.988281 -2.679688 3.90625 -2.828125 C 3.832031 -2.972656 3.695312 -3.082031 3.5 -3.15625 C 3.351562 -3.207031 3.207031 -3.21875 3.0625 -3.1875 C 2.925781 -3.15625 2.757812 -3.097656 2.5625 -3.015625 C 2.519531 -2.992188 2.460938 -2.972656 2.390625 -2.953125 C 2.328125 -2.941406 2.25 -2.953125 2.15625 -2.984375 C 2.03125 -3.023438 1.9375 -3.109375 1.875 -3.234375 C 1.8125 -3.367188 1.804688 -3.503906 1.859375 -3.640625 C 1.898438 -3.753906 1.976562 -3.847656 2.09375 -3.921875 C 2.363281 -4.066406 2.640625 -4.160156 2.921875 -4.203125 C 3.210938 -4.242188 3.535156 -4.195312 3.890625 -4.0625 C 4.140625 -3.976562 4.351562 -3.863281 4.53125 -3.71875 C 4.707031 -3.570312 4.84375 -3.410156 4.9375 -3.234375 C 5.039062 -3.054688 5.097656 -2.859375 5.109375 -2.640625 C 5.117188 -2.429688 5.085938 -2.222656 5.015625 -2.015625 L 5 -2 C 4.925781 -1.789062 4.835938 -1.617188 4.734375 -1.484375 C 4.640625 -1.347656 4.515625 -1.226562 4.359375 -1.125 C 4.203125 -1.019531 4.019531 -0.925781 3.8125 -0.84375 C 3.613281 -0.757812 3.375 -0.675781 3.09375 -0.59375 L 2.109375 -0.265625 L 3.765625 0.3125 C 3.898438 0.363281 3.992188 0.445312 4.046875 0.5625 C 4.109375 0.6875 4.113281 0.8125 4.0625 0.9375 C 4.019531 1.0625 3.9375 1.148438 3.8125 1.203125 C 3.695312 1.265625 3.570312 1.269531 3.4375 1.21875 L 0.859375 0.296875 C 0.703125 0.242188 0.582031 0.15625 0.5 0.03125 C 0.425781 -0.09375 0.414062 -0.234375 0.46875 -0.390625 C 0.539062 -0.597656 0.691406 -0.738281 0.921875 -0.8125 Z M 0.921875 -0.8125 "/></g></g></g><g fill="#fefefe" fill-opacity="1"><g transform="translate(281.616858, 199.439134)"><g><path d="M 1.21875 -1.109375 C 1.289062 -1.097656 1.34375 -1.078125 1.375 -1.046875 C 1.414062 -1.015625 1.460938 -0.976562 1.515625 -0.9375 C 1.628906 -0.789062 1.753906 -0.675781 1.890625 -0.59375 C 2.035156 -0.507812 2.191406 -0.445312 2.359375 -0.40625 C 2.597656 -0.351562 2.800781 -0.367188 2.96875 -0.453125 C 3.144531 -0.535156 3.257812 -0.6875 3.3125 -0.90625 L 3.3125 -0.921875 C 3.363281 -1.140625 3.320312 -1.320312 3.1875 -1.46875 C 3.0625 -1.625 2.867188 -1.734375 2.609375 -1.796875 C 2.503906 -1.816406 2.410156 -1.828125 2.328125 -1.828125 C 2.242188 -1.828125 2.171875 -1.828125 2.109375 -1.828125 C 2.046875 -1.835938 1.992188 -1.835938 1.953125 -1.828125 C 1.910156 -1.828125 1.867188 -1.828125 1.828125 -1.828125 C 1.742188 -1.847656 1.671875 -1.878906 1.609375 -1.921875 C 1.546875 -1.972656 1.472656 -2.054688 1.390625 -2.171875 C 1.265625 -2.304688 1.234375 -2.460938 1.296875 -2.640625 L 1.765625 -4.3125 C 1.804688 -4.4375 1.878906 -4.53125 1.984375 -4.59375 C 2.097656 -4.664062 2.222656 -4.6875 2.359375 -4.65625 L 4.484375 -4.171875 C 4.617188 -4.140625 4.722656 -4.066406 4.796875 -3.953125 C 4.878906 -3.835938 4.90625 -3.71875 4.875 -3.59375 C 4.84375 -3.457031 4.765625 -3.351562 4.640625 -3.28125 C 4.523438 -3.207031 4.398438 -3.1875 4.265625 -3.21875 L 2.609375 -3.59375 L 2.359375 -2.765625 C 2.460938 -2.765625 2.566406 -2.757812 2.671875 -2.75 C 2.785156 -2.738281 2.90625 -2.71875 3.03125 -2.6875 C 3.28125 -2.632812 3.5 -2.550781 3.6875 -2.4375 C 3.882812 -2.332031 4.046875 -2.195312 4.171875 -2.03125 C 4.304688 -1.875 4.390625 -1.6875 4.421875 -1.46875 C 4.460938 -1.25 4.453125 -0.992188 4.390625 -0.703125 L 4.390625 -0.6875 C 4.328125 -0.4375 4.226562 -0.210938 4.09375 -0.015625 C 3.96875 0.171875 3.804688 0.316406 3.609375 0.421875 C 3.410156 0.535156 3.1875 0.609375 2.9375 0.640625 C 2.695312 0.671875 2.441406 0.65625 2.171875 0.59375 C 1.828125 0.507812 1.539062 0.394531 1.3125 0.25 C 1.09375 0.101562 0.898438 -0.0546875 0.734375 -0.234375 C 0.671875 -0.296875 0.625 -0.363281 0.59375 -0.4375 C 0.570312 -0.519531 0.570312 -0.609375 0.59375 -0.703125 C 0.625 -0.835938 0.703125 -0.945312 0.828125 -1.03125 C 0.953125 -1.125 1.082031 -1.148438 1.21875 -1.109375 Z M 1.21875 -1.109375 "/></g></g></g><g fill="#fefefe" fill-opacity="1"><g transform="translate(287.34957, 200.626818)"><g/></g></g><g fill="#fefefe" fill-opacity="1"><g transform="translate(290.755092, 201.041915)"><g><path d="M 0.4375 -2.234375 C 0.445312 -2.367188 0.503906 -2.484375 0.609375 -2.578125 C 0.722656 -2.679688 0.851562 -2.726562 1 -2.71875 L 2.265625 -2.65625 C 2.410156 -2.644531 2.53125 -2.582031 2.625 -2.46875 C 2.726562 -2.363281 2.773438 -2.242188 2.765625 -2.109375 C 2.753906 -1.960938 2.691406 -1.835938 2.578125 -1.734375 C 2.472656 -1.640625 2.347656 -1.597656 2.203125 -1.609375 L 0.9375 -1.671875 C 0.789062 -1.679688 0.664062 -1.738281 0.5625 -1.84375 C 0.46875 -1.957031 0.425781 -2.085938 0.4375 -2.234375 Z M 0.4375 -2.234375 "/></g></g></g><g fill="#fefefe" fill-opacity="1"><g transform="translate(294.962819, 201.208548)"><g/></g></g><g fill="#fefefe" fill-opacity="1"><g transform="translate(298.432255, 201.126613)"><g><path d="M 0.46875 -1.140625 L 1.765625 -2.484375 C 1.910156 -2.628906 2.03125 -2.757812 2.125 -2.875 C 2.226562 -2.988281 2.3125 -3.097656 2.375 -3.203125 C 2.4375 -3.304688 2.476562 -3.40625 2.5 -3.5 C 2.519531 -3.59375 2.519531 -3.691406 2.5 -3.796875 C 2.476562 -4.003906 2.398438 -4.15625 2.265625 -4.25 C 2.128906 -4.351562 1.957031 -4.390625 1.75 -4.359375 C 1.59375 -4.347656 1.457031 -4.296875 1.34375 -4.203125 C 1.226562 -4.117188 1.101562 -3.992188 0.96875 -3.828125 C 0.9375 -3.785156 0.894531 -3.742188 0.84375 -3.703125 C 0.789062 -3.671875 0.71875 -3.648438 0.625 -3.640625 C 0.488281 -3.617188 0.363281 -3.648438 0.25 -3.734375 C 0.144531 -3.816406 0.0820312 -3.929688 0.0625 -4.078125 C 0.0507812 -4.203125 0.0820312 -4.320312 0.15625 -4.4375 C 0.332031 -4.695312 0.535156 -4.90625 0.765625 -5.0625 C 1.003906 -5.226562 1.316406 -5.332031 1.703125 -5.375 C 1.960938 -5.40625 2.203125 -5.390625 2.421875 -5.328125 C 2.648438 -5.273438 2.84375 -5.191406 3 -5.078125 C 3.164062 -4.960938 3.300781 -4.8125 3.40625 -4.625 C 3.507812 -4.445312 3.578125 -4.242188 3.609375 -4.015625 C 3.628906 -3.796875 3.625 -3.597656 3.59375 -3.421875 C 3.5625 -3.242188 3.5 -3.078125 3.40625 -2.921875 C 3.320312 -2.765625 3.203125 -2.601562 3.046875 -2.4375 C 2.898438 -2.269531 2.722656 -2.085938 2.515625 -1.890625 L 1.765625 -1.1875 L 3.515625 -1.390625 C 3.648438 -1.398438 3.769531 -1.363281 3.875 -1.28125 C 3.976562 -1.195312 4.035156 -1.085938 4.046875 -0.953125 C 4.066406 -0.816406 4.035156 -0.695312 3.953125 -0.59375 C 3.867188 -0.488281 3.757812 -0.429688 3.625 -0.421875 L 0.90625 -0.109375 C 0.738281 -0.0859375 0.59375 -0.113281 0.46875 -0.1875 C 0.34375 -0.269531 0.269531 -0.394531 0.25 -0.5625 C 0.226562 -0.78125 0.300781 -0.972656 0.46875 -1.140625 Z M 0.46875 -1.140625 "/></g></g></g><g fill="#fefefe" fill-opacity="1"><g transform="translate(304.269163, 200.392201)"><g><path d="M 1.34375 -5.640625 C 1.664062 -5.722656 1.976562 -5.726562 2.28125 -5.65625 C 2.59375 -5.59375 2.867188 -5.46875 3.109375 -5.28125 C 3.347656 -5.101562 3.554688 -4.875 3.734375 -4.59375 C 3.921875 -4.3125 4.054688 -3.988281 4.140625 -3.625 L 4.15625 -3.609375 C 4.238281 -3.253906 4.265625 -2.910156 4.234375 -2.578125 C 4.203125 -2.242188 4.117188 -1.9375 3.984375 -1.65625 C 3.847656 -1.375 3.660156 -1.132812 3.421875 -0.9375 C 3.179688 -0.75 2.898438 -0.613281 2.578125 -0.53125 C 2.242188 -0.445312 1.925781 -0.4375 1.625 -0.5 C 1.332031 -0.570312 1.0625 -0.695312 0.8125 -0.875 C 0.570312 -1.0625 0.359375 -1.296875 0.171875 -1.578125 C -0.00390625 -1.859375 -0.132812 -2.175781 -0.21875 -2.53125 L -0.21875 -2.546875 C -0.3125 -2.898438 -0.335938 -3.242188 -0.296875 -3.578125 C -0.265625 -3.921875 -0.179688 -4.226562 -0.046875 -4.5 C 0.0859375 -4.78125 0.269531 -5.019531 0.5 -5.21875 C 0.738281 -5.425781 1.019531 -5.566406 1.34375 -5.640625 Z M 2.34375 -1.515625 C 2.519531 -1.554688 2.660156 -1.628906 2.765625 -1.734375 C 2.878906 -1.847656 2.960938 -1.984375 3.015625 -2.140625 C 3.078125 -2.304688 3.109375 -2.488281 3.109375 -2.6875 C 3.117188 -2.894531 3.097656 -3.109375 3.046875 -3.328125 L 3.046875 -3.34375 C 2.984375 -3.570312 2.898438 -3.773438 2.796875 -3.953125 C 2.703125 -4.140625 2.59375 -4.289062 2.46875 -4.40625 C 2.34375 -4.519531 2.203125 -4.597656 2.046875 -4.640625 C 1.898438 -4.679688 1.742188 -4.679688 1.578125 -4.640625 C 1.421875 -4.597656 1.28125 -4.523438 1.15625 -4.421875 C 1.039062 -4.316406 0.953125 -4.1875 0.890625 -4.03125 C 0.835938 -3.875 0.804688 -3.691406 0.796875 -3.484375 C 0.796875 -3.273438 0.820312 -3.054688 0.875 -2.828125 L 0.890625 -2.8125 C 0.941406 -2.59375 1.015625 -2.394531 1.109375 -2.21875 C 1.210938 -2.039062 1.328125 -1.894531 1.453125 -1.78125 C 1.578125 -1.664062 1.71875 -1.582031 1.875 -1.53125 C 2.03125 -1.476562 2.1875 -1.472656 2.34375 -1.515625 Z M 2.34375 -1.515625 "/></g></g></g><g fill="#fefefe" fill-opacity="1"><g transform="translate(310.705911, 198.704253)"><g><path d="M 0.15625 -1.21875 L 1.09375 -2.84375 C 1.195312 -3.019531 1.28125 -3.175781 1.34375 -3.3125 C 1.414062 -3.445312 1.46875 -3.570312 1.5 -3.6875 C 1.53125 -3.800781 1.546875 -3.90625 1.546875 -4 C 1.546875 -4.101562 1.523438 -4.203125 1.484375 -4.296875 C 1.410156 -4.503906 1.289062 -4.632812 1.125 -4.6875 C 0.96875 -4.75 0.796875 -4.742188 0.609375 -4.671875 C 0.460938 -4.617188 0.34375 -4.535156 0.25 -4.421875 C 0.164062 -4.304688 0.078125 -4.148438 -0.015625 -3.953125 C -0.0234375 -3.910156 -0.0507812 -3.859375 -0.09375 -3.796875 C -0.144531 -3.742188 -0.210938 -3.703125 -0.296875 -3.671875 C -0.421875 -3.617188 -0.546875 -3.617188 -0.671875 -3.671875 C -0.804688 -3.734375 -0.898438 -3.832031 -0.953125 -3.96875 C -0.992188 -4.082031 -0.992188 -4.203125 -0.953125 -4.328125 C -0.847656 -4.628906 -0.695312 -4.882812 -0.5 -5.09375 C -0.3125 -5.3125 -0.0390625 -5.488281 0.3125 -5.625 C 0.5625 -5.71875 0.800781 -5.765625 1.03125 -5.765625 C 1.257812 -5.765625 1.46875 -5.726562 1.65625 -5.65625 C 1.84375 -5.59375 2.007812 -5.484375 2.15625 -5.328125 C 2.300781 -5.179688 2.414062 -5.003906 2.5 -4.796875 L 2.515625 -4.78125 C 2.585938 -4.570312 2.628906 -4.378906 2.640625 -4.203125 C 2.648438 -4.023438 2.628906 -3.847656 2.578125 -3.671875 C 2.523438 -3.492188 2.445312 -3.304688 2.34375 -3.109375 C 2.238281 -2.921875 2.117188 -2.703125 1.984375 -2.453125 L 1.421875 -1.578125 L 3.078125 -2.21875 C 3.203125 -2.257812 3.320312 -2.253906 3.4375 -2.203125 C 3.5625 -2.148438 3.648438 -2.0625 3.703125 -1.9375 C 3.753906 -1.8125 3.75 -1.6875 3.6875 -1.5625 C 3.632812 -1.4375 3.546875 -1.351562 3.421875 -1.3125 L 0.84375 -0.328125 C 0.6875 -0.265625 0.539062 -0.253906 0.40625 -0.296875 C 0.269531 -0.347656 0.171875 -0.453125 0.109375 -0.609375 C 0.0234375 -0.804688 0.0390625 -1.007812 0.15625 -1.21875 Z M 0.15625 -1.21875 "/></g></g></g><g fill="#fefefe" fill-opacity="1"><g transform="translate(316.154098, 196.53617)"><g><path d="M 0.21875 -1.640625 C 0.28125 -1.679688 0.332031 -1.703125 0.375 -1.703125 C 0.414062 -1.703125 0.472656 -1.703125 0.546875 -1.703125 C 0.722656 -1.660156 0.894531 -1.648438 1.0625 -1.671875 C 1.226562 -1.703125 1.390625 -1.757812 1.546875 -1.84375 C 1.753906 -1.957031 1.894531 -2.101562 1.96875 -2.28125 C 2.050781 -2.457031 2.039062 -2.644531 1.9375 -2.84375 L 1.921875 -2.859375 C 1.816406 -3.054688 1.664062 -3.171875 1.46875 -3.203125 C 1.269531 -3.234375 1.050781 -3.1875 0.8125 -3.0625 C 0.71875 -3.007812 0.640625 -2.957031 0.578125 -2.90625 C 0.515625 -2.851562 0.457031 -2.804688 0.40625 -2.765625 C 0.363281 -2.734375 0.328125 -2.703125 0.296875 -2.671875 C 0.265625 -2.640625 0.234375 -2.613281 0.203125 -2.59375 C 0.128906 -2.550781 0.0507812 -2.523438 -0.03125 -2.515625 C -0.113281 -2.515625 -0.21875 -2.523438 -0.34375 -2.546875 C -0.539062 -2.566406 -0.671875 -2.671875 -0.734375 -2.859375 L -1.46875 -4.421875 C -1.519531 -4.546875 -1.519531 -4.671875 -1.46875 -4.796875 C -1.425781 -4.921875 -1.34375 -5.015625 -1.21875 -5.078125 L 0.71875 -6.09375 C 0.832031 -6.15625 0.953125 -6.164062 1.078125 -6.125 C 1.210938 -6.082031 1.3125 -6 1.375 -5.875 C 1.4375 -5.757812 1.441406 -5.640625 1.390625 -5.515625 C 1.347656 -5.390625 1.269531 -5.296875 1.15625 -5.234375 L -0.359375 -4.4375 L 0 -3.625 C 0.0820312 -3.695312 0.164062 -3.765625 0.25 -3.828125 C 0.332031 -3.890625 0.4375 -3.953125 0.5625 -4.015625 C 0.78125 -4.128906 1 -4.207031 1.21875 -4.25 C 1.4375 -4.289062 1.644531 -4.289062 1.84375 -4.25 C 2.050781 -4.21875 2.238281 -4.132812 2.40625 -4 C 2.582031 -3.863281 2.738281 -3.664062 2.875 -3.40625 L 2.890625 -3.390625 C 3.003906 -3.160156 3.070312 -2.925781 3.09375 -2.6875 C 3.125 -2.457031 3.097656 -2.234375 3.015625 -2.015625 C 2.929688 -1.804688 2.804688 -1.609375 2.640625 -1.421875 C 2.484375 -1.242188 2.285156 -1.09375 2.046875 -0.96875 C 1.722656 -0.800781 1.425781 -0.703125 1.15625 -0.671875 C 0.894531 -0.640625 0.640625 -0.632812 0.390625 -0.65625 C 0.304688 -0.664062 0.226562 -0.691406 0.15625 -0.734375 C 0.09375 -0.773438 0.0390625 -0.835938 0 -0.921875 C -0.0703125 -1.046875 -0.0820312 -1.179688 -0.03125 -1.328125 C 0.0078125 -1.472656 0.09375 -1.578125 0.21875 -1.640625 Z M 0.21875 -1.640625 "/></g></g></g><g fill="#fefefe" fill-opacity="1"><g transform="translate(321.284286, 193.716091)"><g/></g></g><g fill="#ffffff" fill-opacity="1"><g transform="translate(4.232984, 196.741737)"><g><path d="M 14.75 9.734375 C 13.332031 10.203125 11.660156 10.4375 9.734375 10.4375 C 9.210938 10.4375 8.664062 10.410156 8.09375 10.359375 C 6.164062 10.253906 4.628906 9.550781 3.484375 8.25 C 2.335938 6.96875 1.90625 5.457031 2.1875 3.71875 C 2.394531 2.4375 2.835938 1.351562 3.515625 0.46875 C 4.191406 -0.414062 4.894531 -1.1875 5.625 -1.84375 C 7.21875 -3.25 8.984375 -4.425781 10.921875 -5.375 C 12.867188 -6.332031 14.832031 -7.226562 16.8125 -8.0625 L 17.828125 -8.484375 C 18.140625 -8.617188 18.445312 -8.75 18.75 -8.875 C 19.050781 -9.007812 19.347656 -9.15625 19.640625 -9.3125 L 20.03125 -9.5 C 20.207031 -9.601562 20.398438 -9.710938 20.609375 -9.828125 C 20.816406 -9.953125 21 -10.09375 21.15625 -10.25 C 21.1875 -10.269531 21.253906 -10.351562 21.359375 -10.5 C 21.460938 -10.644531 21.5 -10.796875 21.46875 -10.953125 L 21.46875 -10.984375 L 21.359375 -11.140625 C 21.273438 -11.222656 21.144531 -11.265625 20.96875 -11.265625 C 20.914062 -11.265625 20.847656 -11.25 20.765625 -11.21875 C 20.816406 -11.25 20.867188 -11.269531 20.921875 -11.28125 C 20.972656 -11.289062 21.023438 -11.296875 21.078125 -11.296875 C 21.210938 -11.328125 21.335938 -11.351562 21.453125 -11.375 C 21.566406 -11.40625 21.675781 -11.421875 21.78125 -11.421875 C 22.144531 -11.421875 22.421875 -11.265625 22.609375 -10.953125 C 22.765625 -10.691406 22.769531 -10.457031 22.625 -10.25 C 22.476562 -10.039062 22.265625 -9.832031 21.984375 -9.625 L 21.828125 -9.5 C 21.148438 -8.957031 20.414062 -8.484375 19.625 -8.078125 C 18.84375 -7.671875 18.050781 -7.273438 17.25 -6.890625 C 16.988281 -6.753906 16.71875 -6.617188 16.4375 -6.484375 C 16.164062 -6.359375 15.890625 -6.226562 15.609375 -6.09375 C 13.910156 -5.207031 12.226562 -4.273438 10.5625 -3.296875 C 8.894531 -2.328125 7.394531 -1.148438 6.0625 0.234375 C 4.882812 1.484375 4.140625 2.757812 3.828125 4.0625 C 3.460938 5.46875 3.695312 6.679688 4.53125 7.703125 C 5.363281 8.742188 6.601562 9.332031 8.25 9.46875 C 8.851562 9.519531 9.441406 9.546875 10.015625 9.546875 C 13.140625 9.546875 16.304688 8.773438 19.515625 7.234375 C 25.203125 4.523438 30.535156 0.535156 35.515625 -4.734375 L 35.671875 -4.890625 C 35.773438 -5.015625 35.890625 -5.140625 36.015625 -5.265625 C 36.148438 -5.398438 36.28125 -5.519531 36.40625 -5.625 C 36.457031 -5.65625 36.519531 -5.695312 36.59375 -5.75 C 36.675781 -5.800781 36.742188 -5.828125 36.796875 -5.828125 C 36.878906 -5.691406 36.878906 -5.550781 36.796875 -5.40625 C 36.722656 -5.269531 36.660156 -5.160156 36.609375 -5.078125 C 35.046875 -3.492188 33.554688 -2.039062 32.140625 -0.71875 C 30.734375 0.59375 29.265625 1.8125 27.734375 2.9375 C 24.285156 5.488281 20.6875 7.492188 16.9375 8.953125 C 16.226562 9.210938 15.5 9.472656 14.75 9.734375 Z M 12.828125 -9.109375 C 12.222656 -8.953125 11.609375 -8.875 10.984375 -8.875 C 10.304688 -8.875 9.628906 -8.96875 8.953125 -9.15625 C 7.703125 -9.46875 6.789062 -10 6.21875 -10.75 C 5.664062 -11.507812 5.46875 -12.4375 5.625 -13.53125 C 5.863281 -15.144531 6.675781 -16.671875 8.0625 -18.109375 C 12.570312 -22.796875 17.757812 -25.753906 23.625 -26.984375 C 23.695312 -26.984375 23.785156 -27 23.890625 -27.03125 C 23.972656 -27.050781 24.046875 -27.066406 24.109375 -27.078125 C 24.171875 -27.097656 24.242188 -27.117188 24.328125 -27.140625 C 24.847656 -27.191406 25.34375 -27.21875 25.8125 -27.21875 C 27.945312 -27.21875 29.613281 -26.59375 30.8125 -25.34375 C 32.144531 -23.957031 32.664062 -22 32.375 -19.46875 C 32.195312 -17.800781 31.832031 -16.488281 31.28125 -15.53125 C 31.070312 -15.164062 30.828125 -14.984375 30.546875 -14.984375 C 30.390625 -14.984375 30.21875 -15.035156 30.03125 -15.140625 C 29.457031 -15.453125 29.289062 -15.921875 29.53125 -16.546875 C 29.601562 -16.773438 29.6875 -17 29.78125 -17.21875 C 29.875 -17.445312 29.957031 -17.675781 30.03125 -17.90625 C 30.21875 -18.375 30.394531 -18.84375 30.5625 -19.3125 C 30.726562 -19.789062 30.878906 -20.273438 31.015625 -20.765625 C 31.378906 -22.460938 31.117188 -23.804688 30.234375 -24.796875 C 29.367188 -25.765625 28.023438 -26.25 26.203125 -26.25 L 26 -26.25 C 24.800781 -26.25 23.5 -25.984375 22.09375 -25.453125 C 16.101562 -23.242188 11.554688 -19.816406 8.453125 -15.171875 L 8.171875 -14.828125 C 7.941406 -14.484375 7.726562 -14.128906 7.53125 -13.765625 C 7.332031 -13.398438 7.234375 -13.007812 7.234375 -12.59375 C 7.234375 -12.175781 7.414062 -11.734375 7.78125 -11.265625 C 8.59375 -10.328125 9.738281 -9.859375 11.21875 -9.859375 C 11.507812 -9.859375 11.789062 -9.867188 12.0625 -9.890625 C 12.332031 -9.921875 12.585938 -9.945312 12.828125 -9.96875 C 13.554688 -10.070312 14.285156 -10.179688 15.015625 -10.296875 C 15.742188 -10.421875 16.472656 -10.535156 17.203125 -10.640625 C 17.753906 -10.742188 18.3125 -10.835938 18.875 -10.921875 C 19.4375 -11.015625 19.988281 -11.113281 20.53125 -11.21875 C 20.507812 -11.195312 20.484375 -11.1875 20.453125 -11.1875 C 20.273438 -11.15625 20.113281 -11.117188 19.96875 -11.078125 C 19.820312 -11.046875 19.671875 -11.003906 19.515625 -10.953125 C 19.515625 -10.953125 19.375 -10.90625 19.09375 -10.8125 C 18.820312 -10.71875 18.609375 -10.644531 18.453125 -10.59375 C 18.242188 -10.539062 18.035156 -10.484375 17.828125 -10.421875 C 17.617188 -10.359375 17.398438 -10.285156 17.171875 -10.203125 C 16.460938 -10.023438 15.742188 -9.84375 15.015625 -9.65625 C 14.285156 -9.476562 13.554688 -9.296875 12.828125 -9.109375 Z M 12.828125 -9.109375 "/></g></g></g><g fill="#ffffff" fill-opacity="1"><g transform="translate(40.054392, 196.741737)"><g><path d="M 23.8125 -26.09375 C 24.257812 -25.800781 24.488281 -25.453125 24.5 -25.046875 C 24.507812 -24.640625 24.488281 -24.242188 24.4375 -23.859375 C 24.175781 -22.316406 23.664062 -20.945312 22.90625 -19.75 C 22.15625 -18.550781 21.328125 -17.378906 20.421875 -16.234375 C 18.378906 -13.773438 15.753906 -11.101562 12.546875 -8.21875 C 11.765625 -7.507812 11.21875 -6.710938 10.90625 -5.828125 C 10.382812 -4.492188 9.863281 -3.050781 9.34375 -1.5 C 8.820312 0.0507812 8.398438 1.695312 8.078125 3.4375 C 7.753906 5.1875 7.644531 7.015625 7.75 8.921875 C 7.75 8.992188 7.753906 9.066406 7.765625 9.140625 C 7.773438 9.222656 7.78125 9.304688 7.78125 9.390625 C 7.78125 9.753906 7.804688 10.128906 7.859375 10.515625 C 7.910156 10.910156 8.109375 11.289062 8.453125 11.65625 C 8.660156 11.882812 8.765625 12.078125 8.765625 12.234375 C 8.765625 12.335938 8.671875 12.429688 8.484375 12.515625 C 8.378906 12.566406 8.273438 12.59375 8.171875 12.59375 C 7.835938 12.59375 7.566406 12.394531 7.359375 12 C 7.203125 11.632812 7.085938 11.265625 7.015625 10.890625 C 6.953125 10.515625 6.921875 10.15625 6.921875 9.8125 C 6.816406 7.175781 7.019531 4.722656 7.53125 2.453125 C 8.039062 0.191406 8.582031 -1.796875 9.15625 -3.515625 C 9.15625 -3.546875 9.179688 -3.613281 9.234375 -3.71875 C 9.304688 -3.820312 9.363281 -3.929688 9.40625 -4.046875 C 9.445312 -4.160156 9.441406 -4.269531 9.390625 -4.375 C 9.304688 -4.53125 9.1875 -4.625 9.03125 -4.65625 C 8.800781 -4.65625 8.582031 -4.566406 8.375 -4.390625 C 8.164062 -4.222656 7.957031 -4.050781 7.75 -3.875 C 7.664062 -3.789062 7.625 -3.738281 7.625 -3.71875 C 7.082031 -3.300781 6.546875 -2.890625 6.015625 -2.484375 C 5.492188 -2.078125 4.960938 -1.691406 4.421875 -1.328125 L 4.265625 -1.21875 C 3.660156 -0.800781 3.023438 -0.40625 2.359375 -0.03125 C 1.703125 0.332031 0.941406 0.515625 0.078125 0.515625 C -0.648438 0.515625 -1.210938 0.316406 -1.609375 -0.078125 C -1.992188 -0.441406 -2.1875 -0.953125 -2.1875 -1.609375 C -2.1875 -2.078125 -2.125 -2.519531 -2 -2.9375 C -0.71875 -6.789062 1.679688 -9.550781 5.203125 -11.21875 C 5.828125 -11.53125 6.425781 -11.6875 7 -11.6875 C 8.507812 -11.6875 9.773438 -10.609375 10.796875 -8.453125 L 10.90625 -8.21875 L 12.78125 -11.734375 C 13.539062 -13.140625 14.289062 -14.546875 15.03125 -15.953125 C 15.78125 -17.359375 16.53125 -18.753906 17.28125 -20.140625 C 17.832031 -21.160156 18.441406 -22.171875 19.109375 -23.171875 C 19.773438 -24.171875 20.613281 -25.023438 21.625 -25.734375 C 21.832031 -25.890625 22.046875 -26.03125 22.265625 -26.15625 C 22.492188 -26.289062 22.738281 -26.359375 23 -26.359375 C 23.257812 -26.359375 23.53125 -26.269531 23.8125 -26.09375 Z M 9.234375 -5.9375 C 9.753906 -6.363281 9.925781 -6.789062 9.75 -7.21875 C 9.582031 -7.644531 9.359375 -8.054688 9.078125 -8.453125 C 9.023438 -8.554688 8.960938 -8.648438 8.890625 -8.734375 C 8.828125 -8.828125 8.769531 -8.914062 8.71875 -9 C 8.351562 -9.59375 7.875 -9.890625 7.28125 -9.890625 C 7.019531 -9.890625 6.691406 -9.828125 6.296875 -9.703125 C 5.253906 -9.359375 4.347656 -8.851562 3.578125 -8.1875 C 2.804688 -7.53125 2.097656 -6.847656 1.453125 -6.140625 C 0.847656 -5.484375 0.300781 -4.8125 -0.1875 -4.125 C -0.6875 -3.4375 -1.039062 -2.632812 -1.25 -1.71875 C -1.40625 -1.125 -1.34375 -0.671875 -1.0625 -0.359375 C -0.800781 -0.0351562 -0.300781 0.125 0.4375 0.125 C 1.03125 0.0078125 1.570312 -0.164062 2.0625 -0.40625 C 2.5625 -0.65625 2.992188 -0.898438 3.359375 -1.140625 C 4.015625 -1.578125 4.644531 -2.050781 5.25 -2.5625 C 5.863281 -3.070312 6.460938 -3.570312 7.046875 -4.0625 C 7.378906 -4.375 7.726562 -4.691406 8.09375 -5.015625 C 8.457031 -5.347656 8.835938 -5.65625 9.234375 -5.9375 Z M 22.140625 -20.0625 C 22.265625 -20.269531 22.441406 -20.585938 22.671875 -21.015625 C 22.910156 -21.453125 23.140625 -21.914062 23.359375 -22.40625 C 23.585938 -22.90625 23.742188 -23.378906 23.828125 -23.828125 C 23.921875 -24.285156 23.90625 -24.644531 23.78125 -24.90625 C 23.675781 -25.09375 23.519531 -25.222656 23.3125 -25.296875 C 23.226562 -25.296875 23.148438 -25.296875 23.078125 -25.296875 C 22.734375 -25.296875 22.40625 -25.140625 22.09375 -24.828125 C 21.8125 -24.515625 21.53125 -24.195312 21.25 -23.875 C 20.976562 -23.550781 20.710938 -23.234375 20.453125 -22.921875 L 20.109375 -22.484375 C 19.210938 -21.367188 18.347656 -20.117188 17.515625 -18.734375 C 16.867188 -17.609375 16.257812 -16.46875 15.6875 -15.3125 C 15.113281 -14.15625 14.550781 -13.015625 14 -11.890625 L 13.453125 -10.71875 L 13.6875 -10.59375 C 13.769531 -10.75 13.898438 -10.910156 14.078125 -11.078125 C 14.265625 -11.253906 14.445312 -11.40625 14.625 -11.53125 C 14.726562 -11.613281 14.816406 -11.6875 14.890625 -11.75 C 14.972656 -11.8125 15.054688 -11.882812 15.140625 -11.96875 C 15.398438 -12.195312 15.660156 -12.4375 15.921875 -12.6875 C 16.179688 -12.9375 16.441406 -13.191406 16.703125 -13.453125 C 17.847656 -14.597656 18.828125 -15.640625 19.640625 -16.578125 C 20.628906 -17.753906 21.460938 -18.914062 22.140625 -20.0625 Z M 22.140625 -20.0625 "/></g></g></g><g fill="#ffffff" fill-opacity="1"><g transform="translate(58.199734, 196.741737)"><g><path d="M 22.0625 -6.171875 C 22.164062 -6.097656 22.21875 -6.019531 22.21875 -5.9375 C 22.238281 -5.863281 22.160156 -5.734375 21.984375 -5.546875 C 20.785156 -4.378906 19.460938 -3.257812 18.015625 -2.1875 C 16.566406 -1.125 14.875 -0.328125 12.9375 0.203125 C 12.5 0.328125 12.070312 0.390625 11.65625 0.390625 C 10.894531 0.390625 10.269531 0.15625 9.78125 -0.3125 C 9 -0.96875 8.515625 -2.085938 8.328125 -3.671875 L 8.296875 -3.953125 L 7.15625 -3.015625 C 6.789062 -2.703125 6.425781 -2.390625 6.0625 -2.078125 C 5.695312 -1.765625 5.332031 -1.460938 4.96875 -1.171875 C 4.03125 -0.421875 3.015625 0.125 1.921875 0.46875 C 1.578125 0.570312 1.289062 0.625 1.0625 0.625 C 0.59375 0.625 0.171875 0.46875 -0.203125 0.15625 C -0.847656 -0.394531 -1.117188 -1.0625 -1.015625 -1.84375 C -0.648438 -5.050781 0.753906 -8.226562 3.203125 -11.375 C 3.390625 -11.632812 3.585938 -11.765625 3.796875 -11.765625 C 3.953125 -11.765625 4.109375 -11.703125 4.265625 -11.578125 C 4.441406 -11.421875 4.515625 -11.265625 4.484375 -11.109375 C 4.460938 -10.953125 4.398438 -10.769531 4.296875 -10.5625 C 4.117188 -10.144531 3.914062 -9.738281 3.6875 -9.34375 C 3.46875 -8.957031 3.242188 -8.554688 3.015625 -8.140625 C 2.441406 -7.097656 1.894531 -6.035156 1.375 -4.953125 C 0.851562 -3.867188 0.539062 -2.703125 0.4375 -1.453125 C 0.4375 -1.347656 0.441406 -1.226562 0.453125 -1.09375 C 0.460938 -0.96875 0.519531 -0.851562 0.625 -0.75 C 0.757812 -0.613281 0.90625 -0.535156 1.0625 -0.515625 C 1.132812 -0.515625 1.210938 -0.515625 1.296875 -0.515625 C 1.578125 -0.515625 1.851562 -0.570312 2.125 -0.6875 C 2.40625 -0.800781 2.660156 -0.925781 2.890625 -1.0625 C 6.128906 -2.726562 8.375 -4.914062 9.625 -7.625 C 9.675781 -7.707031 9.726562 -7.851562 9.78125 -8.0625 C 9.851562 -8.289062 9.941406 -8.507812 10.046875 -8.71875 C 10.148438 -8.925781 10.304688 -9.03125 10.515625 -9.03125 C 10.671875 -9.03125 10.84375 -8.96875 11.03125 -8.84375 C 11.257812 -8.707031 11.414062 -8.5625 11.5 -8.40625 C 11.570312 -8.226562 11.578125 -8.046875 11.515625 -7.859375 C 11.453125 -7.679688 11.367188 -7.5 11.265625 -7.3125 C 11.234375 -7.207031 11.195312 -7.113281 11.15625 -7.03125 C 11.125 -6.957031 11.09375 -6.882812 11.0625 -6.8125 C 10.988281 -6.59375 10.910156 -6.375 10.828125 -6.15625 C 10.753906 -5.9375 10.675781 -5.722656 10.59375 -5.515625 C 10.4375 -5.066406 10.285156 -4.609375 10.140625 -4.140625 C 10.003906 -3.671875 9.910156 -3.175781 9.859375 -2.65625 C 9.773438 -1.925781 9.90625 -1.378906 10.25 -1.015625 C 10.582031 -0.679688 11.164062 -0.5 12 -0.46875 C 12.894531 -0.46875 13.6875 -0.617188 14.375 -0.921875 C 15.0625 -1.222656 15.691406 -1.554688 16.265625 -1.921875 C 18.484375 -3.222656 20.21875 -4.5625 21.46875 -5.9375 C 21.5 -5.96875 21.539062 -6.019531 21.59375 -6.09375 C 21.695312 -6.226562 21.773438 -6.296875 21.828125 -6.296875 C 21.878906 -6.296875 21.957031 -6.253906 22.0625 -6.171875 Z M 22.0625 -6.171875 "/></g></g></g><g fill="#ffffff" fill-opacity="1"><g transform="translate(79.278049, 196.741737)"><g><path d="M 15.765625 -5.828125 C 15.816406 -5.742188 15.820312 -5.628906 15.78125 -5.484375 C 15.738281 -5.347656 15.65625 -5.226562 15.53125 -5.125 C 14.4375 -4.238281 13.269531 -3.363281 12.03125 -2.5 C 10.789062 -1.644531 9.453125 -0.863281 8.015625 -0.15625 C 6.578125 0.550781 5.023438 1.085938 3.359375 1.453125 C 2.890625 1.554688 2.445312 1.609375 2.03125 1.609375 C 0.988281 1.609375 0.078125 1.242188 -0.703125 0.515625 C -1.828125 -0.535156 -2.101562 -1.816406 -1.53125 -3.328125 C -0.0078125 -7.285156 2.882812 -10.304688 7.15625 -12.390625 C 7.65625 -12.648438 8.148438 -12.78125 8.640625 -12.78125 C 9.421875 -12.78125 10.097656 -12.441406 10.671875 -11.765625 C 11.085938 -11.328125 11.304688 -10.878906 11.328125 -10.421875 C 11.359375 -9.960938 11.300781 -9.535156 11.15625 -9.140625 C 11.019531 -8.753906 10.859375 -8.445312 10.671875 -8.21875 C 10.460938 -7.875 10.222656 -7.578125 9.953125 -7.328125 C 9.679688 -7.085938 9.425781 -6.890625 9.1875 -6.734375 L 9.109375 -6.65625 C 9.035156 -6.601562 8.9375 -6.53125 8.8125 -6.4375 C 8.695312 -6.34375 8.585938 -6.296875 8.484375 -6.296875 C 8.378906 -6.316406 8.300781 -6.351562 8.25 -6.40625 C 8.175781 -6.539062 8.207031 -6.75 8.34375 -7.03125 C 8.488281 -7.320312 8.671875 -7.617188 8.890625 -7.921875 C 9.117188 -8.222656 9.3125 -8.476562 9.46875 -8.6875 C 9.78125 -9.050781 9.945312 -9.269531 9.96875 -9.34375 C 9.96875 -9.425781 9.992188 -9.519531 10.046875 -9.625 C 10.128906 -9.800781 10.179688 -10.003906 10.203125 -10.234375 C 10.234375 -10.472656 10.117188 -10.710938 9.859375 -10.953125 C 9.597656 -11.160156 9.320312 -11.265625 9.03125 -11.265625 C 8.769531 -11.265625 8.472656 -11.171875 8.140625 -10.984375 C 4.410156 -9.003906 1.671875 -6.085938 -0.078125 -2.234375 C -0.492188 -1.296875 -0.363281 -0.535156 0.3125 0.046875 C 0.8125 0.484375 1.453125 0.703125 2.234375 0.703125 C 2.441406 0.703125 2.648438 0.691406 2.859375 0.671875 C 4.285156 0.515625 5.585938 0.171875 6.765625 -0.359375 C 7.941406 -0.898438 8.957031 -1.429688 9.8125 -1.953125 C 10.675781 -2.453125 11.640625 -3.09375 12.703125 -3.875 C 12.859375 -3.976562 13.007812 -4.085938 13.15625 -4.203125 C 13.300781 -4.316406 13.441406 -4.425781 13.578125 -4.53125 C 13.835938 -4.769531 14.109375 -4.992188 14.390625 -5.203125 C 14.679688 -5.410156 14.984375 -5.59375 15.296875 -5.75 C 15.421875 -5.820312 15.535156 -5.859375 15.640625 -5.859375 C 15.691406 -5.859375 15.734375 -5.847656 15.765625 -5.828125 Z M 15.765625 -5.828125 "/></g></g></g><g fill="#ffffff" fill-opacity="1"><g transform="translate(94.216677, 196.741737)"><g><path d="M 20.109375 -7.625 C 20.234375 -7.601562 20.3125 -7.578125 20.34375 -7.546875 C 20.414062 -7.421875 20.363281 -7.253906 20.1875 -7.046875 C 17.5 -4.222656 14.222656 -1.742188 10.359375 0.390625 L 10.09375 0.515625 C 9.957031 0.617188 9.804688 0.707031 9.640625 0.78125 C 9.472656 0.863281 9.296875 0.90625 9.109375 0.90625 C 8.847656 0.90625 8.578125 0.785156 8.296875 0.546875 C 7.953125 0.234375 7.785156 -0.0546875 7.796875 -0.328125 C 7.816406 -0.609375 7.878906 -0.90625 7.984375 -1.21875 C 8.003906 -1.269531 8.023438 -1.320312 8.046875 -1.375 C 8.078125 -1.425781 8.09375 -1.476562 8.09375 -1.53125 C 8.332031 -2.363281 8.625 -3.160156 8.96875 -3.921875 C 9.320312 -4.691406 9.679688 -5.429688 10.046875 -6.140625 C 10.046875 -6.140625 10.128906 -6.296875 10.296875 -6.609375 C 10.472656 -6.921875 10.65625 -7.253906 10.84375 -7.609375 C 11.039062 -7.960938 11.179688 -8.203125 11.265625 -8.328125 C 11.265625 -8.359375 11.316406 -8.4375 11.421875 -8.5625 C 11.648438 -8.90625 11.847656 -9.257812 12.015625 -9.625 C 12.191406 -9.988281 12.238281 -10.273438 12.15625 -10.484375 C 12.101562 -10.609375 12.023438 -10.695312 11.921875 -10.75 C 11.847656 -10.78125 11.785156 -10.796875 11.734375 -10.796875 C 11.472656 -10.796875 11.1875 -10.648438 10.875 -10.359375 C 10.5625 -10.078125 10.40625 -9.9375 10.40625 -9.9375 C 10.21875 -9.726562 10.03125 -9.46875 9.84375 -9.15625 C 9.664062 -8.84375 9.566406 -8.488281 9.546875 -8.09375 L 9.546875 -7.9375 C 9.546875 -7.832031 9.535156 -7.710938 9.515625 -7.578125 C 9.503906 -7.453125 9.460938 -7.390625 9.390625 -7.390625 C 9.359375 -7.390625 9.296875 -7.410156 9.203125 -7.453125 C 9.117188 -7.492188 9 -7.59375 8.84375 -7.75 L 8.71875 -7.859375 L 8.484375 -7.59375 C 8.410156 -7.539062 8.335938 -7.472656 8.265625 -7.390625 C 8.203125 -7.316406 8.144531 -7.253906 8.09375 -7.203125 C 7.78125 -6.859375 7.488281 -6.519531 7.21875 -6.1875 C 6.945312 -5.863281 6.664062 -5.546875 6.375 -5.234375 C 5.75 -4.503906 5.109375 -3.78125 4.453125 -3.0625 C 3.804688 -2.351562 3.101562 -1.6875 2.34375 -1.0625 L 2.078125 -0.828125 C 1.835938 -0.617188 1.585938 -0.421875 1.328125 -0.234375 C 1.066406 -0.046875 0.78125 0.046875 0.46875 0.046875 C 0.207031 0.046875 -0.0664062 -0.046875 -0.359375 -0.234375 C -0.898438 -0.628906 -1.15625 -1.085938 -1.125 -1.609375 C -1.101562 -2.128906 -1.03125 -2.632812 -0.90625 -3.125 L -0.859375 -3.359375 C -0.234375 -5.867188 0.882812 -8.019531 2.5 -9.8125 C 3.625 -11.0625 4.953125 -11.6875 6.484375 -11.6875 L 6.609375 -11.6875 C 6.953125 -11.6875 7.28125 -11.664062 7.59375 -11.625 C 7.90625 -11.59375 8.140625 -11.472656 8.296875 -11.265625 C 8.765625 -10.585938 9.207031 -10.25 9.625 -10.25 C 9.832031 -10.25 10.015625 -10.3125 10.171875 -10.4375 C 10.328125 -10.570312 10.492188 -10.71875 10.671875 -10.875 L 10.796875 -10.984375 C 11.023438 -11.222656 11.285156 -11.40625 11.578125 -11.53125 C 11.703125 -11.582031 11.820312 -11.628906 11.9375 -11.671875 C 12.0625 -11.710938 12.175781 -11.734375 12.28125 -11.734375 C 12.457031 -11.734375 12.640625 -11.664062 12.828125 -11.53125 C 13.035156 -11.351562 13.132812 -11.171875 13.125 -10.984375 C 13.113281 -10.804688 13.050781 -10.613281 12.9375 -10.40625 C 12.5 -9.4375 12.054688 -8.488281 11.609375 -7.5625 C 11.171875 -6.632812 10.726562 -5.71875 10.28125 -4.8125 L 9.578125 -3.328125 C 9.421875 -3.035156 9.285156 -2.734375 9.171875 -2.421875 C 9.054688 -2.109375 8.945312 -1.8125 8.84375 -1.53125 L 8.640625 -0.9375 C 8.535156 -0.675781 8.523438 -0.484375 8.609375 -0.359375 C 8.660156 -0.273438 8.738281 -0.207031 8.84375 -0.15625 C 8.914062 -0.132812 9.003906 -0.125 9.109375 -0.125 C 9.367188 -0.125 9.664062 -0.203125 10 -0.359375 C 10.34375 -0.515625 10.582031 -0.628906 10.71875 -0.703125 C 11.550781 -1.273438 12.367188 -1.851562 13.171875 -2.4375 C 13.984375 -3.03125 14.769531 -3.613281 15.53125 -4.1875 C 15.789062 -4.363281 16.035156 -4.550781 16.265625 -4.75 C 16.503906 -4.945312 16.753906 -5.132812 17.015625 -5.3125 C 17.171875 -5.445312 17.332031 -5.582031 17.5 -5.71875 C 17.664062 -5.863281 17.84375 -6.003906 18.03125 -6.140625 C 18.101562 -6.210938 18.175781 -6.28125 18.25 -6.34375 C 18.332031 -6.414062 18.425781 -6.476562 18.53125 -6.53125 C 18.664062 -6.664062 18.8125 -6.789062 18.96875 -6.90625 C 19.125 -7.019531 19.28125 -7.144531 19.4375 -7.28125 L 19.59375 -7.359375 C 19.675781 -7.410156 19.757812 -7.46875 19.84375 -7.53125 C 19.9375 -7.59375 20.023438 -7.625 20.109375 -7.625 Z M 8.6875 -9.109375 C 8.945312 -9.398438 8.929688 -9.738281 8.640625 -10.125 C 8.304688 -10.570312 7.90625 -10.796875 7.4375 -10.796875 C 7.382812 -10.796875 7.332031 -10.796875 7.28125 -10.796875 C 6.625 -10.660156 6.046875 -10.453125 5.546875 -10.171875 C 4.398438 -9.492188 3.472656 -8.644531 2.765625 -7.625 C 2.066406 -6.601562 1.457031 -5.597656 0.9375 -4.609375 C 0.882812 -4.503906 0.828125 -4.398438 0.765625 -4.296875 C 0.703125 -4.191406 0.644531 -4.085938 0.59375 -3.984375 C 0.4375 -3.753906 0.289062 -3.507812 0.15625 -3.25 C 0.0195312 -2.988281 -0.0820312 -2.703125 -0.15625 -2.390625 C -0.1875 -2.253906 -0.203125 -2.015625 -0.203125 -1.671875 C -0.203125 -1.335938 -0.109375 -1.09375 0.078125 -0.9375 C 0.160156 -0.832031 0.265625 -0.78125 0.390625 -0.78125 C 0.492188 -0.78125 0.625 -0.820312 0.78125 -0.90625 C 1.90625 -1.601562 2.898438 -2.429688 3.765625 -3.390625 C 4.640625 -4.359375 5.484375 -5.335938 6.296875 -6.328125 C 6.691406 -6.804688 7.082031 -7.28125 7.46875 -7.75 C 7.863281 -8.21875 8.269531 -8.671875 8.6875 -9.109375 Z M 8.6875 -9.109375 "/></g></g></g><g fill="#ffffff" fill-opacity="1"><g transform="translate(113.261462, 196.741737)"><g><path d="M 22.5625 -19.203125 C 22.644531 -19.117188 22.695312 -19 22.71875 -18.84375 C 22.71875 -18.769531 22.695312 -18.695312 22.65625 -18.625 C 22.625 -18.5625 22.515625 -18.53125 22.328125 -18.53125 C 22.253906 -18.53125 22.171875 -18.535156 22.078125 -18.546875 C 21.984375 -18.566406 21.898438 -18.578125 21.828125 -18.578125 L 21.625 -18.609375 C 20.1875 -18.796875 18.769531 -18.914062 17.375 -18.96875 C 15.988281 -19.019531 14.644531 -19.046875 13.34375 -19.046875 L 11.34375 -19 C 11 -19 10.648438 -19.003906 10.296875 -19.015625 C 9.953125 -19.035156 9.609375 -19.046875 9.265625 -19.046875 C 8.847656 -19.046875 8.492188 -18.992188 8.203125 -18.890625 C 7.921875 -18.785156 7.703125 -18.5625 7.546875 -18.21875 L 6.84375 -16.890625 C 5.144531 -13.609375 3.488281 -10.234375 1.875 -6.765625 C 0.257812 -3.296875 -1.03125 0.335938 -2 4.140625 C -2.75 7.117188 -3.097656 9.84375 -3.046875 12.3125 C -3.046875 12.414062 -3.046875 12.519531 -3.046875 12.625 C -3.046875 12.863281 -3.039062 13.085938 -3.03125 13.296875 C -3.019531 13.503906 -2.9375 13.703125 -2.78125 13.890625 C -2.539062 14.117188 -2.1875 14.257812 -1.71875 14.3125 C -1.613281 14.3125 -1.535156 14.351562 -1.484375 14.4375 C -1.378906 14.539062 -1.316406 14.671875 -1.296875 14.828125 C -1.265625 15.003906 -1.300781 15.125 -1.40625 15.1875 C -1.507812 15.257812 -1.613281 15.296875 -1.71875 15.296875 L -1.765625 15.296875 C -2.910156 15.296875 -3.640625 14.75 -3.953125 13.65625 C -4.128906 13.070312 -4.210938 12.515625 -4.203125 11.984375 C -4.191406 11.453125 -4.160156 10.925781 -4.109375 10.40625 L -4.0625 10.09375 C -3.851562 7.75 -3.460938 5.476562 -2.890625 3.28125 C -2.316406 1.09375 -1.628906 -1.023438 -0.828125 -3.078125 C -0.0351562 -5.140625 0.757812 -7.175781 1.5625 -9.1875 L 1.796875 -9.703125 C 2.191406 -10.691406 2.625 -11.660156 3.09375 -12.609375 C 3.5625 -13.566406 4.015625 -14.515625 4.453125 -15.453125 C 4.691406 -15.890625 4.921875 -16.328125 5.140625 -16.765625 C 5.359375 -17.210938 5.570312 -17.660156 5.78125 -18.109375 C 5.832031 -18.234375 5.863281 -18.378906 5.875 -18.546875 C 5.894531 -18.722656 5.800781 -18.992188 5.59375 -19.359375 L 5.515625 -19.4375 L 5.4375 -19.4375 C 4.863281 -19.4375 4.273438 -19.4375 3.671875 -19.4375 C 3.078125 -19.4375 2.476562 -19.4375 1.875 -19.4375 C 1.28125 -19.457031 0.675781 -19.46875 0.0625 -19.46875 C -0.550781 -19.46875 -1.171875 -19.46875 -1.796875 -19.46875 C -3.722656 -19.46875 -5.429688 -19.441406 -6.921875 -19.390625 C -7.234375 -19.367188 -7.546875 -19.359375 -7.859375 -19.359375 C -8.171875 -19.359375 -8.484375 -19.359375 -8.796875 -19.359375 C -9.609375 -19.328125 -10.421875 -19.289062 -11.234375 -19.25 C -12.054688 -19.21875 -12.847656 -19.109375 -13.609375 -18.921875 C -13.847656 -18.867188 -14.046875 -18.84375 -14.203125 -18.84375 C -14.378906 -18.84375 -14.535156 -18.882812 -14.671875 -18.96875 C -14.742188 -19.039062 -14.804688 -19.171875 -14.859375 -19.359375 C -14.910156 -19.597656 -14.796875 -19.71875 -14.515625 -19.71875 C -14.460938 -19.71875 -14.359375 -19.707031 -14.203125 -19.6875 C -14.046875 -19.675781 -13.96875 -19.671875 -13.96875 -19.671875 L -13.84375 -19.671875 C -12.382812 -19.804688 -10.941406 -19.890625 -9.515625 -19.921875 C -8.097656 -19.960938 -6.828125 -19.984375 -5.703125 -19.984375 C -5.109375 -19.984375 -4.503906 -19.984375 -3.890625 -19.984375 C -3.273438 -19.984375 -2.671875 -19.984375 -2.078125 -19.984375 C -1.472656 -19.960938 -0.863281 -19.953125 -0.25 -19.953125 C 0.363281 -19.953125 0.96875 -19.953125 1.5625 -19.953125 C 2.132812 -19.953125 2.707031 -19.953125 3.28125 -19.953125 C 3.851562 -19.953125 4.425781 -19.960938 5 -19.984375 C 5.550781 -20.015625 6.039062 -20.113281 6.46875 -20.28125 C 6.90625 -20.445312 7.253906 -20.789062 7.515625 -21.3125 C 8.609375 -23.601562 10.117188 -25.796875 12.046875 -27.890625 C 12.066406 -27.941406 12.117188 -28.003906 12.203125 -28.078125 C 12.273438 -28.179688 12.359375 -28.285156 12.453125 -28.390625 C 12.546875 -28.492188 12.65625 -28.546875 12.78125 -28.546875 C 12.914062 -28.546875 13.078125 -28.46875 13.265625 -28.3125 C 13.492188 -28.101562 13.582031 -27.894531 13.53125 -27.6875 C 13.476562 -27.476562 13.375 -27.257812 13.21875 -27.03125 C 13.007812 -26.738281 12.8125 -26.460938 12.625 -26.203125 C 12.445312 -25.941406 12.265625 -25.691406 12.078125 -25.453125 C 11.503906 -24.671875 10.929688 -23.859375 10.359375 -23.015625 C 9.785156 -22.171875 9.253906 -21.238281 8.765625 -20.21875 L 8.640625 -20.03125 L 12.125 -20.03125 C 14.882812 -20.03125 18.015625 -19.816406 21.515625 -19.390625 C 21.566406 -19.390625 21.65625 -19.390625 21.78125 -19.390625 C 21.914062 -19.390625 22.050781 -19.375 22.1875 -19.34375 C 22.332031 -19.320312 22.457031 -19.273438 22.5625 -19.203125 Z M 22.5625 -19.203125 "/></g></g></g><g fill="#ffffff" fill-opacity="1"><g transform="translate(119.987753, 196.741737)"><g><path d="M 13.609375 -6.21875 C 13.691406 -6.164062 13.734375 -6.046875 13.734375 -5.859375 C 13.734375 -5.679688 13.617188 -5.515625 13.390625 -5.359375 C 13.171875 -5.203125 12.992188 -5.070312 12.859375 -4.96875 C 12.421875 -4.570312 11.96875 -4.191406 11.5 -3.828125 C 11.03125 -3.460938 10.5625 -3.113281 10.09375 -2.78125 C 9.101562 -2.070312 8.050781 -1.441406 6.9375 -0.890625 C 5.832031 -0.347656 4.65625 0.09375 3.40625 0.4375 C 2.882812 0.5625 2.335938 0.625 1.765625 0.625 C 1.191406 0.625 0.617188 0.363281 0.046875 -0.15625 C -0.535156 -0.65625 -0.859375 -1.179688 -0.921875 -1.734375 C -0.984375 -2.296875 -0.9375 -2.835938 -0.78125 -3.359375 C -0.3125 -5.128906 0.347656 -6.785156 1.203125 -8.328125 C 2.066406 -9.867188 3.097656 -11.289062 4.296875 -12.59375 C 4.429688 -12.769531 4.59375 -12.9375 4.78125 -13.09375 C 4.976562 -13.257812 5.25 -13.207031 5.59375 -12.9375 C 5.957031 -12.65625 6.070312 -12.398438 5.9375 -12.171875 C 5.8125 -11.953125 5.695312 -11.753906 5.59375 -11.578125 C 4.757812 -10.242188 3.953125 -8.910156 3.171875 -7.578125 C 2.390625 -6.253906 1.695312 -4.863281 1.09375 -3.40625 C 0.988281 -3.144531 0.859375 -2.867188 0.703125 -2.578125 C 0.546875 -2.296875 0.46875 -2.003906 0.46875 -1.703125 C 0.46875 -1.398438 0.613281 -1.109375 0.90625 -0.828125 C 1.375 -0.328125 1.894531 -0.113281 2.46875 -0.1875 C 3.039062 -0.269531 3.5625 -0.363281 4.03125 -0.46875 C 5.039062 -0.707031 5.976562 -1.0625 6.84375 -1.53125 C 7.707031 -2 8.53125 -2.519531 9.3125 -3.09375 C 9.414062 -3.164062 9.675781 -3.382812 10.09375 -3.75 C 10.507812 -4.113281 10.960938 -4.503906 11.453125 -4.921875 C 11.953125 -5.335938 12.410156 -5.675781 12.828125 -5.9375 C 13.242188 -6.195312 13.503906 -6.289062 13.609375 -6.21875 Z M 7.3125 -14.78125 C 6.707031 -14.726562 6.328125 -15.003906 6.171875 -15.609375 C 6.046875 -16.128906 6.097656 -16.5 6.328125 -16.71875 C 6.566406 -16.9375 6.910156 -17.0625 7.359375 -17.09375 C 7.671875 -17.113281 7.941406 -17.046875 8.171875 -16.890625 C 8.410156 -16.734375 8.582031 -16.460938 8.6875 -16.078125 C 8.707031 -15.628906 8.585938 -15.3125 8.328125 -15.125 C 8.066406 -14.945312 7.726562 -14.832031 7.3125 -14.78125 Z M 7.3125 -14.78125 "/></g></g></g><g fill="#ffffff" fill-opacity="1"><g transform="translate(132.892851, 196.741737)"><g><path d="M 21.546875 -6.578125 C 21.703125 -6.460938 21.796875 -6.351562 21.828125 -6.25 C 21.847656 -6.144531 21.828125 -6.046875 21.765625 -5.953125 C 21.703125 -5.867188 21.628906 -5.785156 21.546875 -5.703125 C 21.441406 -5.597656 21.378906 -5.519531 21.359375 -5.46875 C 19.191406 -2.132812 16.125 0.648438 12.15625 2.890625 C 11.738281 3.128906 11.207031 3.25 10.5625 3.25 L 10.484375 3.25 C 9.828125 3.25 9.332031 3.078125 9 2.734375 C 8.632812 2.398438 8.453125 1.894531 8.453125 1.21875 C 8.453125 0.613281 8.566406 0.0703125 8.796875 -0.40625 C 9.035156 -0.894531 9.285156 -1.359375 9.546875 -1.796875 L 9.9375 -2.421875 C 10.007812 -2.578125 10.09375 -2.734375 10.1875 -2.890625 C 10.28125 -3.046875 10.363281 -3.203125 10.4375 -3.359375 L 10.484375 -3.484375 C 10.535156 -3.585938 10.578125 -3.71875 10.609375 -3.875 C 10.648438 -4.03125 10.582031 -4.195312 10.40625 -4.375 C 10.195312 -4.582031 9.945312 -4.6875 9.65625 -4.6875 C 9.550781 -4.6875 9.4375 -4.660156 9.3125 -4.609375 C 8.789062 -4.503906 8.273438 -4.378906 7.765625 -4.234375 C 7.253906 -4.097656 6.738281 -3.953125 6.21875 -3.796875 C 5.5625 -3.554688 4.925781 -3.28125 4.3125 -2.96875 C 3.707031 -2.65625 3.117188 -2.332031 2.546875 -2 C 2.285156 -1.863281 2.03125 -1.722656 1.78125 -1.578125 C 1.53125 -1.441406 1.273438 -1.304688 1.015625 -1.171875 L 0.859375 -1.09375 C 0.753906 -1.019531 0.632812 -0.957031 0.5 -0.90625 C 0.375 -0.851562 0.25 -0.828125 0.125 -0.828125 C -0.113281 -0.828125 -0.363281 -0.929688 -0.625 -1.140625 C -0.914062 -1.398438 -1.0625 -1.640625 -1.0625 -1.859375 C -1.0625 -2.078125 -1.035156 -2.304688 -0.984375 -2.546875 L -0.9375 -2.703125 C -0.46875 -4.835938 0.328125 -6.738281 1.453125 -8.40625 L 1.53125 -8.53125 C 1.582031 -8.632812 1.644531 -8.726562 1.71875 -8.8125 C 1.800781 -8.90625 1.894531 -8.953125 2 -8.953125 C 2.070312 -8.953125 2.148438 -8.925781 2.234375 -8.875 C 2.410156 -8.800781 2.523438 -8.695312 2.578125 -8.5625 C 2.710938 -8.300781 2.71875 -7.992188 2.59375 -7.640625 C 2.476562 -7.296875 2.359375 -7.003906 2.234375 -6.765625 C 2.148438 -6.609375 2.109375 -6.503906 2.109375 -6.453125 L 0.75 -2.890625 C 0.71875 -2.835938 0.6875 -2.753906 0.65625 -2.640625 C 0.632812 -2.523438 0.675781 -2.425781 0.78125 -2.34375 C 0.882812 -2.269531 1.015625 -2.234375 1.171875 -2.234375 C 1.328125 -2.234375 1.507812 -2.265625 1.71875 -2.328125 C 1.925781 -2.390625 2.070312 -2.445312 2.15625 -2.5 C 2.28125 -2.550781 2.394531 -2.609375 2.5 -2.671875 C 2.601562 -2.742188 2.707031 -2.816406 2.8125 -2.890625 C 2.945312 -2.992188 3.070312 -3.082031 3.1875 -3.15625 C 3.300781 -3.238281 3.425781 -3.304688 3.5625 -3.359375 C 3.976562 -3.566406 4.398438 -3.757812 4.828125 -3.9375 C 5.253906 -4.125 5.691406 -4.3125 6.140625 -4.5 C 7.210938 -4.9375 8.21875 -5.222656 9.15625 -5.359375 C 9.3125 -5.378906 9.453125 -5.390625 9.578125 -5.390625 C 10.253906 -5.390625 10.789062 -5.171875 11.1875 -4.734375 C 11.625 -4.234375 11.738281 -3.617188 11.53125 -2.890625 C 11.425781 -2.453125 11.289062 -2.023438 11.125 -1.609375 C 10.957031 -1.191406 10.796875 -0.773438 10.640625 -0.359375 C 10.535156 -0.117188 10.4375 0.113281 10.34375 0.34375 C 10.25 0.582031 10.148438 0.820312 10.046875 1.0625 L 10.015625 1.21875 C 9.929688 1.34375 9.875 1.492188 9.84375 1.671875 C 9.820312 1.859375 9.890625 2.03125 10.046875 2.1875 C 10.253906 2.394531 10.488281 2.5 10.75 2.5 C 10.851562 2.5 10.957031 2.484375 11.0625 2.453125 C 11.164062 2.429688 11.269531 2.410156 11.375 2.390625 C 12.601562 2.023438 13.671875 1.484375 14.578125 0.765625 C 15.492188 0.046875 16.316406 -0.675781 17.046875 -1.40625 C 17.648438 -2.007812 18.296875 -2.679688 18.984375 -3.421875 C 19.679688 -4.160156 20.265625 -5 20.734375 -5.9375 L 20.8125 -6.015625 C 20.863281 -6.148438 20.929688 -6.289062 21.015625 -6.4375 C 21.109375 -6.582031 21.222656 -6.65625 21.359375 -6.65625 C 21.410156 -6.65625 21.472656 -6.628906 21.546875 -6.578125 Z M 21.546875 -6.578125 "/></g></g></g><g fill="#ffffff" fill-opacity="1"><g transform="translate(153.580107, 196.741737)"><g><path d="M 20.1875 -7.046875 C 20.3125 -7.046875 20.398438 -7.03125 20.453125 -7 C 20.503906 -6.976562 20.546875 -6.96875 20.578125 -6.96875 C 20.597656 -6.8125 20.472656 -6.675781 20.203125 -6.5625 C 19.929688 -6.457031 19.703125 -6.378906 19.515625 -6.328125 C 19.410156 -6.304688 19.332031 -6.28125 19.28125 -6.25 C 18.34375 -5.914062 17.445312 -5.550781 16.59375 -5.15625 C 15.75 -4.769531 14.976562 -4.265625 14.28125 -3.640625 C 12.96875 -2.515625 11.921875 -1.050781 11.140625 0.75 C 9.140625 5.4375 6.023438 9.929688 1.796875 14.234375 C 1.328125 14.703125 0.816406 15.144531 0.265625 15.5625 C -0.273438 15.976562 -0.9375 16.253906 -1.71875 16.390625 C -1.957031 16.410156 -2.179688 16.421875 -2.390625 16.421875 C -3.015625 16.421875 -3.546875 16.203125 -3.984375 15.765625 C -4.347656 15.398438 -4.535156 15.023438 -4.546875 14.640625 C -4.566406 14.265625 -4.535156 13.910156 -4.453125 13.578125 C -4.222656 12.679688 -3.851562 11.894531 -3.34375 11.21875 C -2.832031 10.539062 -2.289062 9.890625 -1.71875 9.265625 C 0.570312 6.710938 2.765625 4.378906 4.859375 2.265625 C 6.960938 0.148438 9.265625 -1.765625 11.765625 -3.484375 C 12.367188 -3.867188 12.773438 -4.398438 12.984375 -5.078125 C 13.191406 -5.753906 13.363281 -6.445312 13.5 -7.15625 L 13.609375 -7.75 C 13.660156 -8.082031 13.597656 -8.34375 13.421875 -8.53125 C 13.367188 -8.601562 13.273438 -8.671875 13.140625 -8.734375 C 13.003906 -8.804688 12.820312 -8.84375 12.59375 -8.84375 C 12.507812 -8.84375 12.441406 -8.84375 12.390625 -8.84375 C 11.816406 -8.789062 11.242188 -8.539062 10.671875 -8.09375 C 10.097656 -7.65625 9.625 -7.128906 9.25 -6.515625 C 8.875 -5.898438 8.695312 -5.304688 8.71875 -4.734375 C 8.71875 -4.421875 8.65625 -4.238281 8.53125 -4.1875 C 8.476562 -4.1875 8.425781 -4.1875 8.375 -4.1875 C 8.238281 -4.1875 8.160156 -4.238281 8.140625 -4.34375 C 8.054688 -4.519531 7.945312 -4.710938 7.8125 -4.921875 C 7.6875 -5.128906 7.535156 -5.234375 7.359375 -5.234375 C 7.253906 -5.234375 7.15625 -5.1875 7.0625 -5.09375 C 6.96875 -5.007812 6.882812 -4.914062 6.8125 -4.8125 C 6.726562 -4.675781 6.675781 -4.597656 6.65625 -4.578125 C 6.488281 -4.441406 6.320312 -4.300781 6.15625 -4.15625 C 5.988281 -4.019531 5.828125 -3.882812 5.671875 -3.75 C 5.203125 -3.363281 4.722656 -2.972656 4.234375 -2.578125 C 3.753906 -2.191406 3.226562 -1.851562 2.65625 -1.5625 C 2.425781 -1.457031 2.195312 -1.359375 1.96875 -1.265625 C 1.75 -1.179688 1.523438 -1.140625 1.296875 -1.140625 C 0.878906 -1.140625 0.472656 -1.296875 0.078125 -1.609375 C -0.441406 -2.023438 -0.703125 -2.457031 -0.703125 -2.90625 C -0.703125 -3.363281 -0.664062 -3.800781 -0.59375 -4.21875 C -0.0078125 -6.726562 1.320312 -8.4375 3.40625 -9.34375 C 3.945312 -9.582031 4.441406 -9.703125 4.890625 -9.703125 C 5.878906 -9.703125 6.859375 -9.078125 7.828125 -7.828125 C 7.929688 -7.671875 8.039062 -7.539062 8.15625 -7.4375 C 8.269531 -7.332031 8.394531 -7.28125 8.53125 -7.28125 C 8.601562 -7.28125 8.734375 -7.34375 8.921875 -7.46875 L 9.078125 -7.546875 C 9.460938 -7.835938 9.863281 -8.113281 10.28125 -8.375 C 10.695312 -8.632812 11.140625 -8.867188 11.609375 -9.078125 C 11.972656 -9.253906 12.300781 -9.34375 12.59375 -9.34375 C 12.9375 -9.34375 13.238281 -9.238281 13.5 -9.03125 C 13.832031 -8.769531 14.023438 -8.460938 14.078125 -8.109375 C 14.128906 -7.765625 14.144531 -7.394531 14.125 -7 C 14.125 -6.820312 14.109375 -6.632812 14.078125 -6.4375 C 14.054688 -6.238281 14.019531 -6.035156 13.96875 -5.828125 L 13.84375 -5.046875 L 14.078125 -4.96875 C 14.109375 -5.019531 14.269531 -5.101562 14.5625 -5.21875 C 14.863281 -5.332031 15.09375 -5.414062 15.25 -5.46875 C 15.457031 -5.519531 15.585938 -5.5625 15.640625 -5.59375 C 15.929688 -5.71875 16.207031 -5.835938 16.46875 -5.953125 C 16.726562 -6.078125 16.988281 -6.191406 17.25 -6.296875 C 17.84375 -6.535156 18.582031 -6.757812 19.46875 -6.96875 C 19.550781 -6.96875 19.65625 -6.976562 19.78125 -7 C 19.914062 -7.03125 20.050781 -7.046875 20.1875 -7.046875 Z M 6.734375 -5.59375 C 6.890625 -5.71875 7.023438 -5.863281 7.140625 -6.03125 C 7.253906 -6.207031 7.179688 -6.476562 6.921875 -6.84375 C 6.710938 -7.132812 6.457031 -7.398438 6.15625 -7.640625 C 5.851562 -7.890625 5.441406 -8.015625 4.921875 -8.015625 L 4.890625 -8.015625 C 2.617188 -7.421875 1.132812 -5.972656 0.4375 -3.671875 C 0.382812 -3.460938 0.34375 -3.222656 0.3125 -2.953125 C 0.289062 -2.679688 0.421875 -2.425781 0.703125 -2.1875 C 0.890625 -2.007812 1.097656 -1.921875 1.328125 -1.921875 C 1.460938 -1.921875 1.59375 -1.945312 1.71875 -2 C 1.851562 -2.050781 1.972656 -2.101562 2.078125 -2.15625 C 2.828125 -2.519531 3.492188 -2.9375 4.078125 -3.40625 C 4.671875 -3.875 5.238281 -4.34375 5.78125 -4.8125 C 5.914062 -4.914062 6.046875 -5.023438 6.171875 -5.140625 C 6.304688 -5.253906 6.425781 -5.363281 6.53125 -5.46875 C 6.5625 -5.5 6.628906 -5.539062 6.734375 -5.59375 Z M -0.59375 14.15625 C 1.914062 12.039062 4.066406 9.632812 5.859375 6.9375 C 7.660156 4.238281 9.316406 1.535156 10.828125 -1.171875 L 10.640625 -1.328125 C 9.410156 -0.597656 8.285156 0.226562 7.265625 1.15625 C 6.253906 2.082031 5.289062 3.015625 4.375 3.953125 C 4.039062 4.285156 3.703125 4.617188 3.359375 4.953125 C 3.023438 5.296875 2.675781 5.640625 2.3125 5.984375 C 1.34375 6.898438 0.390625 7.851562 -0.546875 8.84375 C -1.484375 9.832031 -2.289062 10.925781 -2.96875 12.125 L -3.171875 12.4375 C -3.398438 12.800781 -3.585938 13.195312 -3.734375 13.625 C -3.878906 14.0625 -3.726562 14.472656 -3.28125 14.859375 C -3.019531 15.097656 -2.734375 15.21875 -2.421875 15.21875 C -2.109375 15.21875 -1.816406 15.117188 -1.546875 14.921875 C -1.273438 14.722656 -1.019531 14.519531 -0.78125 14.3125 Z M -0.59375 14.15625 "/></g></g></g><g fill="#ffffff" fill-opacity="1"><g transform="translate(173.133278, 196.741737)"><g/></g></g><g fill="#ffffff" fill-opacity="1"><g transform="translate(184.86518, 196.741737)"><g><path d="M 12.4375 -6.53125 C 12.664062 -6.53125 12.832031 -6.425781 12.9375 -6.21875 C 13 -6.132812 13.015625 -6.066406 12.984375 -6.015625 C 12.953125 -5.960938 12.882812 -5.914062 12.78125 -5.875 C 12.675781 -5.84375 12.570312 -5.8125 12.46875 -5.78125 C 12.34375 -5.757812 12.253906 -5.75 12.203125 -5.75 C 10.117188 -5.144531 8.023438 -4.359375 5.921875 -3.390625 C 3.828125 -2.429688 1.617188 -1.234375 -0.703125 0.203125 C -1.429688 0.640625 -1.945312 1.207031 -2.25 1.90625 C -2.550781 2.613281 -2.804688 3.332031 -3.015625 4.0625 C -3.117188 4.40625 -3.222656 4.742188 -3.328125 5.078125 C -3.429688 5.421875 -3.5625 5.75 -3.71875 6.0625 C -3.738281 6.113281 -3.726562 6.195312 -3.6875 6.3125 C -3.65625 6.425781 -3.613281 6.539062 -3.5625 6.65625 L -3.515625 6.765625 C -2.816406 8.328125 -2.476562 9.921875 -2.5 11.546875 C -2.53125 13.179688 -2.875 14.671875 -3.53125 16.015625 C -4.195312 17.359375 -5.144531 18.378906 -6.375 19.078125 C -6.507812 19.160156 -6.660156 19.238281 -6.828125 19.3125 C -6.992188 19.394531 -7.171875 19.4375 -7.359375 19.4375 C -7.617188 19.4375 -7.890625 19.316406 -8.171875 19.078125 C -8.535156 18.796875 -8.703125 18.503906 -8.671875 18.203125 C -8.648438 17.898438 -8.601562 17.617188 -8.53125 17.359375 C -8.132812 16.191406 -7.75 15.03125 -7.375 13.875 C -7 12.726562 -6.613281 11.597656 -6.21875 10.484375 L -5.28125 7.671875 C -5.019531 6.910156 -5.046875 6.320312 -5.359375 5.90625 C -5.671875 5.488281 -6.285156 5.210938 -7.203125 5.078125 C -7.273438 5.078125 -7.390625 5.078125 -7.546875 5.078125 C -7.753906 5.054688 -7.929688 5.023438 -8.078125 4.984375 C -8.222656 4.941406 -8.332031 4.816406 -8.40625 4.609375 C -8.457031 4.453125 -8.453125 4.332031 -8.390625 4.25 C -8.328125 4.175781 -8.21875 4.085938 -8.0625 3.984375 C -7.957031 3.910156 -7.890625 3.859375 -7.859375 3.828125 C -7.753906 3.722656 -7.675781 3.671875 -7.625 3.671875 C -6.1875 3.078125 -4.992188 2.273438 -4.046875 1.265625 C -3.097656 0.265625 -2.300781 -0.835938 -1.65625 -2.046875 C -1.019531 -3.265625 -0.453125 -4.5 0.046875 -5.75 C 2.546875 -12.03125 5.476562 -17.597656 8.84375 -22.453125 C 9.070312 -22.816406 9.347656 -23.171875 9.671875 -23.515625 C 10.003906 -23.867188 10.390625 -24.164062 10.828125 -24.40625 C 11.117188 -24.5625 11.394531 -24.640625 11.65625 -24.640625 C 12.25 -24.640625 12.71875 -24.234375 13.0625 -23.421875 C 13.300781 -22.847656 13.40625 -22.09375 13.375 -21.15625 C 13.351562 -20.21875 13.21875 -19.265625 12.96875 -18.296875 C 12.71875 -17.335938 12.390625 -16.472656 11.984375 -15.703125 C 11.578125 -14.929688 11.15625 -14.414062 10.71875 -14.15625 C 10.53125 -14.050781 10.382812 -14 10.28125 -14 C 10.207031 -14 10.144531 -14.023438 10.09375 -14.078125 C 9.851562 -14.234375 9.734375 -14.398438 9.734375 -14.578125 C 9.734375 -14.765625 9.75 -14.898438 9.78125 -14.984375 C 9.988281 -15.523438 10.195312 -16.066406 10.40625 -16.609375 C 10.613281 -17.160156 10.832031 -17.695312 11.0625 -18.21875 L 11.140625 -18.453125 C 11.398438 -19.023438 11.640625 -19.617188 11.859375 -20.234375 C 12.085938 -20.847656 12.226562 -21.507812 12.28125 -22.21875 C 12.28125 -22.269531 12.289062 -22.359375 12.3125 -22.484375 C 12.34375 -22.671875 12.347656 -22.875 12.328125 -23.09375 C 12.316406 -23.3125 12.195312 -23.515625 11.96875 -23.703125 C 11.78125 -23.804688 11.625 -23.859375 11.5 -23.859375 C 11.34375 -23.859375 11.21875 -23.816406 11.125 -23.734375 C 11.03125 -23.660156 10.929688 -23.570312 10.828125 -23.46875 C 10.753906 -23.363281 10.703125 -23.296875 10.671875 -23.265625 C 9.890625 -22.566406 9.21875 -21.78125 8.65625 -20.90625 C 8.101562 -20.03125 7.566406 -19.132812 7.046875 -18.21875 L 6.921875 -18.03125 C 4.078125 -13.019531 1.40625 -7.335938 -1.09375 -0.984375 L -1.21875 -0.671875 L -0.90625 -0.828125 C -0.457031 -1.035156 -0.0195312 -1.25 0.40625 -1.46875 C 0.84375 -1.6875 1.269531 -1.898438 1.6875 -2.109375 C 2.59375 -2.554688 3.488281 -3 4.375 -3.4375 C 5.257812 -3.882812 6.148438 -4.316406 7.046875 -4.734375 C 7.640625 -4.992188 8.25 -5.226562 8.875 -5.4375 C 9.5 -5.644531 10.125 -5.851562 10.75 -6.0625 L 11.8125 -6.40625 C 11.882812 -6.4375 11.976562 -6.460938 12.09375 -6.484375 C 12.21875 -6.515625 12.332031 -6.53125 12.4375 -6.53125 Z M -6.65625 16 C -5.582031 14.976562 -4.828125 13.769531 -4.390625 12.375 C -3.960938 10.976562 -3.894531 9.539062 -4.1875 8.0625 L -4.421875 8.015625 L -4.609375 8.484375 C -5.054688 9.679688 -5.472656 10.867188 -5.859375 12.046875 C -6.253906 13.222656 -6.597656 14.488281 -6.890625 15.84375 Z M -3.515625 2.265625 L -3.4375 1.921875 L -6.609375 4.1875 L -6.453125 4.265625 C -6.035156 4.523438 -5.695312 4.722656 -5.4375 4.859375 C -5.175781 5.003906 -4.953125 5.078125 -4.765625 5.078125 C -4.453125 5.078125 -4.222656 4.863281 -4.078125 4.4375 C -3.941406 4.007812 -3.753906 3.285156 -3.515625 2.265625 Z M -3.515625 2.265625 "/></g></g></g><g fill="#ffffff" fill-opacity="1"><g transform="translate(196.909922, 196.741737)"><g><path d="M 14.046875 -6.328125 C 14.253906 -6.304688 14.367188 -6.269531 14.390625 -6.21875 C 14.421875 -6.0625 14.332031 -5.914062 14.125 -5.78125 C 13.914062 -5.65625 13.679688 -5.546875 13.421875 -5.453125 C 13.160156 -5.359375 12.960938 -5.300781 12.828125 -5.28125 C 12.148438 -5.070312 11.472656 -4.96875 10.796875 -4.96875 C 10.171875 -4.96875 9.554688 -5.03125 8.953125 -5.15625 C 8.640625 -5.238281 8.367188 -5.28125 8.140625 -5.28125 C 7.515625 -5.28125 7.054688 -4.953125 6.765625 -4.296875 C 6.003906 -2.628906 4.804688 -1.265625 3.171875 -0.203125 C 2.960938 -0.0664062 2.71875 0.0546875 2.4375 0.171875 C 2.164062 0.296875 1.875 0.359375 1.5625 0.359375 C 1.175781 0.359375 0.800781 0.238281 0.4375 0 C -0.09375 -0.34375 -0.394531 -0.757812 -0.46875 -1.25 C -0.550781 -1.75 -0.578125 -2.257812 -0.546875 -2.78125 C -0.390625 -5.4375 0.648438 -7.753906 2.578125 -9.734375 C 2.816406 -9.972656 3.050781 -10.207031 3.28125 -10.4375 C 3.519531 -10.675781 3.753906 -10.910156 3.984375 -11.140625 C 4.378906 -11.484375 4.8125 -11.65625 5.28125 -11.65625 C 5.59375 -11.65625 5.90625 -11.585938 6.21875 -11.453125 C 6.945312 -11.117188 7.441406 -10.457031 7.703125 -9.46875 C 7.941406 -8.632812 7.957031 -7.828125 7.75 -7.046875 C 7.644531 -6.597656 7.679688 -6.269531 7.859375 -6.0625 C 8.066406 -5.820312 8.445312 -5.691406 9 -5.671875 C 9.332031 -5.671875 9.65625 -5.671875 9.96875 -5.671875 C 10.726562 -5.671875 11.421875 -5.722656 12.046875 -5.828125 C 12.171875 -5.828125 12.296875 -5.851562 12.421875 -5.90625 C 12.554688 -5.957031 12.691406 -6.019531 12.828125 -6.09375 C 12.984375 -6.144531 13.144531 -6.203125 13.3125 -6.265625 C 13.488281 -6.335938 13.664062 -6.375 13.84375 -6.375 C 13.925781 -6.375 13.992188 -6.359375 14.046875 -6.328125 Z M 5.9375 -5.9375 C 5.9375 -6.019531 5.9375 -6.097656 5.9375 -6.171875 C 5.863281 -6.304688 5.785156 -6.410156 5.703125 -6.484375 C 5.628906 -6.566406 5.550781 -6.648438 5.46875 -6.734375 C 5.289062 -6.910156 5.109375 -7.082031 4.921875 -7.25 C 4.742188 -7.425781 4.550781 -7.601562 4.34375 -7.78125 C 4.289062 -7.8125 4.210938 -7.890625 4.109375 -8.015625 C 4.003906 -8.148438 3.890625 -8.269531 3.765625 -8.375 C 3.648438 -8.476562 3.53125 -8.53125 3.40625 -8.53125 C 3.25 -8.53125 3.101562 -8.453125 2.96875 -8.296875 C 2.21875 -7.222656 1.597656 -6.164062 1.109375 -5.125 C 0.628906 -4.082031 0.378906 -2.9375 0.359375 -1.6875 C 0.359375 -1.269531 0.472656 -0.941406 0.703125 -0.703125 C 0.859375 -0.578125 1.054688 -0.515625 1.296875 -0.515625 C 1.472656 -0.515625 1.664062 -0.566406 1.875 -0.671875 C 3 -1.210938 3.859375 -1.953125 4.453125 -2.890625 C 5.054688 -3.828125 5.539062 -4.726562 5.90625 -5.59375 C 5.925781 -5.644531 5.9375 -5.757812 5.9375 -5.9375 Z M 6.25 -7.515625 C 6.332031 -7.847656 6.375 -8.191406 6.375 -8.546875 C 6.375 -8.898438 6.191406 -9.242188 5.828125 -9.578125 C 5.722656 -9.710938 5.59375 -9.78125 5.4375 -9.78125 C 5.226562 -9.78125 5.035156 -9.703125 4.859375 -9.546875 C 4.691406 -9.390625 4.582031 -9.242188 4.53125 -9.109375 C 4.40625 -8.722656 4.457031 -8.390625 4.6875 -8.109375 C 4.925781 -7.835938 5.1875 -7.585938 5.46875 -7.359375 C 5.550781 -7.304688 5.632812 -7.242188 5.71875 -7.171875 C 5.8125 -7.109375 5.898438 -7.039062 5.984375 -6.96875 L 6.140625 -6.8125 L 6.171875 -6.96875 C 6.171875 -7.070312 6.179688 -7.164062 6.203125 -7.25 C 6.234375 -7.34375 6.25 -7.429688 6.25 -7.515625 Z M 6.25 -7.515625 "/></g></g></g><g fill="#ffffff" fill-opacity="1"><g transform="translate(210.166979, 196.741737)"><g><path d="M 17.09375 -6.0625 C 17.25 -6.03125 17.335938 -5.988281 17.359375 -5.9375 C 17.390625 -5.863281 17.335938 -5.773438 17.203125 -5.671875 C 16.734375 -5.410156 16.203125 -5.28125 15.609375 -5.28125 C 14.878906 -5.28125 14.117188 -5.472656 13.328125 -5.859375 C 12.546875 -6.253906 11.882812 -6.765625 11.34375 -7.390625 C 10.84375 -7.941406 10.460938 -8.347656 10.203125 -8.609375 C 9.941406 -8.867188 9.671875 -9 9.390625 -9 C 9.203125 -9 8.988281 -8.925781 8.75 -8.78125 C 8.519531 -8.632812 8.238281 -8.445312 7.90625 -8.21875 C 6.644531 -7.332031 5.46875 -6.359375 4.375 -5.296875 C 3.28125 -4.242188 2.226562 -3.179688 1.21875 -2.109375 L 0.234375 -1.140625 C 0.210938 -1.085938 0.148438 -0.992188 0.046875 -0.859375 C -0.0351562 -0.753906 -0.125 -0.65625 -0.21875 -0.5625 C -0.3125 -0.476562 -0.421875 -0.4375 -0.546875 -0.4375 C -0.703125 -0.4375 -0.898438 -0.515625 -1.140625 -0.671875 C -1.421875 -0.878906 -1.546875 -1.09375 -1.515625 -1.3125 C -1.492188 -1.53125 -1.457031 -1.742188 -1.40625 -1.953125 L -1.328125 -2.109375 C -0.285156 -5.421875 0.988281 -8.34375 2.5 -10.875 L 2.578125 -10.953125 C 2.660156 -11.109375 2.765625 -11.265625 2.890625 -11.421875 C 3.023438 -11.578125 3.171875 -11.65625 3.328125 -11.65625 C 3.429688 -11.65625 3.546875 -11.613281 3.671875 -11.53125 C 3.859375 -11.40625 3.976562 -11.273438 4.03125 -11.140625 C 4.082031 -11.015625 4.082031 -10.878906 4.03125 -10.734375 C 3.976562 -10.585938 3.910156 -10.453125 3.828125 -10.328125 C 3.773438 -10.171875 3.738281 -10.066406 3.71875 -10.015625 L 3.40625 -9.265625 C 3.25 -8.878906 3.082031 -8.484375 2.90625 -8.078125 C 2.738281 -7.671875 2.566406 -7.273438 2.390625 -6.890625 C 2.285156 -6.617188 2.164062 -6.351562 2.03125 -6.09375 C 1.90625 -5.832031 1.789062 -5.570312 1.6875 -5.3125 C 1.65625 -5.3125 1.597656 -5.207031 1.515625 -5 C 1.441406 -4.789062 1.375 -4.566406 1.3125 -4.328125 C 1.25 -4.097656 1.242188 -3.945312 1.296875 -3.875 L 1.375 -3.828125 L 1.453125 -3.796875 C 1.710938 -3.847656 1.929688 -3.953125 2.109375 -4.109375 C 2.296875 -4.265625 2.46875 -4.429688 2.625 -4.609375 C 2.675781 -4.660156 2.734375 -4.71875 2.796875 -4.78125 C 2.859375 -4.851562 2.929688 -4.925781 3.015625 -5 L 4.65625 -6.375 C 5.175781 -6.820312 5.695312 -7.257812 6.21875 -7.6875 C 6.738281 -8.113281 7.257812 -8.535156 7.78125 -8.953125 C 8.488281 -9.472656 9.023438 -9.734375 9.390625 -9.734375 C 9.722656 -9.734375 10.050781 -9.582031 10.375 -9.28125 C 10.707031 -8.988281 11.117188 -8.539062 11.609375 -7.9375 C 12.160156 -7.257812 12.796875 -6.726562 13.515625 -6.34375 C 14.234375 -5.96875 14.957031 -5.78125 15.6875 -5.78125 C 15.914062 -5.78125 16.148438 -5.804688 16.390625 -5.859375 C 16.460938 -5.859375 16.566406 -5.882812 16.703125 -5.9375 C 16.878906 -6.019531 17.007812 -6.0625 17.09375 -6.0625 Z M 17.09375 -6.0625 "/></g></g></g><g fill="#ffffff" fill-opacity="1"><g transform="translate(226.708959, 196.741737)"><g/></g></g><g fill="#ffffff" fill-opacity="1"><g transform="translate(238.440872, 196.741737)"><g><path d="M 14.75 9.734375 C 13.332031 10.203125 11.660156 10.4375 9.734375 10.4375 C 9.210938 10.4375 8.664062 10.410156 8.09375 10.359375 C 6.164062 10.253906 4.628906 9.550781 3.484375 8.25 C 2.335938 6.96875 1.90625 5.457031 2.1875 3.71875 C 2.394531 2.4375 2.835938 1.351562 3.515625 0.46875 C 4.191406 -0.414062 4.894531 -1.1875 5.625 -1.84375 C 7.21875 -3.25 8.984375 -4.425781 10.921875 -5.375 C 12.867188 -6.332031 14.832031 -7.226562 16.8125 -8.0625 L 17.828125 -8.484375 C 18.140625 -8.617188 18.445312 -8.75 18.75 -8.875 C 19.050781 -9.007812 19.347656 -9.15625 19.640625 -9.3125 L 20.03125 -9.5 C 20.207031 -9.601562 20.398438 -9.710938 20.609375 -9.828125 C 20.816406 -9.953125 21 -10.09375 21.15625 -10.25 C 21.1875 -10.269531 21.253906 -10.351562 21.359375 -10.5 C 21.460938 -10.644531 21.5 -10.796875 21.46875 -10.953125 L 21.46875 -10.984375 L 21.359375 -11.140625 C 21.273438 -11.222656 21.144531 -11.265625 20.96875 -11.265625 C 20.914062 -11.265625 20.847656 -11.25 20.765625 -11.21875 C 20.816406 -11.25 20.867188 -11.269531 20.921875 -11.28125 C 20.972656 -11.289062 21.023438 -11.296875 21.078125 -11.296875 C 21.210938 -11.328125 21.335938 -11.351562 21.453125 -11.375 C 21.566406 -11.40625 21.675781 -11.421875 21.78125 -11.421875 C 22.144531 -11.421875 22.421875 -11.265625 22.609375 -10.953125 C 22.765625 -10.691406 22.769531 -10.457031 22.625 -10.25 C 22.476562 -10.039062 22.265625 -9.832031 21.984375 -9.625 L 21.828125 -9.5 C 21.148438 -8.957031 20.414062 -8.484375 19.625 -8.078125 C 18.84375 -7.671875 18.050781 -7.273438 17.25 -6.890625 C 16.988281 -6.753906 16.71875 -6.617188 16.4375 -6.484375 C 16.164062 -6.359375 15.890625 -6.226562 15.609375 -6.09375 C 13.910156 -5.207031 12.226562 -4.273438 10.5625 -3.296875 C 8.894531 -2.328125 7.394531 -1.148438 6.0625 0.234375 C 4.882812 1.484375 4.140625 2.757812 3.828125 4.0625 C 3.460938 5.46875 3.695312 6.679688 4.53125 7.703125 C 5.363281 8.742188 6.601562 9.332031 8.25 9.46875 C 8.851562 9.519531 9.441406 9.546875 10.015625 9.546875 C 13.140625 9.546875 16.304688 8.773438 19.515625 7.234375 C 25.203125 4.523438 30.535156 0.535156 35.515625 -4.734375 L 35.671875 -4.890625 C 35.773438 -5.015625 35.890625 -5.140625 36.015625 -5.265625 C 36.148438 -5.398438 36.28125 -5.519531 36.40625 -5.625 C 36.457031 -5.65625 36.519531 -5.695312 36.59375 -5.75 C 36.675781 -5.800781 36.742188 -5.828125 36.796875 -5.828125 C 36.878906 -5.691406 36.878906 -5.550781 36.796875 -5.40625 C 36.722656 -5.269531 36.660156 -5.160156 36.609375 -5.078125 C 35.046875 -3.492188 33.554688 -2.039062 32.140625 -0.71875 C 30.734375 0.59375 29.265625 1.8125 27.734375 2.9375 C 24.285156 5.488281 20.6875 7.492188 16.9375 8.953125 C 16.226562 9.210938 15.5 9.472656 14.75 9.734375 Z M 12.828125 -9.109375 C 12.222656 -8.953125 11.609375 -8.875 10.984375 -8.875 C 10.304688 -8.875 9.628906 -8.96875 8.953125 -9.15625 C 7.703125 -9.46875 6.789062 -10 6.21875 -10.75 C 5.664062 -11.507812 5.46875 -12.4375 5.625 -13.53125 C 5.863281 -15.144531 6.675781 -16.671875 8.0625 -18.109375 C 12.570312 -22.796875 17.757812 -25.753906 23.625 -26.984375 C 23.695312 -26.984375 23.785156 -27 23.890625 -27.03125 C 23.972656 -27.050781 24.046875 -27.066406 24.109375 -27.078125 C 24.171875 -27.097656 24.242188 -27.117188 24.328125 -27.140625 C 24.847656 -27.191406 25.34375 -27.21875 25.8125 -27.21875 C 27.945312 -27.21875 29.613281 -26.59375 30.8125 -25.34375 C 32.144531 -23.957031 32.664062 -22 32.375 -19.46875 C 32.195312 -17.800781 31.832031 -16.488281 31.28125 -15.53125 C 31.070312 -15.164062 30.828125 -14.984375 30.546875 -14.984375 C 30.390625 -14.984375 30.21875 -15.035156 30.03125 -15.140625 C 29.457031 -15.453125 29.289062 -15.921875 29.53125 -16.546875 C 29.601562 -16.773438 29.6875 -17 29.78125 -17.21875 C 29.875 -17.445312 29.957031 -17.675781 30.03125 -17.90625 C 30.21875 -18.375 30.394531 -18.84375 30.5625 -19.3125 C 30.726562 -19.789062 30.878906 -20.273438 31.015625 -20.765625 C 31.378906 -22.460938 31.117188 -23.804688 30.234375 -24.796875 C 29.367188 -25.765625 28.023438 -26.25 26.203125 -26.25 L 26 -26.25 C 24.800781 -26.25 23.5 -25.984375 22.09375 -25.453125 C 16.101562 -23.242188 11.554688 -19.816406 8.453125 -15.171875 L 8.171875 -14.828125 C 7.941406 -14.484375 7.726562 -14.128906 7.53125 -13.765625 C 7.332031 -13.398438 7.234375 -13.007812 7.234375 -12.59375 C 7.234375 -12.175781 7.414062 -11.734375 7.78125 -11.265625 C 8.59375 -10.328125 9.738281 -9.859375 11.21875 -9.859375 C 11.507812 -9.859375 11.789062 -9.867188 12.0625 -9.890625 C 12.332031 -9.921875 12.585938 -9.945312 12.828125 -9.96875 C 13.554688 -10.070312 14.285156 -10.179688 15.015625 -10.296875 C 15.742188 -10.421875 16.472656 -10.535156 17.203125 -10.640625 C 17.753906 -10.742188 18.3125 -10.835938 18.875 -10.921875 C 19.4375 -11.015625 19.988281 -11.113281 20.53125 -11.21875 C 20.507812 -11.195312 20.484375 -11.1875 20.453125 -11.1875 C 20.273438 -11.15625 20.113281 -11.117188 19.96875 -11.078125 C 19.820312 -11.046875 19.671875 -11.003906 19.515625 -10.953125 C 19.515625 -10.953125 19.375 -10.90625 19.09375 -10.8125 C 18.820312 -10.71875 18.609375 -10.644531 18.453125 -10.59375 C 18.242188 -10.539062 18.035156 -10.484375 17.828125 -10.421875 C 17.617188 -10.359375 17.398438 -10.285156 17.171875 -10.203125 C 16.460938 -10.023438 15.742188 -9.84375 15.015625 -9.65625 C 14.285156 -9.476562 13.554688 -9.296875 12.828125 -9.109375 Z M 12.828125 -9.109375 "/></g></g></g><g fill="#ffffff" fill-opacity="1"><g transform="translate(274.26229, 196.741737)"><g><path d="M 22.5625 -19.203125 C 22.644531 -19.117188 22.695312 -19 22.71875 -18.84375 C 22.71875 -18.769531 22.695312 -18.695312 22.65625 -18.625 C 22.625 -18.5625 22.515625 -18.53125 22.328125 -18.53125 C 22.253906 -18.53125 22.171875 -18.535156 22.078125 -18.546875 C 21.984375 -18.566406 21.898438 -18.578125 21.828125 -18.578125 L 21.625 -18.609375 C 20.1875 -18.796875 18.769531 -18.914062 17.375 -18.96875 C 15.988281 -19.019531 14.644531 -19.046875 13.34375 -19.046875 L 11.34375 -19 C 11 -19 10.648438 -19.003906 10.296875 -19.015625 C 9.953125 -19.035156 9.609375 -19.046875 9.265625 -19.046875 C 8.847656 -19.046875 8.492188 -18.992188 8.203125 -18.890625 C 7.921875 -18.785156 7.703125 -18.5625 7.546875 -18.21875 L 6.84375 -16.890625 C 5.144531 -13.609375 3.488281 -10.234375 1.875 -6.765625 C 0.257812 -3.296875 -1.03125 0.335938 -2 4.140625 C -2.75 7.117188 -3.097656 9.84375 -3.046875 12.3125 C -3.046875 12.414062 -3.046875 12.519531 -3.046875 12.625 C -3.046875 12.863281 -3.039062 13.085938 -3.03125 13.296875 C -3.019531 13.503906 -2.9375 13.703125 -2.78125 13.890625 C -2.539062 14.117188 -2.1875 14.257812 -1.71875 14.3125 C -1.613281 14.3125 -1.535156 14.351562 -1.484375 14.4375 C -1.378906 14.539062 -1.316406 14.671875 -1.296875 14.828125 C -1.265625 15.003906 -1.300781 15.125 -1.40625 15.1875 C -1.507812 15.257812 -1.613281 15.296875 -1.71875 15.296875 L -1.765625 15.296875 C -2.910156 15.296875 -3.640625 14.75 -3.953125 13.65625 C -4.128906 13.070312 -4.210938 12.515625 -4.203125 11.984375 C -4.191406 11.453125 -4.160156 10.925781 -4.109375 10.40625 L -4.0625 10.09375 C -3.851562 7.75 -3.460938 5.476562 -2.890625 3.28125 C -2.316406 1.09375 -1.628906 -1.023438 -0.828125 -3.078125 C -0.0351562 -5.140625 0.757812 -7.175781 1.5625 -9.1875 L 1.796875 -9.703125 C 2.191406 -10.691406 2.625 -11.660156 3.09375 -12.609375 C 3.5625 -13.566406 4.015625 -14.515625 4.453125 -15.453125 C 4.691406 -15.890625 4.921875 -16.328125 5.140625 -16.765625 C 5.359375 -17.210938 5.570312 -17.660156 5.78125 -18.109375 C 5.832031 -18.234375 5.863281 -18.378906 5.875 -18.546875 C 5.894531 -18.722656 5.800781 -18.992188 5.59375 -19.359375 L 5.515625 -19.4375 L 5.4375 -19.4375 C 4.863281 -19.4375 4.273438 -19.4375 3.671875 -19.4375 C 3.078125 -19.4375 2.476562 -19.4375 1.875 -19.4375 C 1.28125 -19.457031 0.675781 -19.46875 0.0625 -19.46875 C -0.550781 -19.46875 -1.171875 -19.46875 -1.796875 -19.46875 C -3.722656 -19.46875 -5.429688 -19.441406 -6.921875 -19.390625 C -7.234375 -19.367188 -7.546875 -19.359375 -7.859375 -19.359375 C -8.171875 -19.359375 -8.484375 -19.359375 -8.796875 -19.359375 C -9.609375 -19.328125 -10.421875 -19.289062 -11.234375 -19.25 C -12.054688 -19.21875 -12.847656 -19.109375 -13.609375 -18.921875 C -13.847656 -18.867188 -14.046875 -18.84375 -14.203125 -18.84375 C -14.378906 -18.84375 -14.535156 -18.882812 -14.671875 -18.96875 C -14.742188 -19.039062 -14.804688 -19.171875 -14.859375 -19.359375 C -14.910156 -19.597656 -14.796875 -19.71875 -14.515625 -19.71875 C -14.460938 -19.71875 -14.359375 -19.707031 -14.203125 -19.6875 C -14.046875 -19.675781 -13.96875 -19.671875 -13.96875 -19.671875 L -13.84375 -19.671875 C -12.382812 -19.804688 -10.941406 -19.890625 -9.515625 -19.921875 C -8.097656 -19.960938 -6.828125 -19.984375 -5.703125 -19.984375 C -5.109375 -19.984375 -4.503906 -19.984375 -3.890625 -19.984375 C -3.273438 -19.984375 -2.671875 -19.984375 -2.078125 -19.984375 C -1.472656 -19.960938 -0.863281 -19.953125 -0.25 -19.953125 C 0.363281 -19.953125 0.96875 -19.953125 1.5625 -19.953125 C 2.132812 -19.953125 2.707031 -19.953125 3.28125 -19.953125 C 3.851562 -19.953125 4.425781 -19.960938 5 -19.984375 C 5.550781 -20.015625 6.039062 -20.113281 6.46875 -20.28125 C 6.90625 -20.445312 7.253906 -20.789062 7.515625 -21.3125 C 8.609375 -23.601562 10.117188 -25.796875 12.046875 -27.890625 C 12.066406 -27.941406 12.117188 -28.003906 12.203125 -28.078125 C 12.273438 -28.179688 12.359375 -28.285156 12.453125 -28.390625 C 12.546875 -28.492188 12.65625 -28.546875 12.78125 -28.546875 C 12.914062 -28.546875 13.078125 -28.46875 13.265625 -28.3125 C 13.492188 -28.101562 13.582031 -27.894531 13.53125 -27.6875 C 13.476562 -27.476562 13.375 -27.257812 13.21875 -27.03125 C 13.007812 -26.738281 12.8125 -26.460938 12.625 -26.203125 C 12.445312 -25.941406 12.265625 -25.691406 12.078125 -25.453125 C 11.503906 -24.671875 10.929688 -23.859375 10.359375 -23.015625 C 9.785156 -22.171875 9.253906 -21.238281 8.765625 -20.21875 L 8.640625 -20.03125 L 12.125 -20.03125 C 14.882812 -20.03125 18.015625 -19.816406 21.515625 -19.390625 C 21.566406 -19.390625 21.65625 -19.390625 21.78125 -19.390625 C 21.914062 -19.390625 22.050781 -19.375 22.1875 -19.34375 C 22.332031 -19.320312 22.457031 -19.273438 22.5625 -19.203125 Z M 22.5625 -19.203125 "/></g></g></g><g fill="#ffffff" fill-opacity="1"><g transform="translate(280.98857, 196.741737)"><g><path d="M 13.375 -5.78125 C 13.5625 -5.882812 13.769531 -5.9375 14 -5.9375 C 14.03125 -5.8125 13.976562 -5.6875 13.84375 -5.5625 C 13.71875 -5.445312 13.601562 -5.335938 13.5 -5.234375 L 13.265625 -5.046875 C 12.316406 -4.335938 11.359375 -3.648438 10.390625 -2.984375 C 9.429688 -2.328125 8.394531 -1.78125 7.28125 -1.34375 C 6.175781 -0.914062 4.945312 -0.703125 3.59375 -0.703125 L 3.4375 -0.703125 C 2.113281 -0.703125 1.085938 -1.109375 0.359375 -1.921875 C -0.296875 -2.671875 -0.519531 -3.582031 -0.3125 -4.65625 C 0.414062 -8.226562 2.738281 -10.535156 6.65625 -11.578125 C 6.863281 -11.628906 7.070312 -11.65625 7.28125 -11.65625 C 7.90625 -11.65625 8.410156 -11.378906 8.796875 -10.828125 C 9.109375 -10.410156 9.207031 -10.050781 9.09375 -9.75 C 8.976562 -9.457031 8.800781 -9.15625 8.5625 -8.84375 C 7.519531 -7.5625 5.800781 -6.738281 3.40625 -6.375 C 2.539062 -6.238281 1.976562 -5.894531 1.71875 -5.34375 C 1.457031 -4.800781 1.265625 -4.21875 1.140625 -3.59375 L 1.09375 -3.328125 C 1.019531 -2.960938 1.085938 -2.625 1.296875 -2.3125 C 1.578125 -1.914062 2.03125 -1.628906 2.65625 -1.453125 C 3.125 -1.316406 3.617188 -1.25 4.140625 -1.25 C 4.554688 -1.25 4.957031 -1.285156 5.34375 -1.359375 C 5.738281 -1.441406 6.160156 -1.550781 6.609375 -1.6875 C 7.992188 -2.070312 9.375 -2.734375 10.75 -3.671875 C 11.351562 -4.066406 11.953125 -4.535156 12.546875 -5.078125 C 12.597656 -5.109375 12.648438 -5.148438 12.703125 -5.203125 C 12.753906 -5.253906 12.804688 -5.304688 12.859375 -5.359375 C 12.941406 -5.429688 13.019531 -5.5 13.09375 -5.5625 C 13.175781 -5.632812 13.269531 -5.707031 13.375 -5.78125 Z M 3.875 -7.78125 L 3.59375 -7.46875 L 4.03125 -7.59375 C 4.9375 -7.800781 5.707031 -8.070312 6.34375 -8.40625 C 6.988281 -8.75 7.546875 -9.296875 8.015625 -10.046875 L 8.171875 -10.359375 L 7.828125 -10.25 C 7.066406 -10.007812 6.359375 -9.710938 5.703125 -9.359375 C 5.054688 -9.015625 4.445312 -8.488281 3.875 -7.78125 Z M 3.875 -7.78125 "/></g></g></g><g fill="#ffffff" fill-opacity="1"><g transform="translate(294.323846, 196.741737)"><g><path d="M 17.09375 -6.0625 C 17.25 -6.03125 17.335938 -5.988281 17.359375 -5.9375 C 17.390625 -5.863281 17.335938 -5.773438 17.203125 -5.671875 C 16.734375 -5.410156 16.203125 -5.28125 15.609375 -5.28125 C 14.878906 -5.28125 14.117188 -5.472656 13.328125 -5.859375 C 12.546875 -6.253906 11.882812 -6.765625 11.34375 -7.390625 C 10.84375 -7.941406 10.460938 -8.347656 10.203125 -8.609375 C 9.941406 -8.867188 9.671875 -9 9.390625 -9 C 9.203125 -9 8.988281 -8.925781 8.75 -8.78125 C 8.519531 -8.632812 8.238281 -8.445312 7.90625 -8.21875 C 6.644531 -7.332031 5.46875 -6.359375 4.375 -5.296875 C 3.28125 -4.242188 2.226562 -3.179688 1.21875 -2.109375 L 0.234375 -1.140625 C 0.210938 -1.085938 0.148438 -0.992188 0.046875 -0.859375 C -0.0351562 -0.753906 -0.125 -0.65625 -0.21875 -0.5625 C -0.3125 -0.476562 -0.421875 -0.4375 -0.546875 -0.4375 C -0.703125 -0.4375 -0.898438 -0.515625 -1.140625 -0.671875 C -1.421875 -0.878906 -1.546875 -1.09375 -1.515625 -1.3125 C -1.492188 -1.53125 -1.457031 -1.742188 -1.40625 -1.953125 L -1.328125 -2.109375 C -0.285156 -5.421875 0.988281 -8.34375 2.5 -10.875 L 2.578125 -10.953125 C 2.660156 -11.109375 2.765625 -11.265625 2.890625 -11.421875 C 3.023438 -11.578125 3.171875 -11.65625 3.328125 -11.65625 C 3.429688 -11.65625 3.546875 -11.613281 3.671875 -11.53125 C 3.859375 -11.40625 3.976562 -11.273438 4.03125 -11.140625 C 4.082031 -11.015625 4.082031 -10.878906 4.03125 -10.734375 C 3.976562 -10.585938 3.910156 -10.453125 3.828125 -10.328125 C 3.773438 -10.171875 3.738281 -10.066406 3.71875 -10.015625 L 3.40625 -9.265625 C 3.25 -8.878906 3.082031 -8.484375 2.90625 -8.078125 C 2.738281 -7.671875 2.566406 -7.273438 2.390625 -6.890625 C 2.285156 -6.617188 2.164062 -6.351562 2.03125 -6.09375 C 1.90625 -5.832031 1.789062 -5.570312 1.6875 -5.3125 C 1.65625 -5.3125 1.597656 -5.207031 1.515625 -5 C 1.441406 -4.789062 1.375 -4.566406 1.3125 -4.328125 C 1.25 -4.097656 1.242188 -3.945312 1.296875 -3.875 L 1.375 -3.828125 L 1.453125 -3.796875 C 1.710938 -3.847656 1.929688 -3.953125 2.109375 -4.109375 C 2.296875 -4.265625 2.46875 -4.429688 2.625 -4.609375 C 2.675781 -4.660156 2.734375 -4.71875 2.796875 -4.78125 C 2.859375 -4.851562 2.929688 -4.925781 3.015625 -5 L 4.65625 -6.375 C 5.175781 -6.820312 5.695312 -7.257812 6.21875 -7.6875 C 6.738281 -8.113281 7.257812 -8.535156 7.78125 -8.953125 C 8.488281 -9.472656 9.023438 -9.734375 9.390625 -9.734375 C 9.722656 -9.734375 10.050781 -9.582031 10.375 -9.28125 C 10.707031 -8.988281 11.117188 -8.539062 11.609375 -7.9375 C 12.160156 -7.257812 12.796875 -6.726562 13.515625 -6.34375 C 14.234375 -5.96875 14.957031 -5.78125 15.6875 -5.78125 C 15.914062 -5.78125 16.148438 -5.804688 16.390625 -5.859375 C 16.460938 -5.859375 16.566406 -5.882812 16.703125 -5.9375 C 16.878906 -6.019531 17.007812 -6.0625 17.09375 -6.0625 Z M 17.09375 -6.0625 "/></g></g></g><g fill="#ffffff" fill-opacity="1"><g transform="translate(310.865825, 196.741737)"><g><path d="M 21.546875 -6.578125 C 21.703125 -6.460938 21.796875 -6.351562 21.828125 -6.25 C 21.847656 -6.144531 21.828125 -6.046875 21.765625 -5.953125 C 21.703125 -5.867188 21.628906 -5.785156 21.546875 -5.703125 C 21.441406 -5.597656 21.378906 -5.519531 21.359375 -5.46875 C 19.191406 -2.132812 16.125 0.648438 12.15625 2.890625 C 11.738281 3.128906 11.207031 3.25 10.5625 3.25 L 10.484375 3.25 C 9.828125 3.25 9.332031 3.078125 9 2.734375 C 8.632812 2.398438 8.453125 1.894531 8.453125 1.21875 C 8.453125 0.613281 8.566406 0.0703125 8.796875 -0.40625 C 9.035156 -0.894531 9.285156 -1.359375 9.546875 -1.796875 L 9.9375 -2.421875 C 10.007812 -2.578125 10.09375 -2.734375 10.1875 -2.890625 C 10.28125 -3.046875 10.363281 -3.203125 10.4375 -3.359375 L 10.484375 -3.484375 C 10.535156 -3.585938 10.578125 -3.71875 10.609375 -3.875 C 10.648438 -4.03125 10.582031 -4.195312 10.40625 -4.375 C 10.195312 -4.582031 9.945312 -4.6875 9.65625 -4.6875 C 9.550781 -4.6875 9.4375 -4.660156 9.3125 -4.609375 C 8.789062 -4.503906 8.273438 -4.378906 7.765625 -4.234375 C 7.253906 -4.097656 6.738281 -3.953125 6.21875 -3.796875 C 5.5625 -3.554688 4.925781 -3.28125 4.3125 -2.96875 C 3.707031 -2.65625 3.117188 -2.332031 2.546875 -2 C 2.285156 -1.863281 2.03125 -1.722656 1.78125 -1.578125 C 1.53125 -1.441406 1.273438 -1.304688 1.015625 -1.171875 L 0.859375 -1.09375 C 0.753906 -1.019531 0.632812 -0.957031 0.5 -0.90625 C 0.375 -0.851562 0.25 -0.828125 0.125 -0.828125 C -0.113281 -0.828125 -0.363281 -0.929688 -0.625 -1.140625 C -0.914062 -1.398438 -1.0625 -1.640625 -1.0625 -1.859375 C -1.0625 -2.078125 -1.035156 -2.304688 -0.984375 -2.546875 L -0.9375 -2.703125 C -0.46875 -4.835938 0.328125 -6.738281 1.453125 -8.40625 L 1.53125 -8.53125 C 1.582031 -8.632812 1.644531 -8.726562 1.71875 -8.8125 C 1.800781 -8.90625 1.894531 -8.953125 2 -8.953125 C 2.070312 -8.953125 2.148438 -8.925781 2.234375 -8.875 C 2.410156 -8.800781 2.523438 -8.695312 2.578125 -8.5625 C 2.710938 -8.300781 2.71875 -7.992188 2.59375 -7.640625 C 2.476562 -7.296875 2.359375 -7.003906 2.234375 -6.765625 C 2.148438 -6.609375 2.109375 -6.503906 2.109375 -6.453125 L 0.75 -2.890625 C 0.71875 -2.835938 0.6875 -2.753906 0.65625 -2.640625 C 0.632812 -2.523438 0.675781 -2.425781 0.78125 -2.34375 C 0.882812 -2.269531 1.015625 -2.234375 1.171875 -2.234375 C 1.328125 -2.234375 1.507812 -2.265625 1.71875 -2.328125 C 1.925781 -2.390625 2.070312 -2.445312 2.15625 -2.5 C 2.28125 -2.550781 2.394531 -2.609375 2.5 -2.671875 C 2.601562 -2.742188 2.707031 -2.816406 2.8125 -2.890625 C 2.945312 -2.992188 3.070312 -3.082031 3.1875 -3.15625 C 3.300781 -3.238281 3.425781 -3.304688 3.5625 -3.359375 C 3.976562 -3.566406 4.398438 -3.757812 4.828125 -3.9375 C 5.253906 -4.125 5.691406 -4.3125 6.140625 -4.5 C 7.210938 -4.9375 8.21875 -5.222656 9.15625 -5.359375 C 9.3125 -5.378906 9.453125 -5.390625 9.578125 -5.390625 C 10.253906 -5.390625 10.789062 -5.171875 11.1875 -4.734375 C 11.625 -4.234375 11.738281 -3.617188 11.53125 -2.890625 C 11.425781 -2.453125 11.289062 -2.023438 11.125 -1.609375 C 10.957031 -1.191406 10.796875 -0.773438 10.640625 -0.359375 C 10.535156 -0.117188 10.4375 0.113281 10.34375 0.34375 C 10.25 0.582031 10.148438 0.820312 10.046875 1.0625 L 10.015625 1.21875 C 9.929688 1.34375 9.875 1.492188 9.84375 1.671875 C 9.820312 1.859375 9.890625 2.03125 10.046875 2.1875 C 10.253906 2.394531 10.488281 2.5 10.75 2.5 C 10.851562 2.5 10.957031 2.484375 11.0625 2.453125 C 11.164062 2.429688 11.269531 2.410156 11.375 2.390625 C 12.601562 2.023438 13.671875 1.484375 14.578125 0.765625 C 15.492188 0.046875 16.316406 -0.675781 17.046875 -1.40625 C 17.648438 -2.007812 18.296875 -2.679688 18.984375 -3.421875 C 19.679688 -4.160156 20.265625 -5 20.734375 -5.9375 L 20.8125 -6.015625 C 20.863281 -6.148438 20.929688 -6.289062 21.015625 -6.4375 C 21.109375 -6.582031 21.222656 -6.65625 21.359375 -6.65625 C 21.410156 -6.65625 21.472656 -6.628906 21.546875 -6.578125 Z M 21.546875 -6.578125 "/></g></g></g><g fill="#ffffff" fill-opacity="1"><g transform="translate(331.553082, 196.741737)"><g><path d="M 13.609375 -6.21875 C 13.691406 -6.164062 13.734375 -6.046875 13.734375 -5.859375 C 13.734375 -5.679688 13.617188 -5.515625 13.390625 -5.359375 C 13.171875 -5.203125 12.992188 -5.070312 12.859375 -4.96875 C 12.421875 -4.570312 11.96875 -4.191406 11.5 -3.828125 C 11.03125 -3.460938 10.5625 -3.113281 10.09375 -2.78125 C 9.101562 -2.070312 8.050781 -1.441406 6.9375 -0.890625 C 5.832031 -0.347656 4.65625 0.09375 3.40625 0.4375 C 2.882812 0.5625 2.335938 0.625 1.765625 0.625 C 1.191406 0.625 0.617188 0.363281 0.046875 -0.15625 C -0.535156 -0.65625 -0.859375 -1.179688 -0.921875 -1.734375 C -0.984375 -2.296875 -0.9375 -2.835938 -0.78125 -3.359375 C -0.3125 -5.128906 0.347656 -6.785156 1.203125 -8.328125 C 2.066406 -9.867188 3.097656 -11.289062 4.296875 -12.59375 C 4.429688 -12.769531 4.59375 -12.9375 4.78125 -13.09375 C 4.976562 -13.257812 5.25 -13.207031 5.59375 -12.9375 C 5.957031 -12.65625 6.070312 -12.398438 5.9375 -12.171875 C 5.8125 -11.953125 5.695312 -11.753906 5.59375 -11.578125 C 4.757812 -10.242188 3.953125 -8.910156 3.171875 -7.578125 C 2.390625 -6.253906 1.695312 -4.863281 1.09375 -3.40625 C 0.988281 -3.144531 0.859375 -2.867188 0.703125 -2.578125 C 0.546875 -2.296875 0.46875 -2.003906 0.46875 -1.703125 C 0.46875 -1.398438 0.613281 -1.109375 0.90625 -0.828125 C 1.375 -0.328125 1.894531 -0.113281 2.46875 -0.1875 C 3.039062 -0.269531 3.5625 -0.363281 4.03125 -0.46875 C 5.039062 -0.707031 5.976562 -1.0625 6.84375 -1.53125 C 7.707031 -2 8.53125 -2.519531 9.3125 -3.09375 C 9.414062 -3.164062 9.675781 -3.382812 10.09375 -3.75 C 10.507812 -4.113281 10.960938 -4.503906 11.453125 -4.921875 C 11.953125 -5.335938 12.410156 -5.675781 12.828125 -5.9375 C 13.242188 -6.195312 13.503906 -6.289062 13.609375 -6.21875 Z M 7.3125 -14.78125 C 6.707031 -14.726562 6.328125 -15.003906 6.171875 -15.609375 C 6.046875 -16.128906 6.097656 -16.5 6.328125 -16.71875 C 6.566406 -16.9375 6.910156 -17.0625 7.359375 -17.09375 C 7.671875 -17.113281 7.941406 -17.046875 8.171875 -16.890625 C 8.410156 -16.734375 8.582031 -16.460938 8.6875 -16.078125 C 8.707031 -15.628906 8.585938 -15.3125 8.328125 -15.125 C 8.066406 -14.945312 7.726562 -14.832031 7.3125 -14.78125 Z M 7.3125 -14.78125 "/></g></g></g><g fill="#ffffff" fill-opacity="1"><g transform="translate(344.45818, 196.741737)"><g><path d="M 22.5625 -19.203125 C 22.644531 -19.117188 22.695312 -19 22.71875 -18.84375 C 22.71875 -18.769531 22.695312 -18.695312 22.65625 -18.625 C 22.625 -18.5625 22.515625 -18.53125 22.328125 -18.53125 C 22.253906 -18.53125 22.171875 -18.535156 22.078125 -18.546875 C 21.984375 -18.566406 21.898438 -18.578125 21.828125 -18.578125 L 21.625 -18.609375 C 20.1875 -18.796875 18.769531 -18.914062 17.375 -18.96875 C 15.988281 -19.019531 14.644531 -19.046875 13.34375 -19.046875 L 11.34375 -19 C 11 -19 10.648438 -19.003906 10.296875 -19.015625 C 9.953125 -19.035156 9.609375 -19.046875 9.265625 -19.046875 C 8.847656 -19.046875 8.492188 -18.992188 8.203125 -18.890625 C 7.921875 -18.785156 7.703125 -18.5625 7.546875 -18.21875 L 6.84375 -16.890625 C 5.144531 -13.609375 3.488281 -10.234375 1.875 -6.765625 C 0.257812 -3.296875 -1.03125 0.335938 -2 4.140625 C -2.75 7.117188 -3.097656 9.84375 -3.046875 12.3125 C -3.046875 12.414062 -3.046875 12.519531 -3.046875 12.625 C -3.046875 12.863281 -3.039062 13.085938 -3.03125 13.296875 C -3.019531 13.503906 -2.9375 13.703125 -2.78125 13.890625 C -2.539062 14.117188 -2.1875 14.257812 -1.71875 14.3125 C -1.613281 14.3125 -1.535156 14.351562 -1.484375 14.4375 C -1.378906 14.539062 -1.316406 14.671875 -1.296875 14.828125 C -1.265625 15.003906 -1.300781 15.125 -1.40625 15.1875 C -1.507812 15.257812 -1.613281 15.296875 -1.71875 15.296875 L -1.765625 15.296875 C -2.910156 15.296875 -3.640625 14.75 -3.953125 13.65625 C -4.128906 13.070312 -4.210938 12.515625 -4.203125 11.984375 C -4.191406 11.453125 -4.160156 10.925781 -4.109375 10.40625 L -4.0625 10.09375 C -3.851562 7.75 -3.460938 5.476562 -2.890625 3.28125 C -2.316406 1.09375 -1.628906 -1.023438 -0.828125 -3.078125 C -0.0351562 -5.140625 0.757812 -7.175781 1.5625 -9.1875 L 1.796875 -9.703125 C 2.191406 -10.691406 2.625 -11.660156 3.09375 -12.609375 C 3.5625 -13.566406 4.015625 -14.515625 4.453125 -15.453125 C 4.691406 -15.890625 4.921875 -16.328125 5.140625 -16.765625 C 5.359375 -17.210938 5.570312 -17.660156 5.78125 -18.109375 C 5.832031 -18.234375 5.863281 -18.378906 5.875 -18.546875 C 5.894531 -18.722656 5.800781 -18.992188 5.59375 -19.359375 L 5.515625 -19.4375 L 5.4375 -19.4375 C 4.863281 -19.4375 4.273438 -19.4375 3.671875 -19.4375 C 3.078125 -19.4375 2.476562 -19.4375 1.875 -19.4375 C 1.28125 -19.457031 0.675781 -19.46875 0.0625 -19.46875 C -0.550781 -19.46875 -1.171875 -19.46875 -1.796875 -19.46875 C -3.722656 -19.46875 -5.429688 -19.441406 -6.921875 -19.390625 C -7.234375 -19.367188 -7.546875 -19.359375 -7.859375 -19.359375 C -8.171875 -19.359375 -8.484375 -19.359375 -8.796875 -19.359375 C -9.609375 -19.328125 -10.421875 -19.289062 -11.234375 -19.25 C -12.054688 -19.21875 -12.847656 -19.109375 -13.609375 -18.921875 C -13.847656 -18.867188 -14.046875 -18.84375 -14.203125 -18.84375 C -14.378906 -18.84375 -14.535156 -18.882812 -14.671875 -18.96875 C -14.742188 -19.039062 -14.804688 -19.171875 -14.859375 -19.359375 C -14.910156 -19.597656 -14.796875 -19.71875 -14.515625 -19.71875 C -14.460938 -19.71875 -14.359375 -19.707031 -14.203125 -19.6875 C -14.046875 -19.675781 -13.96875 -19.671875 -13.96875 -19.671875 L -13.84375 -19.671875 C -12.382812 -19.804688 -10.941406 -19.890625 -9.515625 -19.921875 C -8.097656 -19.960938 -6.828125 -19.984375 -5.703125 -19.984375 C -5.109375 -19.984375 -4.503906 -19.984375 -3.890625 -19.984375 C -3.273438 -19.984375 -2.671875 -19.984375 -2.078125 -19.984375 C -1.472656 -19.960938 -0.863281 -19.953125 -0.25 -19.953125 C 0.363281 -19.953125 0.96875 -19.953125 1.5625 -19.953125 C 2.132812 -19.953125 2.707031 -19.953125 3.28125 -19.953125 C 3.851562 -19.953125 4.425781 -19.960938 5 -19.984375 C 5.550781 -20.015625 6.039062 -20.113281 6.46875 -20.28125 C 6.90625 -20.445312 7.253906 -20.789062 7.515625 -21.3125 C 8.609375 -23.601562 10.117188 -25.796875 12.046875 -27.890625 C 12.066406 -27.941406 12.117188 -28.003906 12.203125 -28.078125 C 12.273438 -28.179688 12.359375 -28.285156 12.453125 -28.390625 C 12.546875 -28.492188 12.65625 -28.546875 12.78125 -28.546875 C 12.914062 -28.546875 13.078125 -28.46875 13.265625 -28.3125 C 13.492188 -28.101562 13.582031 -27.894531 13.53125 -27.6875 C 13.476562 -27.476562 13.375 -27.257812 13.21875 -27.03125 C 13.007812 -26.738281 12.8125 -26.460938 12.625 -26.203125 C 12.445312 -25.941406 12.265625 -25.691406 12.078125 -25.453125 C 11.503906 -24.671875 10.929688 -23.859375 10.359375 -23.015625 C 9.785156 -22.171875 9.253906 -21.238281 8.765625 -20.21875 L 8.640625 -20.03125 L 12.125 -20.03125 C 14.882812 -20.03125 18.015625 -19.816406 21.515625 -19.390625 C 21.566406 -19.390625 21.65625 -19.390625 21.78125 -19.390625 C 21.914062 -19.390625 22.050781 -19.375 22.1875 -19.34375 C 22.332031 -19.320312 22.457031 -19.273438 22.5625 -19.203125 Z M 22.5625 -19.203125 "/></g></g></g><g fill="#ffffff" fill-opacity="1"><g transform="translate(351.18446, 196.741737)"><g><path d="M 20.734375 -6.578125 C 20.785156 -6.515625 20.765625 -6.410156 20.671875 -6.265625 C 20.578125 -6.128906 20.492188 -6.019531 20.421875 -5.9375 C 20.160156 -5.726562 19.863281 -5.539062 19.53125 -5.375 C 19.207031 -5.207031 18.875 -5.046875 18.53125 -4.890625 C 18.375 -4.804688 18.21875 -4.71875 18.0625 -4.625 C 17.90625 -4.539062 17.765625 -4.457031 17.640625 -4.375 C 17.117188 -4.09375 16.601562 -3.804688 16.09375 -3.515625 C 15.582031 -3.234375 15.082031 -2.9375 14.59375 -2.625 C 12.425781 -1.289062 10.535156 0.0390625 8.921875 1.375 C 8.347656 1.863281 7.90625 2.4375 7.59375 3.09375 L 6.65625 5.078125 C 5.8125 6.804688 4.957031 8.554688 4.09375 10.328125 C 3.238281 12.097656 2.304688 13.816406 1.296875 15.484375 C 0.878906 16.140625 0.378906 16.863281 -0.203125 17.65625 C -0.796875 18.445312 -1.507812 19.1875 -2.34375 19.875 C -2.53125 20 -2.734375 20.132812 -2.953125 20.28125 C -3.171875 20.425781 -3.425781 20.523438 -3.71875 20.578125 C -3.945312 20.648438 -4.140625 20.6875 -4.296875 20.6875 C -4.691406 20.6875 -5.03125 20.546875 -5.3125 20.265625 C -5.550781 20.054688 -5.679688 19.835938 -5.703125 19.609375 C -5.734375 19.390625 -5.734375 19.132812 -5.703125 18.84375 C -5.628906 18.25 -5.476562 17.695312 -5.25 17.1875 C -5.03125 16.675781 -4.804688 16.1875 -4.578125 15.71875 C -2.566406 11.914062 0.351562 8.226562 4.1875 4.65625 C 5.40625 3.507812 6.359375 2.207031 7.046875 0.75 C 7.484375 -0.164062 7.9375 -1.078125 8.40625 -1.984375 C 8.875 -2.898438 9.34375 -3.816406 9.8125 -4.734375 L 11.109375 -7.3125 L 10.75 -7.203125 C 9.894531 -6.859375 9.117188 -6.429688 8.421875 -5.921875 C 7.734375 -5.410156 7.078125 -4.882812 6.453125 -4.34375 C 6.191406 -4.101562 5.921875 -3.875 5.640625 -3.65625 C 5.367188 -3.4375 5.09375 -3.222656 4.8125 -3.015625 L 4.1875 -2.546875 C 3.664062 -2.128906 3.117188 -1.726562 2.546875 -1.34375 C 1.972656 -0.96875 1.347656 -0.664062 0.671875 -0.4375 C 0.378906 -0.351562 0.113281 -0.3125 -0.125 -0.3125 C -0.507812 -0.3125 -0.882812 -0.457031 -1.25 -0.75 C -1.851562 -1.1875 -2.113281 -1.796875 -2.03125 -2.578125 C -1.875 -3.773438 -1.46875 -4.789062 -0.8125 -5.625 C -0.164062 -6.46875 0.546875 -7.226562 1.328125 -7.90625 C 1.460938 -8.03125 1.617188 -8.09375 1.796875 -8.09375 C 1.984375 -8.09375 2.164062 -8.015625 2.34375 -7.859375 C 2.53125 -7.679688 2.613281 -7.519531 2.59375 -7.375 C 2.582031 -7.226562 2.515625 -7.066406 2.390625 -6.890625 C 2.253906 -6.703125 2.128906 -6.515625 2.015625 -6.328125 C 1.898438 -6.148438 1.773438 -5.96875 1.640625 -5.78125 C 1.460938 -5.519531 1.28125 -5.265625 1.09375 -5.015625 C 0.914062 -4.773438 0.75 -4.523438 0.59375 -4.265625 C 0.539062 -4.179688 0.476562 -4.09375 0.40625 -4 C 0.34375 -3.914062 0.273438 -3.832031 0.203125 -3.75 C 0.0351562 -3.539062 -0.125 -3.316406 -0.28125 -3.078125 C -0.4375 -2.847656 -0.539062 -2.59375 -0.59375 -2.3125 C -0.664062 -1.96875 -0.625 -1.707031 -0.46875 -1.53125 C -0.289062 -1.34375 -0.015625 -1.25 0.359375 -1.25 C 0.535156 -1.25 0.726562 -1.269531 0.9375 -1.3125 C 1.144531 -1.351562 1.316406 -1.398438 1.453125 -1.453125 C 1.765625 -1.578125 2.050781 -1.722656 2.3125 -1.890625 C 2.570312 -2.066406 2.832031 -2.242188 3.09375 -2.421875 C 3.6875 -2.867188 4.28125 -3.316406 4.875 -3.765625 C 5.476562 -4.222656 6.070312 -4.675781 6.65625 -5.125 C 7.125 -5.488281 7.597656 -5.859375 8.078125 -6.234375 C 8.554688 -6.617188 9.03125 -6.976562 9.5 -7.3125 C 9.582031 -7.363281 9.675781 -7.441406 9.78125 -7.546875 C 9.9375 -7.679688 10.097656 -7.804688 10.265625 -7.921875 C 10.429688 -8.035156 10.617188 -8.09375 10.828125 -8.09375 C 11.035156 -8.09375 11.269531 -7.988281 11.53125 -7.78125 C 11.820312 -7.519531 11.941406 -7.242188 11.890625 -6.953125 C 11.835938 -6.671875 11.742188 -6.382812 11.609375 -6.09375 C 11.535156 -5.9375 11.484375 -5.820312 11.453125 -5.75 C 11.347656 -5.4375 11.242188 -5.128906 11.140625 -4.828125 C 11.035156 -4.523438 10.921875 -4.234375 10.796875 -3.953125 C 10.609375 -3.453125 10.421875 -2.945312 10.234375 -2.4375 C 10.054688 -1.9375 9.890625 -1.410156 9.734375 -0.859375 L 9.96875 -0.75 C 10 -0.851562 10.109375 -0.957031 10.296875 -1.0625 C 10.492188 -1.164062 10.671875 -1.242188 10.828125 -1.296875 C 11.015625 -1.398438 11.132812 -1.460938 11.1875 -1.484375 L 12.515625 -2.3125 C 13.816406 -3.144531 15.144531 -3.910156 16.5 -4.609375 C 17.207031 -4.972656 17.898438 -5.3125 18.578125 -5.625 C 18.648438 -5.675781 18.738281 -5.726562 18.84375 -5.78125 C 18.945312 -5.832031 19.039062 -5.882812 19.125 -5.9375 C 19.382812 -6.039062 19.628906 -6.148438 19.859375 -6.265625 C 20.097656 -6.390625 20.347656 -6.492188 20.609375 -6.578125 C 20.660156 -6.578125 20.703125 -6.578125 20.734375 -6.578125 Z M -3.28125 19.046875 C -1.5625 17.273438 -0.144531 15.28125 0.96875 13.0625 C 2.09375 10.84375 3.148438 8.613281 4.140625 6.375 L 3.953125 6.140625 C 1.453125 8.253906 -0.722656 10.601562 -2.578125 13.1875 C -3.046875 13.863281 -3.5 14.570312 -3.9375 15.3125 C -4.382812 16.050781 -4.726562 16.878906 -4.96875 17.796875 C -4.988281 17.867188 -5.015625 17.972656 -5.046875 18.109375 C -5.117188 18.335938 -5.164062 18.582031 -5.1875 18.84375 C -5.21875 19.101562 -5.09375 19.351562 -4.8125 19.59375 C -4.625 19.726562 -4.441406 19.796875 -4.265625 19.796875 C -4.078125 19.796875 -3.914062 19.734375 -3.78125 19.609375 C -3.65625 19.492188 -3.539062 19.367188 -3.4375 19.234375 C -3.363281 19.128906 -3.3125 19.066406 -3.28125 19.046875 Z M -3.28125 19.046875 "/></g></g></g></svg>