<?xml version="1.0" encoding="UTF-8" standalone="no"?>
<svg
   width="140"
   zoomAndPan="magnify"
   viewBox="0 0 375 374.999991"
   height="100"
   preserveAspectRatio="xMidYMid meet"
   version="1.0"
   id="svg100"
   sodipodi:docname="motto.svg"
   inkscape:version="1.3.2 (091e20e, 2023-11-25)"
   xmlns:inkscape="http://www.inkscape.org/namespaces/inkscape"
   xmlns:sodipodi="http://sodipodi.sourceforge.net/DTD/sodipodi-0.dtd"
   xmlns="http://www.w3.org/2000/svg"
   xmlns:svg="http://www.w3.org/2000/svg">
  <sodipodi:namedview
     id="namedview100"
     pagecolor="#ffffff"
     bordercolor="#000000"
     borderopacity="0.25"
     inkscape:showpageshadow="2"
     inkscape:pageopacity="0.0"
     inkscape:pagecheckerboard="0"
     inkscape:deskcolor="#d1d1d1"
     inkscape:zoom="0.51905294"
     inkscape:cx="115.59515"
     inkscape:cy="263.94225"
     inkscape:window-width="1312"
     inkscape:window-height="449"
     inkscape:window-x="0"
     inkscape:window-y="25"
     inkscape:window-maximized="0"
     inkscape:current-layer="svg100" />
  <defs
     id="defs1">
    <g
       id="g1" />
  </defs>
  <g
     fill="#fefefe"
     fill-opacity="1"
     id="g4"
     style="fill:#ffffff;fill-opacity:1">
    <g
       transform="translate(266.813048, 192.551621)"
       id="g3"
       style="fill:#ffffff;fill-opacity:1">
      <g
         id="g2"
         style="fill:#ffffff;fill-opacity:1" />
    </g>
  </g>
  <g
     fill="#fefefe"
     fill-opacity="1"
     id="g7"
     style="fill:#ffffff;fill-opacity:1">
    <g
       transform="translate(270.521396, 194.885411)"
       id="g6"
       style="fill:#ffffff;fill-opacity:1">
      <g
         id="g5"
         style="fill:#ffffff;fill-opacity:1" />
    </g>
  </g>
  <g
     fill="#fefefe"
     fill-opacity="1"
     id="g10"
     style="fill:#ffffff;fill-opacity:1">
    <g
       transform="translate(276.066933, 197.546617)"
       id="g9"
       style="fill:#ffffff;fill-opacity:1">
      <g
         id="g8"
         style="fill:#ffffff;fill-opacity:1" />
    </g>
  </g>
  <g
     fill="#fefefe"
     fill-opacity="1"
     id="g13"
     style="fill:#ffffff;fill-opacity:1">
    <g
       transform="translate(281.616858, 199.439134)"
       id="g12"
       style="fill:#ffffff;fill-opacity:1">
      <g
         id="g11"
         style="fill:#ffffff;fill-opacity:1" />
    </g>
  </g>
  <g
     fill="#fefefe"
     fill-opacity="1"
     id="g16"
     style="fill:#ffffff;fill-opacity:1">
    <g
       transform="translate(287.34957, 200.626818)"
       id="g15"
       style="fill:#ffffff;fill-opacity:1">
      <g
         id="g14"
         style="fill:#ffffff;fill-opacity:1" />
    </g>
  </g>
  <g
     fill="#fefefe"
     fill-opacity="1"
     id="g19"
     style="fill:#ffffff;fill-opacity:1">
    <g
       transform="translate(290.755092, 201.041915)"
       id="g18"
       style="fill:#ffffff;fill-opacity:1">
      <g
         id="g17"
         style="fill:#ffffff;fill-opacity:1" />
    </g>
  </g>
  <g
     fill="#fefefe"
     fill-opacity="1"
     id="g22"
     style="fill:#ffffff;fill-opacity:1">
    <g
       transform="translate(294.962819, 201.208534)"
       id="g21"
       style="fill:#ffffff;fill-opacity:1">
      <g
         id="g20"
         style="fill:#ffffff;fill-opacity:1" />
    </g>
  </g>
  <g
     fill="#fefefe"
     fill-opacity="1"
     id="g25"
     style="fill:#ffffff;fill-opacity:1">
    <g
       transform="translate(298.432255, 201.126584)"
       id="g24"
       style="fill:#ffffff;fill-opacity:1">
      <g
         id="g23"
         style="fill:#ffffff;fill-opacity:1" />
    </g>
  </g>
  <g
     fill="#fefefe"
     fill-opacity="1"
     id="g28"
     style="fill:#ffffff;fill-opacity:1">
    <g
       transform="translate(304.269163, 200.392215)"
       id="g27"
       style="fill:#ffffff;fill-opacity:1">
      <g
         id="g26"
         style="fill:#ffffff;fill-opacity:1" />
    </g>
  </g>
  <g
     fill="#fefefe"
     fill-opacity="1"
     id="g31"
     style="fill:#ffffff;fill-opacity:1">
    <g
       transform="translate(310.705911, 198.704282)"
       id="g30"
       style="fill:#ffffff;fill-opacity:1">
      <g
         id="g29"
         style="fill:#ffffff;fill-opacity:1" />
    </g>
  </g>
  <g
     fill="#fefefe"
     fill-opacity="1"
     id="g34"
     style="fill:#ffffff;fill-opacity:1">
    <g
       transform="translate(316.154098, 196.536213)"
       id="g33"
       style="fill:#ffffff;fill-opacity:1">
      <g
         id="g32"
         style="fill:#ffffff;fill-opacity:1" />
    </g>
  </g>
  <g
     fill="#fefefe"
     fill-opacity="1"
     id="g37"
     style="fill:#ffffff;fill-opacity:1">
    <g
       transform="translate(321.284286, 193.716077)"
       id="g36"
       style="fill:#ffffff;fill-opacity:1">
      <g
         id="g35"
         style="fill:#ffffff;fill-opacity:1" />
    </g>
  </g>
  <g
     fill="#ffffff"
     fill-opacity="1"
     id="g40"
     style="fill:#ffffff;fill-opacity:1">
    <g
       transform="translate(-0.974482, 153.527577)"
       id="g39"
       style="fill:#ffffff;fill-opacity:1">
      <g
         id="g38"
         style="fill:#ffffff;fill-opacity:1">
        <path
           d="M 86.25 -77.71875 C 86.675781 -77.71875 87.035156 -77.566406 87.328125 -77.265625 C 87.628906 -76.972656 87.78125 -76.613281 87.78125 -76.1875 C 87.78125 -75.75 87.628906 -75.382812 87.328125 -75.09375 C 87.035156 -74.800781 86.675781 -74.65625 86.25 -74.65625 C 82.113281 -74.601562 77.390625 -74.265625 72.078125 -73.640625 C 66.765625 -73.023438 61.273438 -72.21875 55.609375 -71.21875 C 49.941406 -70.226562 44.476562 -69.066406 39.21875 -67.734375 C 38.414062 -64.347656 37.488281 -60.628906 36.4375 -56.578125 C 35.394531 -52.523438 34.28125 -48.296875 33.09375 -43.890625 C 32.289062 -40.671875 31.429688 -37.328125 30.515625 -33.859375 C 29.609375 -30.398438 28.722656 -26.925781 27.859375 -23.4375 C 31.566406 -24.40625 35.296875 -25.332031 39.046875 -26.21875 C 42.804688 -27.101562 46.335938 -27.878906 49.640625 -28.546875 C 52.941406 -29.222656 55.785156 -29.734375 58.171875 -30.078125 C 60.566406 -30.429688 62.25 -30.578125 63.21875 -30.515625 C 63.644531 -30.460938 63.992188 -30.289062 64.265625 -30 C 64.535156 -29.707031 64.671875 -29.34375 64.671875 -28.90625 C 64.617188 -28.476562 64.441406 -28.113281 64.140625 -27.8125 C 63.847656 -27.519531 63.488281 -27.375 63.0625 -27.375 C 61.988281 -27.488281 59.945312 -27.289062 56.9375 -26.78125 C 53.925781 -26.269531 50.328125 -25.570312 46.140625 -24.6875 C 41.953125 -23.800781 37.523438 -22.765625 32.859375 -21.578125 C 30.816406 -21.046875 28.859375 -20.535156 26.984375 -20.046875 C 25.585938 -14.359375 24.296875 -8.84375 23.109375 -3.5 C 21.929688 1.84375 20.960938 6.78125 20.203125 11.3125 C 19.453125 15.851562 19.050781 19.679688 19 22.796875 C 19 24.078125 19.117188 25.375 19.359375 26.6875 C 19.609375 28.007812 20.160156 28.859375 21.015625 29.234375 C 22.035156 29.660156 23.390625 29.5 25.078125 28.75 C 26.773438 28 28.671875 26.84375 30.765625 25.28125 C 32.859375 23.726562 35.003906 21.984375 37.203125 20.046875 C 39.398438 18.117188 41.53125 16.160156 43.59375 14.171875 C 45.664062 12.179688 47.507812 10.410156 49.125 8.859375 C 49.550781 8.429688 49.976562 8.015625 50.40625 7.609375 C 50.84375 7.203125 51.25 6.785156 51.625 6.359375 L 52.984375 5.078125 C 53.796875 4.328125 54.578125 3.585938 55.328125 2.859375 C 56.078125 2.128906 56.75 1.5 57.34375 0.96875 C 58.144531 0.21875 58.894531 -0.382812 59.59375 -0.84375 C 60.289062 -1.300781 60.9375 -1.234375 61.53125 -0.640625 C 62.226562 -0.0546875 62.304688 0.71875 61.765625 1.6875 C 61.234375 2.65625 60.1875 4.1875 58.625 6.28125 C 58.351562 6.65625 58.003906 6.867188 57.578125 6.921875 C 57.148438 6.972656 56.773438 6.867188 56.453125 6.609375 C 56.347656 6.546875 56.238281 6.460938 56.125 6.359375 C 55.96875 6.523438 55.804688 6.6875 55.640625 6.84375 C 55.484375 7.007812 55.320312 7.171875 55.15625 7.328125 L 53.796875 8.609375 C 53.421875 8.992188 53.015625 9.398438 52.578125 9.828125 C 52.148438 10.253906 51.722656 10.65625 51.296875 11.03125 C 47.273438 14.945312 43.460938 18.53125 39.859375 21.78125 C 36.265625 25.03125 32.953125 27.632812 29.921875 29.59375 C 26.890625 31.550781 24.269531 32.53125 22.0625 32.53125 C 21.207031 32.53125 20.457031 32.367188 19.8125 32.046875 C 17.125 30.921875 15.832031 27.835938 15.9375 22.796875 C 16 19.617188 16.378906 15.84375 17.078125 11.46875 C 17.773438 7.09375 18.6875 2.304688 19.8125 -2.890625 C 20.9375 -8.097656 22.171875 -13.492188 23.515625 -19.078125 C 17.984375 -17.523438 13.6875 -16.171875 10.625 -15.015625 C 7.570312 -13.859375 5.75 -13.015625 5.15625 -12.484375 C 4.882812 -12.210938 4.535156 -12.078125 4.109375 -12.078125 C 3.679688 -12.078125 3.304688 -12.238281 2.984375 -12.5625 C 2.710938 -12.832031 2.578125 -13.179688 2.578125 -13.609375 C 2.578125 -14.035156 2.738281 -14.410156 3.0625 -14.734375 C 3.707031 -15.378906 5.0625 -16.128906 7.125 -16.984375 C 9.195312 -17.847656 11.734375 -18.75 14.734375 -19.6875 C 17.742188 -20.625 20.96875 -21.578125 24.40625 -22.546875 C 25.3125 -26.253906 26.257812 -29.972656 27.25 -33.703125 C 28.25 -37.429688 29.207031 -41.09375 30.125 -44.6875 C 31.195312 -48.71875 32.210938 -52.613281 33.171875 -56.375 C 34.140625 -60.132812 35.03125 -63.625 35.84375 -66.84375 C 31.113281 -65.550781 26.800781 -64.191406 22.90625 -62.765625 C 19.019531 -61.347656 15.835938 -59.882812 13.359375 -58.375 C 10.890625 -56.875 9.441406 -55.375 9.015625 -53.875 C 8.910156 -53.65625 8.910156 -53.171875 9.015625 -52.421875 C 9.128906 -51.671875 10.015625 -50.734375 11.671875 -49.609375 C 11.992188 -49.335938 12.195312 -49 12.28125 -48.59375 C 12.363281 -48.195312 12.296875 -47.8125 12.078125 -47.4375 C 11.753906 -47 11.328125 -46.78125 10.796875 -46.78125 C 10.472656 -46.78125 10.175781 -46.863281 9.90625 -47.03125 C 7.757812 -48.476562 6.507812 -49.882812 6.15625 -51.25 C 5.8125 -52.625 5.773438 -53.796875 6.046875 -54.765625 C 6.578125 -56.484375 7.820312 -58.09375 9.78125 -59.59375 C 11.738281 -61.09375 14.179688 -62.488281 17.109375 -63.78125 C 20.035156 -65.070312 23.191406 -66.265625 26.578125 -67.359375 C 29.960938 -68.460938 33.316406 -69.441406 36.640625 -70.296875 C 36.960938 -71.640625 37.234375 -72.796875 37.453125 -73.765625 C 37.503906 -74.191406 37.71875 -74.515625 38.09375 -74.734375 C 38.46875 -74.953125 38.84375 -75.03125 39.21875 -74.96875 C 39.644531 -74.863281 39.976562 -74.632812 40.21875 -74.28125 C 40.46875 -73.9375 40.535156 -73.550781 40.421875 -73.125 C 40.316406 -72.582031 40.1875 -71.910156 40.03125 -71.109375 C 45.226562 -72.398438 50.632812 -73.523438 56.25 -74.484375 C 61.863281 -75.453125 67.257812 -76.21875 72.4375 -76.78125 C 77.613281 -77.34375 82.21875 -77.65625 86.25 -77.71875 Z M 86.25 -77.71875 "
           id="path37"
           style="fill:#ffffff;fill-opacity:1" />
      </g>
    </g>
  </g>
  <g
     fill="#ffffff"
     fill-opacity="1"
     id="g43"
     style="fill:#ffffff;fill-opacity:1">
    <g
       transform="translate(67.302439, 153.527577)"
       id="g42"
       style="fill:#ffffff;fill-opacity:1">
      <g
         id="g41"
         style="fill:#ffffff;fill-opacity:1">
        <path
           d="M 34.390625 -67.25 C 34.546875 -67.132812 34.703125 -66.875 34.859375 -66.46875 C 35.023438 -66.070312 35.109375 -65.375 35.109375 -64.375 C 35.109375 -63.382812 34.894531 -61.9375 34.46875 -60.03125 C 34.039062 -58.125 33.316406 -55.585938 32.296875 -52.421875 C 32.128906 -51.992188 31.976562 -51.550781 31.84375 -51.09375 C 31.71875 -50.632812 31.570312 -50.191406 31.40625 -49.765625 C 30.175781 -45.898438 28.671875 -41.566406 26.890625 -36.765625 C 25.117188 -31.960938 22.734375 -26.710938 19.734375 -21.015625 C 19.035156 -17.523438 18.304688 -13.804688 17.546875 -9.859375 C 16.796875 -5.921875 16.046875 -1.75 15.296875 2.65625 C 14.328125 8.613281 13.5625 13.523438 13 17.390625 C 12.4375 21.253906 12.046875 24.328125 11.828125 26.609375 C 11.617188 28.890625 11.488281 30.625 11.4375 31.8125 C 11.863281 31.644531 12.289062 31.644531 12.71875 31.8125 C 13.09375 32.019531 13.347656 32.328125 13.484375 32.734375 C 13.617188 33.140625 13.609375 33.53125 13.453125 33.90625 C 13.179688 34.5 12.800781 35.15625 12.3125 35.875 C 11.832031 36.601562 11.242188 36.96875 10.546875 36.96875 C 10.335938 36.96875 10.125 36.941406 9.90625 36.890625 C 9.363281 36.722656 8.957031 36.332031 8.6875 35.71875 C 8.425781 35.101562 8.304688 33.921875 8.328125 32.171875 C 8.359375 30.429688 8.585938 27.785156 9.015625 24.234375 C 9.660156 18.648438 10.734375 11.296875 12.234375 2.171875 C 13.097656 -2.816406 13.984375 -7.675781 14.890625 -12.40625 C 14.085938 -11.113281 13.242188 -9.796875 12.359375 -8.453125 C 11.472656 -7.109375 10.546875 -5.738281 9.578125 -4.34375 C 8.128906 -2.195312 6.8125 -0.679688 5.625 0.203125 C 4.445312 1.085938 3.414062 1.554688 2.53125 1.609375 C 1.644531 1.660156 0.910156 1.523438 0.328125 1.203125 C -0.859375 0.503906 -1.613281 -0.726562 -1.9375 -2.5 C -2.257812 -4.269531 -2.21875 -6.269531 -1.8125 -8.5 C -1.40625 -10.726562 -0.75 -12.859375 0.15625 -14.890625 C 2.039062 -18.867188 4.203125 -21.675781 6.640625 -23.3125 C 9.085938 -24.945312 11.171875 -25.523438 12.890625 -25.046875 C 13.265625 -24.878906 13.851562 -24.515625 14.65625 -23.953125 C 15.457031 -23.390625 15.941406 -22.332031 16.109375 -20.78125 C 16.378906 -21.207031 16.617188 -21.632812 16.828125 -22.0625 C 18.816406 -31.300781 20.773438 -39.257812 22.703125 -45.9375 C 24.640625 -52.625 26.453125 -57.832031 28.140625 -61.5625 C 29.835938 -65.289062 31.273438 -67.347656 32.453125 -67.734375 C 33.203125 -67.992188 33.847656 -67.832031 34.390625 -67.25 Z M 7.09375 -6.125 C 8.375 -8 9.59375 -9.847656 10.75 -11.671875 C 11.90625 -13.503906 12.992188 -15.304688 14.015625 -17.078125 C 13.203125 -17.335938 12.878906 -17.875 13.046875 -18.6875 C 13.046875 -19.0625 13.03125 -19.664062 13 -20.5 C 12.976562 -21.332031 12.644531 -21.851562 12 -22.0625 C 11.894531 -22.113281 11.734375 -22.140625 11.515625 -22.140625 C 10.492188 -22.140625 9.164062 -21.441406 7.53125 -20.046875 C 5.894531 -18.648438 4.378906 -16.476562 2.984375 -13.53125 C 2.066406 -11.59375 1.472656 -9.75 1.203125 -8 C 0.941406 -6.257812 0.890625 -4.800781 1.046875 -3.625 C 1.203125 -2.445312 1.5 -1.75 1.9375 -1.53125 C 2.09375 -1.425781 2.597656 -1.613281 3.453125 -2.09375 C 4.316406 -2.570312 5.53125 -3.914062 7.09375 -6.125 Z M 29.3125 -53.390625 C 29.957031 -55.265625 30.453125 -56.882812 30.796875 -58.25 C 31.148438 -59.625 31.4375 -60.796875 31.65625 -61.765625 C 30.632812 -59.671875 29.394531 -56.503906 27.9375 -52.265625 C 26.488281 -48.023438 24.90625 -42.578125 23.1875 -35.921875 C 24.320312 -38.660156 25.300781 -41.265625 26.125 -43.734375 C 26.957031 -46.203125 27.722656 -48.507812 28.421875 -50.65625 C 28.585938 -51.132812 28.738281 -51.601562 28.875 -52.0625 C 29.007812 -52.519531 29.15625 -52.960938 29.3125 -53.390625 Z M 29.3125 -53.390625 "
           id="path40"
           style="fill:#ffffff;fill-opacity:1" />
      </g>
    </g>
  </g>
  <g
     fill="#ffffff"
     fill-opacity="1"
     id="g46"
     style="fill:#ffffff;fill-opacity:1">
    <g
       transform="translate(92.503707, 153.527577)"
       id="g45"
       style="fill:#ffffff;fill-opacity:1">
      <g
         id="g44"
         style="fill:#ffffff;fill-opacity:1">
        <path
           d="M 32.125 -17.390625 C 32.445312 -17.179688 32.660156 -16.859375 32.765625 -16.421875 C 32.878906 -15.992188 32.828125 -15.617188 32.609375 -15.296875 C 32.179688 -14.597656 31.5 -13.523438 30.5625 -12.078125 C 29.625 -10.628906 28.492188 -9.03125 27.171875 -7.28125 C 25.859375 -5.539062 24.460938 -3.851562 22.984375 -2.21875 C 21.515625 -0.582031 20.050781 0.769531 18.59375 1.84375 C 17.144531 2.925781 15.804688 3.46875 14.578125 3.46875 C 14.148438 3.46875 13.773438 3.382812 13.453125 3.21875 C 12.109375 2.738281 11.257812 1.503906 10.90625 -0.484375 C 10.5625 -2.472656 10.6875 -5.34375 11.28125 -9.09375 C 10.582031 -8.1875 9.828125 -7.25 9.015625 -6.28125 C 8.210938 -5.3125 7.351562 -4.425781 6.4375 -3.625 C 5.039062 -2.445312 3.859375 -1.960938 2.890625 -2.171875 C 1.929688 -2.390625 1.289062 -2.660156 0.96875 -2.984375 C 0 -3.785156 -0.601562 -5.003906 -0.84375 -6.640625 C -1.082031 -8.273438 -1 -10.097656 -0.59375 -12.109375 C -0.195312 -14.128906 0.535156 -16.078125 1.609375 -17.953125 C 1.828125 -18.328125 2.148438 -18.566406 2.578125 -18.671875 C 3.003906 -18.785156 3.40625 -18.734375 3.78125 -18.515625 C 4.15625 -18.304688 4.394531 -18 4.5 -17.59375 C 4.613281 -17.1875 4.5625 -16.796875 4.34375 -16.421875 C 3.382812 -14.816406 2.742188 -13.222656 2.421875 -11.640625 C 2.097656 -10.054688 2 -8.695312 2.125 -7.5625 C 2.257812 -6.4375 2.519531 -5.710938 2.90625 -5.390625 C 3.113281 -5.234375 3.390625 -5.273438 3.734375 -5.515625 C 4.085938 -5.753906 4.316406 -5.898438 4.421875 -5.953125 C 5.441406 -6.867188 6.410156 -7.914062 7.328125 -9.09375 C 8.242188 -10.28125 9.019531 -11.359375 9.65625 -12.328125 C 10.519531 -13.503906 11.234375 -14.375 11.796875 -14.9375 C 12.359375 -15.5 13.015625 -15.617188 13.765625 -15.296875 C 14.515625 -15.023438 14.890625 -14.429688 14.890625 -13.515625 C 14.890625 -12.609375 14.757812 -11.378906 14.5 -9.828125 C 13.957031 -6.710938 13.710938 -4.441406 13.765625 -3.015625 C 13.816406 -1.597656 13.953125 -0.6875 14.171875 -0.28125 C 14.390625 0.125 14.523438 0.328125 14.578125 0.328125 C 15.222656 0.585938 16.992188 -0.6875 19.890625 -3.5 C 22.785156 -6.320312 26.140625 -10.789062 29.953125 -16.90625 C 30.171875 -17.28125 30.492188 -17.507812 30.921875 -17.59375 C 31.347656 -17.675781 31.75 -17.609375 32.125 -17.390625 Z M 32.125 -17.390625 "
           id="path43"
           style="fill:#ffffff;fill-opacity:1" />
      </g>
    </g>
  </g>
  <g
     fill="#ffffff"
     fill-opacity="1"
     id="g49"
     style="fill:#ffffff;fill-opacity:1">
    <g
       transform="translate(121.328157, 153.527577)"
       id="g48"
       style="fill:#ffffff;fill-opacity:1">
      <g
         id="g47"
         style="fill:#ffffff;fill-opacity:1">
        <path
           d="M 26.65625 -18.28125 C 26.976562 -18.0625 27.191406 -17.738281 27.296875 -17.3125 C 27.410156 -16.882812 27.332031 -16.507812 27.0625 -16.1875 C 24.476562 -12.21875 21.925781 -8.539062 19.40625 -5.15625 C 16.882812 -1.769531 14.398438 0.96875 11.953125 3.0625 C 9.515625 5.15625 7.140625 6.203125 4.828125 6.203125 C 4.347656 6.203125 3.863281 6.148438 3.375 6.046875 C 1.445312 5.609375 -0.0234375 4.476562 -1.046875 2.65625 C -1.847656 1.207031 -2.316406 -0.46875 -2.453125 -2.375 C -2.585938 -4.28125 -2.492188 -6.222656 -2.171875 -8.203125 C -1.847656 -10.191406 -1.363281 -12.046875 -0.71875 -13.765625 C 0.351562 -16.722656 1.707031 -19.003906 3.34375 -20.609375 C 4.976562 -22.222656 6.519531 -22.789062 7.96875 -22.3125 C 8.238281 -22.257812 8.628906 -22.015625 9.140625 -21.578125 C 9.648438 -21.148438 10.035156 -20.425781 10.296875 -19.40625 C 10.566406 -18.382812 10.4375 -16.910156 9.90625 -14.984375 C 9.800781 -14.546875 9.570312 -14.21875 9.21875 -14 C 8.875 -13.789062 8.484375 -13.738281 8.046875 -13.84375 C 7.617188 -13.957031 7.296875 -14.203125 7.078125 -14.578125 C 6.867188 -14.953125 6.816406 -15.328125 6.921875 -15.703125 C 7.242188 -16.992188 7.363281 -17.921875 7.28125 -18.484375 C 7.207031 -19.046875 7.113281 -19.351562 7 -19.40625 C 6.789062 -19.40625 6.175781 -18.960938 5.15625 -18.078125 C 4.132812 -17.191406 3.140625 -15.378906 2.171875 -12.640625 C 1.203125 -10.117188 0.675781 -7.554688 0.59375 -4.953125 C 0.519531 -2.347656 0.882812 -0.320312 1.6875 1.125 C 2.226562 2.144531 3.007812 2.765625 4.03125 2.984375 C 5.476562 3.304688 7.113281 2.804688 8.9375 1.484375 C 10.757812 0.171875 12.597656 -1.597656 14.453125 -3.828125 C 16.304688 -6.054688 18.101562 -8.429688 19.84375 -10.953125 C 21.59375 -13.472656 23.140625 -15.78125 24.484375 -17.875 C 24.691406 -18.195312 25.007812 -18.410156 25.4375 -18.515625 C 25.875 -18.628906 26.28125 -18.550781 26.65625 -18.28125 Z M 26.65625 -18.28125 "
           id="path46"
           style="fill:#ffffff;fill-opacity:1" />
      </g>
    </g>
  </g>
  <g
     fill="#ffffff"
     fill-opacity="1"
     id="g52"
     style="fill:#ffffff;fill-opacity:1">
    <g
       transform="translate(145.160667, 153.527577)"
       id="g51"
       style="fill:#ffffff;fill-opacity:1">
      <g
         id="g50"
         style="fill:#ffffff;fill-opacity:1">
        <path
           d="M 33.75 -17.875 C 34.125 -17.71875 34.375 -17.4375 34.5 -17.03125 C 34.632812 -16.625 34.625 -16.234375 34.46875 -15.859375 C 33.445312 -13.765625 32.332031 -11.671875 31.125 -9.578125 C 29.914062 -7.484375 28.65625 -5.5625 27.34375 -3.8125 C 26.03125 -2.070312 24.675781 -0.679688 23.28125 0.359375 C 21.882812 1.410156 20.484375 1.9375 19.078125 1.9375 C 18.816406 1.9375 18.523438 1.910156 18.203125 1.859375 C 14.597656 1.160156 12.367188 -3.671875 11.515625 -12.640625 C 10.597656 -11.410156 9.535156 -10.03125 8.328125 -8.5 C 7.117188 -6.96875 5.847656 -5.453125 4.515625 -3.953125 C 4.296875 -3.734375 3.941406 -3.394531 3.453125 -2.9375 C 2.972656 -2.476562 2.410156 -2.113281 1.765625 -1.84375 C 1.128906 -1.582031 0.488281 -1.613281 -0.15625 -1.9375 C -1.445312 -2.414062 -2.066406 -3.8125 -2.015625 -6.125 C -2.015625 -7.46875 -1.757812 -9.128906 -1.25 -11.109375 C -0.738281 -13.097656 -0.015625 -15.097656 0.921875 -17.109375 C 1.859375 -19.128906 2.957031 -20.914062 4.21875 -22.46875 C 5.488281 -24.019531 6.898438 -25.066406 8.453125 -25.609375 C 9.421875 -25.984375 10.601562 -26.050781 12 -25.8125 C 13.394531 -25.570312 14.84375 -24.566406 16.34375 -22.796875 C 16.613281 -22.472656 16.734375 -22.09375 16.703125 -21.65625 C 16.679688 -21.226562 16.507812 -20.878906 16.1875 -20.609375 C 15.863281 -20.347656 15.488281 -20.226562 15.0625 -20.25 C 14.632812 -20.28125 14.285156 -20.457031 14.015625 -20.78125 C 12.722656 -22.28125 11.609375 -22.988281 10.671875 -22.90625 C 9.734375 -22.832031 8.941406 -22.550781 8.296875 -22.0625 C 7.109375 -21.207031 6.03125 -19.972656 5.0625 -18.359375 C 4.101562 -16.742188 3.300781 -15.050781 2.65625 -13.28125 C 2.007812 -11.507812 1.550781 -9.859375 1.28125 -8.328125 C 1.019531 -6.804688 0.941406 -5.695312 1.046875 -5 C 1.203125 -5.101562 1.375 -5.234375 1.5625 -5.390625 C 1.757812 -5.554688 1.960938 -5.773438 2.171875 -6.046875 C 3.785156 -7.816406 5.257812 -9.570312 6.59375 -11.3125 C 7.9375 -13.0625 9.09375 -14.601562 10.0625 -15.9375 C 10.332031 -16.320312 10.585938 -16.6875 10.828125 -17.03125 C 11.066406 -17.382812 11.296875 -17.691406 11.515625 -17.953125 C 11.941406 -18.492188 12.503906 -18.65625 13.203125 -18.4375 C 13.898438 -18.28125 14.273438 -17.828125 14.328125 -17.078125 C 14.492188 -13.585938 14.773438 -10.78125 15.171875 -8.65625 C 15.578125 -6.53125 16.019531 -4.941406 16.5 -3.890625 C 16.988281 -2.847656 17.445312 -2.140625 17.875 -1.765625 C 18.300781 -1.390625 18.625 -1.203125 18.84375 -1.203125 C 19.863281 -0.992188 21.5 -2.039062 23.75 -4.34375 C 26.007812 -6.65625 28.644531 -10.925781 31.65625 -17.15625 C 31.863281 -17.582031 32.164062 -17.863281 32.5625 -18 C 32.96875 -18.132812 33.363281 -18.09375 33.75 -17.875 Z M 33.75 -17.875 "
           id="path49"
           style="fill:#ffffff;fill-opacity:1" />
      </g>
    </g>
  </g>
  <g
     fill="#ffffff"
     fill-opacity="1"
     id="g55"
     style="fill:#ffffff;fill-opacity:1">
    <g
       transform="translate(175.112336, 153.527577)"
       id="g54"
       style="fill:#ffffff;fill-opacity:1">
      <g
         id="g53"
         style="fill:#ffffff;fill-opacity:1">
        <path
           d="M 67.96875 -47.515625 C 68.238281 -47.191406 68.34375 -46.8125 68.28125 -46.375 C 68.226562 -45.945312 68.015625 -45.601562 67.640625 -45.34375 C 67.003906 -44.90625 66.390625 -44.929688 65.796875 -45.421875 C 65.097656 -45.691406 63.5 -45.878906 61 -45.984375 C 58.5 -46.085938 55.367188 -46.148438 51.609375 -46.171875 C 47.859375 -46.203125 43.726562 -46.191406 39.21875 -46.140625 C 34.707031 -46.085938 30.078125 -46.019531 25.328125 -45.9375 C 20.578125 -45.863281 15.972656 -45.769531 11.515625 -45.65625 C 9.847656 -38.675781 8.101562 -31.09375 6.28125 -22.90625 C 4.457031 -14.71875 2.660156 -6.410156 0.890625 2.015625 C -1.421875 13.078125 -3.207031 22.148438 -4.46875 29.234375 C -5.726562 36.316406 -6.546875 41.441406 -6.921875 44.609375 C -6.816406 44.609375 -6.710938 44.632812 -6.609375 44.6875 C -6.171875 44.800781 -5.867188 45.054688 -5.703125 45.453125 C -5.546875 45.859375 -5.550781 46.25 -5.71875 46.625 C -6.039062 47.539062 -6.398438 48.382812 -6.796875 49.15625 C -7.203125 49.9375 -7.753906 50.328125 -8.453125 50.328125 C -8.617188 50.328125 -8.804688 50.300781 -9.015625 50.25 C -9.765625 49.976562 -10.179688 49.398438 -10.265625 48.515625 C -10.347656 47.628906 -10.28125 46.410156 -10.0625 44.859375 C -9.851562 42.597656 -9.367188 39.347656 -8.609375 35.109375 C -7.972656 31.140625 -7.144531 26.492188 -6.125 21.171875 C -5.101562 15.859375 -3.921875 10.035156 -2.578125 3.703125 C -0.804688 -4.890625 1.015625 -13.425781 2.890625 -21.90625 C 4.773438 -30.382812 6.578125 -38.273438 8.296875 -45.578125 C 5.710938 -45.523438 3.265625 -45.472656 0.953125 -45.421875 C -1.347656 -45.367188 -3.4375 -45.316406 -5.3125 -45.265625 C -8.90625 -45.148438 -12.046875 -45.066406 -14.734375 -45.015625 C -17.421875 -44.960938 -19.328125 -44.9375 -20.453125 -44.9375 C -20.878906 -44.9375 -21.238281 -45.082031 -21.53125 -45.375 C -21.832031 -45.675781 -21.984375 -46.039062 -21.984375 -46.46875 C -21.984375 -46.894531 -21.832031 -47.253906 -21.53125 -47.546875 C -21.238281 -47.847656 -20.878906 -48 -20.453125 -48 C -19.328125 -48 -17.4375 -48.035156 -14.78125 -48.109375 C -12.125 -48.191406 -8.992188 -48.289062 -5.390625 -48.40625 C -2.816406 -48.457031 -0.320312 -48.507812 2.09375 -48.5625 C 4.507812 -48.613281 6.84375 -48.664062 9.09375 -48.71875 C 9.90625 -52.15625 10.695312 -55.390625 11.46875 -58.421875 C 12.25 -61.453125 12.988281 -64.234375 13.6875 -66.765625 C 13.789062 -67.191406 14.03125 -67.507812 14.40625 -67.71875 C 14.789062 -67.9375 15.171875 -67.992188 15.546875 -67.890625 C 15.972656 -67.785156 16.289062 -67.539062 16.5 -67.15625 C 16.71875 -66.78125 16.773438 -66.378906 16.671875 -65.953125 C 15.378906 -61.171875 13.898438 -55.453125 12.234375 -48.796875 C 20.609375 -48.960938 27.773438 -49.082031 33.734375 -49.15625 C 39.703125 -49.238281 44.695312 -49.28125 48.71875 -49.28125 C 52.75 -49.28125 56.007812 -49.226562 58.5 -49.125 C 61 -49.019531 62.890625 -48.898438 64.171875 -48.765625 C 65.460938 -48.628906 66.378906 -48.453125 66.921875 -48.234375 C 67.460938 -48.023438 67.8125 -47.785156 67.96875 -47.515625 Z M 67.96875 -47.515625 "
           id="path52"
           style="fill:#ffffff;fill-opacity:1" />
      </g>
    </g>
  </g>
  <g
     fill="#ffffff"
     fill-opacity="1"
     id="g58"
     style="fill:#ffffff;fill-opacity:1">
    <g
       transform="translate(185.820861, 153.527577)"
       id="g57"
       style="fill:#ffffff;fill-opacity:1">
      <g
         id="g56"
         style="fill:#ffffff;fill-opacity:1">
        <path
           d="M 23.59375 -18.359375 C 23.96875 -18.140625 24.195312 -17.816406 24.28125 -17.390625 C 24.363281 -16.960938 24.296875 -16.5625 24.078125 -16.1875 C 23.054688 -14.570312 21.765625 -12.769531 20.203125 -10.78125 C 18.648438 -8.800781 16.960938 -6.910156 15.140625 -5.109375 C 13.316406 -3.316406 11.503906 -1.828125 9.703125 -0.640625 C 7.898438 0.535156 6.25 1.125 4.75 1.125 C 4.101562 1.125 3.539062 1.019531 3.0625 0.8125 C 1.238281 0 0.234375 -1.945312 0.046875 -5.03125 C -0.140625 -8.113281 0.488281 -12.476562 1.9375 -18.125 C 2.039062 -18.550781 2.28125 -18.867188 2.65625 -19.078125 C 3.03125 -19.296875 3.40625 -19.351562 3.78125 -19.25 C 4.207031 -19.132812 4.53125 -18.890625 4.75 -18.515625 C 4.96875 -18.140625 5.019531 -17.765625 4.90625 -17.390625 C 4.050781 -13.953125 3.515625 -11.226562 3.296875 -9.21875 C 3.085938 -7.207031 3.046875 -5.691406 3.171875 -4.671875 C 3.304688 -3.648438 3.507812 -2.960938 3.78125 -2.609375 C 4.050781 -2.265625 4.210938 -2.09375 4.265625 -2.09375 C 4.960938 -1.769531 5.984375 -2 7.328125 -2.78125 C 8.671875 -3.5625 10.171875 -4.710938 11.828125 -6.234375 C 13.492188 -7.765625 15.171875 -9.535156 16.859375 -11.546875 C 18.554688 -13.566406 20.078125 -15.675781 21.421875 -17.875 C 21.691406 -18.25 22.023438 -18.476562 22.421875 -18.5625 C 22.828125 -18.644531 23.21875 -18.578125 23.59375 -18.359375 Z M 4.59375 -24.796875 C 3.519531 -24.859375 2.96875 -25.171875 2.9375 -25.734375 C 2.914062 -26.296875 3.15625 -26.867188 3.65625 -27.453125 C 4.164062 -28.046875 4.691406 -28.453125 5.234375 -28.671875 C 6.085938 -28.941406 6.71875 -28.882812 7.125 -28.5 C 7.53125 -28.125 7.71875 -27.640625 7.6875 -27.046875 C 7.664062 -26.460938 7.398438 -25.925781 6.890625 -25.4375 C 6.378906 -24.957031 5.613281 -24.742188 4.59375 -24.796875 Z M 4.59375 -24.796875 "
           id="path55"
           style="fill:#ffffff;fill-opacity:1" />
      </g>
    </g>
  </g>
  <g
     fill="#ffffff"
     fill-opacity="1"
     id="g61"
     style="fill:#ffffff;fill-opacity:1">
    <g
       transform="translate(206.191224, 153.527577)"
       id="g60"
       style="fill:#ffffff;fill-opacity:1">
      <g
         id="g59"
         style="fill:#ffffff;fill-opacity:1">
        <path
           d="M 32.453125 -17.953125 C 32.828125 -17.742188 33.066406 -17.4375 33.171875 -17.03125 C 33.285156 -16.625 33.234375 -16.234375 33.015625 -15.859375 C 30.492188 -11.410156 28.222656 -7.988281 26.203125 -5.59375 C 24.191406 -3.207031 22.140625 -2.148438 20.046875 -2.421875 C 17.367188 -2.742188 15.25 -5.640625 13.6875 -11.109375 C 13.15625 -12.878906 12.6875 -14.15625 12.28125 -14.9375 C 11.875 -15.71875 11.550781 -16.203125 11.3125 -16.390625 C 11.070312 -16.578125 10.898438 -16.671875 10.796875 -16.671875 C 10.628906 -16.722656 10.300781 -16.5625 9.8125 -16.1875 C 9.332031 -15.8125 8.632812 -14.976562 7.71875 -13.6875 C 6.8125 -12.394531 5.6875 -10.394531 4.34375 -7.6875 C 3 -4.976562 1.363281 -1.257812 -0.5625 3.46875 C -0.832031 4.101562 -1.289062 4.421875 -1.9375 4.421875 C -2.09375 4.421875 -2.222656 4.394531 -2.328125 4.34375 C -3.242188 4.132812 -3.648438 3.570312 -3.546875 2.65625 C -3.273438 0.457031 -2.789062 -2.085938 -2.09375 -4.984375 C -1.394531 -7.890625 -0.628906 -10.84375 0.203125 -13.84375 C 1.035156 -16.851562 1.800781 -19.539062 2.5 -21.90625 C 2.65625 -22.4375 2.800781 -22.929688 2.9375 -23.390625 C 3.070312 -23.847656 3.191406 -24.289062 3.296875 -24.71875 C 3.460938 -25.15625 3.734375 -25.46875 4.109375 -25.65625 C 4.484375 -25.84375 4.859375 -25.878906 5.234375 -25.765625 C 5.660156 -25.660156 5.976562 -25.421875 6.1875 -25.046875 C 6.40625 -24.671875 6.4375 -24.269531 6.28125 -23.84375 C 6.175781 -23.40625 6.054688 -22.957031 5.921875 -22.5 C 5.785156 -22.050781 5.632812 -21.554688 5.46875 -21.015625 C 5.09375 -19.617188 4.664062 -18.085938 4.1875 -16.421875 C 3.707031 -14.765625 3.222656 -13.078125 2.734375 -11.359375 C 4.554688 -14.796875 6.113281 -17.078125 7.40625 -18.203125 C 8.695312 -19.328125 9.878906 -19.863281 10.953125 -19.8125 C 12.453125 -19.707031 13.628906 -18.875 14.484375 -17.3125 C 15.347656 -15.757812 16.078125 -13.960938 16.671875 -11.921875 C 17.472656 -9.128906 18.222656 -7.351562 18.921875 -6.59375 C 19.617188 -5.84375 20.128906 -5.46875 20.453125 -5.46875 C 21.148438 -5.363281 21.96875 -5.753906 22.90625 -6.640625 C 23.851562 -7.523438 24.796875 -8.648438 25.734375 -10.015625 C 26.671875 -11.390625 27.554688 -12.75 28.390625 -14.09375 C 29.222656 -15.4375 29.851562 -16.535156 30.28125 -17.390625 C 30.5 -17.765625 30.820312 -18.003906 31.25 -18.109375 C 31.675781 -18.222656 32.078125 -18.171875 32.453125 -17.953125 Z M 32.453125 -17.953125 "
           id="path58"
           style="fill:#ffffff;fill-opacity:1" />
      </g>
    </g>
  </g>
  <g
     fill="#ffffff"
     fill-opacity="1"
     id="g64"
     style="fill:#ffffff;fill-opacity:1">
    <g
       transform="translate(234.935171, 153.527577)"
       id="g63"
       style="fill:#ffffff;fill-opacity:1">
      <g
         id="g62"
         style="fill:#ffffff;fill-opacity:1">
        <path
           d="M 36.96875 -17.875 C 37.175781 -17.5 37.238281 -17.097656 37.15625 -16.671875 C 37.082031 -16.242188 36.859375 -15.921875 36.484375 -15.703125 C 33.367188 -13.660156 29.820312 -11.285156 25.84375 -8.578125 C 21.875 -5.867188 17.820312 -2.738281 13.6875 0.8125 C 11.863281 11.757812 9.90625 21.164062 7.8125 29.03125 C 5.71875 36.894531 3.554688 43.390625 1.328125 48.515625 C -0.898438 53.640625 -3.085938 57.546875 -5.234375 60.234375 C -7.378906 62.921875 -9.421875 64.53125 -11.359375 65.0625 C -11.941406 65.226562 -12.503906 65.3125 -13.046875 65.3125 C -14.765625 65.3125 -16.238281 64.5625 -17.46875 63.0625 C -18.539062 61.664062 -19.289062 59.742188 -19.71875 57.296875 C -20.15625 54.859375 -20.238281 52.132812 -19.96875 49.125 C -19.695312 46.757812 -19.078125 43.765625 -18.109375 40.140625 C -17.148438 36.515625 -15.4375 32.476562 -12.96875 28.03125 C -9.6875 22.125 -5.976562 16.78125 -1.84375 12 C 2.28125 7.21875 6.492188 2.945312 10.796875 -0.8125 C 11.171875 -3.007812 11.53125 -5.316406 11.875 -7.734375 C 12.226562 -10.148438 12.566406 -12.617188 12.890625 -15.140625 C 12.128906 -14.015625 11.347656 -12.875 10.546875 -11.71875 C 9.742188 -10.5625 8.941406 -9.445312 8.140625 -8.375 C 7.328125 -7.351562 6.425781 -6.398438 5.4375 -5.515625 C 4.445312 -4.628906 3.410156 -4.347656 2.328125 -4.671875 C 1.847656 -4.773438 1.378906 -5.082031 0.921875 -5.59375 C 0.460938 -6.101562 0.179688 -6.976562 0.078125 -8.21875 C -0.0234375 -9.5625 0.117188 -11.289062 0.515625 -13.40625 C 0.921875 -15.53125 1.550781 -17.71875 2.40625 -19.96875 C 3.269531 -22.226562 4.34375 -24.28125 5.625 -26.125 C 6.914062 -27.976562 8.367188 -29.3125 9.984375 -30.125 C 10.953125 -30.601562 12.117188 -30.851562 13.484375 -30.875 C 14.859375 -30.90625 16.347656 -30.195312 17.953125 -28.75 C 18.273438 -28.425781 18.445312 -28.0625 18.46875 -27.65625 C 18.5 -27.257812 18.351562 -26.898438 18.03125 -26.578125 C 17.769531 -26.253906 17.421875 -26.078125 16.984375 -26.046875 C 16.554688 -26.023438 16.179688 -26.148438 15.859375 -26.421875 C 13.929688 -28.191406 11.972656 -28.191406 9.984375 -26.421875 C 8.753906 -25.285156 7.664062 -23.804688 6.71875 -21.984375 C 5.78125 -20.160156 5.015625 -18.28125 4.421875 -16.34375 C 3.835938 -14.414062 3.453125 -12.660156 3.265625 -11.078125 C 3.078125 -9.492188 3.085938 -8.40625 3.296875 -7.8125 C 3.460938 -7.914062 3.742188 -8.140625 4.140625 -8.484375 C 4.546875 -8.835938 5.046875 -9.421875 5.640625 -10.234375 C 6.710938 -11.628906 7.796875 -13.128906 8.890625 -14.734375 C 9.992188 -16.347656 11 -17.851562 11.90625 -19.25 C 12.820312 -20.644531 13.5 -21.742188 13.9375 -22.546875 C 14.363281 -23.242188 14.976562 -23.457031 15.78125 -23.1875 C 16.582031 -22.976562 16.929688 -22.441406 16.828125 -21.578125 C 16.453125 -18.410156 16.0625 -15.347656 15.65625 -12.390625 C 15.257812 -9.441406 14.847656 -6.597656 14.421875 -3.859375 C 18.171875 -6.921875 21.804688 -9.632812 25.328125 -12 C 28.847656 -14.363281 32.003906 -16.457031 34.796875 -18.28125 C 35.171875 -18.550781 35.554688 -18.628906 35.953125 -18.515625 C 36.359375 -18.410156 36.695312 -18.195312 36.96875 -17.875 Z M -12.234375 62.09375 C -10.953125 61.71875 -9.425781 60.453125 -7.65625 58.296875 C -5.882812 56.148438 -3.988281 52.847656 -1.96875 48.390625 C 0.0390625 43.941406 2.078125 38.09375 4.140625 30.84375 C 6.210938 23.59375 8.160156 14.707031 9.984375 4.1875 C 6.273438 7.570312 2.675781 11.367188 -0.8125 15.578125 C -4.300781 19.796875 -7.441406 24.457031 -10.234375 29.5625 C -13.023438 34.601562 -14.914062 39.285156 -15.90625 43.609375 C -16.894531 47.929688 -17.242188 51.609375 -16.953125 54.640625 C -16.660156 57.671875 -16.03125 59.832031 -15.0625 61.125 C -14.25 62.09375 -13.304688 62.414062 -12.234375 62.09375 Z M -12.234375 62.09375 "
           id="path61"
           style="fill:#ffffff;fill-opacity:1" />
      </g>
    </g>
  </g>
  <g
     fill="#ffffff"
     fill-opacity="1"
     id="g67"
     style="fill:#ffffff;fill-opacity:1">
    <g
       transform="translate(268.107462, 153.527577)"
       id="g66"
       style="fill:#ffffff;fill-opacity:1">
      <g
         id="g65"
         style="fill:#ffffff;fill-opacity:1" />
    </g>
  </g>
  <g
     fill="#ffffff"
     fill-opacity="1"
     id="g70"
     style="fill:#ffffff;fill-opacity:1">
    <g
       transform="translate(292.825638, 153.527577)"
       id="g69"
       style="fill:#ffffff;fill-opacity:1">
      <g
         id="g68"
         style="fill:#ffffff;fill-opacity:1">
        <path
           d="M 16.34375 -21.34375 C 16.769531 -21.394531 17.15625 -21.285156 17.5 -21.015625 C 17.851562 -20.742188 18.0625 -20.394531 18.125 -19.96875 C 18.175781 -19.539062 18.066406 -19.164062 17.796875 -18.84375 C 17.523438 -18.519531 17.175781 -18.332031 16.75 -18.28125 C 14.757812 -18.007812 12.90625 -17.78125 11.1875 -17.59375 C 9.46875 -17.40625 7.671875 -17.203125 5.796875 -16.984375 C 4.179688 -10.328125 2.625 -3.632812 1.125 3.09375 C -0.375 9.832031 -1.753906 16.234375 -3.015625 22.296875 C -4.273438 28.367188 -5.347656 33.765625 -6.234375 38.484375 C -7.117188 43.210938 -7.753906 46.921875 -8.140625 49.609375 C -8.078125 49.609375 -7.992188 49.609375 -7.890625 49.609375 C -7.515625 49.765625 -7.234375 50.046875 -7.046875 50.453125 C -6.859375 50.859375 -6.84375 51.25 -7 51.625 C -7.320312 52.644531 -7.695312 53.566406 -8.125 54.390625 C -8.5625 55.222656 -9.128906 55.640625 -9.828125 55.640625 C -9.984375 55.640625 -10.144531 55.613281 -10.3125 55.5625 C -10.84375 55.40625 -11.203125 55.070312 -11.390625 54.5625 C -11.578125 54.050781 -11.601562 53.03125 -11.46875 51.5 C -11.34375 49.96875 -11.007812 47.617188 -10.46875 44.453125 C -9.5 38.648438 -8.023438 31.082031 -6.046875 21.75 C -4.753906 15.40625 -3.367188 8.929688 -1.890625 2.328125 C -0.410156 -4.265625 1.078125 -10.625 2.578125 -16.75 C 0.753906 -16.59375 -1.390625 -16.40625 -3.859375 -16.1875 C -3.921875 -16.1875 -3.976562 -16.1875 -4.03125 -16.1875 C -4.9375 -16.1875 -5.445312 -16.671875 -5.5625 -17.640625 C -5.5625 -18.066406 -5.425781 -18.441406 -5.15625 -18.765625 C -4.882812 -19.085938 -4.535156 -19.273438 -4.109375 -19.328125 C -2.660156 -19.429688 -1.332031 -19.523438 -0.125 -19.609375 C 1.082031 -19.691406 2.222656 -19.785156 3.296875 -19.890625 C 4.691406 -25.472656 5.984375 -30.546875 7.171875 -35.109375 C 7.429688 -36.128906 7.832031 -37.550781 8.375 -39.375 C 8.914062 -41.207031 9.546875 -43.171875 10.265625 -45.265625 C 10.992188 -47.359375 11.769531 -49.351562 12.59375 -51.25 C 13.425781 -53.15625 14.300781 -54.753906 15.21875 -56.046875 C 16.132812 -57.335938 17.046875 -58.0625 17.953125 -58.21875 C 18.867188 -58.382812 19.597656 -58.0625 20.140625 -57.25 C 20.835938 -56.238281 20.96875 -54.578125 20.53125 -52.265625 C 20.101562 -49.953125 19.257812 -47.238281 18 -44.125 C 16.738281 -41.007812 15.222656 -37.734375 13.453125 -34.296875 C 11.679688 -30.867188 9.75 -27.515625 7.65625 -24.234375 C 7.59375 -24.179688 7.5625 -24.128906 7.5625 -24.078125 C 7.40625 -23.429688 7.242188 -22.785156 7.078125 -22.140625 C 6.921875 -21.503906 6.765625 -20.863281 6.609375 -20.21875 C 8.210938 -20.375 9.789062 -20.53125 11.34375 -20.6875 C 12.90625 -20.851562 14.570312 -21.070312 16.34375 -21.34375 Z M 17.5625 -53.953125 C 16.800781 -52.828125 15.789062 -50.800781 14.53125 -47.875 C 13.269531 -44.945312 11.863281 -40.640625 10.3125 -34.953125 C 12.882812 -39.785156 14.691406 -43.796875 15.734375 -46.984375 C 16.785156 -50.179688 17.394531 -52.503906 17.5625 -53.953125 Z M 17.5625 -53.953125 "
           id="path67"
           style="fill:#ffffff;fill-opacity:1" />
      </g>
    </g>
  </g>
  <g
     fill="#ffffff"
     fill-opacity="1"
     id="g73"
     style="fill:#ffffff;fill-opacity:1">
    <g
       transform="translate(311.102598, 153.527577)"
       id="g72"
       style="fill:#ffffff;fill-opacity:1">
      <g
         id="g71"
         style="fill:#ffffff;fill-opacity:1">
        <path
           d="M 29.15625 -17.5625 C 29.53125 -17.289062 29.742188 -16.9375 29.796875 -16.5 C 29.847656 -16.070312 29.738281 -15.695312 29.46875 -15.375 C 28.070312 -13.601562 26.445312 -12.019531 24.59375 -10.625 C 22.75 -9.226562 20.816406 -8.191406 18.796875 -7.515625 C 16.785156 -6.847656 14.84375 -6.734375 12.96875 -7.171875 C 12.21875 -5.285156 11.15625 -3.832031 9.78125 -2.8125 C 8.414062 -1.789062 7.035156 -1.28125 5.640625 -1.28125 C 5.640625 -1.28125 5.625 -1.28125 5.59375 -1.28125 C 5.570312 -1.28125 5.5625 -1.28125 5.5625 -1.28125 C 4.101562 -1.34375 2.820312 -1.84375 1.71875 -2.78125 C 0.625 -3.71875 -0.132812 -5.019531 -0.5625 -6.6875 C -1.039062 -8.5625 -1.117188 -10.34375 -0.796875 -12.03125 C -0.484375 -13.726562 0.0976562 -15.21875 0.953125 -16.5 C 1.816406 -17.789062 2.785156 -18.785156 3.859375 -19.484375 C 4.234375 -19.753906 4.664062 -19.8125 5.15625 -19.65625 C 5.632812 -20.832031 6.316406 -21.742188 7.203125 -22.390625 C 8.085938 -23.035156 9.015625 -23.273438 9.984375 -23.109375 C 10.578125 -23.003906 11.222656 -22.640625 11.921875 -22.015625 C 12.617188 -21.398438 13.179688 -20.300781 13.609375 -18.71875 C 14.035156 -17.132812 14.171875 -14.8125 14.015625 -11.75 C 13.960938 -11.21875 13.878906 -10.679688 13.765625 -10.140625 C 15.210938 -9.878906 16.742188 -10.039062 18.359375 -10.625 C 19.972656 -11.21875 21.53125 -12.117188 23.03125 -13.328125 C 24.53125 -14.535156 25.847656 -15.863281 26.984375 -17.3125 C 27.242188 -17.632812 27.585938 -17.820312 28.015625 -17.875 C 28.453125 -17.925781 28.832031 -17.820312 29.15625 -17.5625 Z M 5.640625 -4.421875 C 6.335938 -4.421875 7.113281 -4.742188 7.96875 -5.390625 C 8.832031 -6.035156 9.53125 -7.003906 10.0625 -8.296875 C 8.132812 -9.367188 6.753906 -10.601562 5.921875 -12 C 5.085938 -13.394531 4.644531 -14.789062 4.59375 -16.1875 C 3.46875 -15.113281 2.726562 -13.742188 2.375 -12.078125 C 2.03125 -10.410156 2.046875 -8.90625 2.421875 -7.5625 C 2.578125 -6.976562 2.894531 -6.304688 3.375 -5.546875 C 3.863281 -4.796875 4.617188 -4.421875 5.640625 -4.421875 Z M 10.875 -11.921875 C 10.976562 -14.066406 10.9375 -15.726562 10.75 -16.90625 C 10.5625 -18.09375 10.332031 -18.898438 10.0625 -19.328125 C 9.789062 -19.753906 9.601562 -19.992188 9.5 -20.046875 C 9.445312 -20.046875 9.421875 -20.046875 9.421875 -20.046875 C 9.265625 -20.046875 9.023438 -19.882812 8.703125 -19.5625 C 8.378906 -19.238281 8.109375 -18.757812 7.890625 -18.125 C 7.566406 -17.101562 7.59375 -15.988281 7.96875 -14.78125 C 8.34375 -13.570312 9.3125 -12.457031 10.875 -11.4375 C 10.875 -11.59375 10.875 -11.753906 10.875 -11.921875 Z M 10.875 -11.921875 "
           id="path70"
           style="fill:#ffffff;fill-opacity:1" />
      </g>
    </g>
  </g>
  <g
     fill="#ffffff"
     fill-opacity="1"
     id="g76"
     style="fill:#ffffff;fill-opacity:1">
    <g
       transform="translate(336.867489, 153.527577)"
       id="g75"
       style="fill:#ffffff;fill-opacity:1">
      <g
         id="g74"
         style="fill:#ffffff;fill-opacity:1">
        <path
           d="M 35.359375 -18.28125 C 35.734375 -18.0625 36 -17.75 36.15625 -17.34375 C 36.320312 -16.945312 36.296875 -16.5625 36.078125 -16.1875 C 35.054688 -13.988281 33.804688 -11.519531 32.328125 -8.78125 C 30.859375 -6.039062 29.289062 -3.285156 27.625 -0.515625 C 25.957031 2.242188 24.265625 4.765625 22.546875 7.046875 C 20.828125 9.328125 19.160156 11.175781 17.546875 12.59375 C 15.941406 14.019531 14.492188 14.734375 13.203125 14.734375 C 12.828125 14.734375 12.476562 14.65625 12.15625 14.5 C 11.03125 14.0625 10.289062 13.035156 9.9375 11.421875 C 9.59375 9.816406 9.632812 7.515625 10.0625 4.515625 C 10.8125 -0.910156 12.800781 -8.585938 16.03125 -18.515625 C 15.96875 -18.515625 15.921875 -18.5 15.890625 -18.46875 C 15.867188 -18.445312 15.832031 -18.4375 15.78125 -18.4375 C 14.707031 -17.6875 13.414062 -16.90625 11.90625 -16.09375 C 10.40625 -15.289062 8.847656 -14.753906 7.234375 -14.484375 C 5.628906 -14.222656 4.101562 -14.578125 2.65625 -15.546875 C 0.613281 -16.992188 -0.429688 -19.003906 -0.484375 -21.578125 C -0.535156 -24.160156 0.429688 -26.976562 2.421875 -30.03125 C 3.054688 -31 3.894531 -32.070312 4.9375 -33.25 C 5.988281 -34.4375 7.09375 -35.351562 8.25 -36 C 9.40625 -36.644531 10.441406 -36.671875 11.359375 -36.078125 C 11.835938 -35.804688 12.195312 -35.347656 12.4375 -34.703125 C 12.675781 -34.066406 12.660156 -33.078125 12.390625 -31.734375 C 12.128906 -30.390625 11.488281 -28.585938 10.46875 -26.328125 C 9.445312 -24.078125 7.914062 -21.15625 5.875 -17.5625 C 7.113281 -17.394531 8.5 -17.738281 10.03125 -18.59375 C 11.5625 -19.457031 12.914062 -20.265625 14.09375 -21.015625 C 15.21875 -21.765625 16.15625 -22.3125 16.90625 -22.65625 C 17.65625 -23.007812 18.351562 -22.945312 19 -22.46875 C 19.59375 -21.988281 19.832031 -21.398438 19.71875 -20.703125 C 19.613281 -20.003906 19.507812 -19.460938 19.40625 -19.078125 C 17.632812 -13.492188 16.265625 -8.847656 15.296875 -5.140625 C 14.328125 -1.441406 13.664062 1.53125 13.3125 3.78125 C 12.96875 6.039062 12.796875 7.734375 12.796875 8.859375 C 12.796875 9.984375 12.875 10.71875 13.03125 11.0625 C 13.195312 11.414062 13.28125 11.617188 13.28125 11.671875 C 13.925781 11.785156 15.253906 10.753906 17.265625 8.578125 C 19.285156 6.398438 21.691406 3.125 24.484375 -1.25 C 27.273438 -5.625 30.203125 -11.03125 33.265625 -17.46875 C 33.472656 -17.90625 33.78125 -18.1875 34.1875 -18.3125 C 34.59375 -18.445312 34.984375 -18.4375 35.359375 -18.28125 Z M 2.90625 -23.75 C 2.582031 -22.625 2.484375 -21.695312 2.609375 -20.96875 C 2.742188 -20.25 2.945312 -19.675781 3.21875 -19.25 C 4.9375 -22.25 6.238281 -24.6875 7.125 -26.5625 C 8.007812 -28.445312 8.613281 -29.898438 8.9375 -30.921875 C 9.257812 -31.941406 9.445312 -32.664062 9.5 -33.09375 C 8.90625 -32.769531 8.164062 -32.148438 7.28125 -31.234375 C 6.394531 -30.328125 5.535156 -29.226562 4.703125 -27.9375 C 3.878906 -26.65625 3.28125 -25.257812 2.90625 -23.75 Z M 2.90625 -23.75 "
           id="path73"
           style="fill:#ffffff;fill-opacity:1" />
      </g>
    </g>
  </g>
  <g
     fill="#ffffff"
     fill-opacity="1"
     id="g79"
     style="fill:#ffffff;fill-opacity:1">
    <g
       transform="translate(68.987203, 266.099484)"
       id="g78"
       style="fill:#ffffff;fill-opacity:1">
      <g
         id="g77"
         style="fill:#ffffff;fill-opacity:1">
        <path
           d="M 86.25 -77.71875 C 86.675781 -77.71875 87.035156 -77.566406 87.328125 -77.265625 C 87.628906 -76.972656 87.78125 -76.613281 87.78125 -76.1875 C 87.78125 -75.75 87.628906 -75.382812 87.328125 -75.09375 C 87.035156 -74.800781 86.675781 -74.65625 86.25 -74.65625 C 82.113281 -74.601562 77.390625 -74.265625 72.078125 -73.640625 C 66.765625 -73.023438 61.273438 -72.21875 55.609375 -71.21875 C 49.941406 -70.226562 44.476562 -69.066406 39.21875 -67.734375 C 38.414062 -64.347656 37.488281 -60.628906 36.4375 -56.578125 C 35.394531 -52.523438 34.28125 -48.296875 33.09375 -43.890625 C 32.289062 -40.671875 31.429688 -37.328125 30.515625 -33.859375 C 29.609375 -30.398438 28.722656 -26.925781 27.859375 -23.4375 C 31.566406 -24.40625 35.296875 -25.332031 39.046875 -26.21875 C 42.804688 -27.101562 46.335938 -27.878906 49.640625 -28.546875 C 52.941406 -29.222656 55.785156 -29.734375 58.171875 -30.078125 C 60.566406 -30.429688 62.25 -30.578125 63.21875 -30.515625 C 63.644531 -30.460938 63.992188 -30.289062 64.265625 -30 C 64.535156 -29.707031 64.671875 -29.34375 64.671875 -28.90625 C 64.617188 -28.476562 64.441406 -28.113281 64.140625 -27.8125 C 63.847656 -27.519531 63.488281 -27.375 63.0625 -27.375 C 61.988281 -27.488281 59.945312 -27.289062 56.9375 -26.78125 C 53.925781 -26.269531 50.328125 -25.570312 46.140625 -24.6875 C 41.953125 -23.800781 37.523438 -22.765625 32.859375 -21.578125 C 30.816406 -21.046875 28.859375 -20.535156 26.984375 -20.046875 C 25.585938 -14.359375 24.296875 -8.84375 23.109375 -3.5 C 21.929688 1.84375 20.960938 6.78125 20.203125 11.3125 C 19.453125 15.851562 19.050781 19.679688 19 22.796875 C 19 24.078125 19.117188 25.375 19.359375 26.6875 C 19.609375 28.007812 20.160156 28.859375 21.015625 29.234375 C 22.035156 29.660156 23.390625 29.5 25.078125 28.75 C 26.773438 28 28.671875 26.84375 30.765625 25.28125 C 32.859375 23.726562 35.003906 21.984375 37.203125 20.046875 C 39.398438 18.117188 41.53125 16.160156 43.59375 14.171875 C 45.664062 12.179688 47.507812 10.410156 49.125 8.859375 C 49.550781 8.429688 49.976562 8.015625 50.40625 7.609375 C 50.84375 7.203125 51.25 6.785156 51.625 6.359375 L 52.984375 5.078125 C 53.796875 4.328125 54.578125 3.585938 55.328125 2.859375 C 56.078125 2.128906 56.75 1.5 57.34375 0.96875 C 58.144531 0.21875 58.894531 -0.382812 59.59375 -0.84375 C 60.289062 -1.300781 60.9375 -1.234375 61.53125 -0.640625 C 62.226562 -0.0546875 62.304688 0.71875 61.765625 1.6875 C 61.234375 2.65625 60.1875 4.1875 58.625 6.28125 C 58.351562 6.65625 58.003906 6.867188 57.578125 6.921875 C 57.148438 6.972656 56.773438 6.867188 56.453125 6.609375 C 56.347656 6.546875 56.238281 6.460938 56.125 6.359375 C 55.96875 6.523438 55.804688 6.6875 55.640625 6.84375 C 55.484375 7.007812 55.320312 7.171875 55.15625 7.328125 L 53.796875 8.609375 C 53.421875 8.992188 53.015625 9.398438 52.578125 9.828125 C 52.148438 10.253906 51.722656 10.65625 51.296875 11.03125 C 47.273438 14.945312 43.460938 18.53125 39.859375 21.78125 C 36.265625 25.03125 32.953125 27.632812 29.921875 29.59375 C 26.890625 31.550781 24.269531 32.53125 22.0625 32.53125 C 21.207031 32.53125 20.457031 32.367188 19.8125 32.046875 C 17.125 30.921875 15.832031 27.835938 15.9375 22.796875 C 16 19.617188 16.378906 15.84375 17.078125 11.46875 C 17.773438 7.09375 18.6875 2.304688 19.8125 -2.890625 C 20.9375 -8.097656 22.171875 -13.492188 23.515625 -19.078125 C 17.984375 -17.523438 13.6875 -16.171875 10.625 -15.015625 C 7.570312 -13.859375 5.75 -13.015625 5.15625 -12.484375 C 4.882812 -12.210938 4.535156 -12.078125 4.109375 -12.078125 C 3.679688 -12.078125 3.304688 -12.238281 2.984375 -12.5625 C 2.710938 -12.832031 2.578125 -13.179688 2.578125 -13.609375 C 2.578125 -14.035156 2.738281 -14.410156 3.0625 -14.734375 C 3.707031 -15.378906 5.0625 -16.128906 7.125 -16.984375 C 9.195312 -17.847656 11.734375 -18.75 14.734375 -19.6875 C 17.742188 -20.625 20.96875 -21.578125 24.40625 -22.546875 C 25.3125 -26.253906 26.257812 -29.972656 27.25 -33.703125 C 28.25 -37.429688 29.207031 -41.09375 30.125 -44.6875 C 31.195312 -48.71875 32.210938 -52.613281 33.171875 -56.375 C 34.140625 -60.132812 35.03125 -63.625 35.84375 -66.84375 C 31.113281 -65.550781 26.800781 -64.191406 22.90625 -62.765625 C 19.019531 -61.347656 15.835938 -59.882812 13.359375 -58.375 C 10.890625 -56.875 9.441406 -55.375 9.015625 -53.875 C 8.910156 -53.65625 8.910156 -53.171875 9.015625 -52.421875 C 9.128906 -51.671875 10.015625 -50.734375 11.671875 -49.609375 C 11.992188 -49.335938 12.195312 -49 12.28125 -48.59375 C 12.363281 -48.195312 12.296875 -47.8125 12.078125 -47.4375 C 11.753906 -47 11.328125 -46.78125 10.796875 -46.78125 C 10.472656 -46.78125 10.175781 -46.863281 9.90625 -47.03125 C 7.757812 -48.476562 6.507812 -49.882812 6.15625 -51.25 C 5.8125 -52.625 5.773438 -53.796875 6.046875 -54.765625 C 6.578125 -56.484375 7.820312 -58.09375 9.78125 -59.59375 C 11.738281 -61.09375 14.179688 -62.488281 17.109375 -63.78125 C 20.035156 -65.070312 23.191406 -66.265625 26.578125 -67.359375 C 29.960938 -68.460938 33.316406 -69.441406 36.640625 -70.296875 C 36.960938 -71.640625 37.234375 -72.796875 37.453125 -73.765625 C 37.503906 -74.191406 37.71875 -74.515625 38.09375 -74.734375 C 38.46875 -74.953125 38.84375 -75.03125 39.21875 -74.96875 C 39.644531 -74.863281 39.976562 -74.632812 40.21875 -74.28125 C 40.46875 -73.9375 40.535156 -73.550781 40.421875 -73.125 C 40.316406 -72.582031 40.1875 -71.910156 40.03125 -71.109375 C 45.226562 -72.398438 50.632812 -73.523438 56.25 -74.484375 C 61.863281 -75.453125 67.257812 -76.21875 72.4375 -76.78125 C 77.613281 -77.34375 82.21875 -77.65625 86.25 -77.71875 Z M 86.25 -77.71875 "
           id="path76"
           style="fill:#ffffff;fill-opacity:1" />
      </g>
    </g>
  </g>
  <g
     fill="#ffffff"
     fill-opacity="1"
     id="g82"
     style="fill:#ffffff;fill-opacity:1">
    <g
       transform="translate(137.264125, 266.099484)"
       id="g81"
       style="fill:#ffffff;fill-opacity:1">
      <g
         id="g80"
         style="fill:#ffffff;fill-opacity:1">
        <path
           d="M 67.96875 -47.515625 C 68.238281 -47.191406 68.34375 -46.8125 68.28125 -46.375 C 68.226562 -45.945312 68.015625 -45.601562 67.640625 -45.34375 C 67.003906 -44.90625 66.390625 -44.929688 65.796875 -45.421875 C 65.097656 -45.691406 63.5 -45.878906 61 -45.984375 C 58.5 -46.085938 55.367188 -46.148438 51.609375 -46.171875 C 47.859375 -46.203125 43.726562 -46.191406 39.21875 -46.140625 C 34.707031 -46.085938 30.078125 -46.019531 25.328125 -45.9375 C 20.578125 -45.863281 15.972656 -45.769531 11.515625 -45.65625 C 9.847656 -38.675781 8.101562 -31.09375 6.28125 -22.90625 C 4.457031 -14.71875 2.660156 -6.410156 0.890625 2.015625 C -1.421875 13.078125 -3.207031 22.148438 -4.46875 29.234375 C -5.726562 36.316406 -6.546875 41.441406 -6.921875 44.609375 C -6.816406 44.609375 -6.710938 44.632812 -6.609375 44.6875 C -6.171875 44.800781 -5.867188 45.054688 -5.703125 45.453125 C -5.546875 45.859375 -5.550781 46.25 -5.71875 46.625 C -6.039062 47.539062 -6.398438 48.382812 -6.796875 49.15625 C -7.203125 49.9375 -7.753906 50.328125 -8.453125 50.328125 C -8.617188 50.328125 -8.804688 50.300781 -9.015625 50.25 C -9.765625 49.976562 -10.179688 49.398438 -10.265625 48.515625 C -10.347656 47.628906 -10.28125 46.410156 -10.0625 44.859375 C -9.851562 42.597656 -9.367188 39.347656 -8.609375 35.109375 C -7.972656 31.140625 -7.144531 26.492188 -6.125 21.171875 C -5.101562 15.859375 -3.921875 10.035156 -2.578125 3.703125 C -0.804688 -4.890625 1.015625 -13.425781 2.890625 -21.90625 C 4.773438 -30.382812 6.578125 -38.273438 8.296875 -45.578125 C 5.710938 -45.523438 3.265625 -45.472656 0.953125 -45.421875 C -1.347656 -45.367188 -3.4375 -45.316406 -5.3125 -45.265625 C -8.90625 -45.148438 -12.046875 -45.066406 -14.734375 -45.015625 C -17.421875 -44.960938 -19.328125 -44.9375 -20.453125 -44.9375 C -20.878906 -44.9375 -21.238281 -45.082031 -21.53125 -45.375 C -21.832031 -45.675781 -21.984375 -46.039062 -21.984375 -46.46875 C -21.984375 -46.894531 -21.832031 -47.253906 -21.53125 -47.546875 C -21.238281 -47.847656 -20.878906 -48 -20.453125 -48 C -19.328125 -48 -17.4375 -48.035156 -14.78125 -48.109375 C -12.125 -48.191406 -8.992188 -48.289062 -5.390625 -48.40625 C -2.816406 -48.457031 -0.320312 -48.507812 2.09375 -48.5625 C 4.507812 -48.613281 6.84375 -48.664062 9.09375 -48.71875 C 9.90625 -52.15625 10.695312 -55.390625 11.46875 -58.421875 C 12.25 -61.453125 12.988281 -64.234375 13.6875 -66.765625 C 13.789062 -67.191406 14.03125 -67.507812 14.40625 -67.71875 C 14.789062 -67.9375 15.171875 -67.992188 15.546875 -67.890625 C 15.972656 -67.785156 16.289062 -67.539062 16.5 -67.15625 C 16.71875 -66.78125 16.773438 -66.378906 16.671875 -65.953125 C 15.378906 -61.171875 13.898438 -55.453125 12.234375 -48.796875 C 20.609375 -48.960938 27.773438 -49.082031 33.734375 -49.15625 C 39.703125 -49.238281 44.695312 -49.28125 48.71875 -49.28125 C 52.75 -49.28125 56.007812 -49.226562 58.5 -49.125 C 61 -49.019531 62.890625 -48.898438 64.171875 -48.765625 C 65.460938 -48.628906 66.378906 -48.453125 66.921875 -48.234375 C 67.460938 -48.023438 67.8125 -47.785156 67.96875 -47.515625 Z M 67.96875 -47.515625 "
           id="path79"
           style="fill:#ffffff;fill-opacity:1" />
      </g>
    </g>
  </g>
  <g
     fill="#ffffff"
     fill-opacity="1"
     id="g85"
     style="fill:#ffffff;fill-opacity:1">
    <g
       transform="translate(147.97265, 266.099484)"
       id="g84"
       style="fill:#ffffff;fill-opacity:1">
      <g
         id="g83"
         style="fill:#ffffff;fill-opacity:1">
        <path
           d="M 27.21875 -17.953125 C 27.59375 -17.742188 27.804688 -17.421875 27.859375 -16.984375 C 27.910156 -16.554688 27.832031 -16.179688 27.625 -15.859375 C 24.457031 -11.460938 21.554688 -7.828125 18.921875 -4.953125 C 16.296875 -2.078125 13.664062 0.296875 11.03125 2.171875 C 9.039062 3.566406 7.082031 4.265625 5.15625 4.265625 C 3.65625 4.265625 2.335938 3.863281 1.203125 3.0625 C 0.453125 2.519531 -0.28125 1.5625 -1 0.1875 C -1.726562 -1.175781 -2.117188 -3.15625 -2.171875 -5.75 C -2.222656 -8.351562 -1.578125 -11.78125 -0.234375 -16.03125 C -0.234375 -16.03125 -0.234375 -16.054688 -0.234375 -16.109375 C 1.367188 -21.265625 3.257812 -25.195312 5.4375 -27.90625 C 7.613281 -30.613281 9.476562 -31.992188 11.03125 -32.046875 C 12.269531 -32.097656 13.078125 -31.5625 13.453125 -30.4375 C 14.035156 -28.882812 13.332031 -26.671875 11.34375 -23.796875 C 9.363281 -20.921875 6.441406 -17.875 2.578125 -14.65625 C 1.398438 -10.894531 0.835938 -7.953125 0.890625 -5.828125 C 0.941406 -3.710938 1.234375 -2.1875 1.765625 -1.25 C 2.304688 -0.3125 2.738281 0.289062 3.0625 0.5625 C 4.664062 1.738281 6.734375 1.414062 9.265625 -0.40625 C 11.734375 -2.125 14.226562 -4.363281 16.75 -7.125 C 19.269531 -9.894531 22.035156 -13.398438 25.046875 -17.640625 C 25.316406 -17.960938 25.664062 -18.160156 26.09375 -18.234375 C 26.519531 -18.316406 26.894531 -18.222656 27.21875 -17.953125 Z M 10.46875 -28.671875 C 9.875 -28.296875 9.066406 -27.503906 8.046875 -26.296875 C 7.023438 -25.085938 5.976562 -23.328125 4.90625 -21.015625 C 6.84375 -22.898438 8.210938 -24.5 9.015625 -25.8125 C 9.828125 -27.125 10.3125 -28.078125 10.46875 -28.671875 Z M 10.46875 -28.671875 "
           id="path82"
           style="fill:#ffffff;fill-opacity:1" />
      </g>
    </g>
  </g>
  <g
     fill="#ffffff"
     fill-opacity="1"
     id="g88"
     style="fill:#ffffff;fill-opacity:1">
    <g
       transform="translate(171.402585, 266.099484)"
       id="g87"
       style="fill:#ffffff;fill-opacity:1">
      <g
         id="g86"
         style="fill:#ffffff;fill-opacity:1">
        <path
           d="M 35.359375 -18.28125 C 35.734375 -18.0625 36 -17.75 36.15625 -17.34375 C 36.320312 -16.945312 36.296875 -16.5625 36.078125 -16.1875 C 35.054688 -13.988281 33.804688 -11.519531 32.328125 -8.78125 C 30.859375 -6.039062 29.289062 -3.285156 27.625 -0.515625 C 25.957031 2.242188 24.265625 4.765625 22.546875 7.046875 C 20.828125 9.328125 19.160156 11.175781 17.546875 12.59375 C 15.941406 14.019531 14.492188 14.734375 13.203125 14.734375 C 12.828125 14.734375 12.476562 14.65625 12.15625 14.5 C 11.03125 14.0625 10.289062 13.035156 9.9375 11.421875 C 9.59375 9.816406 9.632812 7.515625 10.0625 4.515625 C 10.8125 -0.910156 12.800781 -8.585938 16.03125 -18.515625 C 15.96875 -18.515625 15.921875 -18.5 15.890625 -18.46875 C 15.867188 -18.445312 15.832031 -18.4375 15.78125 -18.4375 C 14.707031 -17.6875 13.414062 -16.90625 11.90625 -16.09375 C 10.40625 -15.289062 8.847656 -14.753906 7.234375 -14.484375 C 5.628906 -14.222656 4.101562 -14.578125 2.65625 -15.546875 C 0.613281 -16.992188 -0.429688 -19.003906 -0.484375 -21.578125 C -0.535156 -24.160156 0.429688 -26.976562 2.421875 -30.03125 C 3.054688 -31 3.894531 -32.070312 4.9375 -33.25 C 5.988281 -34.4375 7.09375 -35.351562 8.25 -36 C 9.40625 -36.644531 10.441406 -36.671875 11.359375 -36.078125 C 11.835938 -35.804688 12.195312 -35.347656 12.4375 -34.703125 C 12.675781 -34.066406 12.660156 -33.078125 12.390625 -31.734375 C 12.128906 -30.390625 11.488281 -28.585938 10.46875 -26.328125 C 9.445312 -24.078125 7.914062 -21.15625 5.875 -17.5625 C 7.113281 -17.394531 8.5 -17.738281 10.03125 -18.59375 C 11.5625 -19.457031 12.914062 -20.265625 14.09375 -21.015625 C 15.21875 -21.765625 16.15625 -22.3125 16.90625 -22.65625 C 17.65625 -23.007812 18.351562 -22.945312 19 -22.46875 C 19.59375 -21.988281 19.832031 -21.398438 19.71875 -20.703125 C 19.613281 -20.003906 19.507812 -19.460938 19.40625 -19.078125 C 17.632812 -13.492188 16.265625 -8.847656 15.296875 -5.140625 C 14.328125 -1.441406 13.664062 1.53125 13.3125 3.78125 C 12.96875 6.039062 12.796875 7.734375 12.796875 8.859375 C 12.796875 9.984375 12.875 10.71875 13.03125 11.0625 C 13.195312 11.414062 13.28125 11.617188 13.28125 11.671875 C 13.925781 11.785156 15.253906 10.753906 17.265625 8.578125 C 19.285156 6.398438 21.691406 3.125 24.484375 -1.25 C 27.273438 -5.625 30.203125 -11.03125 33.265625 -17.46875 C 33.472656 -17.90625 33.78125 -18.1875 34.1875 -18.3125 C 34.59375 -18.445312 34.984375 -18.4375 35.359375 -18.28125 Z M 2.90625 -23.75 C 2.582031 -22.625 2.484375 -21.695312 2.609375 -20.96875 C 2.742188 -20.25 2.945312 -19.675781 3.21875 -19.25 C 4.9375 -22.25 6.238281 -24.6875 7.125 -26.5625 C 8.007812 -28.445312 8.613281 -29.898438 8.9375 -30.921875 C 9.257812 -31.941406 9.445312 -32.664062 9.5 -33.09375 C 8.90625 -32.769531 8.164062 -32.148438 7.28125 -31.234375 C 6.394531 -30.328125 5.535156 -29.226562 4.703125 -27.9375 C 3.878906 -26.65625 3.28125 -25.257812 2.90625 -23.75 Z M 2.90625 -23.75 "
           id="path85"
           style="fill:#ffffff;fill-opacity:1" />
      </g>
    </g>
  </g>
  <g
     fill="#ffffff"
     fill-opacity="1"
     id="g91"
     style="fill:#ffffff;fill-opacity:1">
    <g
       transform="translate(203.52816, 266.099484)"
       id="g90"
       style="fill:#ffffff;fill-opacity:1">
      <g
         id="g89"
         style="fill:#ffffff;fill-opacity:1">
        <path
           d="M 32.453125 -17.953125 C 32.828125 -17.742188 33.066406 -17.4375 33.171875 -17.03125 C 33.285156 -16.625 33.234375 -16.234375 33.015625 -15.859375 C 30.492188 -11.410156 28.222656 -7.988281 26.203125 -5.59375 C 24.191406 -3.207031 22.140625 -2.148438 20.046875 -2.421875 C 17.367188 -2.742188 15.25 -5.640625 13.6875 -11.109375 C 13.15625 -12.878906 12.6875 -14.15625 12.28125 -14.9375 C 11.875 -15.71875 11.550781 -16.203125 11.3125 -16.390625 C 11.070312 -16.578125 10.898438 -16.671875 10.796875 -16.671875 C 10.628906 -16.722656 10.300781 -16.5625 9.8125 -16.1875 C 9.332031 -15.8125 8.632812 -14.976562 7.71875 -13.6875 C 6.8125 -12.394531 5.6875 -10.394531 4.34375 -7.6875 C 3 -4.976562 1.363281 -1.257812 -0.5625 3.46875 C -0.832031 4.101562 -1.289062 4.421875 -1.9375 4.421875 C -2.09375 4.421875 -2.222656 4.394531 -2.328125 4.34375 C -3.242188 4.132812 -3.648438 3.570312 -3.546875 2.65625 C -3.273438 0.457031 -2.789062 -2.085938 -2.09375 -4.984375 C -1.394531 -7.890625 -0.628906 -10.84375 0.203125 -13.84375 C 1.035156 -16.851562 1.800781 -19.539062 2.5 -21.90625 C 2.65625 -22.4375 2.800781 -22.929688 2.9375 -23.390625 C 3.070312 -23.847656 3.191406 -24.289062 3.296875 -24.71875 C 3.460938 -25.15625 3.734375 -25.46875 4.109375 -25.65625 C 4.484375 -25.84375 4.859375 -25.878906 5.234375 -25.765625 C 5.660156 -25.660156 5.976562 -25.421875 6.1875 -25.046875 C 6.40625 -24.671875 6.4375 -24.269531 6.28125 -23.84375 C 6.175781 -23.40625 6.054688 -22.957031 5.921875 -22.5 C 5.785156 -22.050781 5.632812 -21.554688 5.46875 -21.015625 C 5.09375 -19.617188 4.664062 -18.085938 4.1875 -16.421875 C 3.707031 -14.765625 3.222656 -13.078125 2.734375 -11.359375 C 4.554688 -14.796875 6.113281 -17.078125 7.40625 -18.203125 C 8.695312 -19.328125 9.878906 -19.863281 10.953125 -19.8125 C 12.453125 -19.707031 13.628906 -18.875 14.484375 -17.3125 C 15.347656 -15.757812 16.078125 -13.960938 16.671875 -11.921875 C 17.472656 -9.128906 18.222656 -7.351562 18.921875 -6.59375 C 19.617188 -5.84375 20.128906 -5.46875 20.453125 -5.46875 C 21.148438 -5.363281 21.96875 -5.753906 22.90625 -6.640625 C 23.851562 -7.523438 24.796875 -8.648438 25.734375 -10.015625 C 26.671875 -11.390625 27.554688 -12.75 28.390625 -14.09375 C 29.222656 -15.4375 29.851562 -16.535156 30.28125 -17.390625 C 30.5 -17.765625 30.820312 -18.003906 31.25 -18.109375 C 31.675781 -18.222656 32.078125 -18.171875 32.453125 -17.953125 Z M 32.453125 -17.953125 "
           id="path88"
           style="fill:#ffffff;fill-opacity:1" />
      </g>
    </g>
  </g>
  <g
     fill="#ffffff"
     fill-opacity="1"
     id="g94"
     style="fill:#ffffff;fill-opacity:1">
    <g
       transform="translate(232.272107, 266.099484)"
       id="g93"
       style="fill:#ffffff;fill-opacity:1">
      <g
         id="g92"
         style="fill:#ffffff;fill-opacity:1">
        <path
           d="M 23.59375 -18.359375 C 23.96875 -18.140625 24.195312 -17.816406 24.28125 -17.390625 C 24.363281 -16.960938 24.296875 -16.5625 24.078125 -16.1875 C 23.054688 -14.570312 21.765625 -12.769531 20.203125 -10.78125 C 18.648438 -8.800781 16.960938 -6.910156 15.140625 -5.109375 C 13.316406 -3.316406 11.503906 -1.828125 9.703125 -0.640625 C 7.898438 0.535156 6.25 1.125 4.75 1.125 C 4.101562 1.125 3.539062 1.019531 3.0625 0.8125 C 1.238281 0 0.234375 -1.945312 0.046875 -5.03125 C -0.140625 -8.113281 0.488281 -12.476562 1.9375 -18.125 C 2.039062 -18.550781 2.28125 -18.867188 2.65625 -19.078125 C 3.03125 -19.296875 3.40625 -19.351562 3.78125 -19.25 C 4.207031 -19.132812 4.53125 -18.890625 4.75 -18.515625 C 4.96875 -18.140625 5.019531 -17.765625 4.90625 -17.390625 C 4.050781 -13.953125 3.515625 -11.226562 3.296875 -9.21875 C 3.085938 -7.207031 3.046875 -5.691406 3.171875 -4.671875 C 3.304688 -3.648438 3.507812 -2.960938 3.78125 -2.609375 C 4.050781 -2.265625 4.210938 -2.09375 4.265625 -2.09375 C 4.960938 -1.769531 5.984375 -2 7.328125 -2.78125 C 8.671875 -3.5625 10.171875 -4.710938 11.828125 -6.234375 C 13.492188 -7.765625 15.171875 -9.535156 16.859375 -11.546875 C 18.554688 -13.566406 20.078125 -15.675781 21.421875 -17.875 C 21.691406 -18.25 22.023438 -18.476562 22.421875 -18.5625 C 22.828125 -18.644531 23.21875 -18.578125 23.59375 -18.359375 Z M 4.59375 -24.796875 C 3.519531 -24.859375 2.96875 -25.171875 2.9375 -25.734375 C 2.914062 -26.296875 3.15625 -26.867188 3.65625 -27.453125 C 4.164062 -28.046875 4.691406 -28.453125 5.234375 -28.671875 C 6.085938 -28.941406 6.71875 -28.882812 7.125 -28.5 C 7.53125 -28.125 7.71875 -27.640625 7.6875 -27.046875 C 7.664062 -26.460938 7.398438 -25.925781 6.890625 -25.4375 C 6.378906 -24.957031 5.613281 -24.742188 4.59375 -24.796875 Z M 4.59375 -24.796875 "
           id="path91"
           style="fill:#ffffff;fill-opacity:1" />
      </g>
    </g>
  </g>
  <g
     fill="#ffffff"
     fill-opacity="1"
     id="g97"
     style="fill:#ffffff;fill-opacity:1">
    <g
       transform="translate(252.64247, 266.099484)"
       id="g96"
       style="fill:#ffffff;fill-opacity:1">
      <g
         id="g95"
         style="fill:#ffffff;fill-opacity:1">
        <path
           d="M 67.96875 -47.515625 C 68.238281 -47.191406 68.34375 -46.8125 68.28125 -46.375 C 68.226562 -45.945312 68.015625 -45.601562 67.640625 -45.34375 C 67.003906 -44.90625 66.390625 -44.929688 65.796875 -45.421875 C 65.097656 -45.691406 63.5 -45.878906 61 -45.984375 C 58.5 -46.085938 55.367188 -46.148438 51.609375 -46.171875 C 47.859375 -46.203125 43.726562 -46.191406 39.21875 -46.140625 C 34.707031 -46.085938 30.078125 -46.019531 25.328125 -45.9375 C 20.578125 -45.863281 15.972656 -45.769531 11.515625 -45.65625 C 9.847656 -38.675781 8.101562 -31.09375 6.28125 -22.90625 C 4.457031 -14.71875 2.660156 -6.410156 0.890625 2.015625 C -1.421875 13.078125 -3.207031 22.148438 -4.46875 29.234375 C -5.726562 36.316406 -6.546875 41.441406 -6.921875 44.609375 C -6.816406 44.609375 -6.710938 44.632812 -6.609375 44.6875 C -6.171875 44.800781 -5.867188 45.054688 -5.703125 45.453125 C -5.546875 45.859375 -5.550781 46.25 -5.71875 46.625 C -6.039062 47.539062 -6.398438 48.382812 -6.796875 49.15625 C -7.203125 49.9375 -7.753906 50.328125 -8.453125 50.328125 C -8.617188 50.328125 -8.804688 50.300781 -9.015625 50.25 C -9.765625 49.976562 -10.179688 49.398438 -10.265625 48.515625 C -10.347656 47.628906 -10.28125 46.410156 -10.0625 44.859375 C -9.851562 42.597656 -9.367188 39.347656 -8.609375 35.109375 C -7.972656 31.140625 -7.144531 26.492188 -6.125 21.171875 C -5.101562 15.859375 -3.921875 10.035156 -2.578125 3.703125 C -0.804688 -4.890625 1.015625 -13.425781 2.890625 -21.90625 C 4.773438 -30.382812 6.578125 -38.273438 8.296875 -45.578125 C 5.710938 -45.523438 3.265625 -45.472656 0.953125 -45.421875 C -1.347656 -45.367188 -3.4375 -45.316406 -5.3125 -45.265625 C -8.90625 -45.148438 -12.046875 -45.066406 -14.734375 -45.015625 C -17.421875 -44.960938 -19.328125 -44.9375 -20.453125 -44.9375 C -20.878906 -44.9375 -21.238281 -45.082031 -21.53125 -45.375 C -21.832031 -45.675781 -21.984375 -46.039062 -21.984375 -46.46875 C -21.984375 -46.894531 -21.832031 -47.253906 -21.53125 -47.546875 C -21.238281 -47.847656 -20.878906 -48 -20.453125 -48 C -19.328125 -48 -17.4375 -48.035156 -14.78125 -48.109375 C -12.125 -48.191406 -8.992188 -48.289062 -5.390625 -48.40625 C -2.816406 -48.457031 -0.320312 -48.507812 2.09375 -48.5625 C 4.507812 -48.613281 6.84375 -48.664062 9.09375 -48.71875 C 9.90625 -52.15625 10.695312 -55.390625 11.46875 -58.421875 C 12.25 -61.453125 12.988281 -64.234375 13.6875 -66.765625 C 13.789062 -67.191406 14.03125 -67.507812 14.40625 -67.71875 C 14.789062 -67.9375 15.171875 -67.992188 15.546875 -67.890625 C 15.972656 -67.785156 16.289062 -67.539062 16.5 -67.15625 C 16.71875 -66.78125 16.773438 -66.378906 16.671875 -65.953125 C 15.378906 -61.171875 13.898438 -55.453125 12.234375 -48.796875 C 20.609375 -48.960938 27.773438 -49.082031 33.734375 -49.15625 C 39.703125 -49.238281 44.695312 -49.28125 48.71875 -49.28125 C 52.75 -49.28125 56.007812 -49.226562 58.5 -49.125 C 61 -49.019531 62.890625 -48.898438 64.171875 -48.765625 C 65.460938 -48.628906 66.378906 -48.453125 66.921875 -48.234375 C 67.460938 -48.023438 67.8125 -47.785156 67.96875 -47.515625 Z M 67.96875 -47.515625 "
           id="path94"
           style="fill:#ffffff;fill-opacity:1" />
      </g>
    </g>
  </g>
  <g
     fill="#ffffff"
     fill-opacity="1"
     id="g100"
     style="fill:#ffffff;fill-opacity:1">
    <g
       transform="translate(263.350995, 266.099484)"
       id="g99"
       style="fill:#ffffff;fill-opacity:1">
      <g
         id="g98"
         style="fill:#ffffff;fill-opacity:1">
        <path
           d="M 39.375 -17.71875 C 39.644531 -17.394531 39.722656 -17.015625 39.609375 -16.578125 C 39.503906 -16.148438 39.296875 -15.832031 38.984375 -15.625 C 35.054688 -13.039062 31.117188 -10.257812 27.171875 -7.28125 C 23.234375 -4.300781 19.382812 -0.9375 15.625 2.8125 C 12.457031 21.769531 8.992188 37.15625 5.234375 48.96875 C 4.429688 51.382812 3.554688 53.835938 2.609375 56.328125 C 1.671875 58.828125 0.65625 61.160156 -0.4375 63.328125 C -1.539062 65.503906 -2.707031 67.332031 -3.9375 68.8125 C -5.175781 70.289062 -6.441406 71.21875 -7.734375 71.59375 C -8.109375 71.695312 -8.507812 71.75 -8.9375 71.75 C -10.175781 71.75 -11.25 71.210938 -12.15625 70.140625 C -13.28125 68.691406 -14.015625 66.488281 -14.359375 63.53125 C -14.710938 60.582031 -14.648438 57.117188 -14.171875 53.140625 C -13.691406 49.171875 -12.765625 44.957031 -11.390625 40.5 C -10.023438 36.050781 -8.1875 31.625 -5.875 27.21875 C -3.082031 21.90625 -0.117188 17.125 3.015625 12.875 C 6.160156 8.632812 9.421875 4.769531 12.796875 1.28125 C 13.609375 -3.757812 14.414062 -9.046875 15.21875 -14.578125 C 14.519531 -13.503906 13.765625 -12.414062 12.953125 -11.3125 C 12.148438 -10.207031 11.347656 -9.175781 10.546875 -8.21875 C 9.472656 -6.925781 8.476562 -6.09375 7.5625 -5.71875 C 6.65625 -5.34375 5.878906 -5.207031 5.234375 -5.3125 C 4.585938 -5.414062 4.101562 -5.578125 3.78125 -5.796875 C 2.601562 -6.492188 1.796875 -7.738281 1.359375 -9.53125 C 0.929688 -11.332031 0.878906 -13.46875 1.203125 -15.9375 C 1.523438 -18.414062 2.222656 -20.992188 3.296875 -23.671875 C 3.460938 -24.046875 3.742188 -24.3125 4.140625 -24.46875 C 4.546875 -24.632812 4.9375 -24.640625 5.3125 -24.484375 C 5.6875 -24.316406 5.96875 -24.046875 6.15625 -23.671875 C 6.34375 -23.296875 6.359375 -22.894531 6.203125 -22.46875 C 5.128906 -19.945312 4.46875 -17.675781 4.21875 -15.65625 C 3.976562 -13.644531 3.992188 -12.007812 4.265625 -10.75 C 4.535156 -9.488281 4.910156 -8.722656 5.390625 -8.453125 C 5.984375 -8.078125 6.898438 -8.640625 8.140625 -10.140625 C 9.210938 -11.429688 10.285156 -12.851562 11.359375 -14.40625 C 12.429688 -15.96875 13.410156 -17.457031 14.296875 -18.875 C 15.179688 -20.300781 15.890625 -21.472656 16.421875 -22.390625 C 16.859375 -23.140625 17.476562 -23.378906 18.28125 -23.109375 C 19.082031 -22.785156 19.429688 -22.222656 19.328125 -21.421875 C 18.410156 -14.710938 17.472656 -8.347656 16.515625 -2.328125 C 19.890625 -5.503906 23.320312 -8.378906 26.8125 -10.953125 C 30.300781 -13.523438 33.789062 -15.941406 37.28125 -18.203125 C 37.601562 -18.410156 37.976562 -18.472656 38.40625 -18.390625 C 38.84375 -18.316406 39.164062 -18.09375 39.375 -17.71875 Z M 2.25 48.078125 C 5.6875 37.335938 8.882812 23.617188 11.84375 6.921875 C 9.15625 9.929688 6.546875 13.21875 4.015625 16.78125 C 1.492188 20.351562 -0.890625 24.316406 -3.140625 28.671875 C -5.554688 33.335938 -7.40625 37.84375 -8.6875 42.1875 C -9.976562 46.539062 -10.796875 50.515625 -11.140625 54.109375 C -11.492188 57.710938 -11.523438 60.734375 -11.234375 63.171875 C -10.941406 65.617188 -10.445312 67.269531 -9.75 68.125 C -9.476562 68.445312 -9.25 68.617188 -9.0625 68.640625 C -8.875 68.671875 -8.722656 68.660156 -8.609375 68.609375 C -8.398438 68.554688 -8 68.300781 -7.40625 67.84375 C -6.8125 67.382812 -6.03125 66.472656 -5.0625 65.109375 C -4.101562 63.742188 -3.003906 61.703125 -1.765625 58.984375 C -0.535156 56.273438 0.800781 52.640625 2.25 48.078125 Z M 2.25 48.078125 "
           id="path97"
           style="fill:#ffffff;fill-opacity:1" />
      </g>
    </g>
  </g>
</svg>
