<svg xmlns="http://www.w3.org/2000/svg" xmlns:xlink="http://www.w3.org/1999/xlink" width="500" zoomAndPan="magnify" viewBox="0 0 375 374.999991" height="500" preserveAspectRatio="xMidYMid meet" version="1.0"><defs><g/><clipPath id="b238c12581"><path d="M 37.5 108.867188 L 130.5 108.867188 L 130.5 257.367188 L 37.5 257.367188 Z M 37.5 108.867188 " clip-rule="nonzero"/></clipPath><clipPath id="338c3bb6a4"><path d="M 263.175781 90.738281 L 328 90.738281 L 328 144.738281 L 263.175781 144.738281 Z M 263.175781 90.738281 " clip-rule="nonzero"/></clipPath></defs><g clip-path="url(#b238c12581)"><path fill="#112241" d="M 37.5 229.628906 L 70.011719 229.628906 L 70.011719 159.03125 C 63.046875 162.59375 55.152344 164.601562 46.789062 164.601562 L 37.5 164.601562 L 37.5 136.734375 L 46.789062 136.734375 C 59.617188 136.734375 70.011719 126.339844 70.011719 113.511719 L 70.011719 108.867188 L 97.882812 108.867188 L 97.882812 229.628906 L 130.394531 229.628906 L 130.394531 257.496094 L 37.5 257.496094 Z M 37.5 229.628906 " fill-opacity="1" fill-rule="nonzero"/></g><path fill="#112241" d="M 343.761719 113.984375 C 343.730469 113.582031 343.585938 113.132812 343.328125 112.761719 C 343.199219 112.566406 343.039062 112.40625 342.859375 112.261719 C 342.683594 112.117188 342.503906 112.019531 342.328125 111.921875 L 342.183594 111.859375 L 342.023438 111.792969 L 341.859375 111.730469 C 341.8125 111.710938 341.75 111.695312 341.699219 111.695312 L 341.539062 111.664062 L 341.457031 111.648438 L 341.378906 111.632812 L 341.070312 111.601562 C 340.972656 111.601562 340.878906 111.601562 340.78125 111.601562 L 340.636719 111.601562 L 340.507812 111.617188 C 340.410156 111.617188 340.328125 111.632812 340.234375 111.632812 L 339.976562 111.664062 C 339.636719 111.710938 339.296875 111.792969 338.976562 111.875 C 338.332031 112.050781 337.734375 112.261719 337.136719 112.503906 C 336.542969 112.746094 335.960938 112.984375 335.398438 113.261719 C 334.832031 113.519531 334.269531 113.792969 333.722656 114.082031 C 332.609375 114.644531 331.53125 115.242188 330.449219 115.855469 C 329.371094 116.46875 328.320312 117.097656 327.257812 117.742188 C 325.148438 119.015625 323.085938 120.335938 321.019531 121.671875 C 318.972656 123.011719 316.925781 124.363281 314.894531 125.75 L 311.867188 127.796875 L 310.351562 128.8125 C 309.851562 129.152344 309.335938 129.472656 308.835938 129.78125 C 308.707031 129.859375 308.59375 129.925781 308.464844 130.007812 L 308.289062 130.101562 C 308.238281 130.136719 308.175781 130.167969 308.125 130.183594 L 308.0625 130.214844 C 308.046875 130.214844 308.046875 130.230469 308.03125 130.230469 L 307.980469 130.246094 L 307.804688 130.328125 L 307.628906 130.394531 C 307.660156 130.246094 307.707031 130.085938 307.757812 129.925781 C 307.917969 129.394531 308.125 128.847656 308.335938 128.28125 C 308.753906 127.152344 309.222656 125.992188 309.609375 124.75 C 309.804688 124.125 309.964844 123.480469 310.0625 122.753906 C 310.109375 122.382812 310.140625 122.011719 310.109375 121.578125 C 310.078125 121.15625 310.011719 120.691406 309.769531 120.191406 C 309.707031 120.0625 309.640625 119.949219 309.5625 119.820312 L 309.496094 119.722656 L 309.464844 119.675781 L 309.433594 119.640625 L 309.335938 119.511719 C 309.207031 119.351562 309.046875 119.191406 308.882812 119.03125 C 308.546875 118.722656 308.109375 118.449219 307.609375 118.289062 C 307.113281 118.128906 306.59375 118.09375 306.128906 118.160156 C 305.660156 118.207031 305.242188 118.335938 304.871094 118.5 C 304.128906 118.820312 303.535156 119.222656 303 119.660156 C 302.453125 120.09375 301.96875 120.546875 301.519531 121.011719 C 300.601562 121.949219 299.792969 122.929688 299.035156 123.929688 C 298.472656 124.671875 297.941406 125.414062 297.410156 126.152344 C 297.425781 126.105469 297.441406 126.042969 297.457031 125.992188 C 298.90625 121.351562 300.488281 116.742188 302.132812 112.164062 C 302.953125 109.875 303.792969 107.585938 304.675781 105.3125 C 305.113281 104.1875 305.5625 103.058594 306.015625 101.929688 C 306.464844 100.816406 306.949219 99.703125 307.449219 98.625 C 307.757812 97.980469 307.480469 97.207031 306.835938 96.902344 C 306.191406 96.578125 305.402344 96.851562 305.097656 97.496094 C 304.546875 98.625 304.050781 99.769531 303.550781 100.898438 C 303.066406 102.042969 302.597656 103.171875 302.148438 104.316406 C 301.246094 106.601562 300.375 108.890625 299.519531 111.195312 C 298.664062 113.5 297.859375 115.824219 297.054688 118.144531 C 296.265625 120.464844 295.472656 122.800781 294.75 125.15625 C 294.378906 126.332031 294.023438 127.507812 293.703125 128.714844 C 293.539062 129.3125 293.378906 129.925781 293.21875 130.539062 C 293.136719 130.84375 293.074219 131.167969 293.007812 131.488281 C 292.945312 131.8125 292.878906 132.132812 292.832031 132.519531 C 292.816406 132.617188 292.816406 132.730469 292.800781 132.84375 C 292.800781 132.972656 292.78125 133.101562 292.816406 133.292969 L 292.832031 133.375 C 292.832031 133.40625 292.832031 133.421875 292.847656 133.472656 C 292.863281 133.503906 292.863281 133.550781 292.878906 133.585938 C 292.894531 133.617188 292.910156 133.664062 292.929688 133.730469 C 292.945312 133.792969 292.976562 133.84375 293.007812 133.90625 C 293.058594 133.988281 293.105469 134.066406 293.167969 134.148438 C 293.203125 134.292969 293.960938 134.792969 294.3125 134.695312 C 294.699219 134.679688 294.863281 134.566406 294.976562 134.535156 C 295.054688 134.488281 295.167969 134.421875 295.183594 134.40625 C 295.214844 134.375 295.28125 134.324219 295.296875 134.308594 L 295.378906 134.246094 L 295.425781 134.195312 C 295.492188 134.132812 295.539062 134.082031 295.570312 134.035156 C 295.714844 133.859375 295.8125 133.714844 295.910156 133.566406 C 296.007812 133.421875 296.101562 133.292969 296.183594 133.164062 C 296.539062 132.632812 296.859375 132.117188 297.183594 131.601562 C 297.84375 130.570312 298.488281 129.554688 299.148438 128.554688 C 299.808594 127.554688 300.503906 126.574219 301.210938 125.621094 C 301.921875 124.671875 302.679688 123.769531 303.46875 122.945312 C 303.871094 122.542969 304.273438 122.15625 304.695312 121.820312 C 305.113281 121.480469 305.53125 121.207031 305.917969 121.042969 C 306.113281 120.964844 306.289062 120.914062 306.433594 120.898438 C 306.578125 120.882812 306.675781 120.882812 306.757812 120.914062 C 306.835938 120.949219 306.933594 120.996094 307.046875 121.09375 C 307.09375 121.140625 307.160156 121.207031 307.222656 121.269531 L 307.289062 121.335938 C 307.289062 121.335938 307.304688 121.351562 307.304688 121.367188 C 307.335938 121.429688 307.371094 121.558594 307.386719 121.753906 C 307.402344 121.949219 307.386719 122.171875 307.351562 122.414062 C 307.289062 122.898438 307.160156 123.445312 307 123.996094 C 306.675781 125.089844 306.242188 126.21875 305.820312 127.378906 C 305.613281 127.960938 305.402344 128.554688 305.210938 129.199219 C 305.113281 129.523438 305.03125 129.859375 304.96875 130.246094 C 304.933594 130.441406 304.917969 130.652344 304.902344 130.875 C 304.902344 131.101562 304.902344 131.375 305 131.730469 C 305.015625 131.8125 305.0625 131.90625 305.097656 132.003906 C 305.128906 132.101562 305.195312 132.199219 305.257812 132.292969 C 305.324219 132.390625 305.402344 132.488281 305.484375 132.585938 C 305.5625 132.683594 305.675781 132.746094 305.773438 132.828125 C 305.871094 132.890625 305.984375 132.941406 306.078125 132.988281 C 306.191406 133.035156 306.273438 133.050781 306.386719 133.085938 C 306.433594 133.101562 306.484375 133.101562 306.53125 133.117188 L 306.660156 133.132812 C 306.757812 133.148438 306.820312 133.148438 306.902344 133.148438 C 307.0625 133.148438 307.175781 133.132812 307.320312 133.132812 C 307.386719 133.117188 307.433594 133.117188 307.5 133.101562 C 307.5625 133.085938 307.609375 133.085938 307.660156 133.070312 C 307.867188 133.019531 308.0625 132.957031 308.238281 132.890625 C 308.320312 132.859375 308.417969 132.828125 308.496094 132.792969 L 308.738281 132.699219 L 308.980469 132.585938 L 309.046875 132.554688 C 309.0625 132.535156 309.078125 132.535156 309.109375 132.519531 L 309.253906 132.457031 C 309.351562 132.40625 309.417969 132.359375 309.496094 132.328125 L 309.722656 132.199219 C 309.867188 132.117188 309.996094 132.019531 310.140625 131.941406 C 310.671875 131.601562 311.1875 131.246094 311.703125 130.910156 L 313.21875 129.859375 L 316.234375 127.765625 C 318.25 126.378906 320.246094 124.976562 322.261719 123.609375 C 324.277344 122.238281 326.308594 120.898438 328.371094 119.59375 C 330.417969 118.304688 332.496094 117.046875 334.625 115.902344 C 335.15625 115.613281 335.6875 115.339844 336.21875 115.082031 C 336.75 114.824219 337.300781 114.566406 337.832031 114.339844 C 338.378906 114.113281 338.910156 113.90625 339.445312 113.742188 C 339.976562 113.566406 340.507812 113.453125 340.957031 113.421875 C 341.007812 113.421875 341.054688 113.421875 341.121094 113.421875 L 341.25 113.421875 C 341.265625 113.421875 341.296875 113.421875 341.3125 113.421875 C 341.328125 113.421875 341.34375 113.421875 341.363281 113.4375 C 341.378906 113.4375 341.394531 113.4375 341.410156 113.4375 L 341.492188 113.46875 C 341.683594 113.535156 341.828125 113.628906 341.941406 113.726562 C 342.054688 113.839844 342.136719 113.96875 342.199219 114.179688 C 342.265625 114.371094 342.28125 114.628906 342.28125 114.886719 C 342.265625 115.417969 342.167969 116 342.023438 116.582031 C 341.878906 117.160156 341.714844 117.742188 341.539062 118.351562 C 341.523438 118.402344 341.539062 118.449219 341.585938 118.480469 C 341.636719 118.53125 341.714844 118.515625 341.765625 118.464844 C 342.152344 117.980469 342.523438 117.464844 342.828125 116.902344 C 343.132812 116.339844 343.425781 115.757812 343.570312 115.066406 C 343.746094 114.757812 343.8125 114.386719 343.761719 113.984375 Z M 343.761719 113.984375 " fill-opacity="1" fill-rule="nonzero"/><g clip-path="url(#338c3bb6a4)"><path fill="#112241" d="M 304.273438 93.902344 C 306.917969 93.644531 309.578125 93.453125 312.21875 93.355469 C 314.863281 93.273438 317.507812 93.242188 320.117188 93.402344 C 321.425781 93.484375 322.714844 93.613281 323.988281 93.871094 C 324.613281 94 325.242188 94.160156 325.839844 94.386719 C 326.4375 94.613281 327.015625 94.902344 327.546875 95.304688 C 327.597656 95.335938 327.660156 95.335938 327.710938 95.304688 C 327.773438 95.257812 327.773438 95.175781 327.742188 95.128906 C 327.339844 94.5625 326.792969 94.097656 326.195312 93.726562 C 325.597656 93.339844 324.96875 93.046875 324.324219 92.789062 C 323.019531 92.289062 321.683594 91.96875 320.328125 91.757812 C 317.621094 91.308594 314.894531 91.242188 312.1875 91.292969 C 309.480469 91.355469 306.789062 91.515625 304.113281 91.742188 C 301.875 91.9375 299.632812 92.160156 297.410156 92.417969 C 297.488281 91.792969 297.117188 91.164062 296.488281 90.96875 C 295.78125 90.742188 295.039062 91.144531 294.8125 91.839844 C 294.71875 92.144531 294.621094 92.453125 294.523438 92.757812 C 289.71875 93.371094 284.933594 94.078125 280.148438 94.820312 L 276.792969 95.335938 C 276.648438 95.289062 276.503906 95.257812 276.359375 95.207031 C 274.941406 94.855469 273.507812 94.660156 272.070312 94.628906 C 270.636719 94.59375 269.203125 94.722656 267.769531 95.03125 C 267.058594 95.191406 266.351562 95.386719 265.640625 95.675781 C 265.285156 95.820312 264.929688 95.980469 264.578125 96.175781 C 264.398438 96.273438 264.222656 96.382812 264.027344 96.53125 C 263.933594 96.609375 263.820312 96.691406 263.675781 96.835938 C 263.609375 96.902344 263.511719 96.996094 263.417969 97.175781 C 263.367188 97.253906 263.304688 97.382812 263.253906 97.546875 C 263.222656 97.640625 263.207031 97.722656 263.191406 97.851562 C 263.175781 97.964844 263.191406 98.09375 263.222656 98.222656 C 263.253906 98.351562 263.289062 98.480469 263.351562 98.59375 C 263.398438 98.707031 263.480469 98.785156 263.546875 98.882812 C 263.609375 98.949219 263.675781 99.011719 263.738281 99.058594 C 263.785156 99.109375 263.851562 99.140625 263.898438 99.171875 C 263.949219 99.207031 263.996094 99.222656 264.027344 99.253906 C 264.0625 99.269531 264.109375 99.285156 264.140625 99.300781 C 264.191406 99.316406 264.207031 99.316406 264.238281 99.335938 C 264.269531 99.351562 264.304688 99.351562 264.320312 99.367188 C 264.527344 99.429688 264.65625 99.445312 264.800781 99.445312 C 265.058594 99.480469 265.253906 99.480469 265.445312 99.464844 C 265.835938 99.464844 266.1875 99.429688 266.542969 99.398438 C 267.234375 99.335938 267.914062 99.253906 268.589844 99.15625 C 269.945312 98.980469 271.265625 98.769531 272.585938 98.5625 C 273.78125 98.367188 274.988281 98.171875 276.179688 97.980469 C 277.164062 98.285156 278.117188 98.707031 278.984375 99.238281 C 280.015625 99.867188 280.953125 100.625 281.757812 101.527344 C 282.5625 102.429688 283.242188 103.445312 283.789062 104.539062 C 284.902344 106.730469 285.480469 109.230469 285.738281 111.761719 C 285.996094 114.308594 285.917969 116.902344 285.660156 119.496094 C 285.53125 120.785156 285.351562 122.09375 285.125 123.382812 C 284.480469 125.507812 283.855469 127.636719 283.226562 129.78125 C 282.597656 131.890625 281.984375 134.003906 281.371094 136.132812 C 281.066406 137.195312 280.757812 138.257812 280.46875 139.320312 C 280.324219 139.855469 280.179688 140.386719 280.035156 140.933594 C 279.96875 141.207031 279.886719 141.480469 279.824219 141.757812 L 279.777344 141.964844 L 279.726562 142.175781 L 279.628906 142.609375 C 279.46875 143.304688 279.839844 144.027344 280.535156 144.285156 C 281.273438 144.558594 282.113281 144.191406 282.386719 143.449219 L 282.402344 143.433594 C 284.304688 138.371094 285.964844 133.214844 287.140625 127.894531 C 287.398438 126.765625 287.625 125.621094 287.820312 124.476562 C 288.464844 122.300781 289.109375 120.140625 289.753906 117.964844 L 296.683594 94.820312 C 299.214844 94.449219 301.746094 94.144531 304.273438 93.902344 Z M 290.882812 104.476562 C 290.105469 106.988281 289.351562 109.488281 288.574219 112.003906 C 288.558594 111.824219 288.542969 111.648438 288.527344 111.472656 C 288.382812 110.085938 288.140625 108.683594 287.785156 107.3125 C 287.414062 105.941406 286.933594 104.589844 286.269531 103.300781 C 285.609375 102.011719 284.789062 100.785156 283.804688 99.6875 C 282.933594 98.738281 281.953125 97.898438 280.855469 97.207031 C 285.160156 96.480469 289.445312 95.789062 293.765625 95.191406 C 292.78125 98.269531 291.816406 101.363281 290.882812 104.476562 Z M 290.882812 104.476562 " fill-opacity="1" fill-rule="nonzero"/></g><g fill="#112241" fill-opacity="1"><g transform="translate(121.546927, 248.560584)"><g><path d="M 54.3125 0.421875 C 47.539062 0.421875 41.144531 -0.867188 35.125 -3.453125 C 29.101562 -6.046875 23.835938 -9.617188 19.328125 -14.171875 C 14.816406 -18.734375 11.265625 -24 8.671875 -29.96875 C 6.085938 -35.945312 4.796875 -42.367188 4.796875 -49.234375 C 4.796875 -56.003906 6.085938 -62.398438 8.671875 -68.421875 C 11.265625 -74.441406 14.816406 -79.707031 19.328125 -84.21875 C 23.835938 -88.738281 29.101562 -92.289062 35.125 -94.875 C 41.144531 -97.457031 47.539062 -98.75 54.3125 -98.75 C 61.175781 -98.75 67.59375 -97.457031 73.5625 -94.875 C 79.539062 -92.289062 84.8125 -88.738281 89.375 -84.21875 C 93.9375 -79.707031 97.507812 -74.441406 100.09375 -68.421875 C 102.675781 -62.398438 103.96875 -56.003906 103.96875 -49.234375 C 103.96875 -42.367188 102.675781 -35.945312 100.09375 -29.96875 C 97.507812 -24 93.9375 -18.734375 89.375 -14.171875 C 84.8125 -9.617188 79.539062 -6.046875 73.5625 -3.453125 C 67.59375 -0.867188 61.175781 0.421875 54.3125 0.421875 Z M 54.3125 -0.421875 C 59.488281 -0.421875 64.332031 -1.691406 68.84375 -4.234375 C 73.363281 -6.773438 77.335938 -10.273438 80.765625 -14.734375 C 84.203125 -19.203125 86.882812 -24.375 88.8125 -30.25 C 90.738281 -36.132812 91.703125 -42.460938 91.703125 -49.234375 C 91.703125 -55.910156 90.738281 -62.210938 88.8125 -68.140625 C 86.882812 -74.066406 84.203125 -79.265625 80.765625 -83.734375 C 77.335938 -88.203125 73.363281 -91.703125 68.84375 -94.234375 C 64.332031 -96.773438 59.488281 -98.046875 54.3125 -98.046875 C 49.238281 -98.046875 44.441406 -96.773438 39.921875 -94.234375 C 35.410156 -91.703125 31.4375 -88.203125 28 -83.734375 C 24.570312 -79.265625 21.867188 -74.066406 19.890625 -68.140625 C 17.910156 -62.210938 16.921875 -55.910156 16.921875 -49.234375 C 16.921875 -42.460938 17.910156 -36.132812 19.890625 -30.25 C 21.867188 -24.375 24.570312 -19.203125 28 -14.734375 C 31.4375 -10.273438 35.410156 -6.773438 39.921875 -4.234375 C 44.441406 -1.691406 49.238281 -0.421875 54.3125 -0.421875 Z M 54.3125 -0.421875 "/></g></g></g><g fill="#112241" fill-opacity="1"><g transform="translate(185.94383, 248.566356)"><g><path d="M 54.3125 0.421875 C 47.539062 0.421875 41.144531 -0.867188 35.125 -3.453125 C 29.101562 -6.046875 23.835938 -9.617188 19.328125 -14.171875 C 14.816406 -18.734375 11.265625 -24 8.671875 -29.96875 C 6.085938 -35.945312 4.796875 -42.367188 4.796875 -49.234375 C 4.796875 -56.003906 6.085938 -62.398438 8.671875 -68.421875 C 11.265625 -74.441406 14.816406 -79.707031 19.328125 -84.21875 C 23.835938 -88.738281 29.101562 -92.289062 35.125 -94.875 C 41.144531 -97.457031 47.539062 -98.75 54.3125 -98.75 C 61.175781 -98.75 67.59375 -97.457031 73.5625 -94.875 C 79.539062 -92.289062 84.8125 -88.738281 89.375 -84.21875 C 93.9375 -79.707031 97.507812 -74.441406 100.09375 -68.421875 C 102.675781 -62.398438 103.96875 -56.003906 103.96875 -49.234375 C 103.96875 -42.367188 102.675781 -35.945312 100.09375 -29.96875 C 97.507812 -24 93.9375 -18.734375 89.375 -14.171875 C 84.8125 -9.617188 79.539062 -6.046875 73.5625 -3.453125 C 67.59375 -0.867188 61.175781 0.421875 54.3125 0.421875 Z M 54.3125 -0.421875 C 59.488281 -0.421875 64.332031 -1.691406 68.84375 -4.234375 C 73.363281 -6.773438 77.335938 -10.273438 80.765625 -14.734375 C 84.203125 -19.203125 86.882812 -24.375 88.8125 -30.25 C 90.738281 -36.132812 91.703125 -42.460938 91.703125 -49.234375 C 91.703125 -55.910156 90.738281 -62.210938 88.8125 -68.140625 C 86.882812 -74.066406 84.203125 -79.265625 80.765625 -83.734375 C 77.335938 -88.203125 73.363281 -91.703125 68.84375 -94.234375 C 64.332031 -96.773438 59.488281 -98.046875 54.3125 -98.046875 C 49.238281 -98.046875 44.441406 -96.773438 39.921875 -94.234375 C 35.410156 -91.703125 31.4375 -88.203125 28 -83.734375 C 24.570312 -79.265625 21.867188 -74.066406 19.890625 -68.140625 C 17.910156 -62.210938 16.921875 -55.910156 16.921875 -49.234375 C 16.921875 -42.460938 17.910156 -36.132812 19.890625 -30.25 C 21.867188 -24.375 24.570312 -19.203125 28 -14.734375 C 31.4375 -10.273438 35.410156 -6.773438 39.921875 -4.234375 C 44.441406 -1.691406 49.238281 -0.421875 54.3125 -0.421875 Z M 54.3125 -0.421875 "/></g></g></g></svg>