<?xml version="1.0" encoding="UTF-8" standalone="no"?>
<svg
   width="100"
   zoomAndPan="magnify"
   viewBox="0 0 375 374.999991"
   height="100"
   preserveAspectRatio="xMidYMid meet"
   version="1.0"
   id="svg97"
   sodipodi:docname="mottonobg.svg"
   inkscape:version="1.3.2 (091e20e, 2023-11-25)"
   xmlns:inkscape="http://www.inkscape.org/namespaces/inkscape"
   xmlns:sodipodi="http://sodipodi.sourceforge.net/DTD/sodipodi-0.dtd"
   xmlns="http://www.w3.org/2000/svg"
   xmlns:svg="http://www.w3.org/2000/svg">
  <sodipodi:namedview
     id="namedview97"
     pagecolor="#ffffff"
     bordercolor="#000000"
     borderopacity="0.25"
     inkscape:showpageshadow="2"
     inkscape:pageopacity="0.0"
     inkscape:pagecheckerboard="0"
     inkscape:deskcolor="#d1d1d1"
     inkscape:zoom="1.2005714"
     inkscape:cx="363.57687"
     inkscape:cy="254.04569"
     inkscape:window-width="1312"
     inkscape:window-height="449"
     inkscape:window-x="0"
     inkscape:window-y="25"
     inkscape:window-maximized="0"
     inkscape:current-layer="svg97" />
  <defs
     id="defs1">
    <g
       id="g1" />
  </defs>
  <g
     fill="#fefefe"
     fill-opacity="1"
     id="g16">
    <g
       transform="translate(287.34957, 200.626818)"
       id="g15">
      <g
         id="g14" />
    </g>
  </g>
  <g
     fill="#fefefe"
     fill-opacity="1"
     id="g22">
    <g
       transform="translate(294.962819, 201.208548)"
       id="g21">
      <g
         id="g20" />
    </g>
  </g>
  <g
     fill="#fefefe"
     fill-opacity="1"
     id="g37">
    <g
       transform="translate(321.284286, 193.716091)"
       id="g36">
      <g
         id="g35" />
    </g>
  </g>
  <g
     fill="#112241"
     fill-opacity="1"
     id="g40">
    <g
       transform="translate(11.521973, 93.519139)"
       id="g39">
      <g
         id="g38">
        <path
           d="M 30.71875 20.296875 C 27.78125 21.265625 24.304688 21.75 20.296875 21.75 C 19.203125 21.75 18.0625 21.695312 16.875 21.59375 C 12.851562 21.375 9.644531 19.90625 7.25 17.1875 C 4.863281 14.53125 3.96875 11.378906 4.5625 7.734375 C 5 5.078125 5.921875 2.820312 7.328125 0.96875 C 8.742188 -0.875 10.210938 -2.472656 11.734375 -3.828125 C 15.046875 -6.765625 18.722656 -9.222656 22.765625 -11.203125 C 26.816406 -13.179688 30.90625 -15.039062 35.03125 -16.78125 L 37.15625 -17.6875 C 37.8125 -17.957031 38.453125 -18.226562 39.078125 -18.5 C 39.703125 -18.769531 40.3125 -19.066406 40.90625 -19.390625 L 41.71875 -19.796875 C 42.101562 -20.015625 42.507812 -20.242188 42.9375 -20.484375 C 43.375 -20.734375 43.753906 -21.019531 44.078125 -21.34375 C 44.140625 -21.40625 44.273438 -21.582031 44.484375 -21.875 C 44.703125 -22.175781 44.785156 -22.488281 44.734375 -22.8125 L 44.734375 -22.890625 L 44.484375 -23.21875 C 44.328125 -23.382812 44.054688 -23.46875 43.671875 -23.46875 C 43.566406 -23.46875 43.429688 -23.441406 43.265625 -23.390625 C 43.378906 -23.441406 43.488281 -23.476562 43.59375 -23.5 C 43.695312 -23.53125 43.804688 -23.546875 43.921875 -23.546875 C 44.191406 -23.597656 44.445312 -23.648438 44.6875 -23.703125 C 44.9375 -23.765625 45.171875 -23.796875 45.390625 -23.796875 C 46.148438 -23.796875 46.71875 -23.46875 47.09375 -22.8125 C 47.425781 -22.269531 47.441406 -21.78125 47.140625 -21.34375 C 46.835938 -20.914062 46.390625 -20.484375 45.796875 -20.046875 L 45.46875 -19.796875 C 44.050781 -18.660156 42.523438 -17.671875 40.890625 -16.828125 C 39.265625 -15.984375 37.613281 -15.15625 35.9375 -14.34375 C 35.394531 -14.070312 34.835938 -13.800781 34.265625 -13.53125 C 33.691406 -13.257812 33.109375 -12.988281 32.515625 -12.71875 C 28.984375 -10.863281 25.476562 -8.914062 22 -6.875 C 18.519531 -4.84375 15.394531 -2.390625 12.625 0.484375 C 10.1875 3.097656 8.640625 5.757812 7.984375 8.46875 C 7.222656 11.40625 7.710938 13.929688 9.453125 16.046875 C 11.191406 18.222656 13.769531 19.445312 17.1875 19.71875 C 18.4375 19.820312 19.660156 19.875 20.859375 19.875 C 27.378906 19.875 33.976562 18.273438 40.65625 15.078125 C 52.5 9.421875 63.609375 1.109375 73.984375 -9.859375 L 74.3125 -10.1875 C 74.53125 -10.457031 74.773438 -10.726562 75.046875 -11 C 75.316406 -11.269531 75.585938 -11.515625 75.859375 -11.734375 C 75.972656 -11.785156 76.109375 -11.863281 76.265625 -11.96875 C 76.429688 -12.082031 76.566406 -12.140625 76.671875 -12.140625 C 76.835938 -11.867188 76.835938 -11.582031 76.671875 -11.28125 C 76.515625 -10.988281 76.378906 -10.757812 76.265625 -10.59375 C 73.003906 -7.28125 69.90625 -4.25 66.96875 -1.5 C 64.039062 1.238281 60.972656 3.773438 57.765625 6.109375 C 50.597656 11.429688 43.101562 15.613281 35.28125 18.65625 C 33.8125 19.195312 32.289062 19.742188 30.71875 20.296875 Z M 26.734375 -18.984375 C 25.484375 -18.660156 24.203125 -18.5 22.890625 -18.5 C 21.484375 -18.5 20.070312 -18.6875 18.65625 -19.0625 C 16.050781 -19.71875 14.148438 -20.832031 12.953125 -22.40625 C 11.816406 -23.976562 11.410156 -25.90625 11.734375 -28.1875 C 12.222656 -31.5625 13.90625 -34.742188 16.78125 -37.734375 C 26.175781 -47.503906 36.988281 -53.664062 49.21875 -56.21875 C 49.382812 -56.21875 49.570312 -56.25 49.78125 -56.3125 C 49.945312 -56.363281 50.097656 -56.398438 50.234375 -56.421875 C 50.367188 -56.453125 50.519531 -56.492188 50.6875 -56.546875 C 51.769531 -56.660156 52.800781 -56.71875 53.78125 -56.71875 C 58.238281 -56.71875 61.710938 -55.410156 64.203125 -52.796875 C 66.972656 -49.921875 68.0625 -45.847656 67.46875 -40.578125 C 67.09375 -37.097656 66.332031 -34.351562 65.1875 -32.34375 C 64.75 -31.582031 64.234375 -31.203125 63.640625 -31.203125 C 63.316406 -31.203125 62.960938 -31.3125 62.578125 -31.53125 C 61.378906 -32.1875 61.023438 -33.164062 61.515625 -34.46875 C 61.679688 -34.957031 61.859375 -35.429688 62.046875 -35.890625 C 62.234375 -36.359375 62.410156 -36.832031 62.578125 -37.3125 C 62.960938 -38.289062 63.328125 -39.269531 63.671875 -40.25 C 64.023438 -41.226562 64.335938 -42.234375 64.609375 -43.265625 C 65.378906 -46.796875 64.835938 -49.59375 62.984375 -51.65625 C 61.191406 -53.664062 58.394531 -54.671875 54.59375 -54.671875 L 54.1875 -54.671875 C 51.6875 -54.671875 48.96875 -54.128906 46.03125 -53.046875 C 33.539062 -48.429688 24.0625 -41.285156 17.59375 -31.609375 L 17.03125 -30.875 C 16.539062 -30.175781 16.09375 -29.445312 15.6875 -28.6875 C 15.28125 -27.925781 15.078125 -27.109375 15.078125 -26.234375 C 15.078125 -25.367188 15.457031 -24.445312 16.21875 -23.46875 C 17.894531 -21.507812 20.285156 -20.53125 23.390625 -20.53125 C 23.984375 -20.53125 24.566406 -20.554688 25.140625 -20.609375 C 25.710938 -20.671875 26.242188 -20.726562 26.734375 -20.78125 C 28.253906 -21 29.773438 -21.226562 31.296875 -21.46875 C 32.816406 -21.71875 34.335938 -21.945312 35.859375 -22.15625 C 36.992188 -22.375 38.144531 -22.578125 39.3125 -22.765625 C 40.476562 -22.960938 41.632812 -23.171875 42.78125 -23.390625 C 42.726562 -23.328125 42.671875 -23.296875 42.609375 -23.296875 C 42.234375 -23.242188 41.894531 -23.175781 41.59375 -23.09375 C 41.300781 -23.019531 40.988281 -22.925781 40.65625 -22.8125 C 40.65625 -22.8125 40.367188 -22.71875 39.796875 -22.53125 C 39.234375 -22.34375 38.785156 -22.191406 38.453125 -22.078125 C 38.023438 -21.972656 37.59375 -21.851562 37.15625 -21.71875 C 36.71875 -21.582031 36.253906 -21.429688 35.765625 -21.265625 C 34.304688 -20.890625 32.816406 -20.507812 31.296875 -20.125 C 29.773438 -19.75 28.253906 -19.367188 26.734375 -18.984375 Z M 26.734375 -18.984375 "
           id="path37" />
      </g>
    </g>
  </g>
  <g
     fill="#112241"
     fill-opacity="1"
     id="g43">
    <g
       transform="translate(86.156282, 93.519139)"
       id="g42">
      <g
         id="g41">
        <path
           d="M 49.625 -54.34375 C 50.550781 -53.75 51.023438 -53.03125 51.046875 -52.1875 C 51.078125 -51.34375 51.035156 -50.515625 50.921875 -49.703125 C 50.378906 -46.492188 49.320312 -43.640625 47.75 -41.140625 C 46.175781 -38.648438 44.4375 -36.207031 42.53125 -33.8125 C 38.289062 -28.707031 32.832031 -23.140625 26.15625 -17.109375 C 24.53125 -15.640625 23.390625 -13.984375 22.734375 -12.140625 C 21.648438 -9.367188 20.5625 -6.363281 19.46875 -3.125 C 18.382812 0.101562 17.503906 3.535156 16.828125 7.171875 C 16.148438 10.804688 15.921875 14.609375 16.140625 18.578125 C 16.140625 18.742188 16.148438 18.90625 16.171875 19.0625 C 16.203125 19.226562 16.21875 19.394531 16.21875 19.5625 C 16.21875 20.320312 16.269531 21.109375 16.375 21.921875 C 16.488281 22.734375 16.894531 23.519531 17.59375 24.28125 C 18.03125 24.769531 18.25 25.175781 18.25 25.5 C 18.25 25.71875 18.0625 25.910156 17.6875 26.078125 C 17.46875 26.179688 17.25 26.234375 17.03125 26.234375 C 16.320312 26.234375 15.75 25.828125 15.3125 25.015625 C 14.988281 24.253906 14.757812 23.476562 14.625 22.6875 C 14.488281 21.90625 14.421875 21.160156 14.421875 20.453125 C 14.203125 14.960938 14.625 9.851562 15.6875 5.125 C 16.75 0.40625 17.875 -3.742188 19.0625 -7.328125 C 19.0625 -7.390625 19.117188 -7.523438 19.234375 -7.734375 C 19.390625 -7.953125 19.507812 -8.179688 19.59375 -8.421875 C 19.675781 -8.671875 19.664062 -8.90625 19.5625 -9.125 C 19.394531 -9.445312 19.148438 -9.640625 18.828125 -9.703125 C 18.335938 -9.703125 17.875 -9.523438 17.4375 -9.171875 C 17 -8.816406 16.566406 -8.445312 16.140625 -8.0625 C 15.972656 -7.90625 15.890625 -7.796875 15.890625 -7.734375 C 14.742188 -6.867188 13.628906 -6.015625 12.546875 -5.171875 C 11.460938 -4.328125 10.347656 -3.523438 9.203125 -2.765625 L 8.875 -2.53125 C 7.625 -1.65625 6.304688 -0.835938 4.921875 -0.078125 C 3.546875 0.679688 1.957031 1.0625 0.15625 1.0625 C -1.363281 1.0625 -2.53125 0.65625 -3.34375 -0.15625 C -4.15625 -0.914062 -4.5625 -1.976562 -4.5625 -3.34375 C -4.5625 -4.320312 -4.425781 -5.242188 -4.15625 -6.109375 C -1.488281 -14.148438 3.507812 -19.910156 10.84375 -23.390625 C 12.144531 -24.035156 13.390625 -24.359375 14.578125 -24.359375 C 17.734375 -24.359375 20.367188 -22.101562 22.484375 -17.59375 L 22.734375 -17.109375 L 26.640625 -24.4375 C 28.222656 -27.375 29.785156 -30.304688 31.328125 -33.234375 C 32.878906 -36.171875 34.441406 -39.082031 36.015625 -41.96875 C 37.160156 -44.082031 38.425781 -46.1875 39.8125 -48.28125 C 41.195312 -50.375 42.945312 -52.148438 45.0625 -53.609375 C 45.5 -53.941406 45.945312 -54.242188 46.40625 -54.515625 C 46.863281 -54.785156 47.363281 -54.921875 47.90625 -54.921875 C 48.457031 -54.921875 49.03125 -54.726562 49.625 -54.34375 Z M 19.234375 -12.390625 C 20.316406 -13.253906 20.679688 -14.132812 20.328125 -15.03125 C 19.972656 -15.925781 19.5 -16.78125 18.90625 -17.59375 C 18.789062 -17.8125 18.664062 -18.015625 18.53125 -18.203125 C 18.394531 -18.398438 18.273438 -18.578125 18.171875 -18.734375 C 17.410156 -19.984375 16.40625 -20.609375 15.15625 -20.609375 C 14.613281 -20.609375 13.9375 -20.472656 13.125 -20.203125 C 10.945312 -19.503906 9.054688 -18.460938 7.453125 -17.078125 C 5.847656 -15.691406 4.367188 -14.265625 3.015625 -12.796875 C 1.765625 -11.429688 0.625 -10.03125 -0.40625 -8.59375 C -1.4375 -7.15625 -2.171875 -5.484375 -2.609375 -3.578125 C -2.929688 -2.335938 -2.796875 -1.390625 -2.203125 -0.734375 C -1.660156 -0.078125 -0.628906 0.25 0.890625 0.25 C 2.140625 0.03125 3.28125 -0.332031 4.3125 -0.84375 C 5.34375 -1.363281 6.238281 -1.867188 7 -2.359375 C 8.363281 -3.285156 9.679688 -4.273438 10.953125 -5.328125 C 12.234375 -6.390625 13.472656 -7.4375 14.671875 -8.46875 C 15.367188 -9.125 16.097656 -9.789062 16.859375 -10.46875 C 17.628906 -11.144531 18.421875 -11.785156 19.234375 -12.390625 Z M 46.125 -41.796875 C 46.394531 -42.234375 46.773438 -42.898438 47.265625 -43.796875 C 47.753906 -44.691406 48.226562 -45.65625 48.6875 -46.6875 C 49.144531 -47.71875 49.46875 -48.707031 49.65625 -49.65625 C 49.851562 -50.613281 49.816406 -51.363281 49.546875 -51.90625 C 49.328125 -52.28125 49 -52.550781 48.5625 -52.71875 C 48.394531 -52.71875 48.234375 -52.71875 48.078125 -52.71875 C 47.367188 -52.71875 46.6875 -52.394531 46.03125 -51.75 C 45.4375 -51.09375 44.851562 -50.425781 44.28125 -49.75 C 43.71875 -49.070312 43.160156 -48.40625 42.609375 -47.75 L 41.890625 -46.859375 C 40.035156 -44.515625 38.238281 -41.90625 36.5 -39.03125 C 35.144531 -36.695312 33.867188 -34.320312 32.671875 -31.90625 C 31.472656 -29.488281 30.304688 -27.109375 29.171875 -24.765625 L 28.03125 -22.328125 L 28.515625 -22.078125 C 28.679688 -22.410156 28.953125 -22.75 29.328125 -23.09375 C 29.710938 -23.445312 30.09375 -23.757812 30.46875 -24.03125 C 30.6875 -24.195312 30.878906 -24.347656 31.046875 -24.484375 C 31.210938 -24.617188 31.375 -24.769531 31.53125 -24.9375 C 32.070312 -25.425781 32.613281 -25.925781 33.15625 -26.4375 C 33.707031 -26.957031 34.253906 -27.488281 34.796875 -28.03125 C 37.179688 -30.414062 39.21875 -32.585938 40.90625 -34.546875 C 42.96875 -36.992188 44.707031 -39.410156 46.125 -41.796875 Z M 46.125 -41.796875 "
           id="path40" />
      </g>
    </g>
  </g>
  <g
     fill="#112241"
     fill-opacity="1"
     id="g46">
    <g
       transform="translate(123.962307, 93.519139)"
       id="g45">
      <g
         id="g44">
        <path
           d="M 45.953125 -12.875 C 46.171875 -12.707031 46.28125 -12.546875 46.28125 -12.390625 C 46.332031 -12.222656 46.171875 -11.953125 45.796875 -11.578125 C 43.296875 -9.128906 40.535156 -6.789062 37.515625 -4.5625 C 34.503906 -2.332031 30.988281 -0.675781 26.96875 0.40625 C 26.050781 0.675781 25.15625 0.8125 24.28125 0.8125 C 22.707031 0.8125 21.40625 0.320312 20.375 -0.65625 C 18.738281 -2.007812 17.734375 -4.34375 17.359375 -7.65625 L 17.28125 -8.234375 L 14.90625 -6.28125 C 14.144531 -5.625 13.382812 -4.96875 12.625 -4.3125 C 11.863281 -3.664062 11.101562 -3.039062 10.34375 -2.4375 C 8.394531 -0.863281 6.28125 0.273438 4 0.984375 C 3.289062 1.191406 2.691406 1.296875 2.203125 1.296875 C 1.222656 1.296875 0.351562 0.972656 -0.40625 0.328125 C -1.757812 -0.816406 -2.332031 -2.203125 -2.125 -3.828125 C -1.363281 -10.515625 1.570312 -17.144531 6.6875 -23.71875 C 7.0625 -24.257812 7.46875 -24.53125 7.90625 -24.53125 C 8.226562 -24.53125 8.550781 -24.394531 8.875 -24.125 C 9.257812 -23.789062 9.425781 -23.460938 9.375 -23.140625 C 9.320312 -22.816406 9.1875 -22.4375 8.96875 -22 C 8.582031 -21.132812 8.15625 -20.289062 7.6875 -19.46875 C 7.226562 -18.65625 6.757812 -17.816406 6.28125 -16.953125 C 5.082031 -14.773438 3.9375 -12.554688 2.84375 -10.296875 C 1.757812 -8.046875 1.109375 -5.617188 0.890625 -3.015625 C 0.890625 -2.796875 0.90625 -2.550781 0.9375 -2.28125 C 0.96875 -2.007812 1.085938 -1.765625 1.296875 -1.546875 C 1.578125 -1.273438 1.878906 -1.113281 2.203125 -1.0625 C 2.359375 -1.0625 2.519531 -1.0625 2.6875 -1.0625 C 3.28125 -1.0625 3.863281 -1.179688 4.4375 -1.421875 C 5.007812 -1.671875 5.539062 -1.929688 6.03125 -2.203125 C 12.769531 -5.679688 17.441406 -10.242188 20.046875 -15.890625 C 20.148438 -16.054688 20.257812 -16.351562 20.375 -16.78125 C 20.53125 -17.269531 20.71875 -17.734375 20.9375 -18.171875 C 21.15625 -18.609375 21.484375 -18.828125 21.921875 -18.828125 C 22.242188 -18.828125 22.597656 -18.691406 22.984375 -18.421875 C 23.472656 -18.148438 23.796875 -17.847656 23.953125 -17.515625 C 24.117188 -17.140625 24.132812 -16.757812 24 -16.375 C 23.863281 -16 23.6875 -15.617188 23.46875 -15.234375 C 23.414062 -15.015625 23.347656 -14.820312 23.265625 -14.65625 C 23.179688 -14.5 23.113281 -14.335938 23.0625 -14.171875 C 22.894531 -13.742188 22.726562 -13.296875 22.5625 -12.828125 C 22.40625 -12.367188 22.242188 -11.921875 22.078125 -11.484375 C 21.753906 -10.566406 21.441406 -9.617188 21.140625 -8.640625 C 20.847656 -7.660156 20.644531 -6.628906 20.53125 -5.546875 C 20.375 -4.023438 20.644531 -2.882812 21.34375 -2.125 C 22.050781 -1.414062 23.273438 -1.035156 25.015625 -0.984375 C 26.859375 -0.984375 28.5 -1.296875 29.9375 -1.921875 C 31.382812 -2.546875 32.703125 -3.238281 33.890625 -4 C 38.515625 -6.707031 42.128906 -9.503906 44.734375 -12.390625 C 44.785156 -12.441406 44.867188 -12.550781 44.984375 -12.71875 C 45.203125 -12.988281 45.363281 -13.125 45.46875 -13.125 C 45.570312 -13.125 45.734375 -13.039062 45.953125 -12.875 Z M 45.953125 -12.875 "
           id="path43" />
      </g>
    </g>
  </g>
  <g
     fill="#112241"
     fill-opacity="1"
     id="g49">
    <g
       transform="translate(167.879216, 93.519139)"
       id="g48">
      <g
         id="g47">
        <path
           d="M 32.84375 -12.140625 C 32.945312 -11.972656 32.957031 -11.738281 32.875 -11.4375 C 32.789062 -11.144531 32.613281 -10.890625 32.34375 -10.671875 C 30.0625 -8.828125 27.628906 -7.007812 25.046875 -5.21875 C 22.472656 -3.425781 19.691406 -1.796875 16.703125 -0.328125 C 13.710938 1.140625 10.476562 2.253906 7 3.015625 C 6.03125 3.234375 5.109375 3.34375 4.234375 3.34375 C 2.066406 3.34375 0.164062 2.582031 -1.46875 1.0625 C -3.800781 -1.113281 -4.367188 -3.773438 -3.171875 -6.921875 C -0.0234375 -15.179688 6 -21.484375 14.90625 -25.828125 C 15.9375 -26.367188 16.972656 -26.640625 18.015625 -26.640625 C 19.640625 -26.640625 21.050781 -25.9375 22.25 -24.53125 C 23.113281 -23.601562 23.570312 -22.664062 23.625 -21.71875 C 23.6875 -20.769531 23.566406 -19.882812 23.265625 -19.0625 C 22.960938 -18.25 22.625 -17.597656 22.25 -17.109375 C 21.8125 -16.398438 21.304688 -15.785156 20.734375 -15.265625 C 20.160156 -14.753906 19.632812 -14.335938 19.15625 -14.015625 L 18.984375 -13.859375 C 18.816406 -13.742188 18.613281 -13.59375 18.375 -13.40625 C 18.132812 -13.21875 17.90625 -13.125 17.6875 -13.125 C 17.46875 -13.175781 17.300781 -13.253906 17.1875 -13.359375 C 17.03125 -13.628906 17.097656 -14.0625 17.390625 -14.65625 C 17.691406 -15.257812 18.070312 -15.875 18.53125 -16.5 C 19 -17.125 19.394531 -17.65625 19.71875 -18.09375 C 20.375 -18.851562 20.726562 -19.3125 20.78125 -19.46875 C 20.78125 -19.632812 20.832031 -19.828125 20.9375 -20.046875 C 21.101562 -20.421875 21.210938 -20.851562 21.265625 -21.34375 C 21.316406 -21.832031 21.070312 -22.320312 20.53125 -22.8125 C 19.988281 -23.25 19.421875 -23.46875 18.828125 -23.46875 C 18.285156 -23.46875 17.660156 -23.273438 16.953125 -22.890625 C 9.179688 -18.765625 3.476562 -12.679688 -0.15625 -4.640625 C -1.03125 -2.691406 -0.757812 -1.117188 0.65625 0.078125 C 1.6875 1.003906 3.015625 1.46875 4.640625 1.46875 C 5.078125 1.46875 5.515625 1.441406 5.953125 1.390625 C 8.941406 1.054688 11.65625 0.335938 14.09375 -0.765625 C 16.539062 -1.878906 18.660156 -2.984375 20.453125 -4.078125 C 22.242188 -5.109375 24.253906 -6.4375 26.484375 -8.0625 C 26.804688 -8.28125 27.117188 -8.507812 27.421875 -8.75 C 27.722656 -9 28.007812 -9.234375 28.28125 -9.453125 C 28.820312 -9.941406 29.390625 -10.398438 29.984375 -10.828125 C 30.578125 -11.265625 31.203125 -11.648438 31.859375 -11.984375 C 32.128906 -12.140625 32.375 -12.21875 32.59375 -12.21875 C 32.695312 -12.21875 32.78125 -12.191406 32.84375 -12.140625 Z M 32.84375 -12.140625 "
           id="path46" />
      </g>
    </g>
  </g>
  <g
     fill="#112241"
     fill-opacity="1"
     id="g52">
    <g
       transform="translate(199.004015, 93.519139)"
       id="g51">
      <g
         id="g50">
        <path
           d="M 41.890625 -15.890625 C 42.160156 -15.835938 42.320312 -15.78125 42.375 -15.71875 C 42.53125 -15.445312 42.421875 -15.097656 42.046875 -14.671875 C 36.453125 -8.796875 29.632812 -3.632812 21.59375 0.8125 L 21.015625 1.0625 C 20.742188 1.28125 20.429688 1.46875 20.078125 1.625 C 19.734375 1.789062 19.367188 1.875 18.984375 1.875 C 18.441406 1.875 17.875 1.628906 17.28125 1.140625 C 16.570312 0.484375 16.226562 -0.125 16.25 -0.6875 C 16.28125 -1.257812 16.40625 -1.875 16.625 -2.53125 C 16.675781 -2.632812 16.726562 -2.738281 16.78125 -2.84375 C 16.84375 -2.957031 16.875 -3.066406 16.875 -3.171875 C 17.351562 -4.910156 17.957031 -6.582031 18.6875 -8.1875 C 19.425781 -9.789062 20.175781 -11.328125 20.9375 -12.796875 C 20.9375 -12.796875 21.113281 -13.117188 21.46875 -13.765625 C 21.820312 -14.421875 22.203125 -15.113281 22.609375 -15.84375 C 23.015625 -16.582031 23.300781 -17.085938 23.46875 -17.359375 C 23.46875 -17.410156 23.578125 -17.570312 23.796875 -17.84375 C 24.285156 -18.550781 24.707031 -19.285156 25.0625 -20.046875 C 25.414062 -20.804688 25.507812 -21.40625 25.34375 -21.84375 C 25.226562 -22.113281 25.066406 -22.300781 24.859375 -22.40625 C 24.691406 -22.457031 24.550781 -22.484375 24.4375 -22.484375 C 23.894531 -22.484375 23.296875 -22.1875 22.640625 -21.59375 C 21.992188 -21 21.671875 -20.703125 21.671875 -20.703125 C 21.296875 -20.265625 20.914062 -19.71875 20.53125 -19.0625 C 20.15625 -18.414062 19.9375 -17.6875 19.875 -16.875 L 19.875 -16.546875 C 19.875 -16.328125 19.859375 -16.082031 19.828125 -15.8125 C 19.804688 -15.539062 19.71875 -15.40625 19.5625 -15.40625 C 19.5 -15.40625 19.375 -15.441406 19.1875 -15.515625 C 19 -15.597656 18.742188 -15.804688 18.421875 -16.140625 L 18.171875 -16.375 L 17.6875 -15.8125 C 17.519531 -15.695312 17.367188 -15.554688 17.234375 -15.390625 C 17.097656 -15.234375 16.976562 -15.101562 16.875 -15 C 16.21875 -14.289062 15.601562 -13.59375 15.03125 -12.90625 C 14.457031 -12.226562 13.875 -11.566406 13.28125 -10.921875 C 11.976562 -9.398438 10.644531 -7.890625 9.28125 -6.390625 C 7.925781 -4.898438 6.460938 -3.503906 4.890625 -2.203125 L 4.3125 -1.71875 C 3.820312 -1.28125 3.304688 -0.867188 2.765625 -0.484375 C 2.222656 -0.109375 1.628906 0.078125 0.984375 0.078125 C 0.429688 0.078125 -0.140625 -0.109375 -0.734375 -0.484375 C -1.867188 -1.304688 -2.410156 -2.257812 -2.359375 -3.34375 C -2.304688 -4.425781 -2.144531 -5.484375 -1.875 -6.515625 L -1.796875 -7 C -0.492188 -12.21875 1.84375 -16.703125 5.21875 -20.453125 C 7.550781 -23.054688 10.320312 -24.359375 13.53125 -24.359375 L 13.765625 -24.359375 C 14.472656 -24.359375 15.148438 -24.316406 15.796875 -24.234375 C 16.453125 -24.160156 16.945312 -23.90625 17.28125 -23.46875 C 18.25 -22.050781 19.171875 -21.34375 20.046875 -21.34375 C 20.484375 -21.34375 20.863281 -21.476562 21.1875 -21.75 C 21.507812 -22.019531 21.863281 -22.320312 22.25 -22.65625 L 22.484375 -22.890625 C 22.972656 -23.378906 23.519531 -23.757812 24.125 -24.03125 C 24.394531 -24.144531 24.648438 -24.238281 24.890625 -24.3125 C 25.140625 -24.394531 25.375 -24.4375 25.59375 -24.4375 C 25.96875 -24.4375 26.347656 -24.300781 26.734375 -24.03125 C 27.160156 -23.65625 27.359375 -23.273438 27.328125 -22.890625 C 27.304688 -22.515625 27.1875 -22.109375 26.96875 -21.671875 C 26.050781 -19.660156 25.128906 -17.691406 24.203125 -15.765625 C 23.273438 -13.835938 22.351562 -11.921875 21.4375 -10.015625 L 19.96875 -6.921875 C 19.632812 -6.328125 19.34375 -5.703125 19.09375 -5.046875 C 18.851562 -4.398438 18.628906 -3.773438 18.421875 -3.171875 L 18.015625 -1.953125 C 17.796875 -1.410156 17.765625 -1.003906 17.921875 -0.734375 C 18.035156 -0.566406 18.203125 -0.429688 18.421875 -0.328125 C 18.578125 -0.273438 18.765625 -0.25 18.984375 -0.25 C 19.523438 -0.25 20.148438 -0.410156 20.859375 -0.734375 C 21.566406 -1.054688 22.054688 -1.300781 22.328125 -1.46875 C 24.066406 -2.664062 25.773438 -3.875 27.453125 -5.09375 C 29.140625 -6.3125 30.769531 -7.519531 32.34375 -8.71875 C 32.894531 -9.101562 33.410156 -9.5 33.890625 -9.90625 C 34.378906 -10.3125 34.898438 -10.703125 35.453125 -11.078125 C 35.773438 -11.347656 36.113281 -11.632812 36.46875 -11.9375 C 36.820312 -12.238281 37.1875 -12.523438 37.5625 -12.796875 C 37.726562 -12.953125 37.890625 -13.097656 38.046875 -13.234375 C 38.210938 -13.367188 38.40625 -13.492188 38.625 -13.609375 C 38.894531 -13.878906 39.191406 -14.132812 39.515625 -14.375 C 39.847656 -14.625 40.175781 -14.882812 40.5 -15.15625 L 40.828125 -15.3125 C 40.984375 -15.425781 41.15625 -15.550781 41.34375 -15.6875 C 41.539062 -15.820312 41.722656 -15.890625 41.890625 -15.890625 Z M 18.09375 -18.984375 C 18.632812 -19.578125 18.609375 -20.285156 18.015625 -21.109375 C 17.304688 -22.023438 16.460938 -22.484375 15.484375 -22.484375 C 15.367188 -22.484375 15.257812 -22.484375 15.15625 -22.484375 C 13.800781 -22.210938 12.609375 -21.78125 11.578125 -21.1875 C 9.179688 -19.769531 7.25 -18.003906 5.78125 -15.890625 C 4.3125 -13.773438 3.035156 -11.679688 1.953125 -9.609375 C 1.847656 -9.398438 1.726562 -9.1875 1.59375 -8.96875 C 1.457031 -8.75 1.332031 -8.53125 1.21875 -8.3125 C 0.894531 -7.820312 0.597656 -7.304688 0.328125 -6.765625 C 0.0546875 -6.222656 -0.160156 -5.625 -0.328125 -4.96875 C -0.378906 -4.695312 -0.40625 -4.207031 -0.40625 -3.5 C -0.40625 -2.789062 -0.21875 -2.273438 0.15625 -1.953125 C 0.320312 -1.734375 0.539062 -1.625 0.8125 -1.625 C 1.03125 -1.625 1.300781 -1.707031 1.625 -1.875 C 3.96875 -3.34375 6.046875 -5.082031 7.859375 -7.09375 C 9.679688 -9.101562 11.4375 -11.140625 13.125 -13.203125 C 13.9375 -14.179688 14.75 -15.15625 15.5625 -16.125 C 16.375 -17.101562 17.21875 -18.054688 18.09375 -18.984375 Z M 18.09375 -18.984375 "
           id="path49" />
      </g>
    </g>
  </g>
  <g
     fill="#112241"
     fill-opacity="1"
     id="g55">
    <g
       transform="translate(238.684041, 93.519139)"
       id="g54">
      <g
         id="g53">
        <path
           d="M 47.015625 -40.015625 C 47.179688 -39.847656 47.289062 -39.601562 47.34375 -39.28125 C 47.34375 -39.113281 47.300781 -38.960938 47.21875 -38.828125 C 47.132812 -38.691406 46.90625 -38.625 46.53125 -38.625 C 46.363281 -38.625 46.1875 -38.632812 46 -38.65625 C 45.8125 -38.6875 45.632812 -38.703125 45.46875 -38.703125 L 45.0625 -38.78125 C 42.070312 -39.164062 39.125 -39.410156 36.21875 -39.515625 C 33.3125 -39.628906 30.5 -39.6875 27.78125 -39.6875 L 23.625 -39.59375 C 22.925781 -39.59375 22.207031 -39.609375 21.46875 -39.640625 C 20.738281 -39.671875 20.019531 -39.6875 19.3125 -39.6875 C 18.445312 -39.6875 17.710938 -39.578125 17.109375 -39.359375 C 16.515625 -39.140625 16.050781 -38.675781 15.71875 -37.96875 L 14.265625 -35.203125 C 10.734375 -28.359375 7.28125 -21.320312 3.90625 -14.09375 C 0.539062 -6.875 -2.144531 0.703125 -4.15625 8.640625 C -5.726562 14.828125 -6.460938 20.503906 -6.359375 25.671875 C -6.359375 25.890625 -6.359375 26.101562 -6.359375 26.3125 C -6.359375 26.800781 -6.34375 27.265625 -6.3125 27.703125 C -6.289062 28.140625 -6.113281 28.546875 -5.78125 28.921875 C -5.289062 29.410156 -4.554688 29.710938 -3.578125 29.828125 C -3.367188 29.828125 -3.207031 29.90625 -3.09375 30.0625 C -2.875 30.28125 -2.738281 30.550781 -2.6875 30.875 C -2.632812 31.257812 -2.71875 31.519531 -2.9375 31.65625 C -3.15625 31.789062 -3.367188 31.859375 -3.578125 31.859375 L -3.671875 31.859375 C -6.054688 31.859375 -7.578125 30.71875 -8.234375 28.4375 C -8.609375 27.238281 -8.78125 26.082031 -8.75 24.96875 C -8.726562 23.851562 -8.664062 22.753906 -8.5625 21.671875 L -8.46875 21.015625 C -8.039062 16.128906 -7.226562 11.40625 -6.03125 6.84375 C -4.832031 2.28125 -3.40625 -2.144531 -1.75 -6.4375 C -0.09375 -10.726562 1.578125 -14.96875 3.265625 -19.15625 L 3.75 -20.203125 C 4.5625 -22.265625 5.457031 -24.285156 6.4375 -26.265625 C 7.414062 -28.253906 8.367188 -30.226562 9.296875 -32.1875 C 9.773438 -33.113281 10.242188 -34.035156 10.703125 -34.953125 C 11.171875 -35.878906 11.625 -36.804688 12.0625 -37.734375 C 12.164062 -38.003906 12.226562 -38.3125 12.25 -38.65625 C 12.28125 -39.007812 12.082031 -39.566406 11.65625 -40.328125 L 11.484375 -40.5 L 11.328125 -40.5 C 10.128906 -40.5 8.90625 -40.5 7.65625 -40.5 C 6.40625 -40.5 5.15625 -40.5 3.90625 -40.5 C 2.65625 -40.550781 1.390625 -40.578125 0.109375 -40.578125 C -1.160156 -40.578125 -2.445312 -40.578125 -3.75 -40.578125 C -7.769531 -40.578125 -11.328125 -40.523438 -14.421875 -40.421875 C -15.078125 -40.359375 -15.726562 -40.328125 -16.375 -40.328125 C -17.03125 -40.328125 -17.679688 -40.328125 -18.328125 -40.328125 C -20.015625 -40.273438 -21.710938 -40.207031 -23.421875 -40.125 C -25.140625 -40.050781 -26.785156 -39.820312 -28.359375 -39.4375 C -28.847656 -39.332031 -29.253906 -39.28125 -29.578125 -39.28125 C -29.960938 -39.28125 -30.289062 -39.359375 -30.5625 -39.515625 C -30.71875 -39.679688 -30.851562 -39.953125 -30.96875 -40.328125 C -31.070312 -40.816406 -30.828125 -41.0625 -30.234375 -41.0625 C -30.117188 -41.0625 -29.898438 -41.046875 -29.578125 -41.015625 C -29.253906 -40.992188 -29.09375 -40.984375 -29.09375 -40.984375 L -28.84375 -40.984375 C -25.800781 -41.253906 -22.800781 -41.429688 -19.84375 -41.515625 C -16.882812 -41.597656 -14.234375 -41.640625 -11.890625 -41.640625 C -10.640625 -41.640625 -9.375 -41.640625 -8.09375 -41.640625 C -6.820312 -41.640625 -5.5625 -41.640625 -4.3125 -41.640625 C -3.0625 -41.585938 -1.796875 -41.5625 -0.515625 -41.5625 C 0.753906 -41.5625 2.015625 -41.5625 3.265625 -41.5625 C 4.453125 -41.5625 5.644531 -41.5625 6.84375 -41.5625 C 8.039062 -41.5625 9.238281 -41.585938 10.4375 -41.640625 C 11.570312 -41.691406 12.585938 -41.894531 13.484375 -42.25 C 14.378906 -42.601562 15.097656 -43.320312 15.640625 -44.40625 C 17.921875 -49.1875 21.070312 -53.75 25.09375 -58.09375 C 25.144531 -58.207031 25.253906 -58.34375 25.421875 -58.5 C 25.585938 -58.71875 25.765625 -58.9375 25.953125 -59.15625 C 26.140625 -59.375 26.367188 -59.484375 26.640625 -59.484375 C 26.910156 -59.484375 27.238281 -59.320312 27.625 -59 C 28.113281 -58.5625 28.300781 -58.125 28.1875 -57.6875 C 28.082031 -57.25 27.867188 -56.789062 27.546875 -56.3125 C 27.109375 -55.707031 26.695312 -55.132812 26.3125 -54.59375 C 25.9375 -54.050781 25.554688 -53.535156 25.171875 -53.046875 C 23.984375 -51.421875 22.789062 -49.722656 21.59375 -47.953125 C 20.394531 -46.191406 19.28125 -44.25 18.25 -42.125 L 18.015625 -41.71875 L 25.265625 -41.71875 C 31.015625 -41.71875 37.53125 -41.285156 44.8125 -40.421875 C 44.925781 -40.421875 45.117188 -40.421875 45.390625 -40.421875 C 45.660156 -40.421875 45.941406 -40.390625 46.234375 -40.328125 C 46.535156 -40.273438 46.796875 -40.171875 47.015625 -40.015625 Z M 47.015625 -40.015625 "
           id="path52" />
      </g>
    </g>
  </g>
  <g
     fill="#112241"
     fill-opacity="1"
     id="g58">
    <g
       transform="translate(252.698344, 93.519139)"
       id="g57">
      <g
         id="g56">
        <path
           d="M 28.359375 -12.953125 C 28.515625 -12.847656 28.59375 -12.601562 28.59375 -12.21875 C 28.59375 -11.84375 28.363281 -11.488281 27.90625 -11.15625 C 27.445312 -10.832031 27.082031 -10.5625 26.8125 -10.34375 C 25.882812 -9.53125 24.929688 -8.742188 23.953125 -7.984375 C 22.972656 -7.222656 21.992188 -6.488281 21.015625 -5.78125 C 18.953125 -4.3125 16.765625 -3.003906 14.453125 -1.859375 C 12.148438 -0.722656 9.695312 0.191406 7.09375 0.890625 C 6 1.160156 4.851562 1.296875 3.65625 1.296875 C 2.46875 1.296875 1.273438 0.753906 0.078125 -0.328125 C -1.117188 -1.359375 -1.785156 -2.457031 -1.921875 -3.625 C -2.054688 -4.789062 -1.957031 -5.914062 -1.625 -7 C -0.644531 -10.695312 0.738281 -14.144531 2.53125 -17.34375 C 4.320312 -20.550781 6.46875 -23.515625 8.96875 -26.234375 C 9.238281 -26.617188 9.578125 -26.972656 9.984375 -27.296875 C 10.390625 -27.617188 10.945312 -27.507812 11.65625 -26.96875 C 12.414062 -26.375 12.660156 -25.84375 12.390625 -25.375 C 12.117188 -24.914062 11.875 -24.5 11.65625 -24.125 C 9.914062 -21.351562 8.226562 -18.582031 6.59375 -15.8125 C 4.96875 -13.039062 3.53125 -10.132812 2.28125 -7.09375 C 2.0625 -6.550781 1.789062 -5.976562 1.46875 -5.375 C 1.144531 -4.78125 0.984375 -4.171875 0.984375 -3.546875 C 0.984375 -2.921875 1.28125 -2.3125 1.875 -1.71875 C 2.851562 -0.675781 3.9375 -0.238281 5.125 -0.40625 C 6.320312 -0.570312 7.410156 -0.765625 8.390625 -0.984375 C 10.515625 -1.472656 12.472656 -2.203125 14.265625 -3.171875 C 16.054688 -4.148438 17.765625 -5.238281 19.390625 -6.4375 C 19.609375 -6.601562 20.148438 -7.066406 21.015625 -7.828125 C 21.890625 -8.585938 22.84375 -9.398438 23.875 -10.265625 C 24.90625 -11.140625 25.851562 -11.847656 26.71875 -12.390625 C 27.59375 -12.929688 28.140625 -13.117188 28.359375 -12.953125 Z M 15.234375 -30.796875 C 13.984375 -30.691406 13.195312 -31.265625 12.875 -32.515625 C 12.601562 -33.597656 12.710938 -34.367188 13.203125 -34.828125 C 13.691406 -35.296875 14.394531 -35.554688 15.3125 -35.609375 C 15.96875 -35.660156 16.539062 -35.523438 17.03125 -35.203125 C 17.519531 -34.878906 17.875 -34.304688 18.09375 -33.484375 C 18.144531 -32.566406 17.898438 -31.914062 17.359375 -31.53125 C 16.816406 -31.15625 16.109375 -30.910156 15.234375 -30.796875 Z M 15.234375 -30.796875 "
           id="path55" />
      </g>
    </g>
  </g>
  <g
     fill="#112241"
     fill-opacity="1"
     id="g61">
    <g
       transform="translate(279.586261, 93.519139)"
       id="g60">
      <g
         id="g59">
        <path
           d="M 44.890625 -13.6875 C 45.222656 -13.46875 45.414062 -13.25 45.46875 -13.03125 C 45.519531 -12.820312 45.476562 -12.617188 45.34375 -12.421875 C 45.207031 -12.234375 45.054688 -12.054688 44.890625 -11.890625 C 44.679688 -11.679688 44.546875 -11.519531 44.484375 -11.40625 C 39.984375 -4.457031 33.601562 1.351562 25.34375 6.03125 C 24.46875 6.519531 23.351562 6.765625 22 6.765625 L 21.84375 6.765625 C 20.476562 6.765625 19.441406 6.410156 18.734375 5.703125 C 17.972656 4.992188 17.59375 3.9375 17.59375 2.53125 C 17.59375 1.28125 17.835938 0.15625 18.328125 -0.84375 C 18.816406 -1.851562 19.332031 -2.820312 19.875 -3.75 L 20.703125 -5.046875 C 20.859375 -5.378906 21.03125 -5.707031 21.21875 -6.03125 C 21.414062 -6.351562 21.59375 -6.675781 21.75 -7 L 21.84375 -7.25 C 21.945312 -7.46875 22.039062 -7.738281 22.125 -8.0625 C 22.207031 -8.394531 22.054688 -8.75 21.671875 -9.125 C 21.234375 -9.5625 20.71875 -9.78125 20.125 -9.78125 C 19.90625 -9.78125 19.660156 -9.722656 19.390625 -9.609375 C 18.304688 -9.398438 17.234375 -9.144531 16.171875 -8.84375 C 15.109375 -8.539062 14.035156 -8.226562 12.953125 -7.90625 C 11.597656 -7.414062 10.28125 -6.84375 9 -6.1875 C 7.726562 -5.539062 6.492188 -4.863281 5.296875 -4.15625 C 4.753906 -3.882812 4.222656 -3.597656 3.703125 -3.296875 C 3.191406 -3.003906 2.664062 -2.71875 2.125 -2.4375 L 1.796875 -2.28125 C 1.578125 -2.113281 1.332031 -1.976562 1.0625 -1.875 C 0.789062 -1.769531 0.519531 -1.71875 0.25 -1.71875 C -0.238281 -1.71875 -0.753906 -1.929688 -1.296875 -2.359375 C -1.898438 -2.898438 -2.203125 -3.398438 -2.203125 -3.859375 C -2.203125 -4.328125 -2.144531 -4.804688 -2.03125 -5.296875 L -1.953125 -5.625 C -0.972656 -10.070312 0.679688 -14.035156 3.015625 -17.515625 L 3.171875 -17.765625 C 3.285156 -17.984375 3.421875 -18.1875 3.578125 -18.375 C 3.742188 -18.5625 3.9375 -18.65625 4.15625 -18.65625 C 4.320312 -18.65625 4.484375 -18.601562 4.640625 -18.5 C 5.023438 -18.332031 5.269531 -18.113281 5.375 -17.84375 C 5.644531 -17.300781 5.65625 -16.660156 5.40625 -15.921875 C 5.164062 -15.191406 4.910156 -14.582031 4.640625 -14.09375 C 4.484375 -13.769531 4.40625 -13.550781 4.40625 -13.4375 L 1.546875 -6.03125 C 1.492188 -5.914062 1.4375 -5.738281 1.375 -5.5 C 1.320312 -5.257812 1.40625 -5.054688 1.625 -4.890625 C 1.84375 -4.722656 2.113281 -4.640625 2.4375 -4.640625 C 2.769531 -4.640625 3.148438 -4.707031 3.578125 -4.84375 C 4.015625 -4.976562 4.316406 -5.101562 4.484375 -5.21875 C 4.753906 -5.320312 5 -5.441406 5.21875 -5.578125 C 5.4375 -5.710938 5.648438 -5.863281 5.859375 -6.03125 C 6.140625 -6.25 6.398438 -6.4375 6.640625 -6.59375 C 6.878906 -6.757812 7.140625 -6.894531 7.421875 -7 C 8.285156 -7.4375 9.164062 -7.84375 10.0625 -8.21875 C 10.957031 -8.601562 11.867188 -8.988281 12.796875 -9.375 C 15.023438 -10.289062 17.113281 -10.882812 19.0625 -11.15625 C 19.394531 -11.21875 19.695312 -11.25 19.96875 -11.25 C 21.375 -11.25 22.484375 -10.785156 23.296875 -9.859375 C 24.222656 -8.828125 24.46875 -7.550781 24.03125 -6.03125 C 23.820312 -5.101562 23.539062 -4.203125 23.1875 -3.328125 C 22.832031 -2.460938 22.488281 -1.597656 22.15625 -0.734375 C 21.945312 -0.242188 21.742188 0.242188 21.546875 0.734375 C 21.359375 1.222656 21.15625 1.710938 20.9375 2.203125 L 20.859375 2.53125 C 20.691406 2.800781 20.582031 3.125 20.53125 3.5 C 20.476562 3.882812 20.613281 4.238281 20.9375 4.5625 C 21.375 5 21.863281 5.21875 22.40625 5.21875 C 22.625 5.21875 22.84375 5.1875 23.0625 5.125 C 23.28125 5.070312 23.5 5.019531 23.71875 4.96875 C 26.269531 4.207031 28.492188 3.078125 30.390625 1.578125 C 32.296875 0.0859375 34.007812 -1.414062 35.53125 -2.9375 C 36.78125 -4.1875 38.125 -5.582031 39.5625 -7.125 C 41 -8.675781 42.207031 -10.429688 43.1875 -12.390625 L 43.34375 -12.546875 C 43.457031 -12.816406 43.609375 -13.101562 43.796875 -13.40625 C 43.984375 -13.707031 44.210938 -13.859375 44.484375 -13.859375 C 44.597656 -13.859375 44.734375 -13.800781 44.890625 -13.6875 Z M 44.890625 -13.6875 "
           id="path58" />
      </g>
    </g>
  </g>
  <g
     fill="#112241"
     fill-opacity="1"
     id="g64">
    <g
       transform="translate(322.688394, 93.519139)"
       id="g63">
      <g
         id="g62">
        <path
           d="M 42.046875 -14.671875 C 42.316406 -14.671875 42.503906 -14.640625 42.609375 -14.578125 C 42.722656 -14.523438 42.804688 -14.5 42.859375 -14.5 C 42.910156 -14.175781 42.648438 -13.90625 42.078125 -13.6875 C 41.515625 -13.46875 41.039062 -13.304688 40.65625 -13.203125 C 40.4375 -13.148438 40.273438 -13.09375 40.171875 -13.03125 C 38.210938 -12.332031 36.347656 -11.570312 34.578125 -10.75 C 32.816406 -9.9375 31.203125 -8.878906 29.734375 -7.578125 C 27.023438 -5.242188 24.851562 -2.203125 23.21875 1.546875 C 19.039062 11.328125 12.550781 20.695312 3.75 29.65625 C 2.769531 30.632812 1.707031 31.554688 0.5625 32.421875 C -0.570312 33.296875 -1.953125 33.867188 -3.578125 34.140625 C -4.066406 34.191406 -4.53125 34.21875 -4.96875 34.21875 C -6.269531 34.21875 -7.382812 33.757812 -8.3125 32.84375 C -9.070312 32.082031 -9.460938 31.304688 -9.484375 30.515625 C -9.515625 29.722656 -9.453125 28.976562 -9.296875 28.28125 C -8.804688 26.425781 -8.03125 24.789062 -6.96875 23.375 C -5.90625 21.96875 -4.773438 20.613281 -3.578125 19.3125 C 1.191406 13.988281 5.765625 9.125 10.140625 4.71875 C 14.515625 0.320312 19.3125 -3.664062 24.53125 -7.25 C 25.78125 -8.0625 26.617188 -9.175781 27.046875 -10.59375 C 27.484375 -12.007812 27.835938 -13.445312 28.109375 -14.90625 L 28.359375 -16.140625 C 28.460938 -16.835938 28.328125 -17.378906 27.953125 -17.765625 C 27.835938 -17.929688 27.644531 -18.082031 27.375 -18.21875 C 27.101562 -18.351562 26.722656 -18.421875 26.234375 -18.421875 C 26.078125 -18.421875 25.941406 -18.421875 25.828125 -18.421875 C 24.628906 -18.304688 23.429688 -17.785156 22.234375 -16.859375 C 21.046875 -15.941406 20.054688 -14.84375 19.265625 -13.5625 C 18.484375 -12.289062 18.117188 -11.054688 18.171875 -9.859375 C 18.171875 -9.203125 18.035156 -8.820312 17.765625 -8.71875 C 17.648438 -8.71875 17.539062 -8.71875 17.4375 -8.71875 C 17.164062 -8.71875 17.003906 -8.828125 16.953125 -9.046875 C 16.785156 -9.421875 16.566406 -9.828125 16.296875 -10.265625 C 16.023438 -10.703125 15.695312 -10.921875 15.3125 -10.921875 C 15.101562 -10.921875 14.898438 -10.820312 14.703125 -10.625 C 14.515625 -10.4375 14.335938 -10.234375 14.171875 -10.015625 C 14.015625 -9.742188 13.910156 -9.582031 13.859375 -9.53125 C 13.523438 -9.257812 13.179688 -8.972656 12.828125 -8.671875 C 12.472656 -8.378906 12.132812 -8.097656 11.8125 -7.828125 C 10.832031 -7.003906 9.835938 -6.1875 8.828125 -5.375 C 7.828125 -4.5625 6.734375 -3.859375 5.546875 -3.265625 C 5.054688 -3.046875 4.578125 -2.835938 4.109375 -2.640625 C 3.648438 -2.453125 3.175781 -2.359375 2.6875 -2.359375 C 1.820312 -2.359375 0.976562 -2.6875 0.15625 -3.34375 C -0.925781 -4.207031 -1.46875 -5.113281 -1.46875 -6.0625 C -1.46875 -7.019531 -1.382812 -7.929688 -1.21875 -8.796875 C -0.0195312 -14.015625 2.75 -17.570312 7.09375 -19.46875 C 8.226562 -19.957031 9.257812 -20.203125 10.1875 -20.203125 C 12.25 -20.203125 14.285156 -18.898438 16.296875 -16.296875 C 16.515625 -15.972656 16.742188 -15.703125 16.984375 -15.484375 C 17.234375 -15.265625 17.492188 -15.15625 17.765625 -15.15625 C 17.929688 -15.15625 18.203125 -15.289062 18.578125 -15.5625 L 18.90625 -15.71875 C 19.71875 -16.320312 20.554688 -16.894531 21.421875 -17.4375 C 22.296875 -17.976562 23.222656 -18.46875 24.203125 -18.90625 C 24.960938 -19.28125 25.640625 -19.46875 26.234375 -19.46875 C 26.941406 -19.46875 27.566406 -19.253906 28.109375 -18.828125 C 28.816406 -18.285156 29.222656 -17.644531 29.328125 -16.90625 C 29.441406 -16.175781 29.472656 -15.398438 29.421875 -14.578125 C 29.421875 -14.203125 29.390625 -13.8125 29.328125 -13.40625 C 29.273438 -13 29.195312 -12.578125 29.09375 -12.140625 L 28.84375 -10.515625 L 29.328125 -10.34375 C 29.390625 -10.457031 29.734375 -10.632812 30.359375 -10.875 C 30.984375 -11.125 31.457031 -11.300781 31.78125 -11.40625 C 32.21875 -11.519531 32.488281 -11.601562 32.59375 -11.65625 C 33.1875 -11.925781 33.753906 -12.179688 34.296875 -12.421875 C 34.847656 -12.671875 35.394531 -12.90625 35.9375 -13.125 C 37.1875 -13.613281 38.734375 -14.070312 40.578125 -14.5 C 40.742188 -14.5 40.960938 -14.523438 41.234375 -14.578125 C 41.503906 -14.640625 41.773438 -14.671875 42.046875 -14.671875 Z M 14.015625 -11.65625 C 14.335938 -11.925781 14.617188 -12.238281 14.859375 -12.59375 C 15.109375 -12.945312 14.960938 -13.503906 14.421875 -14.265625 C 13.984375 -14.859375 13.453125 -15.410156 12.828125 -15.921875 C 12.203125 -16.441406 11.347656 -16.703125 10.265625 -16.703125 L 10.1875 -16.703125 C 5.457031 -15.453125 2.359375 -12.4375 0.890625 -7.65625 C 0.785156 -7.21875 0.707031 -6.710938 0.65625 -6.140625 C 0.601562 -5.578125 0.875 -5.050781 1.46875 -4.5625 C 1.84375 -4.1875 2.273438 -4 2.765625 -4 C 3.035156 -4 3.304688 -4.050781 3.578125 -4.15625 C 3.859375 -4.257812 4.101562 -4.367188 4.3125 -4.484375 C 5.894531 -5.242188 7.296875 -6.113281 8.515625 -7.09375 C 9.734375 -8.070312 10.914062 -9.046875 12.0625 -10.015625 C 12.332031 -10.234375 12.601562 -10.460938 12.875 -10.703125 C 13.144531 -10.953125 13.390625 -11.1875 13.609375 -11.40625 C 13.660156 -11.457031 13.796875 -11.539062 14.015625 -11.65625 Z M -1.21875 29.5 C 3.988281 25.09375 8.46875 20.078125 12.21875 14.453125 C 15.96875 8.835938 19.421875 3.207031 22.578125 -2.4375 L 22.15625 -2.765625 C 19.601562 -1.242188 17.269531 0.476562 15.15625 2.40625 C 13.039062 4.332031 11.03125 6.273438 9.125 8.234375 C 8.414062 8.941406 7.707031 9.644531 7 10.34375 C 6.300781 11.050781 5.570312 11.757812 4.8125 12.46875 C 2.800781 14.363281 0.816406 16.34375 -1.140625 18.40625 C -3.097656 20.476562 -4.78125 22.765625 -6.1875 25.265625 L -6.59375 25.90625 C -7.082031 26.664062 -7.476562 27.492188 -7.78125 28.390625 C -8.082031 29.285156 -7.769531 30.144531 -6.84375 30.96875 C -6.300781 31.457031 -5.703125 31.703125 -5.046875 31.703125 C -4.398438 31.703125 -3.789062 31.492188 -3.21875 31.078125 C -2.644531 30.671875 -2.113281 30.253906 -1.625 29.828125 Z M -1.21875 29.5 "
           id="path61" />
      </g>
    </g>
  </g>
  <g
     fill="#112241"
     fill-opacity="1"
     id="g67">
    <g
       transform="translate(143.902043, 206.198201)"
       id="g66">
      <g
         id="g65">
        <path
           d="M 25.90625 -13.609375 C 26.394531 -13.609375 26.75 -13.390625 26.96875 -12.953125 C 27.082031 -12.796875 27.109375 -12.660156 27.046875 -12.546875 C 26.992188 -12.441406 26.859375 -12.347656 26.640625 -12.265625 C 26.421875 -12.179688 26.207031 -12.113281 26 -12.0625 C 25.726562 -12.007812 25.535156 -11.984375 25.421875 -11.984375 C 21.078125 -10.734375 16.71875 -9.101562 12.34375 -7.09375 C 7.96875 -5.082031 3.363281 -2.582031 -1.46875 0.40625 C -2.988281 1.332031 -4.0625 2.523438 -4.6875 3.984375 C -5.3125 5.453125 -5.84375 6.945312 -6.28125 8.46875 C -6.488281 9.175781 -6.703125 9.882812 -6.921875 10.59375 C -7.140625 11.300781 -7.410156 11.976562 -7.734375 12.625 C -7.796875 12.738281 -7.785156 12.914062 -7.703125 13.15625 C -7.617188 13.40625 -7.523438 13.640625 -7.421875 13.859375 L -7.328125 14.09375 C -5.867188 17.351562 -5.164062 20.679688 -5.21875 24.078125 C -5.269531 27.472656 -5.988281 30.566406 -7.375 33.359375 C -8.757812 36.160156 -10.726562 38.296875 -13.28125 39.765625 C -13.550781 39.929688 -13.863281 40.09375 -14.21875 40.25 C -14.570312 40.414062 -14.9375 40.5 -15.3125 40.5 C -15.863281 40.5 -16.4375 40.253906 -17.03125 39.765625 C -17.789062 39.171875 -18.144531 38.5625 -18.09375 37.9375 C -18.039062 37.3125 -17.929688 36.722656 -17.765625 36.171875 C -16.953125 33.734375 -16.148438 31.316406 -15.359375 28.921875 C -14.566406 26.535156 -13.765625 24.175781 -12.953125 21.84375 L -11 15.96875 C -10.457031 14.394531 -10.507812 13.171875 -11.15625 12.296875 C -11.8125 11.429688 -13.09375 10.863281 -15 10.59375 C -15.15625 10.59375 -15.394531 10.59375 -15.71875 10.59375 C -16.15625 10.539062 -16.523438 10.472656 -16.828125 10.390625 C -17.128906 10.304688 -17.359375 10.046875 -17.515625 9.609375 C -17.628906 9.285156 -17.617188 9.039062 -17.484375 8.875 C -17.347656 8.71875 -17.113281 8.53125 -16.78125 8.3125 C -16.5625 8.144531 -16.425781 8.035156 -16.375 7.984375 C -16.15625 7.765625 -15.992188 7.65625 -15.890625 7.65625 C -12.898438 6.40625 -10.410156 4.734375 -8.421875 2.640625 C -6.441406 0.554688 -4.785156 -1.742188 -3.453125 -4.265625 C -2.128906 -6.796875 -0.953125 -9.367188 0.078125 -11.984375 C 5.296875 -25.066406 11.410156 -36.660156 18.421875 -46.765625 C 18.910156 -47.523438 19.492188 -48.269531 20.171875 -49 C 20.847656 -49.738281 21.648438 -50.351562 22.578125 -50.84375 C 23.171875 -51.164062 23.738281 -51.328125 24.28125 -51.328125 C 25.53125 -51.328125 26.507812 -50.488281 27.21875 -48.8125 C 27.707031 -47.613281 27.921875 -46.035156 27.859375 -44.078125 C 27.804688 -42.128906 27.519531 -40.148438 27 -38.140625 C 26.488281 -36.128906 25.8125 -34.320312 24.96875 -32.71875 C 24.132812 -31.113281 23.253906 -30.039062 22.328125 -29.5 C 21.941406 -29.28125 21.644531 -29.171875 21.4375 -29.171875 C 21.269531 -29.171875 21.128906 -29.222656 21.015625 -29.328125 C 20.535156 -29.660156 20.296875 -30.015625 20.296875 -30.390625 C 20.296875 -30.773438 20.320312 -31.046875 20.375 -31.203125 C 20.800781 -32.347656 21.234375 -33.488281 21.671875 -34.625 C 22.109375 -35.769531 22.570312 -36.882812 23.0625 -37.96875 L 23.21875 -38.453125 C 23.757812 -39.648438 24.257812 -40.882812 24.71875 -42.15625 C 25.1875 -43.4375 25.476562 -44.8125 25.59375 -46.28125 C 25.59375 -46.394531 25.617188 -46.585938 25.671875 -46.859375 C 25.722656 -47.234375 25.734375 -47.648438 25.703125 -48.109375 C 25.679688 -48.578125 25.425781 -49 24.9375 -49.375 C 24.550781 -49.59375 24.222656 -49.703125 23.953125 -49.703125 C 23.628906 -49.703125 23.367188 -49.617188 23.171875 -49.453125 C 22.984375 -49.296875 22.785156 -49.109375 22.578125 -48.890625 C 22.410156 -48.671875 22.300781 -48.535156 22.25 -48.484375 C 20.613281 -47.015625 19.210938 -45.367188 18.046875 -43.546875 C 16.878906 -41.734375 15.753906 -39.875 14.671875 -37.96875 L 14.421875 -37.5625 C 8.503906 -27.132812 2.9375 -15.289062 -2.28125 -2.03125 L -2.53125 -1.390625 L -1.875 -1.71875 C -0.945312 -2.144531 -0.0351562 -2.585938 0.859375 -3.046875 C 1.753906 -3.515625 2.632812 -3.96875 3.5 -4.40625 C 5.40625 -5.320312 7.28125 -6.242188 9.125 -7.171875 C 10.96875 -8.097656 12.816406 -8.992188 14.671875 -9.859375 C 15.921875 -10.398438 17.195312 -10.890625 18.5 -11.328125 C 19.800781 -11.765625 21.101562 -12.195312 22.40625 -12.625 L 24.609375 -13.359375 C 24.773438 -13.410156 24.976562 -13.460938 25.21875 -13.515625 C 25.46875 -13.578125 25.695312 -13.609375 25.90625 -13.609375 Z M -13.859375 33.328125 C -11.628906 31.210938 -10.066406 28.703125 -9.171875 25.796875 C -8.273438 22.890625 -8.125 19.882812 -8.71875 16.78125 L -9.203125 16.703125 L -9.609375 17.6875 C -10.535156 20.1875 -11.40625 22.65625 -12.21875 25.09375 C -13.03125 27.539062 -13.738281 30.175781 -14.34375 33 Z M -7.328125 4.71875 L -7.171875 4 L -13.765625 8.71875 L -13.4375 8.875 C -12.570312 9.425781 -11.867188 9.847656 -11.328125 10.140625 C -10.785156 10.441406 -10.320312 10.59375 -9.9375 10.59375 C -9.289062 10.59375 -8.816406 10.144531 -8.515625 9.25 C -8.210938 8.351562 -7.816406 6.84375 -7.328125 4.71875 Z M -7.328125 4.71875 "
           id="path64" />
      </g>
    </g>
  </g>
  <g
     fill="#112241"
     fill-opacity="1"
     id="g70">
    <g
       transform="translate(168.997421, 206.198201)"
       id="g69">
      <g
         id="g68">
        <path
           d="M 29.25 -13.203125 C 29.6875 -13.148438 29.929688 -13.066406 29.984375 -12.953125 C 30.035156 -12.628906 29.84375 -12.332031 29.40625 -12.0625 C 28.976562 -11.789062 28.492188 -11.554688 27.953125 -11.359375 C 27.410156 -11.171875 27.003906 -11.050781 26.734375 -11 C 25.316406 -10.5625 23.898438 -10.34375 22.484375 -10.34375 C 21.179688 -10.34375 19.90625 -10.476562 18.65625 -10.75 C 18.007812 -10.914062 17.441406 -11 16.953125 -11 C 15.648438 -11 14.695312 -10.320312 14.09375 -8.96875 C 12.519531 -5.488281 10.019531 -2.632812 6.59375 -0.40625 C 6.164062 -0.132812 5.664062 0.117188 5.09375 0.359375 C 4.519531 0.609375 3.910156 0.734375 3.265625 0.734375 C 2.441406 0.734375 1.648438 0.488281 0.890625 0 C -0.191406 -0.707031 -0.8125 -1.578125 -0.96875 -2.609375 C -1.132812 -3.640625 -1.191406 -4.695312 -1.140625 -5.78125 C -0.816406 -11.320312 1.351562 -16.160156 5.375 -20.296875 C 5.863281 -20.773438 6.351562 -21.257812 6.84375 -21.75 C 7.332031 -22.238281 7.820312 -22.726562 8.3125 -23.21875 C 9.125 -23.925781 10.019531 -24.28125 11 -24.28125 C 11.65625 -24.28125 12.304688 -24.144531 12.953125 -23.875 C 14.472656 -23.164062 15.503906 -21.78125 16.046875 -19.71875 C 16.535156 -17.976562 16.566406 -16.296875 16.140625 -14.671875 C 15.921875 -13.742188 16 -13.0625 16.375 -12.625 C 16.8125 -12.132812 17.597656 -11.863281 18.734375 -11.8125 C 19.441406 -11.8125 20.125 -11.8125 20.78125 -11.8125 C 22.351562 -11.8125 23.789062 -11.921875 25.09375 -12.140625 C 25.363281 -12.140625 25.632812 -12.191406 25.90625 -12.296875 C 26.175781 -12.410156 26.453125 -12.550781 26.734375 -12.71875 C 27.054688 -12.820312 27.394531 -12.941406 27.75 -13.078125 C 28.101562 -13.210938 28.46875 -13.28125 28.84375 -13.28125 C 29.007812 -13.28125 29.144531 -13.253906 29.25 -13.203125 Z M 12.390625 -12.390625 C 12.390625 -12.546875 12.390625 -12.707031 12.390625 -12.875 C 12.222656 -13.144531 12.054688 -13.359375 11.890625 -13.515625 C 11.734375 -13.679688 11.570312 -13.847656 11.40625 -14.015625 C 11.03125 -14.390625 10.648438 -14.753906 10.265625 -15.109375 C 9.890625 -15.460938 9.484375 -15.832031 9.046875 -16.21875 C 8.929688 -16.269531 8.769531 -16.429688 8.5625 -16.703125 C 8.34375 -16.972656 8.109375 -17.21875 7.859375 -17.4375 C 7.617188 -17.65625 7.363281 -17.765625 7.09375 -17.765625 C 6.757812 -17.765625 6.457031 -17.601562 6.1875 -17.28125 C 4.613281 -15.050781 3.320312 -12.847656 2.3125 -10.671875 C 1.3125 -8.503906 0.785156 -6.113281 0.734375 -3.5 C 0.734375 -2.632812 0.976562 -1.957031 1.46875 -1.46875 C 1.789062 -1.195312 2.195312 -1.0625 2.6875 -1.0625 C 3.070312 -1.0625 3.476562 -1.171875 3.90625 -1.390625 C 6.25 -2.523438 8.039062 -4.070312 9.28125 -6.03125 C 10.53125 -7.988281 11.535156 -9.863281 12.296875 -11.65625 C 12.359375 -11.757812 12.390625 -12.003906 12.390625 -12.390625 Z M 13.03125 -15.640625 C 13.195312 -16.347656 13.28125 -17.066406 13.28125 -17.796875 C 13.28125 -18.535156 12.898438 -19.257812 12.140625 -19.96875 C 11.921875 -20.238281 11.648438 -20.375 11.328125 -20.375 C 10.890625 -20.375 10.492188 -20.207031 10.140625 -19.875 C 9.785156 -19.550781 9.554688 -19.253906 9.453125 -18.984375 C 9.179688 -18.171875 9.289062 -17.476562 9.78125 -16.90625 C 10.269531 -16.332031 10.8125 -15.800781 11.40625 -15.3125 C 11.570312 -15.207031 11.75 -15.085938 11.9375 -14.953125 C 12.125 -14.816406 12.300781 -14.664062 12.46875 -14.5 L 12.796875 -14.171875 L 12.875 -14.5 C 12.875 -14.71875 12.898438 -14.921875 12.953125 -15.109375 C 13.003906 -15.304688 13.03125 -15.484375 13.03125 -15.640625 Z M 13.03125 -15.640625 "
           id="path67" />
      </g>
    </g>
  </g>
  <g
     fill="#112241"
     fill-opacity="1"
     id="g73">
    <g
       transform="translate(196.618628, 206.198201)"
       id="g72">
      <g
         id="g71">
        <path
           d="M 35.609375 -12.625 C 35.929688 -12.570312 36.117188 -12.492188 36.171875 -12.390625 C 36.234375 -12.222656 36.128906 -12.03125 35.859375 -11.8125 C 34.878906 -11.269531 33.765625 -11 32.515625 -11 C 30.992188 -11 29.414062 -11.40625 27.78125 -12.21875 C 26.15625 -13.03125 24.769531 -14.09375 23.625 -15.40625 C 22.59375 -16.539062 21.804688 -17.378906 21.265625 -17.921875 C 20.722656 -18.460938 20.15625 -18.734375 19.5625 -18.734375 C 19.175781 -18.734375 18.738281 -18.582031 18.25 -18.28125 C 17.757812 -17.988281 17.160156 -17.597656 16.453125 -17.109375 C 13.847656 -15.265625 11.40625 -13.238281 9.125 -11.03125 C 6.84375 -8.832031 4.644531 -6.625 2.53125 -4.40625 L 0.484375 -2.359375 C 0.429688 -2.253906 0.296875 -2.066406 0.078125 -1.796875 C -0.078125 -1.578125 -0.25 -1.367188 -0.4375 -1.171875 C -0.632812 -0.984375 -0.867188 -0.890625 -1.140625 -0.890625 C -1.460938 -0.890625 -1.867188 -1.054688 -2.359375 -1.390625 C -2.960938 -1.816406 -3.234375 -2.257812 -3.171875 -2.71875 C -3.117188 -3.1875 -3.039062 -3.640625 -2.9375 -4.078125 L -2.765625 -4.40625 C -0.597656 -11.300781 2.0625 -17.382812 5.21875 -22.65625 L 5.375 -22.8125 C 5.539062 -23.132812 5.757812 -23.457031 6.03125 -23.78125 C 6.300781 -24.113281 6.597656 -24.28125 6.921875 -24.28125 C 7.140625 -24.28125 7.382812 -24.195312 7.65625 -24.03125 C 8.039062 -23.757812 8.285156 -23.488281 8.390625 -23.21875 C 8.503906 -22.945312 8.503906 -22.660156 8.390625 -22.359375 C 8.285156 -22.066406 8.148438 -21.785156 7.984375 -21.515625 C 7.878906 -21.179688 7.796875 -20.960938 7.734375 -20.859375 L 7.09375 -19.3125 C 6.757812 -18.5 6.414062 -17.671875 6.0625 -16.828125 C 5.71875 -15.984375 5.351562 -15.15625 4.96875 -14.34375 C 4.75 -13.800781 4.503906 -13.253906 4.234375 -12.703125 C 3.960938 -12.160156 3.71875 -11.617188 3.5 -11.078125 C 3.445312 -11.078125 3.335938 -10.859375 3.171875 -10.421875 C 3.015625 -9.992188 2.867188 -9.535156 2.734375 -9.046875 C 2.597656 -8.554688 2.582031 -8.226562 2.6875 -8.0625 L 2.859375 -7.984375 L 3.015625 -7.90625 C 3.554688 -8.007812 4.015625 -8.222656 4.390625 -8.546875 C 4.773438 -8.878906 5.128906 -9.234375 5.453125 -9.609375 C 5.566406 -9.722656 5.691406 -9.847656 5.828125 -9.984375 C 5.960938 -10.117188 6.113281 -10.269531 6.28125 -10.4375 L 9.703125 -13.28125 C 10.785156 -14.207031 11.867188 -15.117188 12.953125 -16.015625 C 14.035156 -16.910156 15.125 -17.789062 16.21875 -18.65625 C 17.6875 -19.75 18.800781 -20.296875 19.5625 -20.296875 C 20.257812 -20.296875 20.945312 -19.984375 21.625 -19.359375 C 22.3125 -18.734375 23.171875 -17.796875 24.203125 -16.546875 C 25.335938 -15.128906 26.648438 -14.023438 28.140625 -13.234375 C 29.640625 -12.453125 31.148438 -12.0625 32.671875 -12.0625 C 33.160156 -12.0625 33.648438 -12.113281 34.140625 -12.21875 C 34.304688 -12.21875 34.523438 -12.273438 34.796875 -12.390625 C 35.171875 -12.546875 35.441406 -12.625 35.609375 -12.625 Z M 35.609375 -12.625 "
           id="path70" />
      </g>
    </g>
  </g>
  <g
     fill="#112241"
     fill-opacity="1"
     id="g76">
    <g
       transform="translate(49.653673, 318.877263)"
       id="g75">
      <g
         id="g74">
        <path
           d="M 30.71875 20.296875 C 27.78125 21.265625 24.304688 21.75 20.296875 21.75 C 19.203125 21.75 18.0625 21.695312 16.875 21.59375 C 12.851562 21.375 9.644531 19.90625 7.25 17.1875 C 4.863281 14.53125 3.96875 11.378906 4.5625 7.734375 C 5 5.078125 5.921875 2.820312 7.328125 0.96875 C 8.742188 -0.875 10.210938 -2.472656 11.734375 -3.828125 C 15.046875 -6.765625 18.722656 -9.222656 22.765625 -11.203125 C 26.816406 -13.179688 30.90625 -15.039062 35.03125 -16.78125 L 37.15625 -17.6875 C 37.8125 -17.957031 38.453125 -18.226562 39.078125 -18.5 C 39.703125 -18.769531 40.3125 -19.066406 40.90625 -19.390625 L 41.71875 -19.796875 C 42.101562 -20.015625 42.507812 -20.242188 42.9375 -20.484375 C 43.375 -20.734375 43.753906 -21.019531 44.078125 -21.34375 C 44.140625 -21.40625 44.273438 -21.582031 44.484375 -21.875 C 44.703125 -22.175781 44.785156 -22.488281 44.734375 -22.8125 L 44.734375 -22.890625 L 44.484375 -23.21875 C 44.328125 -23.382812 44.054688 -23.46875 43.671875 -23.46875 C 43.566406 -23.46875 43.429688 -23.441406 43.265625 -23.390625 C 43.378906 -23.441406 43.488281 -23.476562 43.59375 -23.5 C 43.695312 -23.53125 43.804688 -23.546875 43.921875 -23.546875 C 44.191406 -23.597656 44.445312 -23.648438 44.6875 -23.703125 C 44.9375 -23.765625 45.171875 -23.796875 45.390625 -23.796875 C 46.148438 -23.796875 46.71875 -23.46875 47.09375 -22.8125 C 47.425781 -22.269531 47.441406 -21.78125 47.140625 -21.34375 C 46.835938 -20.914062 46.390625 -20.484375 45.796875 -20.046875 L 45.46875 -19.796875 C 44.050781 -18.660156 42.523438 -17.671875 40.890625 -16.828125 C 39.265625 -15.984375 37.613281 -15.15625 35.9375 -14.34375 C 35.394531 -14.070312 34.835938 -13.800781 34.265625 -13.53125 C 33.691406 -13.257812 33.109375 -12.988281 32.515625 -12.71875 C 28.984375 -10.863281 25.476562 -8.914062 22 -6.875 C 18.519531 -4.84375 15.394531 -2.390625 12.625 0.484375 C 10.1875 3.097656 8.640625 5.757812 7.984375 8.46875 C 7.222656 11.40625 7.710938 13.929688 9.453125 16.046875 C 11.191406 18.222656 13.769531 19.445312 17.1875 19.71875 C 18.4375 19.820312 19.660156 19.875 20.859375 19.875 C 27.378906 19.875 33.976562 18.273438 40.65625 15.078125 C 52.5 9.421875 63.609375 1.109375 73.984375 -9.859375 L 74.3125 -10.1875 C 74.53125 -10.457031 74.773438 -10.726562 75.046875 -11 C 75.316406 -11.269531 75.585938 -11.515625 75.859375 -11.734375 C 75.972656 -11.785156 76.109375 -11.863281 76.265625 -11.96875 C 76.429688 -12.082031 76.566406 -12.140625 76.671875 -12.140625 C 76.835938 -11.867188 76.835938 -11.582031 76.671875 -11.28125 C 76.515625 -10.988281 76.378906 -10.757812 76.265625 -10.59375 C 73.003906 -7.28125 69.90625 -4.25 66.96875 -1.5 C 64.039062 1.238281 60.972656 3.773438 57.765625 6.109375 C 50.597656 11.429688 43.101562 15.613281 35.28125 18.65625 C 33.8125 19.195312 32.289062 19.742188 30.71875 20.296875 Z M 26.734375 -18.984375 C 25.484375 -18.660156 24.203125 -18.5 22.890625 -18.5 C 21.484375 -18.5 20.070312 -18.6875 18.65625 -19.0625 C 16.050781 -19.71875 14.148438 -20.832031 12.953125 -22.40625 C 11.816406 -23.976562 11.410156 -25.90625 11.734375 -28.1875 C 12.222656 -31.5625 13.90625 -34.742188 16.78125 -37.734375 C 26.175781 -47.503906 36.988281 -53.664062 49.21875 -56.21875 C 49.382812 -56.21875 49.570312 -56.25 49.78125 -56.3125 C 49.945312 -56.363281 50.097656 -56.398438 50.234375 -56.421875 C 50.367188 -56.453125 50.519531 -56.492188 50.6875 -56.546875 C 51.769531 -56.660156 52.800781 -56.71875 53.78125 -56.71875 C 58.238281 -56.71875 61.710938 -55.410156 64.203125 -52.796875 C 66.972656 -49.921875 68.0625 -45.847656 67.46875 -40.578125 C 67.09375 -37.097656 66.332031 -34.351562 65.1875 -32.34375 C 64.75 -31.582031 64.234375 -31.203125 63.640625 -31.203125 C 63.316406 -31.203125 62.960938 -31.3125 62.578125 -31.53125 C 61.378906 -32.1875 61.023438 -33.164062 61.515625 -34.46875 C 61.679688 -34.957031 61.859375 -35.429688 62.046875 -35.890625 C 62.234375 -36.359375 62.410156 -36.832031 62.578125 -37.3125 C 62.960938 -38.289062 63.328125 -39.269531 63.671875 -40.25 C 64.023438 -41.226562 64.335938 -42.234375 64.609375 -43.265625 C 65.378906 -46.796875 64.835938 -49.59375 62.984375 -51.65625 C 61.191406 -53.664062 58.394531 -54.671875 54.59375 -54.671875 L 54.1875 -54.671875 C 51.6875 -54.671875 48.96875 -54.128906 46.03125 -53.046875 C 33.539062 -48.429688 24.0625 -41.285156 17.59375 -31.609375 L 17.03125 -30.875 C 16.539062 -30.175781 16.09375 -29.445312 15.6875 -28.6875 C 15.28125 -27.925781 15.078125 -27.109375 15.078125 -26.234375 C 15.078125 -25.367188 15.457031 -24.445312 16.21875 -23.46875 C 17.894531 -21.507812 20.285156 -20.53125 23.390625 -20.53125 C 23.984375 -20.53125 24.566406 -20.554688 25.140625 -20.609375 C 25.710938 -20.671875 26.242188 -20.726562 26.734375 -20.78125 C 28.253906 -21 29.773438 -21.226562 31.296875 -21.46875 C 32.816406 -21.71875 34.335938 -21.945312 35.859375 -22.15625 C 36.992188 -22.375 38.144531 -22.578125 39.3125 -22.765625 C 40.476562 -22.960938 41.632812 -23.171875 42.78125 -23.390625 C 42.726562 -23.328125 42.671875 -23.296875 42.609375 -23.296875 C 42.234375 -23.242188 41.894531 -23.175781 41.59375 -23.09375 C 41.300781 -23.019531 40.988281 -22.925781 40.65625 -22.8125 C 40.65625 -22.8125 40.367188 -22.71875 39.796875 -22.53125 C 39.234375 -22.34375 38.785156 -22.191406 38.453125 -22.078125 C 38.023438 -21.972656 37.59375 -21.851562 37.15625 -21.71875 C 36.71875 -21.582031 36.253906 -21.429688 35.765625 -21.265625 C 34.304688 -20.890625 32.816406 -20.507812 31.296875 -20.125 C 29.773438 -19.75 28.253906 -19.367188 26.734375 -18.984375 Z M 26.734375 -18.984375 "
           id="path73" />
      </g>
    </g>
  </g>
  <g
     fill="#112241"
     fill-opacity="1"
     id="g79">
    <g
       transform="translate(124.287982, 318.877263)"
       id="g78">
      <g
         id="g77">
        <path
           d="M 47.015625 -40.015625 C 47.179688 -39.847656 47.289062 -39.601562 47.34375 -39.28125 C 47.34375 -39.113281 47.300781 -38.960938 47.21875 -38.828125 C 47.132812 -38.691406 46.90625 -38.625 46.53125 -38.625 C 46.363281 -38.625 46.1875 -38.632812 46 -38.65625 C 45.8125 -38.6875 45.632812 -38.703125 45.46875 -38.703125 L 45.0625 -38.78125 C 42.070312 -39.164062 39.125 -39.410156 36.21875 -39.515625 C 33.3125 -39.628906 30.5 -39.6875 27.78125 -39.6875 L 23.625 -39.59375 C 22.925781 -39.59375 22.207031 -39.609375 21.46875 -39.640625 C 20.738281 -39.671875 20.019531 -39.6875 19.3125 -39.6875 C 18.445312 -39.6875 17.710938 -39.578125 17.109375 -39.359375 C 16.515625 -39.140625 16.050781 -38.675781 15.71875 -37.96875 L 14.265625 -35.203125 C 10.734375 -28.359375 7.28125 -21.320312 3.90625 -14.09375 C 0.539062 -6.875 -2.144531 0.703125 -4.15625 8.640625 C -5.726562 14.828125 -6.460938 20.503906 -6.359375 25.671875 C -6.359375 25.890625 -6.359375 26.101562 -6.359375 26.3125 C -6.359375 26.800781 -6.34375 27.265625 -6.3125 27.703125 C -6.289062 28.140625 -6.113281 28.546875 -5.78125 28.921875 C -5.289062 29.410156 -4.554688 29.710938 -3.578125 29.828125 C -3.367188 29.828125 -3.207031 29.90625 -3.09375 30.0625 C -2.875 30.28125 -2.738281 30.550781 -2.6875 30.875 C -2.632812 31.257812 -2.71875 31.519531 -2.9375 31.65625 C -3.15625 31.789062 -3.367188 31.859375 -3.578125 31.859375 L -3.671875 31.859375 C -6.054688 31.859375 -7.578125 30.71875 -8.234375 28.4375 C -8.609375 27.238281 -8.78125 26.082031 -8.75 24.96875 C -8.726562 23.851562 -8.664062 22.753906 -8.5625 21.671875 L -8.46875 21.015625 C -8.039062 16.128906 -7.226562 11.40625 -6.03125 6.84375 C -4.832031 2.28125 -3.40625 -2.144531 -1.75 -6.4375 C -0.09375 -10.726562 1.578125 -14.96875 3.265625 -19.15625 L 3.75 -20.203125 C 4.5625 -22.265625 5.457031 -24.285156 6.4375 -26.265625 C 7.414062 -28.253906 8.367188 -30.226562 9.296875 -32.1875 C 9.773438 -33.113281 10.242188 -34.035156 10.703125 -34.953125 C 11.171875 -35.878906 11.625 -36.804688 12.0625 -37.734375 C 12.164062 -38.003906 12.226562 -38.3125 12.25 -38.65625 C 12.28125 -39.007812 12.082031 -39.566406 11.65625 -40.328125 L 11.484375 -40.5 L 11.328125 -40.5 C 10.128906 -40.5 8.90625 -40.5 7.65625 -40.5 C 6.40625 -40.5 5.15625 -40.5 3.90625 -40.5 C 2.65625 -40.550781 1.390625 -40.578125 0.109375 -40.578125 C -1.160156 -40.578125 -2.445312 -40.578125 -3.75 -40.578125 C -7.769531 -40.578125 -11.328125 -40.523438 -14.421875 -40.421875 C -15.078125 -40.359375 -15.726562 -40.328125 -16.375 -40.328125 C -17.03125 -40.328125 -17.679688 -40.328125 -18.328125 -40.328125 C -20.015625 -40.273438 -21.710938 -40.207031 -23.421875 -40.125 C -25.140625 -40.050781 -26.785156 -39.820312 -28.359375 -39.4375 C -28.847656 -39.332031 -29.253906 -39.28125 -29.578125 -39.28125 C -29.960938 -39.28125 -30.289062 -39.359375 -30.5625 -39.515625 C -30.71875 -39.679688 -30.851562 -39.953125 -30.96875 -40.328125 C -31.070312 -40.816406 -30.828125 -41.0625 -30.234375 -41.0625 C -30.117188 -41.0625 -29.898438 -41.046875 -29.578125 -41.015625 C -29.253906 -40.992188 -29.09375 -40.984375 -29.09375 -40.984375 L -28.84375 -40.984375 C -25.800781 -41.253906 -22.800781 -41.429688 -19.84375 -41.515625 C -16.882812 -41.597656 -14.234375 -41.640625 -11.890625 -41.640625 C -10.640625 -41.640625 -9.375 -41.640625 -8.09375 -41.640625 C -6.820312 -41.640625 -5.5625 -41.640625 -4.3125 -41.640625 C -3.0625 -41.585938 -1.796875 -41.5625 -0.515625 -41.5625 C 0.753906 -41.5625 2.015625 -41.5625 3.265625 -41.5625 C 4.453125 -41.5625 5.644531 -41.5625 6.84375 -41.5625 C 8.039062 -41.5625 9.238281 -41.585938 10.4375 -41.640625 C 11.570312 -41.691406 12.585938 -41.894531 13.484375 -42.25 C 14.378906 -42.601562 15.097656 -43.320312 15.640625 -44.40625 C 17.921875 -49.1875 21.070312 -53.75 25.09375 -58.09375 C 25.144531 -58.207031 25.253906 -58.34375 25.421875 -58.5 C 25.585938 -58.71875 25.765625 -58.9375 25.953125 -59.15625 C 26.140625 -59.375 26.367188 -59.484375 26.640625 -59.484375 C 26.910156 -59.484375 27.238281 -59.320312 27.625 -59 C 28.113281 -58.5625 28.300781 -58.125 28.1875 -57.6875 C 28.082031 -57.25 27.867188 -56.789062 27.546875 -56.3125 C 27.109375 -55.707031 26.695312 -55.132812 26.3125 -54.59375 C 25.9375 -54.050781 25.554688 -53.535156 25.171875 -53.046875 C 23.984375 -51.421875 22.789062 -49.722656 21.59375 -47.953125 C 20.394531 -46.191406 19.28125 -44.25 18.25 -42.125 L 18.015625 -41.71875 L 25.265625 -41.71875 C 31.015625 -41.71875 37.53125 -41.285156 44.8125 -40.421875 C 44.925781 -40.421875 45.117188 -40.421875 45.390625 -40.421875 C 45.660156 -40.421875 45.941406 -40.390625 46.234375 -40.328125 C 46.535156 -40.273438 46.796875 -40.171875 47.015625 -40.015625 Z M 47.015625 -40.015625 "
           id="path76" />
      </g>
    </g>
  </g>
  <g
     fill="#112241"
     fill-opacity="1"
     id="g82">
    <g
       transform="translate(138.302285, 318.877263)"
       id="g81">
      <g
         id="g80">
        <path
           d="M 27.875 -12.0625 C 28.25 -12.28125 28.679688 -12.390625 29.171875 -12.390625 C 29.222656 -12.117188 29.113281 -11.859375 28.84375 -11.609375 C 28.570312 -11.367188 28.328125 -11.140625 28.109375 -10.921875 L 27.625 -10.515625 C 25.664062 -9.046875 23.679688 -7.617188 21.671875 -6.234375 C 19.660156 -4.847656 17.5 -3.707031 15.1875 -2.8125 C 12.882812 -1.914062 10.320312 -1.46875 7.5 -1.46875 L 7.171875 -1.46875 C 4.398438 -1.46875 2.253906 -2.3125 0.734375 -4 C -0.617188 -5.570312 -1.082031 -7.472656 -0.65625 -9.703125 C 0.863281 -17.140625 5.703125 -21.945312 13.859375 -24.125 C 14.285156 -24.226562 14.71875 -24.28125 15.15625 -24.28125 C 16.457031 -24.28125 17.515625 -23.710938 18.328125 -22.578125 C 18.984375 -21.703125 19.1875 -20.953125 18.9375 -20.328125 C 18.695312 -19.703125 18.332031 -19.066406 17.84375 -18.421875 C 15.664062 -15.753906 12.082031 -14.039062 7.09375 -13.28125 C 5.300781 -13.007812 4.128906 -12.300781 3.578125 -11.15625 C 3.035156 -10.019531 2.628906 -8.800781 2.359375 -7.5 L 2.28125 -6.921875 C 2.113281 -6.160156 2.25 -5.457031 2.6875 -4.8125 C 3.28125 -3.988281 4.234375 -3.390625 5.546875 -3.015625 C 6.515625 -2.742188 7.546875 -2.609375 8.640625 -2.609375 C 9.503906 -2.609375 10.34375 -2.6875 11.15625 -2.84375 C 11.976562 -3.007812 12.847656 -3.226562 13.765625 -3.5 C 16.648438 -4.3125 19.53125 -5.695312 22.40625 -7.65625 C 23.65625 -8.46875 24.90625 -9.445312 26.15625 -10.59375 C 26.257812 -10.644531 26.363281 -10.722656 26.46875 -10.828125 C 26.582031 -10.941406 26.695312 -11.050781 26.8125 -11.15625 C 26.96875 -11.320312 27.128906 -11.472656 27.296875 -11.609375 C 27.460938 -11.742188 27.65625 -11.894531 27.875 -12.0625 Z M 8.0625 -16.21875 L 7.5 -15.5625 L 8.390625 -15.8125 C 10.296875 -16.238281 11.910156 -16.804688 13.234375 -17.515625 C 14.566406 -18.222656 15.722656 -19.363281 16.703125 -20.9375 L 17.03125 -21.59375 L 16.296875 -21.34375 C 14.722656 -20.851562 13.253906 -20.242188 11.890625 -19.515625 C 10.535156 -18.785156 9.257812 -17.6875 8.0625 -16.21875 Z M 8.0625 -16.21875 "
           id="path79" />
      </g>
    </g>
  </g>
  <g
     fill="#112241"
     fill-opacity="1"
     id="g85">
    <g
       transform="translate(166.08646, 318.877263)"
       id="g84">
      <g
         id="g83">
        <path
           d="M 35.609375 -12.625 C 35.929688 -12.570312 36.117188 -12.492188 36.171875 -12.390625 C 36.234375 -12.222656 36.128906 -12.03125 35.859375 -11.8125 C 34.878906 -11.269531 33.765625 -11 32.515625 -11 C 30.992188 -11 29.414062 -11.40625 27.78125 -12.21875 C 26.15625 -13.03125 24.769531 -14.09375 23.625 -15.40625 C 22.59375 -16.539062 21.804688 -17.378906 21.265625 -17.921875 C 20.722656 -18.460938 20.15625 -18.734375 19.5625 -18.734375 C 19.175781 -18.734375 18.738281 -18.582031 18.25 -18.28125 C 17.757812 -17.988281 17.160156 -17.597656 16.453125 -17.109375 C 13.847656 -15.265625 11.40625 -13.238281 9.125 -11.03125 C 6.84375 -8.832031 4.644531 -6.625 2.53125 -4.40625 L 0.484375 -2.359375 C 0.429688 -2.253906 0.296875 -2.066406 0.078125 -1.796875 C -0.078125 -1.578125 -0.25 -1.367188 -0.4375 -1.171875 C -0.632812 -0.984375 -0.867188 -0.890625 -1.140625 -0.890625 C -1.460938 -0.890625 -1.867188 -1.054688 -2.359375 -1.390625 C -2.960938 -1.816406 -3.234375 -2.257812 -3.171875 -2.71875 C -3.117188 -3.1875 -3.039062 -3.640625 -2.9375 -4.078125 L -2.765625 -4.40625 C -0.597656 -11.300781 2.0625 -17.382812 5.21875 -22.65625 L 5.375 -22.8125 C 5.539062 -23.132812 5.757812 -23.457031 6.03125 -23.78125 C 6.300781 -24.113281 6.597656 -24.28125 6.921875 -24.28125 C 7.140625 -24.28125 7.382812 -24.195312 7.65625 -24.03125 C 8.039062 -23.757812 8.285156 -23.488281 8.390625 -23.21875 C 8.503906 -22.945312 8.503906 -22.660156 8.390625 -22.359375 C 8.285156 -22.066406 8.148438 -21.785156 7.984375 -21.515625 C 7.878906 -21.179688 7.796875 -20.960938 7.734375 -20.859375 L 7.09375 -19.3125 C 6.757812 -18.5 6.414062 -17.671875 6.0625 -16.828125 C 5.71875 -15.984375 5.351562 -15.15625 4.96875 -14.34375 C 4.75 -13.800781 4.503906 -13.253906 4.234375 -12.703125 C 3.960938 -12.160156 3.71875 -11.617188 3.5 -11.078125 C 3.445312 -11.078125 3.335938 -10.859375 3.171875 -10.421875 C 3.015625 -9.992188 2.867188 -9.535156 2.734375 -9.046875 C 2.597656 -8.554688 2.582031 -8.226562 2.6875 -8.0625 L 2.859375 -7.984375 L 3.015625 -7.90625 C 3.554688 -8.007812 4.015625 -8.222656 4.390625 -8.546875 C 4.773438 -8.878906 5.128906 -9.234375 5.453125 -9.609375 C 5.566406 -9.722656 5.691406 -9.847656 5.828125 -9.984375 C 5.960938 -10.117188 6.113281 -10.269531 6.28125 -10.4375 L 9.703125 -13.28125 C 10.785156 -14.207031 11.867188 -15.117188 12.953125 -16.015625 C 14.035156 -16.910156 15.125 -17.789062 16.21875 -18.65625 C 17.6875 -19.75 18.800781 -20.296875 19.5625 -20.296875 C 20.257812 -20.296875 20.945312 -19.984375 21.625 -19.359375 C 22.3125 -18.734375 23.171875 -17.796875 24.203125 -16.546875 C 25.335938 -15.128906 26.648438 -14.023438 28.140625 -13.234375 C 29.640625 -12.453125 31.148438 -12.0625 32.671875 -12.0625 C 33.160156 -12.0625 33.648438 -12.113281 34.140625 -12.21875 C 34.304688 -12.21875 34.523438 -12.273438 34.796875 -12.390625 C 35.171875 -12.546875 35.441406 -12.625 35.609375 -12.625 Z M 35.609375 -12.625 "
           id="path82" />
      </g>
    </g>
  </g>
  <g
     fill="#112241"
     fill-opacity="1"
     id="g88">
    <g
       transform="translate(200.551861, 318.877263)"
       id="g87">
      <g
         id="g86">
        <path
           d="M 44.890625 -13.6875 C 45.222656 -13.46875 45.414062 -13.25 45.46875 -13.03125 C 45.519531 -12.820312 45.476562 -12.617188 45.34375 -12.421875 C 45.207031 -12.234375 45.054688 -12.054688 44.890625 -11.890625 C 44.679688 -11.679688 44.546875 -11.519531 44.484375 -11.40625 C 39.984375 -4.457031 33.601562 1.351562 25.34375 6.03125 C 24.46875 6.519531 23.351562 6.765625 22 6.765625 L 21.84375 6.765625 C 20.476562 6.765625 19.441406 6.410156 18.734375 5.703125 C 17.972656 4.992188 17.59375 3.9375 17.59375 2.53125 C 17.59375 1.28125 17.835938 0.15625 18.328125 -0.84375 C 18.816406 -1.851562 19.332031 -2.820312 19.875 -3.75 L 20.703125 -5.046875 C 20.859375 -5.378906 21.03125 -5.707031 21.21875 -6.03125 C 21.414062 -6.351562 21.59375 -6.675781 21.75 -7 L 21.84375 -7.25 C 21.945312 -7.46875 22.039062 -7.738281 22.125 -8.0625 C 22.207031 -8.394531 22.054688 -8.75 21.671875 -9.125 C 21.234375 -9.5625 20.71875 -9.78125 20.125 -9.78125 C 19.90625 -9.78125 19.660156 -9.722656 19.390625 -9.609375 C 18.304688 -9.398438 17.234375 -9.144531 16.171875 -8.84375 C 15.109375 -8.539062 14.035156 -8.226562 12.953125 -7.90625 C 11.597656 -7.414062 10.28125 -6.84375 9 -6.1875 C 7.726562 -5.539062 6.492188 -4.863281 5.296875 -4.15625 C 4.753906 -3.882812 4.222656 -3.597656 3.703125 -3.296875 C 3.191406 -3.003906 2.664062 -2.71875 2.125 -2.4375 L 1.796875 -2.28125 C 1.578125 -2.113281 1.332031 -1.976562 1.0625 -1.875 C 0.789062 -1.769531 0.519531 -1.71875 0.25 -1.71875 C -0.238281 -1.71875 -0.753906 -1.929688 -1.296875 -2.359375 C -1.898438 -2.898438 -2.203125 -3.398438 -2.203125 -3.859375 C -2.203125 -4.328125 -2.144531 -4.804688 -2.03125 -5.296875 L -1.953125 -5.625 C -0.972656 -10.070312 0.679688 -14.035156 3.015625 -17.515625 L 3.171875 -17.765625 C 3.285156 -17.984375 3.421875 -18.1875 3.578125 -18.375 C 3.742188 -18.5625 3.9375 -18.65625 4.15625 -18.65625 C 4.320312 -18.65625 4.484375 -18.601562 4.640625 -18.5 C 5.023438 -18.332031 5.269531 -18.113281 5.375 -17.84375 C 5.644531 -17.300781 5.65625 -16.660156 5.40625 -15.921875 C 5.164062 -15.191406 4.910156 -14.582031 4.640625 -14.09375 C 4.484375 -13.769531 4.40625 -13.550781 4.40625 -13.4375 L 1.546875 -6.03125 C 1.492188 -5.914062 1.4375 -5.738281 1.375 -5.5 C 1.320312 -5.257812 1.40625 -5.054688 1.625 -4.890625 C 1.84375 -4.722656 2.113281 -4.640625 2.4375 -4.640625 C 2.769531 -4.640625 3.148438 -4.707031 3.578125 -4.84375 C 4.015625 -4.976562 4.316406 -5.101562 4.484375 -5.21875 C 4.753906 -5.320312 5 -5.441406 5.21875 -5.578125 C 5.4375 -5.710938 5.648438 -5.863281 5.859375 -6.03125 C 6.140625 -6.25 6.398438 -6.4375 6.640625 -6.59375 C 6.878906 -6.757812 7.140625 -6.894531 7.421875 -7 C 8.285156 -7.4375 9.164062 -7.84375 10.0625 -8.21875 C 10.957031 -8.601562 11.867188 -8.988281 12.796875 -9.375 C 15.023438 -10.289062 17.113281 -10.882812 19.0625 -11.15625 C 19.394531 -11.21875 19.695312 -11.25 19.96875 -11.25 C 21.375 -11.25 22.484375 -10.785156 23.296875 -9.859375 C 24.222656 -8.828125 24.46875 -7.550781 24.03125 -6.03125 C 23.820312 -5.101562 23.539062 -4.203125 23.1875 -3.328125 C 22.832031 -2.460938 22.488281 -1.597656 22.15625 -0.734375 C 21.945312 -0.242188 21.742188 0.242188 21.546875 0.734375 C 21.359375 1.222656 21.15625 1.710938 20.9375 2.203125 L 20.859375 2.53125 C 20.691406 2.800781 20.582031 3.125 20.53125 3.5 C 20.476562 3.882812 20.613281 4.238281 20.9375 4.5625 C 21.375 5 21.863281 5.21875 22.40625 5.21875 C 22.625 5.21875 22.84375 5.1875 23.0625 5.125 C 23.28125 5.070312 23.5 5.019531 23.71875 4.96875 C 26.269531 4.207031 28.492188 3.078125 30.390625 1.578125 C 32.296875 0.0859375 34.007812 -1.414062 35.53125 -2.9375 C 36.78125 -4.1875 38.125 -5.582031 39.5625 -7.125 C 41 -8.675781 42.207031 -10.429688 43.1875 -12.390625 L 43.34375 -12.546875 C 43.457031 -12.816406 43.609375 -13.101562 43.796875 -13.40625 C 43.984375 -13.707031 44.210938 -13.859375 44.484375 -13.859375 C 44.597656 -13.859375 44.734375 -13.800781 44.890625 -13.6875 Z M 44.890625 -13.6875 "
           id="path85" />
      </g>
    </g>
  </g>
  <g
     fill="#112241"
     fill-opacity="1"
     id="g91">
    <g
       transform="translate(243.653995, 318.877263)"
       id="g90">
      <g
         id="g89">
        <path
           d="M 28.359375 -12.953125 C 28.515625 -12.847656 28.59375 -12.601562 28.59375 -12.21875 C 28.59375 -11.84375 28.363281 -11.488281 27.90625 -11.15625 C 27.445312 -10.832031 27.082031 -10.5625 26.8125 -10.34375 C 25.882812 -9.53125 24.929688 -8.742188 23.953125 -7.984375 C 22.972656 -7.222656 21.992188 -6.488281 21.015625 -5.78125 C 18.953125 -4.3125 16.765625 -3.003906 14.453125 -1.859375 C 12.148438 -0.722656 9.695312 0.191406 7.09375 0.890625 C 6 1.160156 4.851562 1.296875 3.65625 1.296875 C 2.46875 1.296875 1.273438 0.753906 0.078125 -0.328125 C -1.117188 -1.359375 -1.785156 -2.457031 -1.921875 -3.625 C -2.054688 -4.789062 -1.957031 -5.914062 -1.625 -7 C -0.644531 -10.695312 0.738281 -14.144531 2.53125 -17.34375 C 4.320312 -20.550781 6.46875 -23.515625 8.96875 -26.234375 C 9.238281 -26.617188 9.578125 -26.972656 9.984375 -27.296875 C 10.390625 -27.617188 10.945312 -27.507812 11.65625 -26.96875 C 12.414062 -26.375 12.660156 -25.84375 12.390625 -25.375 C 12.117188 -24.914062 11.875 -24.5 11.65625 -24.125 C 9.914062 -21.351562 8.226562 -18.582031 6.59375 -15.8125 C 4.96875 -13.039062 3.53125 -10.132812 2.28125 -7.09375 C 2.0625 -6.550781 1.789062 -5.976562 1.46875 -5.375 C 1.144531 -4.78125 0.984375 -4.171875 0.984375 -3.546875 C 0.984375 -2.921875 1.28125 -2.3125 1.875 -1.71875 C 2.851562 -0.675781 3.9375 -0.238281 5.125 -0.40625 C 6.320312 -0.570312 7.410156 -0.765625 8.390625 -0.984375 C 10.515625 -1.472656 12.472656 -2.203125 14.265625 -3.171875 C 16.054688 -4.148438 17.765625 -5.238281 19.390625 -6.4375 C 19.609375 -6.601562 20.148438 -7.066406 21.015625 -7.828125 C 21.890625 -8.585938 22.84375 -9.398438 23.875 -10.265625 C 24.90625 -11.140625 25.851562 -11.847656 26.71875 -12.390625 C 27.59375 -12.929688 28.140625 -13.117188 28.359375 -12.953125 Z M 15.234375 -30.796875 C 13.984375 -30.691406 13.195312 -31.265625 12.875 -32.515625 C 12.601562 -33.597656 12.710938 -34.367188 13.203125 -34.828125 C 13.691406 -35.296875 14.394531 -35.554688 15.3125 -35.609375 C 15.96875 -35.660156 16.539062 -35.523438 17.03125 -35.203125 C 17.519531 -34.878906 17.875 -34.304688 18.09375 -33.484375 C 18.144531 -32.566406 17.898438 -31.914062 17.359375 -31.53125 C 16.816406 -31.15625 16.109375 -30.910156 15.234375 -30.796875 Z M 15.234375 -30.796875 "
           id="path88" />
      </g>
    </g>
  </g>
  <g
     fill="#112241"
     fill-opacity="1"
     id="g94">
    <g
       transform="translate(270.541912, 318.877263)"
       id="g93">
      <g
         id="g92">
        <path
           d="M 47.015625 -40.015625 C 47.179688 -39.847656 47.289062 -39.601562 47.34375 -39.28125 C 47.34375 -39.113281 47.300781 -38.960938 47.21875 -38.828125 C 47.132812 -38.691406 46.90625 -38.625 46.53125 -38.625 C 46.363281 -38.625 46.1875 -38.632812 46 -38.65625 C 45.8125 -38.6875 45.632812 -38.703125 45.46875 -38.703125 L 45.0625 -38.78125 C 42.070312 -39.164062 39.125 -39.410156 36.21875 -39.515625 C 33.3125 -39.628906 30.5 -39.6875 27.78125 -39.6875 L 23.625 -39.59375 C 22.925781 -39.59375 22.207031 -39.609375 21.46875 -39.640625 C 20.738281 -39.671875 20.019531 -39.6875 19.3125 -39.6875 C 18.445312 -39.6875 17.710938 -39.578125 17.109375 -39.359375 C 16.515625 -39.140625 16.050781 -38.675781 15.71875 -37.96875 L 14.265625 -35.203125 C 10.734375 -28.359375 7.28125 -21.320312 3.90625 -14.09375 C 0.539062 -6.875 -2.144531 0.703125 -4.15625 8.640625 C -5.726562 14.828125 -6.460938 20.503906 -6.359375 25.671875 C -6.359375 25.890625 -6.359375 26.101562 -6.359375 26.3125 C -6.359375 26.800781 -6.34375 27.265625 -6.3125 27.703125 C -6.289062 28.140625 -6.113281 28.546875 -5.78125 28.921875 C -5.289062 29.410156 -4.554688 29.710938 -3.578125 29.828125 C -3.367188 29.828125 -3.207031 29.90625 -3.09375 30.0625 C -2.875 30.28125 -2.738281 30.550781 -2.6875 30.875 C -2.632812 31.257812 -2.71875 31.519531 -2.9375 31.65625 C -3.15625 31.789062 -3.367188 31.859375 -3.578125 31.859375 L -3.671875 31.859375 C -6.054688 31.859375 -7.578125 30.71875 -8.234375 28.4375 C -8.609375 27.238281 -8.78125 26.082031 -8.75 24.96875 C -8.726562 23.851562 -8.664062 22.753906 -8.5625 21.671875 L -8.46875 21.015625 C -8.039062 16.128906 -7.226562 11.40625 -6.03125 6.84375 C -4.832031 2.28125 -3.40625 -2.144531 -1.75 -6.4375 C -0.09375 -10.726562 1.578125 -14.96875 3.265625 -19.15625 L 3.75 -20.203125 C 4.5625 -22.265625 5.457031 -24.285156 6.4375 -26.265625 C 7.414062 -28.253906 8.367188 -30.226562 9.296875 -32.1875 C 9.773438 -33.113281 10.242188 -34.035156 10.703125 -34.953125 C 11.171875 -35.878906 11.625 -36.804688 12.0625 -37.734375 C 12.164062 -38.003906 12.226562 -38.3125 12.25 -38.65625 C 12.28125 -39.007812 12.082031 -39.566406 11.65625 -40.328125 L 11.484375 -40.5 L 11.328125 -40.5 C 10.128906 -40.5 8.90625 -40.5 7.65625 -40.5 C 6.40625 -40.5 5.15625 -40.5 3.90625 -40.5 C 2.65625 -40.550781 1.390625 -40.578125 0.109375 -40.578125 C -1.160156 -40.578125 -2.445312 -40.578125 -3.75 -40.578125 C -7.769531 -40.578125 -11.328125 -40.523438 -14.421875 -40.421875 C -15.078125 -40.359375 -15.726562 -40.328125 -16.375 -40.328125 C -17.03125 -40.328125 -17.679688 -40.328125 -18.328125 -40.328125 C -20.015625 -40.273438 -21.710938 -40.207031 -23.421875 -40.125 C -25.140625 -40.050781 -26.785156 -39.820312 -28.359375 -39.4375 C -28.847656 -39.332031 -29.253906 -39.28125 -29.578125 -39.28125 C -29.960938 -39.28125 -30.289062 -39.359375 -30.5625 -39.515625 C -30.71875 -39.679688 -30.851562 -39.953125 -30.96875 -40.328125 C -31.070312 -40.816406 -30.828125 -41.0625 -30.234375 -41.0625 C -30.117188 -41.0625 -29.898438 -41.046875 -29.578125 -41.015625 C -29.253906 -40.992188 -29.09375 -40.984375 -29.09375 -40.984375 L -28.84375 -40.984375 C -25.800781 -41.253906 -22.800781 -41.429688 -19.84375 -41.515625 C -16.882812 -41.597656 -14.234375 -41.640625 -11.890625 -41.640625 C -10.640625 -41.640625 -9.375 -41.640625 -8.09375 -41.640625 C -6.820312 -41.640625 -5.5625 -41.640625 -4.3125 -41.640625 C -3.0625 -41.585938 -1.796875 -41.5625 -0.515625 -41.5625 C 0.753906 -41.5625 2.015625 -41.5625 3.265625 -41.5625 C 4.453125 -41.5625 5.644531 -41.5625 6.84375 -41.5625 C 8.039062 -41.5625 9.238281 -41.585938 10.4375 -41.640625 C 11.570312 -41.691406 12.585938 -41.894531 13.484375 -42.25 C 14.378906 -42.601562 15.097656 -43.320312 15.640625 -44.40625 C 17.921875 -49.1875 21.070312 -53.75 25.09375 -58.09375 C 25.144531 -58.207031 25.253906 -58.34375 25.421875 -58.5 C 25.585938 -58.71875 25.765625 -58.9375 25.953125 -59.15625 C 26.140625 -59.375 26.367188 -59.484375 26.640625 -59.484375 C 26.910156 -59.484375 27.238281 -59.320312 27.625 -59 C 28.113281 -58.5625 28.300781 -58.125 28.1875 -57.6875 C 28.082031 -57.25 27.867188 -56.789062 27.546875 -56.3125 C 27.109375 -55.707031 26.695312 -55.132812 26.3125 -54.59375 C 25.9375 -54.050781 25.554688 -53.535156 25.171875 -53.046875 C 23.984375 -51.421875 22.789062 -49.722656 21.59375 -47.953125 C 20.394531 -46.191406 19.28125 -44.25 18.25 -42.125 L 18.015625 -41.71875 L 25.265625 -41.71875 C 31.015625 -41.71875 37.53125 -41.285156 44.8125 -40.421875 C 44.925781 -40.421875 45.117188 -40.421875 45.390625 -40.421875 C 45.660156 -40.421875 45.941406 -40.390625 46.234375 -40.328125 C 46.535156 -40.273438 46.796875 -40.171875 47.015625 -40.015625 Z M 47.015625 -40.015625 "
           id="path91" />
      </g>
    </g>
  </g>
  <g
     fill="#112241"
     fill-opacity="1"
     id="g97">
    <g
       transform="translate(284.556214, 318.877263)"
       id="g96">
      <g
         id="g95">
        <path
           d="M 43.1875 -13.6875 C 43.289062 -13.582031 43.25 -13.378906 43.0625 -13.078125 C 42.875 -12.773438 42.695312 -12.546875 42.53125 -12.390625 C 41.988281 -11.953125 41.378906 -11.554688 40.703125 -11.203125 C 40.023438 -10.847656 39.332031 -10.507812 38.625 -10.1875 C 38.300781 -10.019531 37.972656 -9.84375 37.640625 -9.65625 C 37.316406 -9.46875 37.019531 -9.289062 36.75 -9.125 C 35.664062 -8.53125 34.59375 -7.929688 33.53125 -7.328125 C 32.46875 -6.734375 31.421875 -6.109375 30.390625 -5.453125 C 25.878906 -2.679688 21.941406 0.0859375 18.578125 2.859375 C 17.378906 3.890625 16.457031 5.082031 15.8125 6.4375 L 13.859375 10.59375 C 12.117188 14.175781 10.347656 17.8125 8.546875 21.5 C 6.753906 25.195312 4.800781 28.785156 2.6875 32.265625 C 1.820312 33.628906 0.78125 35.140625 -0.4375 36.796875 C -1.664062 38.453125 -3.148438 39.984375 -4.890625 41.390625 C -5.265625 41.660156 -5.679688 41.945312 -6.140625 42.25 C -6.609375 42.550781 -7.140625 42.753906 -7.734375 42.859375 C -8.222656 43.023438 -8.632812 43.109375 -8.96875 43.109375 C -9.78125 43.109375 -10.484375 42.804688 -11.078125 42.203125 C -11.566406 41.773438 -11.835938 41.328125 -11.890625 40.859375 C -11.953125 40.398438 -11.953125 39.875 -11.890625 39.28125 C -11.734375 38.03125 -11.421875 36.875 -10.953125 35.8125 C -10.492188 34.75 -10.019531 33.726562 -9.53125 32.75 C -5.351562 24.820312 0.726562 17.140625 8.71875 9.703125 C 11.269531 7.304688 13.253906 4.585938 14.671875 1.546875 C 15.585938 -0.347656 16.535156 -2.242188 17.515625 -4.140625 C 18.492188 -6.046875 19.472656 -7.953125 20.453125 -9.859375 L 23.140625 -15.234375 L 22.40625 -15 C 20.613281 -14.289062 19 -13.40625 17.5625 -12.34375 C 16.125 -11.28125 14.75 -10.179688 13.4375 -9.046875 C 12.894531 -8.554688 12.335938 -8.078125 11.765625 -7.609375 C 11.203125 -7.148438 10.617188 -6.707031 10.015625 -6.28125 L 8.71875 -5.296875 C 7.632812 -4.429688 6.492188 -3.601562 5.296875 -2.8125 C 4.097656 -2.019531 2.796875 -1.378906 1.390625 -0.890625 C 0.785156 -0.734375 0.238281 -0.65625 -0.25 -0.65625 C -1.0625 -0.65625 -1.847656 -0.953125 -2.609375 -1.546875 C -3.859375 -2.472656 -4.398438 -3.75 -4.234375 -5.375 C -3.910156 -7.875 -3.066406 -9.992188 -1.703125 -11.734375 C -0.347656 -13.472656 1.140625 -15.046875 2.765625 -16.453125 C 3.035156 -16.734375 3.363281 -16.875 3.75 -16.875 C 4.125 -16.875 4.503906 -16.707031 4.890625 -16.375 C 5.265625 -16 5.4375 -15.660156 5.40625 -15.359375 C 5.382812 -15.054688 5.238281 -14.71875 4.96875 -14.34375 C 4.695312 -13.957031 4.4375 -13.570312 4.1875 -13.1875 C 3.945312 -12.8125 3.691406 -12.4375 3.421875 -12.0625 C 3.046875 -11.519531 2.664062 -10.988281 2.28125 -10.46875 C 1.90625 -9.957031 1.550781 -9.425781 1.21875 -8.875 C 1.113281 -8.71875 0.992188 -8.539062 0.859375 -8.34375 C 0.722656 -8.15625 0.570312 -7.984375 0.40625 -7.828125 C 0.0820312 -7.390625 -0.238281 -6.925781 -0.5625 -6.4375 C -0.894531 -5.945312 -1.113281 -5.40625 -1.21875 -4.8125 C -1.382812 -4.101562 -1.304688 -3.554688 -0.984375 -3.171875 C -0.597656 -2.796875 -0.0234375 -2.609375 0.734375 -2.609375 C 1.109375 -2.609375 1.515625 -2.648438 1.953125 -2.734375 C 2.390625 -2.816406 2.742188 -2.910156 3.015625 -3.015625 C 3.671875 -3.285156 4.269531 -3.597656 4.8125 -3.953125 C 5.351562 -4.304688 5.894531 -4.671875 6.4375 -5.046875 C 7.6875 -5.972656 8.9375 -6.910156 10.1875 -7.859375 C 11.4375 -8.816406 12.660156 -9.753906 13.859375 -10.671875 C 14.828125 -11.429688 15.8125 -12.203125 16.8125 -12.984375 C 17.820312 -13.773438 18.816406 -14.523438 19.796875 -15.234375 C 19.960938 -15.347656 20.15625 -15.507812 20.375 -15.71875 C 20.695312 -16 21.035156 -16.257812 21.390625 -16.5 C 21.742188 -16.75 22.140625 -16.875 22.578125 -16.875 C 23.003906 -16.875 23.488281 -16.65625 24.03125 -16.21875 C 24.632812 -15.675781 24.878906 -15.101562 24.765625 -14.5 C 24.660156 -13.90625 24.472656 -13.3125 24.203125 -12.71875 C 24.035156 -12.382812 23.925781 -12.140625 23.875 -11.984375 C 23.65625 -11.328125 23.4375 -10.6875 23.21875 -10.0625 C 23 -9.4375 22.753906 -8.828125 22.484375 -8.234375 C 22.109375 -7.203125 21.726562 -6.15625 21.34375 -5.09375 C 20.96875 -4.03125 20.617188 -2.929688 20.296875 -1.796875 L 20.78125 -1.546875 C 20.832031 -1.765625 21.0625 -1.984375 21.46875 -2.203125 C 21.875 -2.421875 22.242188 -2.582031 22.578125 -2.6875 C 22.953125 -2.90625 23.191406 -3.039062 23.296875 -3.09375 L 26.078125 -4.8125 C 28.796875 -6.550781 31.566406 -8.148438 34.390625 -9.609375 C 35.859375 -10.367188 37.296875 -11.078125 38.703125 -11.734375 C 38.867188 -11.835938 39.054688 -11.941406 39.265625 -12.046875 C 39.484375 -12.160156 39.675781 -12.273438 39.84375 -12.390625 C 40.382812 -12.609375 40.898438 -12.835938 41.390625 -13.078125 C 41.878906 -13.316406 42.394531 -13.519531 42.9375 -13.6875 C 43.050781 -13.6875 43.132812 -13.6875 43.1875 -13.6875 Z M -6.84375 39.6875 C -3.257812 35.988281 -0.300781 31.832031 2.03125 27.21875 C 4.375 22.601562 6.578125 17.957031 8.640625 13.28125 L 8.234375 12.796875 C 3.015625 17.191406 -1.519531 22.078125 -5.375 27.453125 C -6.351562 28.867188 -7.300781 30.347656 -8.21875 31.890625 C -9.144531 33.441406 -9.851562 35.171875 -10.34375 37.078125 C -10.40625 37.234375 -10.460938 37.453125 -10.515625 37.734375 C -10.671875 38.210938 -10.773438 38.722656 -10.828125 39.265625 C -10.890625 39.816406 -10.617188 40.335938 -10.015625 40.828125 C -9.640625 41.097656 -9.257812 41.234375 -8.875 41.234375 C -8.5 41.234375 -8.175781 41.109375 -7.90625 40.859375 C -7.632812 40.617188 -7.390625 40.363281 -7.171875 40.09375 C -7.003906 39.875 -6.894531 39.738281 -6.84375 39.6875 Z M -6.84375 39.6875 "
           id="path94" />
      </g>
    </g>
  </g>
</svg>
