<svg xmlns="http://www.w3.org/2000/svg" xmlns:xlink="http://www.w3.org/1999/xlink" width="500" zoomAndPan="magnify" viewBox="0 0 375 374.999991" height="500" preserveAspectRatio="xMidYMid meet" version="1.0"><defs><g/><clipPath id="0a07005f9f"><path d="M 202.597656 18.84375 L 252.351562 18.84375 L 252.351562 98.292969 L 202.597656 98.292969 Z M 202.597656 18.84375 " clip-rule="nonzero"/></clipPath><clipPath id="cf9d73a79b"><path d="M 339 12 L 366.667969 12 L 366.667969 33 L 339 33 Z M 339 12 " clip-rule="nonzero"/></clipPath><clipPath id="97f4195603"><path d="M 323.332031 9.144531 L 358 9.144531 L 358 38 L 323.332031 38 Z M 323.332031 9.144531 " clip-rule="nonzero"/></clipPath><clipPath id="887e982dea"><path d="M 112.5 131 L 262.5 131 L 262.5 244 L 112.5 244 Z M 112.5 131 " clip-rule="nonzero"/></clipPath><clipPath id="76a5f2cd93"><path d="M 134.054688 92.105469 L 168.625 92.105469 L 168.625 135.542969 L 134.054688 135.542969 Z M 134.054688 92.105469 " clip-rule="nonzero"/></clipPath><clipPath id="a0b7e8e1ef"><path d="M 97 87.902344 L 126 87.902344 L 126 121 L 97 121 Z M 97 87.902344 " clip-rule="nonzero"/></clipPath><clipPath id="fb54de61dc"><path d="M 86.875 161.417969 L 98.359375 161.417969 L 98.359375 173.089844 L 86.875 173.089844 Z M 86.875 161.417969 " clip-rule="nonzero"/></clipPath></defs><rect x="-37.5" width="450" fill="#ffffff" y="-37.499999" height="449.999989" fill-opacity="1"/><rect x="-37.5" width="450" fill="#ffffff" y="-37.499999" height="449.999989" fill-opacity="1"/><g clip-path="url(#0a07005f9f)"><path fill="#dfac40" d="M 202.597656 83.453125 L 219.992188 83.453125 L 219.992188 45.683594 C 216.261719 47.589844 212.039062 48.664062 207.566406 48.664062 L 202.597656 48.664062 L 202.597656 33.753906 L 207.566406 33.753906 C 214.429688 33.753906 219.992188 28.191406 219.992188 21.328125 L 219.992188 18.84375 L 234.898438 18.84375 L 234.898438 83.453125 L 252.292969 83.453125 L 252.292969 98.359375 L 202.597656 98.359375 Z M 202.597656 83.453125 " fill-opacity="1" fill-rule="nonzero"/></g><g clip-path="url(#cf9d73a79b)"><path fill="#112241" d="M 366.449219 21.582031 C 366.429688 21.367188 366.351562 21.125 366.214844 20.925781 C 366.144531 20.824219 366.058594 20.738281 365.964844 20.660156 C 365.871094 20.582031 365.777344 20.53125 365.679688 20.476562 L 365.601562 20.445312 L 365.429688 20.375 C 365.40625 20.367188 365.371094 20.359375 365.34375 20.359375 L 365.257812 20.339844 L 365.171875 20.324219 L 365.007812 20.304688 C 364.957031 20.304688 364.90625 20.304688 364.851562 20.304688 L 364.773438 20.304688 L 364.707031 20.316406 C 364.65625 20.316406 364.613281 20.324219 364.558594 20.324219 L 364.421875 20.339844 C 364.242188 20.367188 364.058594 20.410156 363.886719 20.453125 C 363.542969 20.546875 363.222656 20.660156 362.902344 20.789062 C 362.585938 20.917969 362.273438 21.046875 361.972656 21.195312 C 361.671875 21.332031 361.371094 21.480469 361.074219 21.632812 C 360.480469 21.9375 359.902344 22.253906 359.324219 22.582031 C 358.746094 22.910156 358.1875 23.246094 357.617188 23.589844 C 356.488281 24.273438 355.386719 24.980469 354.28125 25.695312 C 353.1875 26.410156 352.089844 27.136719 351.003906 27.875 L 349.382812 28.972656 L 348.574219 29.515625 C 348.304688 29.695312 348.03125 29.867188 347.761719 30.03125 C 347.691406 30.074219 347.632812 30.109375 347.5625 30.152344 L 347.46875 30.207031 C 347.441406 30.222656 347.410156 30.238281 347.382812 30.25 L 347.347656 30.265625 C 347.339844 30.265625 347.339844 30.273438 347.332031 30.273438 L 347.304688 30.28125 L 347.210938 30.324219 L 347.117188 30.359375 C 347.132812 30.28125 347.160156 30.195312 347.183594 30.109375 C 347.269531 29.824219 347.382812 29.53125 347.496094 29.230469 C 347.71875 28.628906 347.96875 28.007812 348.175781 27.34375 C 348.28125 27.007812 348.367188 26.660156 348.417969 26.273438 C 348.441406 26.074219 348.460938 25.875 348.441406 25.644531 C 348.425781 25.417969 348.390625 25.167969 348.261719 24.902344 C 348.226562 24.832031 348.191406 24.773438 348.148438 24.703125 L 348.117188 24.652344 L 348.097656 24.625 L 348.082031 24.609375 L 348.03125 24.539062 C 347.960938 24.453125 347.875 24.367188 347.789062 24.28125 C 347.605469 24.117188 347.375 23.96875 347.105469 23.882812 C 346.839844 23.796875 346.5625 23.78125 346.3125 23.816406 C 346.0625 23.839844 345.839844 23.910156 345.640625 23.996094 C 345.242188 24.167969 344.925781 24.382812 344.640625 24.617188 C 344.347656 24.851562 344.089844 25.089844 343.847656 25.339844 C 343.355469 25.84375 342.925781 26.367188 342.519531 26.902344 C 342.21875 27.300781 341.933594 27.695312 341.648438 28.09375 C 341.65625 28.066406 341.664062 28.03125 341.675781 28.007812 C 342.449219 25.523438 343.296875 23.054688 344.175781 20.609375 C 344.613281 19.382812 345.0625 18.160156 345.539062 16.941406 C 345.769531 16.339844 346.011719 15.734375 346.253906 15.132812 C 346.496094 14.535156 346.753906 13.941406 347.019531 13.363281 C 347.183594 13.019531 347.039062 12.605469 346.691406 12.441406 C 346.347656 12.269531 345.925781 12.414062 345.761719 12.761719 C 345.46875 13.363281 345.199219 13.976562 344.933594 14.582031 C 344.675781 15.191406 344.425781 15.796875 344.183594 16.410156 C 343.699219 17.632812 343.234375 18.855469 342.777344 20.089844 C 342.320312 21.324219 341.890625 22.566406 341.457031 23.808594 C 341.035156 25.046875 340.613281 26.300781 340.226562 27.558594 C 340.027344 28.1875 339.835938 28.816406 339.664062 29.464844 C 339.578125 29.78125 339.492188 30.109375 339.40625 30.4375 C 339.363281 30.601562 339.328125 30.773438 339.292969 30.945312 C 339.257812 31.121094 339.226562 31.292969 339.199219 31.5 C 339.191406 31.550781 339.191406 31.609375 339.183594 31.671875 C 339.183594 31.738281 339.171875 31.808594 339.191406 31.914062 L 339.199219 31.957031 C 339.199219 31.972656 339.199219 31.980469 339.207031 32.007812 C 339.214844 32.023438 339.214844 32.050781 339.226562 32.066406 C 339.234375 32.085938 339.242188 32.109375 339.25 32.144531 C 339.257812 32.179688 339.277344 32.207031 339.292969 32.238281 C 339.320312 32.285156 339.347656 32.328125 339.378906 32.371094 C 339.398438 32.445312 339.804688 32.714844 339.992188 32.664062 C 340.199219 32.652344 340.285156 32.59375 340.347656 32.578125 C 340.390625 32.550781 340.449219 32.515625 340.457031 32.507812 C 340.476562 32.488281 340.511719 32.464844 340.519531 32.457031 L 340.5625 32.421875 L 340.585938 32.394531 C 340.621094 32.359375 340.648438 32.335938 340.664062 32.308594 C 340.742188 32.214844 340.792969 32.136719 340.847656 32.058594 C 340.898438 31.980469 340.949219 31.914062 340.992188 31.84375 C 341.183594 31.558594 341.355469 31.28125 341.527344 31.007812 C 341.882812 30.457031 342.226562 29.910156 342.578125 29.378906 C 342.933594 28.84375 343.304688 28.316406 343.683594 27.808594 C 344.0625 27.300781 344.46875 26.816406 344.890625 26.375 C 345.105469 26.160156 345.320312 25.953125 345.546875 25.773438 C 345.769531 25.589844 345.996094 25.445312 346.203125 25.359375 C 346.304688 25.316406 346.398438 25.289062 346.476562 25.28125 C 346.554688 25.273438 346.605469 25.273438 346.648438 25.289062 C 346.691406 25.308594 346.746094 25.332031 346.804688 25.386719 C 346.832031 25.410156 346.863281 25.445312 346.898438 25.480469 L 346.925781 25.503906 L 346.933594 25.515625 C 346.933594 25.515625 346.941406 25.523438 346.941406 25.53125 C 346.960938 25.566406 346.976562 25.636719 346.984375 25.738281 C 346.996094 25.84375 346.984375 25.960938 346.96875 26.09375 C 346.933594 26.351562 346.863281 26.644531 346.777344 26.9375 C 346.605469 27.523438 346.375 28.128906 346.148438 28.746094 C 346.039062 29.058594 345.925781 29.378906 345.820312 29.722656 C 345.769531 29.894531 345.726562 30.074219 345.691406 30.28125 C 345.675781 30.386719 345.667969 30.5 345.65625 30.617188 C 345.65625 30.738281 345.65625 30.886719 345.710938 31.074219 C 345.71875 31.121094 345.746094 31.171875 345.761719 31.222656 C 345.777344 31.273438 345.8125 31.324219 345.847656 31.378906 C 345.882812 31.429688 345.925781 31.480469 345.96875 31.53125 C 346.011719 31.585938 346.070312 31.621094 346.125 31.664062 C 346.175781 31.695312 346.234375 31.722656 346.289062 31.75 C 346.347656 31.773438 346.390625 31.78125 346.453125 31.800781 C 346.476562 31.808594 346.503906 31.808594 346.527344 31.816406 L 346.597656 31.828125 C 346.648438 31.835938 346.683594 31.835938 346.726562 31.835938 C 346.8125 31.835938 346.875 31.828125 346.953125 31.828125 C 346.984375 31.816406 347.011719 31.816406 347.046875 31.808594 C 347.082031 31.800781 347.105469 31.800781 347.132812 31.792969 C 347.246094 31.765625 347.347656 31.730469 347.441406 31.695312 C 347.484375 31.679688 347.539062 31.664062 347.582031 31.644531 L 347.710938 31.59375 L 347.839844 31.53125 L 347.875 31.515625 C 347.882812 31.507812 347.890625 31.507812 347.910156 31.5 L 347.984375 31.464844 C 348.039062 31.4375 348.074219 31.414062 348.117188 31.394531 L 348.234375 31.324219 C 348.3125 31.28125 348.382812 31.230469 348.460938 31.1875 C 348.746094 31.007812 349.019531 30.816406 349.296875 30.636719 L 350.109375 30.074219 L 351.71875 28.953125 C 352.796875 28.214844 353.867188 27.464844 354.945312 26.730469 C 356.023438 25.996094 357.109375 25.28125 358.214844 24.582031 C 359.308594 23.894531 360.421875 23.21875 361.558594 22.609375 C 361.84375 22.453125 362.128906 22.304688 362.414062 22.167969 C 362.695312 22.03125 362.992188 21.890625 363.273438 21.773438 C 363.566406 21.652344 363.851562 21.539062 364.136719 21.453125 C 364.421875 21.359375 364.707031 21.296875 364.949219 21.28125 C 364.972656 21.28125 365 21.28125 365.035156 21.28125 L 365.101562 21.28125 C 365.113281 21.28125 365.128906 21.28125 365.136719 21.28125 C 365.144531 21.28125 365.15625 21.28125 365.164062 21.289062 C 365.171875 21.289062 365.179688 21.289062 365.1875 21.289062 L 365.230469 21.304688 C 365.335938 21.339844 365.414062 21.390625 365.472656 21.445312 C 365.535156 21.503906 365.578125 21.574219 365.613281 21.683594 C 365.644531 21.789062 365.65625 21.925781 365.65625 22.066406 C 365.644531 22.347656 365.59375 22.660156 365.515625 22.96875 C 365.4375 23.28125 365.351562 23.589844 365.257812 23.917969 C 365.25 23.945312 365.257812 23.96875 365.285156 23.988281 C 365.308594 24.015625 365.351562 24.003906 365.378906 23.980469 C 365.585938 23.71875 365.785156 23.445312 365.949219 23.144531 C 366.113281 22.839844 366.265625 22.53125 366.34375 22.160156 C 366.441406 21.996094 366.472656 21.796875 366.449219 21.582031 Z M 366.449219 21.582031 " fill-opacity="1" fill-rule="nonzero"/></g><g clip-path="url(#97f4195603)"><path fill="#112241" d="M 345.320312 10.835938 C 346.734375 10.699219 348.160156 10.597656 349.574219 10.542969 C 350.988281 10.5 352.402344 10.484375 353.796875 10.570312 C 354.496094 10.613281 355.1875 10.683594 355.867188 10.820312 C 356.203125 10.890625 356.539062 10.976562 356.859375 11.097656 C 357.179688 11.21875 357.488281 11.371094 357.773438 11.589844 C 357.800781 11.605469 357.832031 11.605469 357.859375 11.589844 C 357.894531 11.5625 357.894531 11.519531 357.875 11.492188 C 357.660156 11.191406 357.367188 10.941406 357.050781 10.742188 C 356.730469 10.535156 356.394531 10.378906 356.046875 10.242188 C 355.351562 9.976562 354.632812 9.804688 353.910156 9.691406 C 352.460938 9.449219 351.003906 9.414062 349.554688 9.441406 C 348.105469 9.476562 346.667969 9.5625 345.234375 9.683594 C 344.035156 9.785156 342.839844 9.90625 341.648438 10.042969 C 341.691406 9.707031 341.492188 9.371094 341.15625 9.269531 C 340.777344 9.148438 340.378906 9.363281 340.261719 9.734375 C 340.207031 9.898438 340.15625 10.0625 340.105469 10.226562 C 337.535156 10.554688 334.972656 10.933594 332.414062 11.328125 L 330.621094 11.605469 C 330.542969 11.578125 330.464844 11.5625 330.386719 11.535156 C 329.628906 11.347656 328.859375 11.242188 328.09375 11.226562 C 327.324219 11.207031 326.558594 11.277344 325.789062 11.441406 C 325.410156 11.527344 325.03125 11.632812 324.652344 11.785156 C 324.460938 11.863281 324.273438 11.949219 324.082031 12.054688 C 323.988281 12.105469 323.894531 12.164062 323.789062 12.242188 C 323.738281 12.285156 323.679688 12.328125 323.601562 12.40625 C 323.566406 12.441406 323.515625 12.492188 323.460938 12.589844 C 323.4375 12.632812 323.402344 12.699219 323.375 12.785156 C 323.359375 12.839844 323.351562 12.882812 323.339844 12.949219 C 323.332031 13.011719 323.339844 13.078125 323.359375 13.148438 C 323.375 13.21875 323.394531 13.285156 323.429688 13.347656 C 323.453125 13.40625 323.496094 13.449219 323.53125 13.503906 C 323.566406 13.535156 323.601562 13.570312 323.632812 13.597656 C 323.660156 13.621094 323.695312 13.640625 323.722656 13.65625 C 323.746094 13.675781 323.773438 13.683594 323.789062 13.699219 C 323.808594 13.710938 323.832031 13.71875 323.851562 13.726562 C 323.875 13.734375 323.886719 13.734375 323.902344 13.742188 C 323.917969 13.753906 323.9375 13.753906 323.945312 13.761719 C 324.058594 13.796875 324.125 13.804688 324.203125 13.804688 C 324.34375 13.820312 324.445312 13.820312 324.546875 13.8125 C 324.753906 13.8125 324.945312 13.796875 325.136719 13.777344 C 325.507812 13.742188 325.867188 13.699219 326.230469 13.648438 C 326.953125 13.554688 327.660156 13.441406 328.367188 13.328125 C 329.007812 13.226562 329.652344 13.121094 330.292969 13.019531 C 330.816406 13.183594 331.328125 13.40625 331.792969 13.691406 C 332.34375 14.027344 332.84375 14.433594 333.273438 14.917969 C 333.707031 15.398438 334.070312 15.941406 334.363281 16.527344 C 334.957031 17.703125 335.265625 19.039062 335.40625 20.390625 C 335.542969 21.753906 335.5 23.144531 335.363281 24.53125 C 335.292969 25.222656 335.199219 25.917969 335.078125 26.609375 C 334.734375 27.746094 334.394531 28.886719 334.058594 30.03125 C 333.722656 31.164062 333.394531 32.292969 333.066406 33.429688 C 332.90625 34 332.742188 34.570312 332.585938 35.136719 C 332.507812 35.421875 332.429688 35.707031 332.351562 36 C 332.316406 36.144531 332.273438 36.292969 332.242188 36.441406 L 332.214844 36.550781 L 332.1875 36.664062 L 332.136719 36.898438 C 332.050781 37.265625 332.25 37.65625 332.621094 37.792969 C 333.015625 37.941406 333.464844 37.742188 333.613281 37.34375 L 333.621094 37.335938 C 334.636719 34.628906 335.527344 31.871094 336.15625 29.023438 C 336.292969 28.421875 336.414062 27.808594 336.515625 27.195312 C 336.863281 26.03125 337.207031 24.875 337.550781 23.710938 L 341.261719 11.328125 C 342.613281 11.132812 343.96875 10.96875 345.320312 10.835938 Z M 338.15625 16.496094 C 337.742188 17.839844 337.335938 19.175781 336.921875 20.519531 C 336.914062 20.425781 336.90625 20.332031 336.898438 20.238281 C 336.820312 19.496094 336.691406 18.746094 336.5 18.011719 C 336.300781 17.277344 336.042969 16.554688 335.691406 15.863281 C 335.335938 15.175781 334.894531 14.519531 334.371094 13.933594 C 333.90625 13.425781 333.378906 12.976562 332.792969 12.605469 C 335.09375 12.21875 337.386719 11.847656 339.699219 11.527344 C 339.171875 13.175781 338.65625 14.832031 338.15625 16.496094 Z M 338.15625 16.496094 " fill-opacity="1" fill-rule="nonzero"/></g><g fill="#dfac40" fill-opacity="1"><g transform="translate(247.561281, 93.58063)"><g><path d="M 29.0625 0.21875 C 25.4375 0.21875 22.015625 -0.46875 18.796875 -1.84375 C 15.578125 -3.226562 12.757812 -5.140625 10.34375 -7.578125 C 7.925781 -10.023438 6.023438 -12.84375 4.640625 -16.03125 C 3.253906 -19.226562 2.5625 -22.664062 2.5625 -26.34375 C 2.5625 -29.96875 3.253906 -33.390625 4.640625 -36.609375 C 6.023438 -39.828125 7.925781 -42.644531 10.34375 -45.0625 C 12.757812 -47.476562 15.578125 -49.378906 18.796875 -50.765625 C 22.015625 -52.148438 25.4375 -52.84375 29.0625 -52.84375 C 32.738281 -52.84375 36.171875 -52.148438 39.359375 -50.765625 C 42.554688 -49.378906 45.375 -47.476562 47.8125 -45.0625 C 50.257812 -42.644531 52.171875 -39.828125 53.546875 -36.609375 C 54.929688 -33.390625 55.625 -29.96875 55.625 -26.34375 C 55.625 -22.664062 54.929688 -19.226562 53.546875 -16.03125 C 52.171875 -12.84375 50.257812 -10.023438 47.8125 -7.578125 C 45.375 -5.140625 42.554688 -3.226562 39.359375 -1.84375 C 36.171875 -0.46875 32.738281 0.21875 29.0625 0.21875 Z M 29.0625 -0.21875 C 31.832031 -0.21875 34.421875 -0.894531 36.828125 -2.25 C 39.242188 -3.613281 41.367188 -5.488281 43.203125 -7.875 C 45.046875 -10.269531 46.484375 -13.039062 47.515625 -16.1875 C 48.546875 -19.332031 49.0625 -22.71875 49.0625 -26.34375 C 49.0625 -29.914062 48.546875 -33.285156 47.515625 -36.453125 C 46.484375 -39.628906 45.046875 -42.410156 43.203125 -44.796875 C 41.367188 -47.191406 39.242188 -49.066406 36.828125 -50.421875 C 34.421875 -51.785156 31.832031 -52.46875 29.0625 -52.46875 C 26.34375 -52.46875 23.773438 -51.785156 21.359375 -50.421875 C 18.941406 -49.066406 16.816406 -47.191406 14.984375 -44.796875 C 13.148438 -42.410156 11.703125 -39.628906 10.640625 -36.453125 C 9.585938 -33.285156 9.0625 -29.914062 9.0625 -26.34375 C 9.0625 -22.71875 9.585938 -19.332031 10.640625 -16.1875 C 11.703125 -13.039062 13.148438 -10.269531 14.984375 -7.875 C 16.816406 -5.488281 18.941406 -3.613281 21.359375 -2.25 C 23.773438 -0.894531 26.34375 -0.21875 29.0625 -0.21875 Z M 29.0625 -0.21875 "/></g></g></g><g fill="#dfac40" fill-opacity="1"><g transform="translate(282.01399, 93.583711)"><g><path d="M 29.0625 0.21875 C 25.4375 0.21875 22.015625 -0.46875 18.796875 -1.84375 C 15.578125 -3.226562 12.757812 -5.140625 10.34375 -7.578125 C 7.925781 -10.023438 6.023438 -12.84375 4.640625 -16.03125 C 3.253906 -19.226562 2.5625 -22.664062 2.5625 -26.34375 C 2.5625 -29.96875 3.253906 -33.390625 4.640625 -36.609375 C 6.023438 -39.828125 7.925781 -42.644531 10.34375 -45.0625 C 12.757812 -47.476562 15.578125 -49.378906 18.796875 -50.765625 C 22.015625 -52.148438 25.4375 -52.84375 29.0625 -52.84375 C 32.738281 -52.84375 36.171875 -52.148438 39.359375 -50.765625 C 42.554688 -49.378906 45.375 -47.476562 47.8125 -45.0625 C 50.257812 -42.644531 52.171875 -39.828125 53.546875 -36.609375 C 54.929688 -33.390625 55.625 -29.96875 55.625 -26.34375 C 55.625 -22.664062 54.929688 -19.226562 53.546875 -16.03125 C 52.171875 -12.84375 50.257812 -10.023438 47.8125 -7.578125 C 45.375 -5.140625 42.554688 -3.226562 39.359375 -1.84375 C 36.171875 -0.46875 32.738281 0.21875 29.0625 0.21875 Z M 29.0625 -0.21875 C 31.832031 -0.21875 34.421875 -0.894531 36.828125 -2.25 C 39.242188 -3.613281 41.367188 -5.488281 43.203125 -7.875 C 45.046875 -10.269531 46.484375 -13.039062 47.515625 -16.1875 C 48.546875 -19.332031 49.0625 -22.71875 49.0625 -26.34375 C 49.0625 -29.914062 48.546875 -33.285156 47.515625 -36.453125 C 46.484375 -39.628906 45.046875 -42.410156 43.203125 -44.796875 C 41.367188 -47.191406 39.242188 -49.066406 36.828125 -50.421875 C 34.421875 -51.785156 31.832031 -52.46875 29.0625 -52.46875 C 26.34375 -52.46875 23.773438 -51.785156 21.359375 -50.421875 C 18.941406 -49.066406 16.816406 -47.191406 14.984375 -44.796875 C 13.148438 -42.410156 11.703125 -39.628906 10.640625 -36.453125 C 9.585938 -33.285156 9.0625 -29.914062 9.0625 -26.34375 C 9.0625 -22.71875 9.585938 -19.332031 10.640625 -16.1875 C 11.703125 -13.039062 13.148438 -10.269531 14.984375 -7.875 C 16.816406 -5.488281 18.941406 -3.613281 21.359375 -2.25 C 23.773438 -0.894531 26.34375 -0.21875 29.0625 -0.21875 Z M 29.0625 -0.21875 "/></g></g></g><g clip-path="url(#887e982dea)"><path fill="#dfac40" d="M 257.035156 136.585938 L 257.035156 238.324219 L 117.8125 238.324219 L 117.8125 136.585938 Z M 262.414062 131.214844 L 112.40625 131.214844 L 112.40625 243.753906 L 262.414062 243.753906 Z M 133.875 222.261719 L 240.96875 222.261719 L 217.261719 160.6875 L 187.410156 199.988281 L 167.511719 180.339844 Z M 147.207031 163.363281 C 142.765625 163.363281 139.175781 166.96875 139.175781 171.425781 C 139.175781 175.878906 142.769531 179.484375 147.207031 179.484375 C 151.640625 179.484375 155.234375 175.878906 155.234375 171.425781 C 155.234375 166.96875 151.640625 163.363281 147.207031 163.363281 Z M 147.207031 163.363281 " fill-opacity="1" fill-rule="nonzero"/></g><path fill="#2f4582" d="M 135.890625 154.496094 C 140.539062 155.871094 145.425781 153.222656 146.804688 148.574219 L 147.011719 147.867188 C 148.390625 143.21875 145.738281 138.332031 141.089844 136.953125 C 136.441406 135.578125 131.554688 138.226562 130.179688 142.875 L 129.96875 143.582031 C 128.589844 148.230469 131.242188 153.117188 135.890625 154.496094 " fill-opacity="1" fill-rule="nonzero"/><g clip-path="url(#76a5f2cd93)"><path fill="#2f4582" d="M 154.410156 93.492188 C 146.328125 91.09375 140.84375 92.128906 137.0625 95.054688 C 132.347656 98.703125 133.789062 106.167969 139.5 107.863281 L 139.921875 107.988281 C 142.945312 108.886719 146.121094 107.625 147.894531 105.019531 C 148.445312 104.210938 149.054688 103.886719 149.820312 104.117188 C 151.144531 104.507812 151.4375 105.457031 150.707031 107.925781 C 149.816406 110.921875 148.5625 112.566406 145.410156 114.792969 C 139.636719 118.738281 136.425781 121.8125 134.648438 127.804688 L 134.203125 129.304688 C 133.957031 130.132812 134.429688 131.003906 135.257812 131.246094 L 149.09375 135.351562 C 149.921875 135.597656 150.792969 135.125 151.035156 134.296875 C 151.847656 131.566406 153.125 129.835938 157.746094 126.21875 C 162.910156 122.378906 165.847656 120.566406 167.753906 114.132812 C 170.210938 105.847656 167.984375 97.515625 154.410156 93.492188 " fill-opacity="1" fill-rule="nonzero"/></g><path fill="#2f4582" d="M 110.269531 137.820312 C 114.0625 137.839844 117.152344 134.78125 117.171875 130.988281 L 117.175781 130.414062 C 117.195312 126.621094 114.136719 123.53125 110.34375 123.507812 C 106.550781 123.488281 103.460938 126.546875 103.441406 130.339844 L 103.4375 130.917969 C 103.417969 134.710938 106.476562 137.800781 110.269531 137.820312 " fill-opacity="1" fill-rule="nonzero"/><g clip-path="url(#a0b7e8e1ef)"><path fill="#2f4582" d="M 110.855469 87.953125 C 104.261719 87.917969 100.367188 89.894531 98.164062 92.917969 C 95.421875 96.6875 98.132812 101.980469 102.796875 102.003906 L 103.140625 102.007812 C 105.605469 102.019531 107.714844 100.378906 108.480469 98.035156 C 108.714844 97.308594 109.101562 96.933594 109.730469 96.9375 C 110.808594 96.941406 111.238281 97.589844 111.226562 99.605469 C 111.210938 102.050781 110.628906 103.558594 108.746094 105.921875 C 105.273438 110.144531 103.53125 113.15625 103.507812 118.046875 L 103.5 119.269531 C 103.496094 119.945312 104.039062 120.492188 104.714844 120.496094 L 116.003906 120.554688 C 116.679688 120.558594 117.230469 120.015625 117.234375 119.339844 C 117.246094 117.109375 117.832031 115.53125 120.511719 111.808594 C 123.550781 107.796875 125.359375 105.792969 125.386719 100.542969 C 125.421875 93.78125 121.929688 88.011719 110.855469 87.953125 " fill-opacity="1" fill-rule="nonzero"/></g><g clip-path="url(#fb54de61dc)"><path fill="#2f4582" d="M 94.351562 172.835938 C 97.28125 171.917969 98.917969 168.796875 98 165.867188 L 97.863281 165.421875 C 96.945312 162.488281 93.824219 160.855469 90.894531 161.769531 C 87.960938 162.6875 86.324219 165.808594 87.242188 168.738281 L 87.378906 169.183594 C 88.296875 172.117188 91.417969 173.75 94.351562 172.835938 " fill-opacity="1" fill-rule="nonzero"/></g><path fill="#2f4582" d="M 82.550781 134.195312 C 77.453125 135.789062 74.933594 138.269531 73.976562 141.148438 C 72.785156 144.730469 76.179688 148.152344 79.78125 147.023438 L 80.050781 146.941406 C 81.957031 146.347656 83.183594 144.5625 83.195312 142.5625 C 83.199219 141.945312 83.40625 141.558594 83.890625 141.410156 C 84.722656 141.148438 85.214844 141.542969 85.699219 143.101562 C 86.292969 144.992188 86.210938 146.296875 85.339844 148.585938 C 83.695312 152.699219 83.089844 155.453125 84.273438 159.230469 L 84.566406 160.175781 C 84.730469 160.699219 85.285156 160.992188 85.808594 160.828125 L 94.535156 158.101562 C 95.058594 157.9375 95.351562 157.382812 95.1875 156.859375 C 94.648438 155.136719 94.710938 153.773438 95.867188 150.238281 C 97.226562 146.394531 98.132812 144.40625 96.863281 140.34375 C 95.230469 135.117188 91.117188 131.523438 82.550781 134.195312 " fill-opacity="1" fill-rule="nonzero"/><g fill="#333365" fill-opacity="1"><g transform="translate(16.136722, 318.406328)"><g><path d="M 33.328125 -29.5625 C 32.617188 -29.5625 32.003906 -29.3125 31.484375 -28.8125 C 30.972656 -28.3125 30.703125 -27.703125 30.671875 -26.984375 L 30.671875 -4.890625 C 30.671875 -3.234375 30.769531 -1.660156 30.96875 -0.171875 L 31.0625 0.59375 L 30.671875 0.59375 L 7.328125 -24.328125 L 7.328125 -3 C 7.359375 -2 7.800781 -1.253906 8.65625 -0.765625 C 9.050781 -0.535156 9.476562 -0.421875 9.9375 -0.421875 L 10.75 -0.421875 L 10.75 0 L 1.921875 0 L 1.921875 -0.421875 L 2.734375 -0.421875 C 3.453125 -0.421875 4.066406 -0.671875 4.578125 -1.171875 C 5.097656 -1.671875 5.359375 -2.296875 5.359375 -3.046875 L 5.359375 -25.28125 C 5.359375 -27.019531 5.257812 -28.578125 5.0625 -29.953125 L 4.96875 -30.640625 L 5.390625 -30.640625 L 28.75 -5.703125 L 28.75 -26.953125 C 28.71875 -27.691406 28.441406 -28.3125 27.921875 -28.8125 C 27.410156 -29.3125 26.800781 -29.5625 26.09375 -29.5625 L 25.28125 -29.5625 L 25.28125 -29.984375 L 34.109375 -29.984375 L 34.109375 -29.5625 Z M 33.328125 -29.5625 "/></g></g></g><g fill="#333365" fill-opacity="1"><g transform="translate(52.168374, 318.406328)"><g><path d="M 7.265625 -26.28125 C 10.109375 -29.15625 13.8125 -30.59375 18.375 -30.59375 C 22.945312 -30.59375 26.660156 -29.15625 29.515625 -26.28125 C 32.367188 -23.414062 33.796875 -19.65625 33.796875 -15 C 33.796875 -10.34375 32.367188 -6.578125 29.515625 -3.703125 C 26.660156 -0.835938 22.945312 0.59375 18.375 0.59375 C 13.8125 0.59375 10.109375 -0.835938 7.265625 -3.703125 C 4.421875 -6.578125 3 -10.34375 3 -15 C 3 -19.65625 4.421875 -23.414062 7.265625 -26.28125 Z M 9.609375 -4.625 C 11.828125 -2 14.753906 -0.6875 18.390625 -0.6875 C 22.035156 -0.6875 24.960938 -2 27.171875 -4.625 C 29.390625 -7.25 30.5 -10.707031 30.5 -15 C 30.5 -17.820312 30 -20.316406 29 -22.484375 C 28 -24.660156 26.578125 -26.34375 24.734375 -27.53125 C 22.898438 -28.71875 20.78125 -29.3125 18.375 -29.3125 C 14.75 -29.3125 11.828125 -27.992188 9.609375 -25.359375 C 7.398438 -22.734375 6.296875 -19.273438 6.296875 -14.984375 C 6.296875 -10.703125 7.398438 -7.25 9.609375 -4.625 Z M 9.609375 -4.625 "/></g></g></g><g fill="#333365" fill-opacity="1"><g transform="translate(88.071497, 318.406328)"><g/></g></g><g fill="#333365" fill-opacity="1"><g transform="translate(98.782457, 318.406328)"><g><path d="M 3.125 -0.421875 C 3.863281 -0.421875 4.5 -0.6875 5.03125 -1.21875 C 5.5625 -1.75 5.84375 -2.382812 5.875 -3.125 L 5.875 -26.90625 C 5.84375 -27.644531 5.5625 -28.269531 5.03125 -28.78125 C 4.5 -29.300781 3.863281 -29.5625 3.125 -29.5625 L 2.578125 -29.5625 L 2.578125 -29.984375 L 11.953125 -29.984375 L 11.953125 -29.5625 L 11.390625 -29.5625 C 10.648438 -29.5625 10.015625 -29.300781 9.484375 -28.78125 C 8.960938 -28.269531 8.6875 -27.644531 8.65625 -26.90625 L 8.65625 -3.125 C 8.65625 -2.382812 8.925781 -1.75 9.46875 -1.21875 C 10.007812 -0.6875 10.648438 -0.421875 11.390625 -0.421875 L 11.953125 -0.421875 L 11.953125 0 L 2.578125 0 L 2.578125 -0.421875 Z M 3.125 -0.421875 "/></g></g></g><g fill="#333365" fill-opacity="1"><g transform="translate(113.263673, 318.406328)"><g><path d="M 25.234375 -26.171875 C 25.234375 -26.859375 24.988281 -27.453125 24.5 -27.953125 C 24.019531 -28.453125 23.453125 -28.71875 22.796875 -28.75 L 14.65625 -28.75 L 14.65625 -3.078125 C 14.6875 -2.335938 14.960938 -1.707031 15.484375 -1.1875 C 16.015625 -0.675781 16.648438 -0.421875 17.390625 -0.421875 L 17.953125 -0.421875 L 17.953125 0 L 8.5625 0 L 8.5625 -0.421875 L 9.125 -0.421875 C 9.863281 -0.421875 10.5 -0.675781 11.03125 -1.1875 C 11.5625 -1.707031 11.84375 -2.328125 11.875 -3.046875 L 11.875 -28.75 L 3.734375 -28.75 C 3.046875 -28.71875 2.460938 -28.453125 1.984375 -27.953125 C 1.515625 -27.453125 1.28125 -26.859375 1.28125 -26.171875 L 1.28125 -25.453125 L 0.859375 -25.40625 L 0.859375 -30.8125 C 1.285156 -30.632812 2.023438 -30.457031 3.078125 -30.28125 C 4.140625 -30.113281 5.113281 -30.03125 6 -30.03125 L 20.484375 -30.03125 C 21.878906 -30.03125 23.039062 -30.132812 23.96875 -30.34375 C 24.894531 -30.5625 25.457031 -30.71875 25.65625 -30.8125 L 25.65625 -25.40625 L 25.234375 -25.453125 Z M 25.234375 -26.171875 "/></g></g></g><g fill="#333365" fill-opacity="1"><g transform="translate(139.741157, 318.406328)"><g><path d="M 3.125 -0.421875 C 3.863281 -0.421875 4.5 -0.6875 5.03125 -1.21875 C 5.5625 -1.75 5.84375 -2.382812 5.875 -3.125 L 5.875 -27.125 C 5.78125 -27.800781 5.476562 -28.375 4.96875 -28.84375 C 4.457031 -29.320312 3.84375 -29.5625 3.125 -29.5625 L 2.609375 -29.5625 L 2.578125 -29.984375 L 15.125 -29.984375 C 16.007812 -29.984375 16.972656 -30.066406 18.015625 -30.234375 C 19.054688 -30.410156 19.789062 -30.585938 20.21875 -30.765625 L 20.21875 -25.359375 L 19.796875 -25.359375 L 19.796875 -26.140625 C 19.796875 -26.816406 19.554688 -27.398438 19.078125 -27.890625 C 18.609375 -28.378906 18.046875 -28.632812 17.390625 -28.65625 L 8.65625 -28.65625 L 8.65625 -15.421875 L 15.890625 -15.421875 C 16.460938 -15.453125 16.945312 -15.664062 17.34375 -16.0625 C 17.75 -16.46875 17.953125 -16.96875 17.953125 -17.5625 L 17.953125 -18.171875 L 18.375 -18.171875 L 18.375 -11.390625 L 17.953125 -11.390625 L 17.953125 -12.046875 C 17.953125 -12.609375 17.757812 -13.085938 17.375 -13.484375 C 16.988281 -13.890625 16.507812 -14.109375 15.9375 -14.140625 L 8.65625 -14.140625 L 8.65625 -1.328125 L 14.78125 -1.328125 C 16.894531 -1.328125 18.507812 -1.796875 19.625 -2.734375 C 20.738281 -3.679688 21.664062 -5.082031 22.40625 -6.9375 L 22.828125 -6.9375 L 20.34375 0 L 2.578125 0 L 2.578125 -0.421875 Z M 3.125 -0.421875 "/></g></g></g><g fill="#333365" fill-opacity="1"><g transform="translate(164.462042, 318.406328)"><g><path d="M 38.5625 -0.421875 L 39.25 -0.421875 L 39.25 0 L 29.953125 0 L 29.953125 -0.390625 L 30.59375 -0.390625 C 31.070312 -0.390625 31.484375 -0.582031 31.828125 -0.96875 C 32.171875 -1.351562 32.316406 -1.773438 32.265625 -2.234375 L 30.328125 -23.78125 L 21.34375 -3.765625 C 20.539062 -2.023438 20.050781 -0.570312 19.875 0.59375 L 19.453125 0.59375 L 8.484375 -23.171875 L 6.640625 -2.234375 C 6.585938 -1.773438 6.726562 -1.351562 7.0625 -0.96875 C 7.40625 -0.582031 7.804688 -0.390625 8.265625 -0.390625 L 8.953125 -0.390625 L 8.953125 0 L 0.640625 0 L 0.640625 -0.421875 L 1.328125 -0.421875 C 2.128906 -0.421875 2.820312 -0.664062 3.40625 -1.15625 C 3.988281 -1.644531 4.335938 -2.300781 4.453125 -3.125 L 7.671875 -30.59375 L 8.09375 -30.59375 L 20.046875 -4.75 L 31.75 -30.59375 L 32.140625 -30.59375 L 35.4375 -3.125 C 35.570312 -1.976562 36.140625 -1.179688 37.140625 -0.734375 C 37.566406 -0.523438 38.039062 -0.421875 38.5625 -0.421875 Z M 38.5625 -0.421875 "/></g></g></g><g fill="#333365" fill-opacity="1"><g transform="translate(204.349631, 318.406328)"><g/></g></g><g fill="#333365" fill-opacity="1"><g transform="translate(215.060591, 318.406328)"><g><path d="M 3.125 -0.421875 C 3.863281 -0.421875 4.5 -0.6875 5.03125 -1.21875 C 5.5625 -1.75 5.84375 -2.382812 5.875 -3.125 L 5.875 -26.90625 C 5.84375 -27.644531 5.5625 -28.269531 5.03125 -28.78125 C 4.5 -29.300781 3.863281 -29.5625 3.125 -29.5625 L 2.578125 -29.5625 L 2.578125 -29.984375 L 11.953125 -29.984375 L 11.953125 -29.5625 L 11.390625 -29.5625 C 10.648438 -29.5625 10.015625 -29.300781 9.484375 -28.78125 C 8.960938 -28.269531 8.6875 -27.644531 8.65625 -26.90625 L 8.65625 -3.125 C 8.65625 -2.382812 8.925781 -1.75 9.46875 -1.21875 C 10.007812 -0.6875 10.648438 -0.421875 11.390625 -0.421875 L 11.953125 -0.421875 L 11.953125 0 L 2.578125 0 L 2.578125 -0.421875 Z M 3.125 -0.421875 "/></g></g></g><g fill="#333365" fill-opacity="1"><g transform="translate(229.541806, 318.406328)"><g><path d="M 38.5625 -0.421875 L 39.25 -0.421875 L 39.25 0 L 29.953125 0 L 29.953125 -0.390625 L 30.59375 -0.390625 C 31.070312 -0.390625 31.484375 -0.582031 31.828125 -0.96875 C 32.171875 -1.351562 32.316406 -1.773438 32.265625 -2.234375 L 30.328125 -23.78125 L 21.34375 -3.765625 C 20.539062 -2.023438 20.050781 -0.570312 19.875 0.59375 L 19.453125 0.59375 L 8.484375 -23.171875 L 6.640625 -2.234375 C 6.585938 -1.773438 6.726562 -1.351562 7.0625 -0.96875 C 7.40625 -0.582031 7.804688 -0.390625 8.265625 -0.390625 L 8.953125 -0.390625 L 8.953125 0 L 0.640625 0 L 0.640625 -0.421875 L 1.328125 -0.421875 C 2.128906 -0.421875 2.820312 -0.664062 3.40625 -1.15625 C 3.988281 -1.644531 4.335938 -2.300781 4.453125 -3.125 L 7.671875 -30.59375 L 8.09375 -30.59375 L 20.046875 -4.75 L 31.75 -30.59375 L 32.140625 -30.59375 L 35.4375 -3.125 C 35.570312 -1.976562 36.140625 -1.179688 37.140625 -0.734375 C 37.566406 -0.523438 38.039062 -0.421875 38.5625 -0.421875 Z M 38.5625 -0.421875 "/></g></g></g><g fill="#333365" fill-opacity="1"><g transform="translate(269.429385, 318.406328)"><g><path d="M 30.6875 -0.421875 L 31.015625 -0.421875 L 31.015625 0 L 21.390625 0 L 21.390625 -0.421875 L 21.765625 -0.421875 C 22.367188 -0.421875 22.816406 -0.613281 23.109375 -1 C 23.410156 -1.382812 23.5625 -1.75 23.5625 -2.09375 C 23.5625 -2.4375 23.503906 -2.78125 23.390625 -3.125 L 20.65625 -10.40625 L 9.09375 -10.40625 L 6.21875 -3.078125 C 6.101562 -2.742188 6.046875 -2.410156 6.046875 -2.078125 C 6.046875 -1.742188 6.191406 -1.382812 6.484375 -1 C 6.785156 -0.613281 7.238281 -0.421875 7.84375 -0.421875 L 8.234375 -0.421875 L 8.234375 0 L -0.375 0 L -0.375 -0.421875 L 0 -0.421875 C 0.71875 -0.421875 1.414062 -0.648438 2.09375 -1.109375 C 2.78125 -1.566406 3.34375 -2.238281 3.78125 -3.125 L 13.453125 -26.171875 C 14.515625 -28.484375 15.046875 -29.957031 15.046875 -30.59375 L 15.421875 -30.59375 L 26.90625 -3.125 C 27.3125 -2.238281 27.851562 -1.566406 28.53125 -1.109375 C 29.21875 -0.648438 29.9375 -0.421875 30.6875 -0.421875 Z M 9.59375 -11.703125 L 20.140625 -11.703125 L 15 -25.453125 Z M 9.59375 -11.703125 "/></g></g></g><g fill="#333365" fill-opacity="1"><g transform="translate(299.934181, 318.406328)"><g><path d="M 17.953125 0.59375 C 13.378906 0.570312 9.671875 -0.863281 6.828125 -3.71875 C 3.992188 -6.582031 2.578125 -10.34375 2.578125 -15 C 2.578125 -19.65625 3.992188 -23.414062 6.828125 -26.28125 C 9.671875 -29.15625 13.378906 -30.59375 17.953125 -30.59375 C 21.890625 -30.59375 25.359375 -29.617188 28.359375 -27.671875 L 29.21875 -21.640625 L 28.828125 -21.640625 C 28.203125 -24.097656 26.9375 -25.988281 25.03125 -27.3125 C 23.132812 -28.644531 20.773438 -29.3125 17.953125 -29.3125 C 14.328125 -29.3125 11.390625 -27.992188 9.140625 -25.359375 C 6.898438 -22.734375 5.78125 -19.273438 5.78125 -14.984375 C 5.78125 -10.703125 6.898438 -7.253906 9.140625 -4.640625 C 11.390625 -2.035156 14.328125 -0.71875 17.953125 -0.6875 C 19.804688 -0.6875 21.566406 -1.015625 23.234375 -1.671875 C 24.910156 -2.328125 26.378906 -3.238281 27.640625 -4.40625 L 27.640625 -12 C 27.640625 -12.625 27.445312 -13.097656 27.0625 -13.421875 C 26.675781 -13.753906 26.140625 -13.921875 25.453125 -13.921875 L 24.765625 -13.921875 L 24.765625 -14.359375 L 33.15625 -14.359375 L 33.15625 -13.921875 L 32.515625 -13.921875 C 31.804688 -13.921875 31.265625 -13.753906 30.890625 -13.421875 C 30.515625 -13.097656 30.34375 -12.625 30.375 -12 L 30.375 -4.921875 C 29.632812 -3.953125 28.75 -3.082031 27.71875 -2.3125 C 26.6875 -1.539062 25.304688 -0.863281 23.578125 -0.28125 C 21.859375 0.300781 19.984375 0.59375 17.953125 0.59375 Z M 17.953125 0.59375 "/></g></g></g><g fill="#333365" fill-opacity="1"><g transform="translate(334.123564, 318.406328)"><g><path d="M 3.125 -0.421875 C 3.863281 -0.421875 4.5 -0.6875 5.03125 -1.21875 C 5.5625 -1.75 5.84375 -2.382812 5.875 -3.125 L 5.875 -27.125 C 5.78125 -27.800781 5.476562 -28.375 4.96875 -28.84375 C 4.457031 -29.320312 3.84375 -29.5625 3.125 -29.5625 L 2.609375 -29.5625 L 2.578125 -29.984375 L 15.125 -29.984375 C 16.007812 -29.984375 16.972656 -30.066406 18.015625 -30.234375 C 19.054688 -30.410156 19.789062 -30.585938 20.21875 -30.765625 L 20.21875 -25.359375 L 19.796875 -25.359375 L 19.796875 -26.140625 C 19.796875 -26.816406 19.554688 -27.398438 19.078125 -27.890625 C 18.609375 -28.378906 18.046875 -28.632812 17.390625 -28.65625 L 8.65625 -28.65625 L 8.65625 -15.421875 L 15.890625 -15.421875 C 16.460938 -15.453125 16.945312 -15.664062 17.34375 -16.0625 C 17.75 -16.46875 17.953125 -16.96875 17.953125 -17.5625 L 17.953125 -18.171875 L 18.375 -18.171875 L 18.375 -11.390625 L 17.953125 -11.390625 L 17.953125 -12.046875 C 17.953125 -12.609375 17.757812 -13.085938 17.375 -13.484375 C 16.988281 -13.890625 16.507812 -14.109375 15.9375 -14.140625 L 8.65625 -14.140625 L 8.65625 -1.328125 L 14.78125 -1.328125 C 16.894531 -1.328125 18.507812 -1.796875 19.625 -2.734375 C 20.738281 -3.679688 21.664062 -5.082031 22.40625 -6.9375 L 22.828125 -6.9375 L 20.34375 0 L 2.578125 0 L 2.578125 -0.421875 Z M 3.125 -0.421875 "/></g></g></g></svg>